<svg width="24" height="24" viewBox="0 0 24 24" fill="none" xmlns="http://www.w3.org/2000/svg">
<path d="M10.5 3h3v2.1a7.1 7.1 0 012.6 1.1l1.5-1.5 2.1 2.1-1.5 1.5a7.1 7.1 0 011.1 2.6H21v3h-2.1a7.1 7.1 0 01-1.1 2.6l1.5 1.5-2.1 2.1-1.5-1.5a7.1 7.1 0 01-2.6 1.1V21h-3v-2.1a7.1 7.1 0 01-2.6-1.1L6.7 19.3l-2.1-2.1 1.5-1.5a7.1 7.1 0 01-1.1-2.6H3v-3h2.1a7.1 7.1 0 011.1-2.6L4.6 6l2.1-2.1 1.5 1.5A7.1 7.1 0 0110.5 3z" stroke="currentColor" stroke-width="1.5" stroke-linejoin="round"/>
<circle cx="12" cy="12" r="3" stroke="currentColor" stroke-width="1.5"/>
</svg>
