<svg width="24" height="24" viewBox="0 0 24 24" fill="none" xmlns="http://www.w3.org/2000/svg">
<path d="M13.7072 2.2932C13.6144 2.20026 13.5042 2.12652 13.3829 2.07621C13.2615 2.0259 13.1315 2 13.0002 2C12.8688 2 12.7388 2.0259 12.6175 2.07621C12.4962 2.12652 12.386 2.20026 12.2932 2.2932L6.45317 8.1332C6.43817 8.1322 6.42417 8.1242 6.40917 8.1242C6.27784 8.12406 6.14777 8.14988 6.02644 8.20016C5.90511 8.25044 5.79491 8.3242 5.70217 8.4172L4.28817 9.8312C4.00897 10.1094 3.78764 10.4402 3.63694 10.8044C3.48624 11.1686 3.40917 11.559 3.41017 11.9532C3.41017 12.7552 3.72317 13.5092 4.28917 14.0742L4.99617 14.7812L2.87417 16.9032C2.59431 17.178 2.37269 17.5064 2.22252 17.8687C2.07236 18.2311 1.99674 18.62 2.00017 19.0122C1.99545 19.4516 2.08836 19.8866 2.27219 20.2857C2.45602 20.6848 2.72618 21.0382 3.06317 21.3202C3.58217 21.7592 4.25117 22.0002 4.94817 22.0002C5.78217 22.0002 6.60217 21.6592 7.19817 21.0632L9.23817 19.0242L9.94517 19.7302C11.0792 20.8632 13.0542 20.8642 14.1872 19.7312L15.6022 18.3172C15.6952 18.2245 15.7689 18.1143 15.8192 17.9929C15.8695 17.8716 15.8953 17.7415 15.8952 17.6102C15.8952 17.5842 15.8822 17.5602 15.8802 17.5342L21.7072 11.7072C21.8001 11.6144 21.8739 11.5042 21.9242 11.3829C21.9745 11.2616 22.0004 11.1315 22.0004 11.0002C22.0004 10.8689 21.9745 10.7388 21.9242 10.6175C21.8739 10.4962 21.8001 10.386 21.7072 10.2932L13.7072 2.2932ZM12.7722 18.3172C12.5817 18.4991 12.3284 18.6005 12.065 18.6003C11.8016 18.6001 11.5484 18.4984 11.3582 18.3162L9.94417 16.9032C9.85138 16.8103 9.74118 16.7365 9.61986 16.6862C9.49855 16.6359 9.36851 16.61 9.23717 16.61C9.10584 16.61 8.97579 16.6359 8.85448 16.6862C8.73316 16.7365 8.62296 16.8103 8.53017 16.9032L5.78417 19.6482C5.56291 19.8713 5.26238 19.9978 4.94817 20.0002C4.73173 20.0037 4.52113 19.93 4.35417 19.7922C4.23958 19.6974 4.14814 19.5776 4.08679 19.4421C4.02545 19.3066 3.99582 19.1589 4.00017 19.0102C3.99913 18.8815 4.024 18.7539 4.0733 18.635C4.12261 18.5161 4.19535 18.4084 4.28717 18.3182L7.11617 15.4892C7.20912 15.3964 7.28285 15.2862 7.33317 15.1649C7.38348 15.0436 7.40937 14.9135 7.40937 14.7822C7.40937 14.6509 7.38348 14.5208 7.33317 14.3995C7.28285 14.2782 7.20912 14.168 7.11617 14.0752L5.70117 12.6602C5.60816 12.5677 5.53445 12.4577 5.48432 12.3365C5.4342 12.2153 5.40865 12.0854 5.40917 11.9542C5.40917 11.6862 5.51317 11.4352 5.70217 11.2462L6.40917 10.5392L13.4802 17.6112L12.7722 18.3172ZM14.6612 15.9252L8.07517 9.3392L13.0002 4.4142L19.5862 11.0002L14.6612 15.9252Z" fill="currentColor"/>
</svg>
