<svg width="24" height="24" viewBox="0 0 24 24" fill="none" xmlns="http://www.w3.org/2000/svg">
<path d="M13.3993 2.09605C11.7505 1.87036 10.0714 2.05644 8.51196 2.63767C6.95252 3.21891 5.56125 4.17721 4.46235 5.42705C3.52185 6.51023 2.82403 7.78213 2.41577 9.15732C2.00751 10.5325 1.89825 11.9791 2.09535 13.4C2.62535 17.294 5.55335 20.607 9.38035 21.646C10.2335 21.8795 11.1139 21.9986 11.9983 22L12.1403 21.999C12.6459 21.9925 13.1416 21.8584 13.5815 21.6091C14.0213 21.3598 14.391 21.0034 14.6563 20.573C14.9225 20.145 15.0762 19.6566 15.1029 19.1532C15.1297 18.6499 15.0287 18.1479 14.8093 17.694L14.6103 17.278C14.4573 16.979 14.3854 16.645 14.4019 16.3095C14.4184 15.974 14.5227 15.6486 14.7043 15.366C14.9643 14.9438 15.3715 14.633 15.8473 14.4935C16.323 14.3541 16.8336 14.3959 17.2803 14.611L17.6923 14.808C18.1043 15.006 18.5423 15.107 18.9933 15.107C19.7826 15.103 20.539 14.7903 21.1007 14.2359C21.6625 13.6814 21.985 12.9292 21.9993 12.14C22.0117 11.208 21.8929 10.2789 21.6463 9.38005C20.6063 5.55405 17.2933 2.62605 13.3993 2.09605ZM18.5573 13.005L18.1453 12.808C16.3173 11.93 14.0753 12.61 13.0103 14.302C12.2723 15.478 12.1973 16.878 12.8063 18.144L13.0053 18.56C13.0799 18.7112 13.1144 18.8789 13.1055 19.0472C13.0966 19.2155 13.0445 19.3787 12.9543 19.521C12.8665 19.6665 12.7427 19.7869 12.5949 19.8708C12.4471 19.9547 12.2803 19.9992 12.1103 20H11.9983C11.2906 19.9981 10.5862 19.9029 9.90335 19.717C6.84035 18.886 4.50035 16.238 4.07735 13.131C3.75635 10.776 4.42935 8.50805 5.97035 6.74205C6.84709 5.73628 7.9614 4.9657 9.21191 4.50043C10.4624 4.03515 11.8094 3.88996 13.1303 4.07805C16.2373 4.50105 18.8853 6.84205 19.7163 9.90405C19.9143 10.634 20.0093 11.378 19.9983 12.111C19.9863 12.918 19.1533 13.294 18.5573 13.005Z" fill="currentColor"/>
<path d="M7.49933 16C8.32776 16 8.99933 15.3284 8.99933 14.5C8.99933 13.6716 8.32776 13 7.49933 13C6.6709 13 5.99933 13.6716 5.99933 14.5C5.99933 15.3284 6.6709 16 7.49933 16Z" fill="currentColor"/>
<path d="M7.49933 12C8.32776 12 8.99933 11.3284 8.99933 10.5C8.99933 9.67157 8.32776 9 7.49933 9C6.6709 9 5.99933 9.67157 5.99933 10.5C5.99933 11.3284 6.6709 12 7.49933 12Z" fill="currentColor"/>
<path d="M10.4993 9C11.3278 9 11.9993 8.32843 11.9993 7.5C11.9993 6.67157 11.3278 6 10.4993 6C9.6709 6 8.99933 6.67157 8.99933 7.5C8.99933 8.32843 9.6709 9 10.4993 9Z" fill="currentColor"/>
<path d="M14.4993 9C15.3278 9 15.9993 8.32843 15.9993 7.5C15.9993 6.67157 15.3278 6 14.4993 6C13.6709 6 12.9993 6.67157 12.9993 7.5C12.9993 8.32843 13.6709 9 14.4993 9Z" fill="currentColor"/>
</svg>
