<svg width="24" height="24" viewBox="0 0 24 24" fill="none" xmlns="http://www.w3.org/2000/svg">
<path d="M11.75 13.125C11.75 12.6418 11.3582 12.25 10.875 12.25C10.3918 12.25 10 12.6418 10 13.125C10.0001 13.6082 10.3918 14 10.875 14C11.3582 14 11.75 13.6082 11.75 13.125ZM13.75 13.125C13.75 14.7127 12.4628 16 10.875 16C9.28727 16 8.00007 14.7128 8.00004 13.125C8.00004 11.5372 9.28725 10.25 10.875 10.25C12.4628 10.25 13.75 11.5372 13.75 13.125Z" fill="currentColor"/>
<path d="M8.84077 13.7434C9.23126 13.3529 9.86526 13.3529 10.2558 13.7434C10.6461 14.1339 10.6461 14.767 10.2558 15.1575L3.70698 21.7073C3.31652 22.0975 2.68338 22.0975 2.29291 21.7073C1.90236 21.3168 1.90242 20.6828 2.29291 20.2922L8.84077 13.7434Z" fill="currentColor"/>
<path d="M11.038 4.27267C11.367 4.20136 11.7143 4.30054 11.957 4.54318L19.457 12.0432C19.7339 12.3204 19.823 12.7338 19.6855 13.1008L17.5878 18.6955C17.48 18.9831 17.2986 19.2377 17.0615 19.4328C16.8244 19.6279 16.54 19.7573 16.2373 19.8078L3.16401 21.9865C2.84569 22.0395 2.52117 21.9354 2.29291 21.7073C2.06455 21.4789 1.96053 21.1537 2.01362 20.8352L4.19233 7.7629L4.21479 7.64962C4.27604 7.38924 4.39673 7.14604 4.56733 6.93869L4.6435 6.85177C4.82662 6.65698 5.05241 6.50662 5.30366 6.41232L10.8984 4.31369L11.038 4.27267ZM6.14057 8.23361L4.21577 19.7824L15.7656 17.8576L17.5869 13.0022L10.998 6.41232L6.14057 8.23361Z" fill="currentColor"/>
<path d="M22.4395 9.75C22.4394 9.9796 22.3935 10.2068 22.3057 10.4189C22.2178 10.6312 22.0893 10.8248 21.9268 10.9873L19.4571 13.457C19.0666 13.8474 18.4335 13.8472 18.043 13.457C17.6525 13.0665 17.6525 12.4325 18.043 12.042L20.335 9.74902L14.25 3.66406L11.9571 5.95703C11.5666 6.34743 10.9335 6.34743 10.543 5.95703C10.1525 5.56654 10.1526 4.9335 10.543 4.54297L13.0127 2.07324L13.1407 1.95703C13.4521 1.70177 13.8438 1.56055 14.25 1.56055L14.4229 1.56934C14.8235 1.60911 15.2002 1.78608 15.4873 2.07324L21.9268 8.5127C22.0486 8.63455 22.1515 8.77342 22.2325 8.9248L22.3057 9.08008L22.3633 9.24219C22.4131 9.40648 22.4395 9.57769 22.4395 9.75Z" fill="currentColor"/>
</svg>
