<svg width="24" height="24" viewBox="0 0 24 24" fill="none" xmlns="http://www.w3.org/2000/svg">
<path d="M3.99867 20.9997C4.07838 21.0093 4.15896 21.0093 4.23867 20.9997L8.23867 19.9997C8.41612 19.9575 8.57865 19.8676 8.70867 19.7397L20.9987 7.40966C21.3712 7.03493 21.5803 6.52803 21.5803 5.99966C21.5803 5.47129 21.3712 4.96438 20.9987 4.58966L19.4187 2.99966C19.2329 2.81371 19.0123 2.66619 18.7696 2.56554C18.5268 2.46489 18.2665 2.41309 18.0037 2.41309C17.7408 2.41309 17.4806 2.46489 17.2378 2.56554C16.995 2.66619 16.7744 2.81371 16.5887 2.99966L4.29867 15.2897C4.16946 15.4203 4.07642 15.5822 4.02867 15.7597L3.02867 19.7597C2.99273 19.889 2.98322 20.0244 3.0007 20.1575C3.01818 20.2906 3.0623 20.4189 3.13043 20.5346C3.19856 20.6504 3.2893 20.7512 3.39724 20.8311C3.50517 20.911 3.62809 20.9683 3.75867 20.9997C3.83838 21.0093 3.91896 21.0093 3.99867 20.9997ZM17.9987 4.40966L19.5887 5.99966L17.9987 7.58966L16.4187 5.99966L17.9987 4.40966ZM5.90867 16.5097L14.9987 7.40966L16.5887 8.99966L7.48867 18.0997L5.37867 18.6197L5.90867 16.5097Z" fill="currentColor"/>
</svg>
