<svg width="24" height="24" viewBox="0 0 24 24" fill="none" xmlns="http://www.w3.org/2000/svg">
<path d="M20 17.583C20.4141 17.583 20.7498 17.9189 20.75 18.333C20.75 18.7472 20.4142 19.083 20 19.083H4C3.58579 19.083 3.25 18.7472 3.25 18.333C3.25018 17.9189 3.58589 17.583 4 17.583H20ZM20 10.917C20.4142 10.917 20.75 11.2528 20.75 11.667C20.7498 12.0811 20.4141 12.417 20 12.417H4C3.5859 12.417 3.25018 12.0811 3.25 11.667C3.25 11.2528 3.58579 10.917 4 10.917H20ZM20 4.25C20.4142 4.25 20.75 4.58579 20.75 5C20.75 5.41421 20.4142 5.75 20 5.75H4C3.58579 5.75 3.25 5.41421 3.25 5C3.25 4.58579 3.58579 4.25 4 4.25H20Z" fill="currentColor"/>
</svg>
