<svg width="24" height="24" viewBox="0 0 24 24" fill="none" xmlns="http://www.w3.org/2000/svg">
<path d="M8.37207 4.96875L12.8838 17.002L16.2725 9.01953C16.4105 8.69543 16.7297 8.48438 17.082 8.48438H17.9609C18.1335 8.48442 18.3024 8.53558 18.4463 8.63086C18.5901 8.7262 18.7032 8.8616 18.7705 9.02051L23 19.0322H21.0918L19.9775 16.3955H15.0518L13.9336 19.0322C13.8283 19.0322 13.7271 19.0175 13.6309 18.9941L13.6455 19.0322H11.7666L10.1191 14.6367H4.52637L2.87793 19.0322H1L6.27344 4.96875H8.37207ZM15.7988 14.6367H19.2354L17.5205 10.5801L15.7988 14.6367ZM5.18457 12.8789H9.45996L7.32227 7.17969L5.18457 12.8789Z" fill="currentColor"/>
</svg>
