<svg width="24" height="24" viewBox="0 0 24 24" fill="none" xmlns="http://www.w3.org/2000/svg">
<path d="M12.9677 13.4697C13.2603 13.1769 13.7352 13.1764 14.0283 13.4688L18.7597 18.1914V15.5557C18.7597 15.1415 19.0955 14.8057 19.5097 14.8057C19.9238 14.8058 20.2597 15.1415 20.2597 15.5557V20C20.2597 20.4141 19.9238 20.7499 19.5097 20.75H15.0654C14.6512 20.75 14.3154 20.4142 14.3154 20C14.3154 19.5858 14.6512 19.25 15.0654 19.25H17.6962L12.9687 14.5312C12.6755 14.2386 12.6751 13.7629 12.9677 13.4697ZM3.86908 4.3584C4.16229 4.06584 4.63706 4.06617 4.92962 4.35938L10.0292 9.4707C10.3216 9.76393 10.3214 10.2387 10.0283 10.5312C9.73504 10.8237 9.26025 10.8225 8.96771 10.5293L3.86712 5.41895C3.57457 5.12573 3.57587 4.65097 3.86908 4.3584ZM20.2597 8.44434C20.2597 8.85848 19.9238 9.19422 19.5097 9.19434C19.0955 9.19434 18.7597 8.85855 18.7597 8.44434V5.81055L4.92865 19.6416C4.63578 19.9344 4.16097 19.9344 3.8681 19.6416C3.57524 19.3487 3.57531 18.874 3.8681 18.5811L17.6992 4.75H15.0654C14.6512 4.75 14.3154 4.41421 14.3154 4C14.3154 3.58579 14.6512 3.25 15.0654 3.25H19.5097C19.9238 3.25012 20.2597 3.58586 20.2597 4V8.44434Z" fill="currentColor"/>
</svg>
