<svg width="24" height="24" viewBox="0 0 24 24" fill="none" xmlns="http://www.w3.org/2000/svg">
<path d="M3.25 18V8C3.25 6.48122 4.48122 5.25 6 5.25H10C10.4142 5.25 10.75 5.58579 10.75 6C10.75 6.41421 10.4142 6.75 10 6.75H6C5.30964 6.75 4.75 7.30964 4.75 8V18C4.75 18.6904 5.30964 19.25 6 19.25H16C16.6904 19.25 17.25 18.6904 17.25 18V14C17.25 13.5858 17.5858 13.25 18 13.25C18.4142 13.25 18.75 13.5858 18.75 14V18C18.75 19.5188 17.5188 20.75 16 20.75H6C4.48122 20.75 3.25 19.5188 3.25 18ZM20.75 10C20.75 10.4142 20.4142 10.75 20 10.75C19.5858 10.75 19.25 10.4142 19.25 10V5.81055L10.5303 14.5303C10.2374 14.8232 9.76262 14.8232 9.46973 14.5303C9.17683 14.2374 9.17683 13.7626 9.46973 13.4697L18.1895 4.75H14C13.5858 4.75 13.25 4.41421 13.25 4C13.25 3.58579 13.5858 3.25 14 3.25H20C20.4142 3.25 20.75 3.58579 20.75 4V10Z" fill="currentColor"/>
</svg>
