<svg width="24" height="24" viewBox="0 0 24 24" fill="none" xmlns="http://www.w3.org/2000/svg">
<path d="M17.5567 1.16042C19.5101 0.450073 21.3625 2.64745 19.9883 4.41433L19.9707 4.43581L14.0469 11.6341L17.5381 15.1253L17.5664 15.1594C18.4705 16.2444 18.1416 17.9404 16.792 18.5188L16.7842 18.5227L6.51174 22.8098C5.45749 23.2888 4.45476 22.8312 3.95803 22.0979C3.48141 21.394 3.39787 20.3177 4.16311 19.5237L11.3135 11.7298L7.89163 8.30691C7.34972 7.76499 7.24199 7.01792 7.37112 6.4153C7.50172 5.80611 7.90592 5.18062 8.60452 4.88112L8.61428 4.87624L17.5147 1.17702L17.5352 1.16823L17.5567 1.16042ZM5.63577 20.8762L5.62112 20.8919L5.60549 20.9075C5.59857 20.9144 5.5947 20.9193 5.5928 20.9221C5.59326 20.9301 5.59722 20.9516 5.61428 20.9768C5.62461 20.992 5.6343 20.9994 5.63967 21.0032C5.64613 21.0021 5.66102 21.0002 5.68459 20.9895L5.69924 20.9827L5.71292 20.9768L16.0049 16.68C16.0387 16.6653 16.0622 16.6407 16.0723 16.596C16.0817 16.5538 16.0748 16.5046 16.041 16.4563L12.7295 13.1448L5.63577 20.8762ZM18.249 3.03737L9.39163 6.71804L9.3926 6.71901C9.38979 6.72022 9.38016 6.72512 9.36624 6.74343C9.35083 6.76378 9.33458 6.79528 9.3262 6.83425C9.31875 6.86901 9.32078 6.89591 9.32327 6.91042L12.626 10.2132L18.4092 3.18483C18.4305 3.15733 18.4394 3.13901 18.4424 3.13015C18.4455 3.12117 18.4454 3.11506 18.4453 3.11159C18.4452 3.10403 18.4423 3.08707 18.4268 3.06667C18.4113 3.04638 18.391 3.03217 18.3701 3.02566C18.356 3.02131 18.3191 3.01358 18.249 3.03737Z" fill="currentColor"/>
</svg>
