<svg width="24" height="24" viewBox="0 0 24 24" fill="none" xmlns="http://www.w3.org/2000/svg">
<path d="M20.0001 13.998C19.9081 14.063 18.0001 16.081 18.0001 17.498C18.0001 18.992 18.9491 19.946 20.0001 19.998C20.9061 20.042 22.0001 19.107 22.0001 17.498C22.0001 15.998 20.0921 14.063 20.0001 13.998ZM3.41406 12.998C3.41406 13.532 3.62206 14.034 4.00006 14.412L9.58606 19.998C9.96406 20.376 10.4661 20.584 11.0001 20.584C11.5341 20.584 12.0361 20.376 12.4141 19.998L19.4141 12.998L8.70706 2.29102L7.29306 3.70502L9.58606 5.99802L4.00006 11.584C3.62206 11.962 3.41406 12.464 3.41406 12.998ZM11.0001 7.41202L16.5861 12.998L11.0001 18.584H11.0011L11.0001 19.584V18.584L5.41406 12.998L11.0001 7.41202Z" fill="currentColor"/>
</svg>
