<svg width="24" height="24" viewBox="0 0 24 24" fill="none" xmlns="http://www.w3.org/2000/svg">
<path d="M19.25 11.0002C19.25 10.6067 19.0648 10.2363 18.75 10.0002L12.75 5.5002C12.3056 5.16687 11.6944 5.16686 11.25 5.5002L5.25 10.0002C4.93525 10.2363 4.75 10.6068 4.75 11.0002V17.0002C4.75 18.2428 5.75736 19.2502 7 19.2502H17C18.2426 19.2502 19.25 18.2428 19.25 17.0002V11.0002ZM20.75 17.0002C20.75 19.0713 19.0711 20.7502 17 20.7502H7C4.92893 20.7502 3.25 19.0713 3.25 17.0002V11.0002C3.25 10.1347 3.65724 9.31936 4.34961 8.8L10.3496 4.3C11.3274 3.56667 12.6726 3.56667 13.6504 4.3L19.6504 8.8C20.3428 9.31935 20.75 10.1347 20.75 11.0002V17.0002Z" fill="currentColor"/>
</svg>
