<svg width="24" height="24" viewBox="0 0 24 24" fill="none" xmlns="http://www.w3.org/2000/svg">
<path d="M13.2499 16.0001C13.2499 15.862 13.138 15.7501 12.9999 15.7501H10.9999C10.8619 15.7501 10.7499 15.862 10.7499 16.0001V20.0001C10.7499 20.0851 10.7421 20.1684 10.7304 20.2501H13.2695C13.2578 20.1684 13.2499 20.0851 13.2499 20.0001V16.0001ZM19.7499 20.0001C19.7499 20.9666 18.9664 21.7501 17.9999 21.7501H5.99994C5.03344 21.7501 4.24994 20.9666 4.24994 20.0001V11.8107L3.53022 12.5304C3.23732 12.8233 2.76256 12.8233 2.46967 12.5304C2.17678 12.2375 2.17678 11.7627 2.46967 11.4698L11.4697 2.46984L11.5263 2.41809C11.8209 2.17778 12.2556 2.19524 12.5302 2.46984L21.5302 11.4698C21.8231 11.7627 21.8231 12.2375 21.5302 12.5304C21.2373 12.8233 20.7626 12.8233 20.4697 12.5304L19.7499 11.8107V20.0001ZM14.7499 20.0001C14.7499 20.1382 14.8619 20.2501 14.9999 20.2501H17.9999C18.138 20.2501 18.2499 20.1382 18.2499 20.0001V10.3107L11.9999 4.06066L5.74994 10.3107V20.0001C5.74994 20.1382 5.86187 20.2501 5.99994 20.2501H8.99994C9.13801 20.2501 9.24994 20.1382 9.24994 20.0001V16.0001C9.24994 15.0336 10.0334 14.2501 10.9999 14.2501H12.9999C13.9664 14.2501 14.7499 15.0336 14.7499 16.0001V20.0001Z" fill="currentColor"/>
</svg>
