<svg width="24" height="24" viewBox="0 0 24 24" fill="none" xmlns="http://www.w3.org/2000/svg">
<path d="M8.73998 2.34304C10.4759 0.607146 13.2818 0.55599 15.0906 2.178L15.2624 2.34108L21.655 8.73268L21.657 8.73561C23.4427 10.5341 23.4466 13.4652 21.655 15.2571L15.2644 21.6477C13.4725 23.4393 10.5414 23.4354 8.74291 21.6497L8.73998 21.6477L2.35033 15.2571C0.558616 13.4652 0.562649 10.5341 2.34838 8.73561L2.35033 8.73268L8.73998 2.34304ZM13.654 3.58132C12.6255 2.75002 11.1001 2.81238 10.155 3.7571L3.76439 10.1477C2.75306 11.1694 2.75743 12.8359 3.76439 13.843L10.155 20.2327C11.1766 21.2449 12.8429 21.2401 13.8503 20.2327L20.24 13.843C21.2474 12.8356 21.2522 11.1684 20.24 10.1467L13.8533 3.76003L13.654 3.58132Z" fill="currentColor"/>
<path d="M5.54271 5.54323C5.93324 5.15271 6.56625 5.15271 6.95677 5.54323L18.4568 17.0432C18.8473 17.4338 18.8473 18.0668 18.4568 18.4573C18.0662 18.8478 17.4332 18.8478 17.0427 18.4573L5.54271 6.95729C5.15219 6.56677 5.15219 5.93375 5.54271 5.54323Z" fill="currentColor"/>
<path d="M17.0427 5.54323C17.4332 5.15271 18.0662 5.15271 18.4568 5.54323C18.8473 5.93375 18.8473 6.56677 18.4568 6.95729L6.95677 18.4573C6.56625 18.8478 5.93324 18.8478 5.54271 18.4573C5.15219 18.0668 5.15219 17.4338 5.54271 17.0432L17.0427 5.54323Z" fill="currentColor"/>
</svg>
