<svg width="24" height="24" viewBox="0 0 24 24" fill="none" xmlns="http://www.w3.org/2000/svg">
<path d="M17.9814 10.8145C17.9814 9.20616 17.3423 7.66364 16.2051 6.52637C15.0677 5.38899 13.5245 4.75 11.916 4.75C10.3077 4.7501 8.76522 5.38908 7.62793 6.52637C6.49064 7.66366 5.85166 9.20609 5.85156 10.8145L5.85938 11.1123C5.93966 12.5965 6.61063 14.0537 7.54297 15.3789C8.53312 16.7863 9.77396 17.9822 10.7559 18.8164C11.4367 19.3948 12.3953 19.3946 13.0762 18.8164C14.0581 17.9822 15.2999 16.7863 16.29 15.3789C17.2846 13.9653 17.9814 12.401 17.9814 10.8145ZM13.4375 10.8145C13.4373 9.97426 12.7563 9.29297 11.916 9.29297C11.0759 9.29316 10.3947 9.97438 10.3945 10.8145C10.3945 11.6547 11.0758 12.3357 11.916 12.3359C12.7564 12.3359 13.4375 11.6548 13.4375 10.8145ZM14.9375 10.8145C14.9375 12.4832 13.5848 13.8359 11.916 13.8359C10.2474 13.8357 8.89453 12.4831 8.89453 10.8145C8.89473 9.14595 10.2475 7.79316 11.916 7.79297C13.5847 7.79297 14.9373 9.14583 14.9375 10.8145ZM19.4814 10.8145C19.4814 12.8326 18.6023 14.6991 17.5166 16.2422C16.4265 17.7916 15.0826 19.0798 14.0479 19.959C12.8069 21.0133 11.0261 21.0133 9.78516 19.959C8.75037 19.0799 7.40654 17.7917 6.31641 16.2422C5.29858 14.7955 4.46188 13.065 4.36133 11.1914L4.35156 10.8145C4.35166 8.80827 5.14879 6.88441 6.56738 5.46582C7.98598 4.04723 9.90983 3.2501 11.916 3.25C13.9223 3.25 15.8469 4.04714 17.2656 5.46582C18.6841 6.8844 19.4814 8.80833 19.4814 10.8145Z" fill="currentColor"/>
</svg>
