<svg width="24" height="24" viewBox="0 0 24 24" fill="none" xmlns="http://www.w3.org/2000/svg">
<path d="M21 5.7002C21 4.26976 19.7652 3.00011 18.2002 3H17.7002C16.2525 3 15 4.25248 15 5.7002V10.6289C16.7973 10.2759 18.1883 9.65645 19.1758 9.04883L19.1855 9.04199C20.3528 8.34149 20.9999 7.08684 21 5.7002ZM23 5.7002C22.9999 7.71326 22.0472 9.65834 20.2148 10.7578L20.2139 10.7568C18.7979 11.6263 16.7645 12.4755 14.1191 12.793L13 12.9268V5.7002C13 3.14791 15.1479 1 17.7002 1H18.2002C20.835 1.0001 23 3.13075 23 5.7002Z" fill="currentColor"/>
<path d="M21.002 10.2773C20.899 10.3533 20.7939 10.4334 20.6816 10.5107C19.4232 11.3782 17.5826 12.3044 15.1016 12.7549V18.2998C15.1016 19.7652 16.2716 21 17.8018 21H18.3018C19.7671 20.9999 21.002 19.8299 21.002 18.2998V10.2773ZM23.002 18.2998C23.002 20.9696 20.8363 22.9999 18.3018 23H17.8018C15.1319 23 13.1016 20.8344 13.1016 18.2998V11.0195L13.9756 10.9082C16.5477 10.5808 18.3739 9.67282 19.5469 8.86426C20.1348 8.45894 20.5608 8.07694 20.834 7.80371C20.9702 7.66748 21.0679 7.55827 21.1289 7.4873C21.1594 7.45185 21.1813 7.42613 21.1934 7.41113L23.002 5V18.2998Z" fill="currentColor"/>
<path d="M9 13.3699C7.20238 13.7229 5.81175 14.3442 4.82422 14.952L4.81445 14.9578C3.64716 15.6583 3.00012 16.913 3 18.2996C3 19.7473 4.25248 20.9998 5.7002 20.9998H6.2998C7.76522 20.9998 9 19.8298 9 18.2996V13.3699ZM11 18.2996C11 20.9694 8.83439 22.9998 6.2998 22.9998H5.7002C3.14791 22.9998 1 20.8519 1 18.2996C1.00012 16.4125 1.8378 14.5857 3.45215 13.4588L3.78516 13.243C5.20111 12.3733 7.23516 11.5243 9.88086 11.2068L11 11.073V18.2996Z" fill="currentColor"/>
<path d="M9 5.7002C9 4.26976 7.7652 3.00011 6.2002 3H5.7002C4.25248 3 3 4.25248 3 5.7002V13.7246C3.10705 13.6462 3.2188 13.5663 3.33594 13.4863C4.60883 12.6173 6.47452 11.6911 9 11.2422V5.7002ZM2.7998 16.6006L2.79688 16.6035L2.79883 16.5996L2.7998 16.6006ZM11 12.9824L10.124 13.0918C7.49927 13.4199 5.64797 14.3303 4.46387 15.1387C3.8702 15.544 3.44208 15.9255 3.16797 16.1982C3.0312 16.3343 2.933 16.443 2.87207 16.5137C2.84171 16.5489 2.82051 16.575 2.80859 16.5898C2.80489 16.5945 2.80075 16.5972 2.79883 16.5996L1 19V5.7002C1 3.14791 3.14791 1 5.7002 1H6.2002C8.83501 1.00011 11 3.13075 11 5.7002V12.9824Z" fill="currentColor"/>
<path d="M14.1641 12.8867C13.4663 13.003 12.6773 13 12 13C11.2774 13 10.6662 13.0032 10.1641 13.0869L9.83594 11.1143C10.5338 10.998 11.3227 11 12 11C12.7226 11 13.3338 10.9977 13.8359 10.9141L14.1641 12.8867Z" fill="currentColor"/>
</svg>
