<svg width="24" height="24" viewBox="0 0 24 24" fill="none" xmlns="http://www.w3.org/2000/svg">
<path d="M19.25 4C19.25 3.66848 19.1182 3.35063 18.8837 3.11621C18.6493 2.88179 18.3315 2.75 18 2.75C17.6684 2.75 17.3506 2.88179 17.1162 3.11621C16.8817 3.35063 16.75 3.66848 16.75 4V6.29297C17.6473 6.39322 18.4925 6.67063 19.25 7.08984V4ZM4.82222 11.7568C4.39504 11.7907 3.98651 11.9459 3.64449 12.2041C3.30248 12.4624 3.04109 12.8132 2.89156 13.2148C2.74206 13.6166 2.70975 14.0535 2.79976 14.4727C2.88982 14.8917 3.09817 15.2762 3.39937 15.5811C3.70066 15.886 4.08293 16.0983 4.50094 16.1934C4.76034 16.2524 5.02669 16.2642 5.28804 16.2305C5.42206 14.8868 5.90539 13.6044 6.68453 12.5088C6.50715 12.3084 6.29513 12.1395 6.0566 12.0127C5.67808 11.8114 5.24959 11.723 4.82222 11.7568ZM18.0097 11.25C18.4239 11.25 18.7597 11.5858 18.7597 12C18.7597 12.4142 18.4239 12.75 18.0097 12.75H18C17.5857 12.75 17.25 12.4142 17.25 12C17.25 11.5858 17.5857 11.25 18 11.25H18.0097ZM9.77047 5C9.77048 5.16147 9.80145 5.32152 9.86324 5.4707C9.92497 5.61973 10.0158 5.75503 10.1298 5.86914L13.7304 9.46973C13.9448 9.68423 14.0086 10.0069 13.8925 10.2871C13.7764 10.5672 13.5033 10.7499 13.2002 10.75H13C11.3426 10.75 9.75307 11.4083 8.58101 12.5801C7.46796 13.6931 6.81847 15.1832 6.75582 16.75C6.76161 16.8078 6.75933 16.8646 6.75191 16.9209C6.75158 16.9472 6.74996 16.9736 6.74996 17C6.74998 17.8619 7.09263 18.6884 7.70211 19.2979C8.3116 19.9073 9.13802 20.25 9.99996 20.25H14.874C15.0553 19.9788 15.177 19.6706 15.2275 19.3457C15.2428 19.2474 15.2497 19.1485 15.2519 19.0498C15.2508 19.0333 15.25 19.0167 15.25 19C15.25 18.9775 15.2505 18.955 15.2509 18.9326C15.2422 18.6398 15.1784 18.3499 15.0576 18.0801C14.8799 17.6835 14.5905 17.3464 14.2255 17.1104C13.8607 16.8745 13.4354 16.7494 13.0009 16.75C12.5867 16.7505 12.2505 16.4152 12.25 16.001C12.2494 15.5868 12.5848 15.2505 12.999 15.25C13.7233 15.2491 14.4328 15.4582 15.041 15.8516C15.4133 16.0925 15.7371 16.397 16.0009 16.748C16.1064 16.6075 16.2229 16.4743 16.3486 16.3486C17.0519 15.6454 18.0054 15.25 19 15.25H20C20.3315 15.25 20.6493 15.1182 20.8837 14.8838C21.1181 14.6494 21.2499 14.3315 21.25 14V13C21.25 10.1142 18.8857 7.75 16 7.75H15.7998C15.6009 7.74995 15.4101 7.67088 15.2695 7.53027L11.8701 4.12988C11.7559 4.01568 11.6199 3.92509 11.4707 3.86328C11.3215 3.8015 11.1614 3.77051 11 3.77051C10.6738 3.77051 10.3605 3.89923 10.1298 4.12988C9.89922 4.36053 9.77047 4.67383 9.77047 5ZM20.75 8.21484C21.9835 9.43945 22.75 11.134 22.75 13V14C22.7499 14.7293 22.46 15.4286 21.9443 15.9443C21.4286 16.46 20.7293 16.75 20 16.75H19C18.4032 16.75 17.8311 16.9872 17.4091 17.4092C16.9966 17.8217 16.7613 18.3777 16.7509 18.96C16.7531 19.1654 16.7408 19.3714 16.7089 19.5762C16.6731 19.8068 16.6142 20.0319 16.5371 20.25H18C18.4142 20.25 18.75 20.5858 18.75 21C18.7499 21.4142 18.4141 21.75 18 21.75H9.99996C8.7402 21.75 7.53235 21.2492 6.64156 20.3584C5.92578 19.6426 5.46217 18.7221 5.30758 17.7344C4.92763 17.7657 4.54339 17.7417 4.16793 17.6562C3.47125 17.4977 2.83412 17.1431 2.33199 16.6348C1.83003 16.1265 1.48394 15.4855 1.33394 14.7871C1.18394 14.0886 1.23625 13.3619 1.48531 12.6924C1.73448 12.0227 2.17001 11.4374 2.74019 11.0068C3.31032 10.5764 3.9919 10.3181 4.70406 10.2617C5.41627 10.2053 6.12989 10.3531 6.7607 10.6885C7.10011 10.869 7.40605 11.1016 7.67281 11.373C8.75023 10.353 10.0903 9.66977 11.5302 9.3916L9.06929 6.93066C8.81584 6.67721 8.61469 6.37607 8.4775 6.04492C8.34032 5.71374 8.27048 5.35847 8.27047 5C8.27047 4.276 8.55737 3.58129 9.06929 3.06934C9.58125 2.55738 10.2759 2.27051 11 2.27051C11.3585 2.27051 11.7137 2.34035 12.0449 2.47754C12.376 2.61473 12.6772 2.81587 12.9306 3.06934L15.25 5.38867V4C15.25 3.27065 15.5399 2.57139 16.0556 2.05566C16.5713 1.53994 17.2706 1.25 18 1.25C18.7293 1.25 19.4286 1.53994 19.9443 2.05566C20.46 2.57139 20.75 3.27065 20.75 4V8.21484Z" fill="currentColor"/>
</svg>
