<svg width="24" height="24" viewBox="0 0 24 24" fill="none" xmlns="http://www.w3.org/2000/svg">
<path d="M12 11.25C12.4142 11.25 12.75 11.5858 12.75 12V13.5H14.25C14.6642 13.5 15 13.8358 15 14.25C15 14.6642 14.6642 15 14.25 15H12.75V16.5C12.75 16.9142 12.4142 17.25 12 17.25C11.5858 17.25 11.25 16.9142 11.25 16.5V15H9.75C9.33579 15 9 14.6642 9 14.25C9 13.8358 9.33579 13.5 9.75 13.5H11.25V12C11.25 11.5858 11.5858 11.25 12 11.25Z" fill="currentColor"/>
<path fill-rule="evenodd" clip-rule="evenodd" d="M14.25 2.25C14.2981 2.25 14.345 2.25502 14.3906 2.26367C14.3935 2.26422 14.3965 2.26406 14.3994 2.26465C14.4138 2.26756 14.4273 2.27363 14.4414 2.27734C14.4745 2.2861 14.5076 2.29447 14.5391 2.30762C14.5686 2.31994 14.5956 2.3367 14.623 2.35254C14.6376 2.3609 14.653 2.36761 14.667 2.37695C14.7077 2.40425 14.7457 2.43519 14.7803 2.46973L20.0303 7.71973C20.166 7.85545 20.25 8.04289 20.25 8.25V20.25C20.25 20.6478 20.0919 21.0292 19.8105 21.3105C19.5292 21.5919 19.1478 21.75 18.75 21.75H5.25C4.85218 21.75 4.47076 21.5919 4.18945 21.3105C3.90815 21.0292 3.75 20.6478 3.75 20.25V3.75C3.75 3.35217 3.90815 2.97076 4.18945 2.68945C4.47076 2.40815 4.85217 2.25 5.25 2.25H14.25ZM5.25 20.25H18.75V9H14.25C13.8358 9 13.5 8.66421 13.5 8.25V3.75H5.25V20.25ZM15 7.5H17.6895L15 4.81055V7.5Z" fill="currentColor"/>
</svg>
