<svg width="24" height="24" viewBox="0 0 24 24" fill="none" xmlns="http://www.w3.org/2000/svg">
<path d="M17.0527 7.10645C17.0526 6.48152 16.8042 5.88233 16.3623 5.44043C15.9203 4.99856 15.3213 4.75004 14.6963 4.75C14.0712 4.75 13.4713 4.99842 13.0293 5.44043L5.89551 12.5742C5.16217 13.3076 4.75 14.3027 4.75 15.3398C4.75006 16.3769 5.16222 17.3712 5.89551 18.1045C6.62879 18.8378 7.62314 19.2499 8.66016 19.25C9.69726 19.25 10.6924 18.8378 11.4258 18.1045L18.5596 10.9707C18.8525 10.6778 19.3272 10.6778 19.6201 10.9707C19.913 11.2636 19.913 11.7384 19.6201 12.0312L12.4863 19.165C11.4717 20.1797 10.0951 20.75 8.66016 20.75C7.22532 20.7499 5.84955 20.1796 4.83496 19.165C3.82037 18.1504 3.25006 16.7747 3.25 15.3398C3.25 13.9049 3.82031 12.5283 4.83496 11.5137L11.9688 4.37988C12.6921 3.65657 13.6734 3.25 14.6963 3.25C15.7192 3.25004 16.7005 3.6566 17.4238 4.37988C18.1468 5.10305 18.5526 6.08385 18.5527 7.10645C18.5527 8.12922 18.1469 9.1107 17.4238 9.83398L10.2812 16.9688C9.84929 17.4006 9.26314 17.6436 8.65234 17.6436C8.04153 17.6435 7.45535 17.4007 7.02344 16.9688C6.59153 16.5368 6.34967 15.9507 6.34961 15.3398C6.34961 14.7289 6.59243 14.1429 7.02441 13.7109L13.6152 7.12793C13.9083 6.83521 14.3831 6.83486 14.6758 7.12793C14.9685 7.42098 14.9678 7.89576 14.6748 8.18848L8.08398 14.7705C7.93331 14.9212 7.84961 15.1268 7.84961 15.3398C7.84967 15.5528 7.93434 15.7576 8.08496 15.9082C8.23553 16.0585 8.43958 16.1435 8.65234 16.1436C8.86531 16.1436 9.07005 16.0587 9.2207 15.9082L16.3623 8.77344C16.8043 8.33143 17.0527 7.73154 17.0527 7.10645Z" fill="currentColor"/>
</svg>
