<svg width="24" height="24" viewBox="0 0 24 24" fill="none" xmlns="http://www.w3.org/2000/svg">
<path fill-rule="evenodd" clip-rule="evenodd" d="M18.1787 3.25879C19.0613 3.3483 19.75 4.09383 19.75 5V19C19.75 19.9665 18.9665 20.75 18 20.75H10.9922L10.999 23.1143C10.9995 23.2762 10.8173 23.3719 10.6846 23.2793L9.86523 22.7061C9.79619 22.6577 9.70463 22.6575 9.63574 22.7061L8.8252 23.2783C8.69296 23.3715 8.51027 23.2771 8.50977 23.1152L8.50293 20.75H7C6.0335 20.75 5.25 19.9665 5.25 19V5C5.25 4.0335 6.0335 3.25 7 3.25H18L18.1787 3.25879ZM7 4.75C6.86193 4.75 6.75 4.86193 6.75 5V19C6.75 19.1381 6.86193 19.25 7 19.25H7.25V4.75H7ZM8.75 19.25H18C18.1381 19.25 18.25 19.1381 18.25 19V5C18.25 4.87931 18.1645 4.77833 18.0508 4.75488L18 4.75H8.75V19.25Z" fill="currentColor"/>
</svg>
