<svg width="24" height="24" viewBox="0 0 24 24" fill="none" xmlns="http://www.w3.org/2000/svg">
<path fill-rule="evenodd" clip-rule="evenodd" d="M10 3.57129C10.7887 3.57139 11.4976 3.90554 11.999 4.4375C12.5005 3.90509 13.2109 3.57129 14 3.57129H21.4111C21.8253 3.57129 22.1611 3.90708 22.1611 4.32129V17.4385C22.1611 18.405 21.3776 19.1885 20.4111 19.1885H15.5244L15.3047 19.1953C14.2139 19.2562 13.2412 19.7582 12.5615 20.5283C12.4192 20.6894 12.2149 20.7821 12 20.7822C11.7849 20.7822 11.5799 20.6896 11.4375 20.5283C10.7125 19.7069 9.65411 19.1898 8.47461 19.1885H3.58789C2.62139 19.1885 1.83789 18.405 1.83789 17.4385V4.32129C1.83789 3.90708 2.17368 3.57129 2.58789 3.57129H10ZM3.33789 17.4385C3.33789 17.5765 3.44982 17.6885 3.58789 17.6885H8.47656C9.48926 17.6896 10.4378 17.9674 11.25 18.4492V6.32129L11.2432 6.19336C11.1791 5.56321 10.647 5.07146 10 5.07129H3.33789V17.4385ZM14 5.07129C13.3096 5.07129 12.75 5.63093 12.75 6.32129V18.4482C13.562 17.9668 14.5102 17.6897 15.5225 17.6885H20.4111C20.5492 17.6885 20.6611 17.5765 20.6611 17.4385V5.07129H14Z" fill="currentColor"/>
</svg>
