<svg width="24" height="24" viewBox="0 0 24 24" fill="none" xmlns="http://www.w3.org/2000/svg">
<path d="M18.25 7C18.25 6.30964 17.6904 5.75 17 5.75H15.6436C15.3168 6.90386 14.2585 7.75 13 7.75H11C9.7415 7.75 8.68316 6.90386 8.35645 5.75H7C6.30964 5.75 5.75 6.30964 5.75 7V19C5.75 19.6904 6.30964 20.25 7 20.25H17C17.6904 20.25 18.25 19.6904 18.25 19V7ZM14.4697 11.4697C14.7626 11.1768 15.2374 11.1768 15.5303 11.4697C15.8232 11.7626 15.8232 12.2374 15.5303 12.5303L11.5303 16.5303C11.2374 16.8232 10.7626 16.8232 10.4697 16.5303L8.46973 14.5303C8.17683 14.2374 8.17683 13.7626 8.46973 13.4697C8.76262 13.1768 9.23738 13.1768 9.53027 13.4697L11 14.9395L14.4697 11.4697ZM11 3.75C10.3096 3.75 9.75 4.30964 9.75 5C9.75 5.69036 10.3096 6.25 11 6.25H13C13.6904 6.25 14.25 5.69036 14.25 5C14.25 4.30964 13.6904 3.75 13 3.75H11ZM19.75 19C19.75 20.5188 18.5188 21.75 17 21.75H7C5.48122 21.75 4.25 20.5188 4.25 19V7C4.25 5.48122 5.48122 4.25 7 4.25H8.35645C8.68316 3.09614 9.7415 2.25 11 2.25H13C14.2585 2.25 15.3168 3.09614 15.6436 4.25H17C18.5188 4.25 19.75 5.48122 19.75 7V19Z" fill="currentColor"/>
</svg>
