<svg width="24" height="24" viewBox="0 0 24 24" fill="none" xmlns="http://www.w3.org/2000/svg">
<path d="M3.25 17V7C3.25 4.92893 4.92894 3.25 7 3.25H16C16.4142 3.25 16.75 3.58579 16.75 4C16.75 4.41421 16.4142 4.75 16 4.75H7C5.75736 4.75 4.75 5.75736 4.75 7V17C4.75 18.2426 5.75736 19.25 7 19.25H17C18.2426 19.25 19.25 18.2426 19.25 17V11.7627C19.2501 11.3485 19.5858 11.0127 20 11.0127C20.4142 11.0127 20.7499 11.3486 20.75 11.7627V17C20.75 19.0711 19.0711 20.75 17 20.75H7C4.92893 20.75 3.25 19.0711 3.25 17ZM18.4697 6.46973C18.7626 6.17684 19.2374 6.17683 19.5303 6.46973C19.8232 6.76262 19.8232 7.23738 19.5303 7.53027L13.5703 13.4902C12.8869 14.1732 11.779 14.1734 11.0957 13.4902L8.46973 10.8633C8.17699 10.5704 8.17689 10.0956 8.46973 9.80273C8.76258 9.51006 9.23742 9.51006 9.53027 9.80273L12.1562 12.4297C12.2538 12.5271 12.4121 12.5269 12.5098 12.4297L18.4697 6.46973Z" fill="currentColor"/>
</svg>
