<svg width="24" height="24" viewBox="0 0 24 24" fill="none" xmlns="http://www.w3.org/2000/svg">
<path d="M3.25 16.5V6.5C3.25 4.98122 4.48122 3.75 6 3.75H8.55859C9.69755 3.75014 10.7748 4.26787 11.4863 5.15723L11.9854 5.78125C12.2232 6.07833 12.5804 6.25 12.959 6.25H17.001C19.0722 6.25013 20.75 7.92925 20.75 10V16.5C20.75 18.5711 19.0711 20.25 17 20.25H7C4.92893 20.25 3.25 18.5711 3.25 16.5ZM4.75 16.5C4.75 17.7426 5.75736 18.75 7 18.75H17C18.2426 18.75 19.25 17.7426 19.25 16.5V10C19.25 8.7572 18.2433 7.75013 17.001 7.75H12.959C12.1226 7.75 11.3347 7.36935 10.8135 6.71777L10.3154 6.09473C9.88854 5.56111 9.24193 5.25014 8.55859 5.25H6C5.30965 5.25 4.75 5.80965 4.75 6.5V16.5Z" fill="currentColor"/>
</svg>
