<svg width="24" height="24" viewBox="0 0 24 24" fill="none" xmlns="http://www.w3.org/2000/svg">
<path d="M0.81353 5.80535L0.754196 4.5C0.754196 2.84315 2.09734 1.5 3.7542 1.5H9.26155C10.0572 1.5 10.8203 1.81607 11.3829 2.37868L12.6255 3.62132C13.1881 4.18393 13.9512 4.5 14.7468 4.5H20.7191C22.4832 4.5 23.8665 6.01476 23.7068 7.77161L22.7522 18.2716C22.6118 19.8168 21.3162 21 19.7646 21H4.24385C2.69224 21 1.39665 19.8168 1.25617 18.2716L0.301627 7.77161C0.235544 7.0447 0.43362 6.35923 0.81353 5.80535ZM3.28931 6C2.40726 6 1.71561 6.75738 1.79547 7.63581L2.75001 18.1358C2.82025 18.9084 3.46805 19.5 4.24385 19.5H19.7646C20.5404 19.5 21.1882 18.9084 21.2584 18.1358L22.2129 7.6358C22.2928 6.75738 21.6012 6 20.7191 6H3.28931ZM10.3222 3.43934C10.0409 3.15804 9.65938 3 9.26155 3H3.7542C2.93523 3 2.26955 3.65633 2.25446 4.47169L2.2639 4.67947C2.58311 4.56346 2.92823 4.5 3.28931 4.5H11.3829L10.3222 3.43934Z" fill="currentColor"/>
</svg>
