<svg width="24" height="24" viewBox="0 0 24 24" fill="none" xmlns="http://www.w3.org/2000/svg">
<path fill-rule="evenodd" clip-rule="evenodd" d="M18.1787 3.25879C19.0613 3.3483 19.75 4.09383 19.75 5V19C19.75 19.9665 18.9665 20.75 18 20.75H7C6.0335 20.75 5.25 19.9665 5.25 19V5C5.25 4.0335 6.0335 3.25 7 3.25H18L18.1787 3.25879ZM7 4.75C6.86193 4.75 6.75 4.86193 6.75 5V19C6.75 19.1381 6.86193 19.25 7 19.25H7.25V4.75H7ZM8.75 19.25H18C18.1381 19.25 18.25 19.1381 18.25 19V14.0703H17.3594C16.3929 14.0703 15.6094 13.2868 15.6094 12.3203V11.6807C15.6094 10.7142 16.3929 9.93066 17.3594 9.93066H18.25V5C18.25 4.87931 18.1645 4.77833 18.0508 4.75488L18 4.75H8.75V19.25ZM17.3594 11.4307C17.2213 11.4307 17.1094 11.5426 17.1094 11.6807V12.3203C17.1094 12.4584 17.2213 12.5703 17.3594 12.5703H18.249V11.4307H17.3594Z" fill="currentColor"/>
</svg>
