<svg width="24" height="24" viewBox="0 0 24 24" fill="none" xmlns="http://www.w3.org/2000/svg">
<path fill-rule="evenodd" clip-rule="evenodd" d="M3.1084 2.91523C3.2858 2.77304 3.51926 2.71848 3.74121 2.76777L12.6621 4.75019H21.5781C21.9923 4.75019 22.328 5.08608 22.3281 5.50019V18.5002C22.3281 18.9144 21.9923 19.2502 21.5781 19.2502H12.6621L3.74121 21.2326C3.51914 21.282 3.28585 21.2275 3.1084 21.0852C2.93126 20.9428 2.82812 20.7275 2.82812 20.5002V20.1701H2.26855C1.85434 20.1701 1.51855 19.8343 1.51855 19.4201V4.57929C1.51867 4.16518 1.85441 3.8293 2.26855 3.82929H2.82812V3.50019C2.82826 3.27299 2.93125 3.05749 3.1084 2.91523ZM4.32812 19.5646L11.8281 17.8977V6.10175L4.32812 4.43476V19.5646ZM13.3281 17.7502H20.8281V6.25019H13.3281V17.7502Z" fill="currentColor"/>
</svg>
