<svg width="24" height="24" viewBox="0 0 24 24" fill="currentColor" xmlns="http://www.w3.org/2000/svg">
<path fill-rule="evenodd" clip-rule="evenodd" d="M14.25 2.25C14.2988 2.25 14.3464 2.25479 14.3926 2.26367L14.3975 2.26465C14.4864 2.28239 14.569 2.31707 14.6436 2.36328C14.6512 2.36803 14.6595 2.37192 14.667 2.37695C14.7077 2.40425 14.7457 2.43519 14.7803 2.46973L20.0254 7.71484C20.1643 7.85096 20.251 8.04019 20.251 8.25C20.251 8.25621 20.2502 8.26238 20.25 8.26855V20.25L20.2422 20.3984C20.2081 20.7417 20.0566 21.0645 19.8105 21.3105C19.5645 21.5566 19.2417 21.7081 18.8984 21.7422L18.75 21.75H5.25C4.85219 21.75 4.47074 21.5918 4.18945 21.3105C3.94338 21.0645 3.79195 20.7417 3.75781 20.3984L3.75 20.25V3.75C3.75 3.35219 3.90816 2.97076 4.18945 2.68945C4.47074 2.40816 4.85219 2.25001 5.25 2.25H14.25ZM5.25 20.25H18.75V9H14.25C13.8358 9 13.5 8.66421 13.5 8.25V3.75H5.25V20.25ZM15 7.5H17.6895L15 4.81055V7.5Z" fill="currentColor"/>
</svg>
