<svg width="24" height="24" viewBox="0 0 24 24" fill="none" xmlns="http://www.w3.org/2000/svg">
<path d="M2.25 5C2.25 3.48122 3.48122 2.25 5 2.25H11.5C11.6989 2.25 11.8896 2.32907 12.0303 2.46973L12.8105 3.25H21L21.0967 3.25586C21.3187 3.28468 21.5181 3.41222 21.6377 3.60547C21.7743 3.82646 21.7869 4.10255 21.6709 4.33496L18.8379 10L21.6709 15.665C21.7869 15.8974 21.7743 16.1735 21.6377 16.3945C21.501 16.6155 21.2598 16.75 21 16.75H12.5C12.3011 16.75 12.1104 16.6709 11.9697 16.5303L11.1895 15.75H5C4.30964 15.75 3.75 16.3096 3.75 17V21C3.75 21.4142 3.41421 21.75 3 21.75C2.58579 21.75 2.25 21.4142 2.25 21V5ZM3.75 14.5527C4.12532 14.3606 4.54942 14.25 5 14.25H11.5C11.6989 14.25 11.8896 14.3291 12.0303 14.4697L12.8105 15.25H19.7861L17.3291 10.335C17.2238 10.124 17.2238 9.87597 17.3291 9.66504L19.7861 4.75H12.75V9C12.75 9.41421 12.4142 9.75 12 9.75C11.5858 9.75 11.25 9.41421 11.25 9V3.81055L11.1895 3.75H5C4.30964 3.75 3.75 4.30964 3.75 5V14.5527Z" fill="currentColor"/>
</svg>
