<svg width="24" height="24" viewBox="0 0 24 24" fill="none" xmlns="http://www.w3.org/2000/svg">
<path d="M20.25 9.58008C20.2499 9.08083 20.1485 8.58573 19.9502 8.12305C19.7766 7.71791 19.5315 7.34381 19.2256 7.01758L19.0908 6.88086C18.7217 6.52385 18.2815 6.23945 17.7959 6.04492C17.3105 5.85053 16.7895 5.75005 16.2627 5.75C15.7357 5.75 15.2141 5.85044 14.7285 6.04492C14.2429 6.23945 13.8027 6.52385 13.4336 6.88086L12.8682 7.42773C12.3859 7.89404 11.6141 7.89404 11.1318 7.42773L10.5654 6.88086C9.81951 6.15981 8.80266 5.75001 7.7373 5.75C6.67196 5.75 5.65511 6.15984 4.90918 6.88086C4.16419 7.60113 3.75012 8.57276 3.75 9.58008C3.75 10.5876 4.16408 11.5599 4.90918 12.2803L10.4395 17.627C11.2983 18.4573 12.7007 18.4573 13.5596 17.627L19.0908 12.2803L19.2256 12.1426C19.5313 11.8165 19.7767 11.443 19.9502 11.0381C20.1485 10.5753 20.25 10.0795 20.25 9.58008ZM21.75 9.58008C21.75 10.2837 21.607 10.9804 21.3291 11.6289C21.0512 12.2773 20.6435 12.8638 20.1328 13.3574L14.6025 18.7061C13.1622 20.0983 10.8367 20.0985 9.39648 18.7061L3.86621 13.3584C2.8345 12.3609 2.25 11.002 2.25 9.58008C2.25012 8.15829 2.83461 6.80011 3.86621 5.80273C4.89706 4.80608 6.29001 4.25 7.7373 4.25C9.18458 4.25001 10.5776 4.80609 11.6084 5.80273L11.999 6.18066L12.3916 5.80273L12.5869 5.62207C13.0537 5.21295 13.5901 4.88503 14.1709 4.65234C14.8347 4.38651 15.5456 4.25 16.2627 4.25C16.9798 4.25005 17.6907 4.38644 18.3545 4.65234C19.0183 4.91831 19.6233 5.30894 20.1338 5.80273H20.1328C20.6437 6.2964 21.0512 6.88373 21.3291 7.53223C21.607 8.18061 21.7499 8.87667 21.75 9.58008Z" fill="currentColor"/>
</svg>
