<svg width="24" height="24" viewBox="0 0 24 24" fill="none" xmlns="http://www.w3.org/2000/svg">
<path d="M12.7877 5.78769C14.8379 3.73744 18.1613 3.73744 20.2115 5.78769C22.2618 7.83794 22.2618 11.1613 20.2115 13.2115L12.5299 20.8941C12.3892 21.0347 12.1984 21.1139 11.9996 21.1139C11.8008 21.1138 11.61 21.0347 11.4693 20.8941L3.78769 13.2115C1.73744 11.1613 1.73744 7.83794 3.78769 5.78769C5.83794 3.73744 9.16126 3.73744 11.2115 5.78769L11.9996 6.5748L12.7877 5.78769ZM19.151 6.84824C17.6865 5.38377 15.3127 5.38377 13.8482 6.84824L12.5299 8.16562C12.3892 8.30628 12.1985 8.38534 11.9996 8.38535C11.8007 8.38533 11.61 8.30626 11.4693 8.16562L10.151 6.84824C8.6865 5.38377 6.3127 5.38377 4.84824 6.84824C3.38377 8.3127 3.38377 10.6865 4.84824 12.151L11.9996 19.3023L19.151 12.151C20.6154 10.6865 20.6154 8.3127 19.151 6.84824Z" fill="currentColor"/>
</svg>
