<svg width="24" height="24" viewBox="0 0 24 24" fill="none" xmlns="http://www.w3.org/2000/svg">
<path d="M7 12C7 9.23858 9.23858 7 12 7C13.3845 7 14.6348 7.58717 15.5 8.53379L21.4142 2.61961L22.8284 4.03382L20.4142 6.44804L22.1213 8.15513L20.7071 9.56935L19 7.86225L17.1213 9.74097L18.8284 11.4481L17.4142 12.8623L15.7071 11.1552L13.7372 13.125C14.553 14.0536 15 15.1902 15 16.5C15 19.2614 12.7614 21.5 10 21.5C7.23858 21.5 5 19.2614 5 16.5C5 13.7386 7.23858 11.5 10 11.5C10.3333 11.5 10.6591 11.5325 10.9743 11.5941L12.2636 10.3048C11.5615 9.48913 11.1667 8.47826 11.1667 7.33333C11.1667 6.68696 11.3333 6.10435 11.6 5.58333C9.42029 5.78261 7.65217 7.0029 7.0855 8.7L7 9C7 9.91304 7.24493 10.7826 7.67633 11.5348L7.7 11.5C6.76233 11.5 6 10.7377 6 9.8C6 9.36667 6.09167 8.94667 6.26667 8.56L6.3 8.5C6.85 7.36667 7.78333 6.46667 8.95 6.05L9 6C9 4.89543 9.89543 4 11 4C11.5523 4 12 4.44772 12 5V9C12 10.1046 11.1046 11 10 11C9.44772 11 9 10.5523 9 10V9C9 8.44772 8.55228 8 8 8C7.44772 8 7 8.44772 7 9V12ZM10 13.5C8.34315 13.5 7 14.8431 7 16.5C7 18.1569 8.34315 19.5 10 19.5C11.6569 19.5 13 18.1569 13 16.5C13 14.8431 11.6569 13.5 10 13.5Z" fill="currentColor"/>
</svg>
