<svg width="24" height="24" viewBox="0 0 24 24" fill="none" xmlns="http://www.w3.org/2000/svg">
  <path fill-rule="evenodd" clip-rule="evenodd" d="M2.69922 4.26667C2.69922 3.85122 2.86426 3.45278 3.15803 3.15901C3.4518 2.86524 3.85024 2.7002 4.2657 2.7002H19.881C20.0869 2.69986 20.2909 2.74014 20.4812 2.81872C20.6715 2.8973 20.8444 3.01265 20.9901 3.15815C21.1357 3.30366 21.2513 3.47647 21.33 3.66668C21.4088 3.8569 21.4493 4.06079 21.4492 4.26667V19.882C21.4494 20.0879 21.4091 20.2919 21.3304 20.4822C21.2517 20.6725 21.1363 20.8454 20.9907 20.9911C20.8451 21.1367 20.6723 21.2523 20.482 21.331C20.2917 21.4098 20.0878 21.4503 19.8819 21.4502H4.2657C4.05991 21.4502 3.85614 21.4096 3.66603 21.3309C3.47592 21.2521 3.3032 21.1366 3.15773 20.9911C3.01226 20.8455 2.89689 20.6727 2.81822 20.4826C2.73954 20.2924 2.69911 20.0886 2.69922 19.8829V4.26667ZM10.1208 9.84906H12.6597V11.1241C13.0262 10.3911 13.9637 9.73145 15.3725 9.73145C18.0734 9.73145 18.7134 11.1914 18.7134 13.8701V18.832H15.9802V14.4803C15.9802 12.9547 15.6137 12.0939 14.683 12.0939C13.3918 12.0939 12.8549 13.0221 12.8549 14.4803V18.832H10.1208V9.84906ZM5.43331 18.7153H8.1674V9.73145H5.43331V18.7144V18.7153ZM8.55859 6.80133C8.56375 7.03543 8.52209 7.2682 8.43607 7.48598C8.35005 7.70376 8.22139 7.90216 8.05765 8.06954C7.89392 8.23693 7.69839 8.36992 7.48256 8.46071C7.26673 8.55151 7.03493 8.59828 6.80078 8.59828C6.56663 8.59828 6.33483 8.55151 6.119 8.46071C5.90317 8.36992 5.70765 8.23693 5.54391 8.06954C5.38017 7.90216 5.25151 7.70376 5.16549 7.48598C5.07947 7.2682 5.03781 7.03543 5.04297 6.80133C5.05309 6.34183 5.24273 5.90456 5.57128 5.58317C5.89983 5.26177 6.34117 5.0818 6.80078 5.0818C7.26039 5.0818 7.70173 5.26177 8.03028 5.58317C8.35883 5.90456 8.54848 6.34183 8.55859 6.80133V6.80133Z" fill="currentColor"/>
</svg>
