<svg width="24" height="24" viewBox="0 0 24 24" fill="none" xmlns="http://www.w3.org/2000/svg">
  <path d="M21.9008 6.06843C21.1892 6.38414 20.4248 6.59746 19.6212 6.69388C20.4503 6.1971 21.0707 5.41523 21.3665 4.49416C20.5874 4.95747 19.7348 5.2836 18.8457 5.45835C18.2477 4.81914 17.4558 4.39546 16.5927 4.25309C15.7297 4.11072 14.8438 4.25763 14.0727 4.671C13.3016 5.08438 12.6883 5.74109 12.3282 6.53918C11.968 7.33728 11.8811 8.2321 12.0809 9.08472C10.5024 9.00537 8.95814 8.59456 7.54843 7.87898C6.13872 7.16339 4.89504 6.15902 3.89811 4.93103C3.55723 5.51978 3.36122 6.2024 3.36122 6.92938C3.36084 7.58383 3.5218 8.22825 3.82983 8.80548C4.13785 9.3827 4.58341 9.87488 5.12697 10.2383C4.49658 10.2183 3.8801 10.0477 3.32884 9.74088V9.79208C3.32877 10.71 3.64588 11.5996 4.22636 12.3101C4.80683 13.0205 5.61492 13.508 6.5135 13.6898C5.92871 13.8483 5.3156 13.8716 4.72048 13.7581C4.974 14.5478 5.46785 15.2385 6.13288 15.7333C6.79791 16.2281 7.60083 16.5023 8.42924 16.5175C7.02297 17.6228 5.28624 18.2224 3.49842 18.2198C3.18173 18.2199 2.86531 18.2013 2.55078 18.1643C4.36552 19.3326 6.478 19.9526 8.63547 19.9502C15.9388 19.9502 19.9314 13.8937 19.9314 8.64102C19.9314 8.47037 19.9271 8.29801 19.9194 8.12736C20.696 7.56504 21.3664 6.86871 21.8991 6.07099L21.9008 6.06843V6.06843Z" fill="currentColor"/>
</svg>
