<svg width="24" height="24" viewBox="0 0 24 24" fill="none" xmlns="http://www.w3.org/2000/svg">
<path d="M12 2C9.79086 2 8 3.79086 8 6V8H7C5.89543 8 5 8.89543 5 10V20C5 21.1046 5.89543 22 7 22H17C18.1046 22 19 21.1046 19 20V10C19 8.89543 18.1046 8 17 8H10V6C10 4.89543 10.8954 4 12 4C13.1046 4 14 4.89543 14 6H16C16 3.79086 14.2091 2 12 2ZM7 10H17V20H7V10ZM12 13C11.4477 13 11 13.4477 11 14V16C11 16.5523 11.4477 17 12 17C12.5523 17 13 16.5523 13 16V14C13 13.4477 12.5523 13 12 13Z" fill="currentColor"/>
</svg>
