<svg width="24" height="24" viewBox="0 0 24 24" fill="none" xmlns="http://www.w3.org/2000/svg">
<path d="M20.25 12C20.25 7.44365 16.5563 3.75 12 3.75C7.44365 3.75 3.75 7.44365 3.75 12C3.75 13.8108 4.33511 15.4841 5.32422 16.8447C7.32947 15.8252 9.5984 15.25 12 15.25C14.4013 15.25 16.6697 15.8255 18.6748 16.8447C19.6641 15.4841 20.25 13.811 20.25 12ZM12 16.75C9.97883 16.75 8.06512 17.2025 6.35254 18.0107C7.8287 19.3982 9.81426 20.25 12 20.25C14.1855 20.25 16.1704 19.3979 17.6465 18.0107C15.9341 17.2028 14.0209 16.75 12 16.75ZM14.25 10C14.25 8.75736 13.2426 7.75 12 7.75C10.7574 7.75 9.75 8.75736 9.75 10C9.75 11.2426 10.7574 12.25 12 12.25C13.2426 12.25 14.25 11.2426 14.25 10ZM21.75 12C21.75 14.383 20.8935 16.5651 19.4736 18.2588C19.4593 18.2775 19.4435 18.2945 19.4277 18.3115C17.6393 20.4141 14.9766 21.75 12 21.75C9.02317 21.75 6.35969 20.4144 4.57129 18.3115C4.55557 18.2945 4.53965 18.2775 4.52539 18.2588C3.10575 16.5652 2.25 14.3828 2.25 12C2.25 6.61522 6.61522 2.25 12 2.25C17.3848 2.25 21.75 6.61522 21.75 12ZM15.75 10C15.75 12.0711 14.0711 13.75 12 13.75C9.92893 13.75 8.25 12.0711 8.25 10C8.25 7.92893 9.92893 6.25 12 6.25C14.0711 6.25 15.75 7.92893 15.75 10Z" fill="currentColor"/>
</svg>
