<svg width="24" height="24" viewBox="0 0 24 24" fill="none" xmlns="http://www.w3.org/2000/svg">
<path d="M9 11C11.2091 11 13 9.20914 13 7C13 4.79086 11.2091 3 9 3C6.79086 3 5 4.79086 5 7C5 9.20914 6.79086 11 9 11ZM9 13C4.58172 13 1 14.7909 1 17V19H17V17C17 14.7909 13.4183 13 9 13ZM17 11C18.6569 11 20 9.65685 20 8C20 6.34315 18.6569 5 17 5V3C19.7614 3 22 5.23858 22 8C22 10.7614 19.7614 13 17 13V11ZM17 15C20.3137 15 23 16.3431 23 18V19H19V17C19 16.2688 18.7454 15.588 18.3104 15H17Z" fill="currentColor"/>
</svg>
