<svg width="24" height="24" viewBox="0 0 24 24" fill="none" xmlns="http://www.w3.org/2000/svg">
<path d="M19 11C19 14.53 16.39 17.43 13 17.93V21H11V17.93C7.61 17.43 5 14.53 5 11H7C7 13.76 9.24 16 12 16C12.66 16 13.29 15.88 13.88 15.66L15.17 16.95C14.28 17.31 13.16 17.5 12 17.5V17.93C7.61 17.43 5 14.53 5 11H7C7 13.76 9.24 16 12 16L19.07 9.93C19.58 10.54 19.9 11.24 19.95 12H19C19 11.66 18.96 11.33 18.88 11H19ZM15 11V5C15 3.34 13.66 2 12 2C10.34 2 9 3.34 9 5V5.17L15 11.17V11ZM3.41 1.86L2 3.27L9 10.27V11C9 12.66 10.34 14 12 14C12.23 14 12.44 13.97 12.65 13.92L14.98 16.25C14.05 16.71 13 17 12 17C9.24 17 7 14.76 7 12H5C5 15.53 7.61 18.43 11 18.93V22H13V18.93C14.16 18.76 15.23 18.31 16.15 17.65L20.73 22.23L22.14 20.82L3.41 1.86Z" fill="currentColor"/>
</svg>
