<svg width="24" height="24" viewBox="0 0 24 24" fill="none" xmlns="http://www.w3.org/2000/svg">
<path d="M12.25 11V4.5C12.25 4.08579 11.9142 3.75 11.5 3.75C11.0858 3.75 10.75 4.08579 10.75 4.5V11C10.75 11.4142 10.4142 11.75 10 11.75C9.58579 11.75 9.25 11.4142 9.25 11V5.5C9.25 5.08579 8.91421 4.75 8.5 4.75C8.08579 4.75 7.75 5.08579 7.75 5.5V14C7.75 14.4142 7.41421 14.75 7 14.75C6.58579 14.75 6.25 14.4142 6.25 14V11.5C6.25 11.0858 5.91421 10.75 5.5 10.75C5.08579 10.75 4.75 11.0858 4.75 11.5V13.5C4.75 17.2279 7.77208 20.25 11.5 20.25C15.2279 20.25 18.25 17.2279 18.25 13.5V8.5C18.25 8.08579 17.9142 7.75 17.5 7.75C17.0858 7.75 16.75 8.08579 16.75 8.5V11C16.75 11.4142 16.4142 11.75 16 11.75C15.5858 11.75 15.25 11.4142 15.25 11V5.5C15.25 5.08579 14.9142 4.75 14.5 4.75C14.0858 4.75 13.75 5.08579 13.75 5.5V11C13.75 11.4142 13.4142 11.75 13 11.75C12.5858 11.75 12.25 11.4142 12.25 11ZM16.75 6.38086C16.9848 6.29775 17.2367 6.25 17.5 6.25C18.7426 6.25 19.75 7.25736 19.75 8.5V13.5C19.75 18.0563 16.0563 21.75 11.5 21.75C6.94365 21.75 3.25 18.0563 3.25 13.5V11.5C3.25 10.2574 4.25736 9.25 5.5 9.25C5.76331 9.25 6.01516 9.29775 6.25 9.38086V5.5C6.25 4.25736 7.25736 3.25 8.5 3.25C8.85726 3.25 9.19412 3.33521 9.49414 3.4834C9.86558 2.75197 10.6235 2.25 11.5 2.25C12.3763 2.25 13.1334 2.75218 13.5049 3.4834C13.8051 3.33497 14.1424 3.25 14.5 3.25C15.7426 3.25 16.75 4.25736 16.75 5.5V6.38086Z" fill="currentColor"/>
</svg>
