<svg width="24" height="24" viewBox="0 0 24 24" fill="none" xmlns="http://www.w3.org/2000/svg">
<path d="M6.87263 7.24219C9.70315 4.41167 14.296 4.41168 17.1265 7.24219C19.9571 10.0727 19.9571 14.6656 17.1265 17.4961C14.296 20.3266 9.70315 20.3266 6.87263 17.4961C4.04211 14.6656 4.04211 10.0727 6.87263 7.24219ZM15.7125 8.65625C13.663 6.60679 10.3362 6.60678 8.2867 8.65625C6.23722 10.7057 6.23722 14.0326 8.2867 16.082C10.3362 18.1315 13.663 18.1315 15.7125 16.082C17.762 14.0326 17.762 10.7057 15.7125 8.65625Z" fill="currentColor"/>
<path d="M2.21834 10.1367C2.76599 10.2075 3.15322 10.7092 3.08259 11.2568C2.83942 13.1392 3.18085 15.1069 4.20564 16.8779L4.20662 16.8789C5.25075 18.6881 6.8233 19.9905 8.62166 20.71C9.13444 20.9151 9.38439 21.498 9.17927 22.0107C8.97409 22.5232 8.39209 22.7723 7.87947 22.5674C5.678 21.6868 3.74998 20.0895 2.47419 17.8789C1.21991 15.7105 0.802495 13.2979 1.09919 11.001C1.16994 10.4534 1.67075 10.0662 2.21834 10.1367Z" fill="currentColor"/>
<path d="M12.0015 1.35938C14.5019 1.35946 16.8024 2.20883 18.647 3.61426C19.0863 3.94898 19.1712 4.57634 18.8365 5.01562C18.5018 5.45472 17.8744 5.53961 17.4351 5.20508C15.92 4.05066 14.0408 3.35946 12.0015 3.35938C9.9134 3.35938 7.99816 4.06904 6.46736 5.2666C6.03238 5.60691 5.40337 5.53068 5.06306 5.0957C4.72288 4.66073 4.8 4.03168 5.23494 3.69141C7.10408 2.22913 9.44984 1.35938 12.0015 1.35938Z" fill="currentColor"/>
<path d="M21.7818 10.1367C22.3294 10.0662 22.8302 10.4534 22.901 11.001C23.1977 13.298 22.7794 15.7094 21.525 17.8779C20.2492 20.0886 18.3222 21.6868 16.1207 22.5674C15.6081 22.7723 15.0261 22.5232 14.8209 22.0107C14.6158 21.498 14.8657 20.9151 15.3785 20.71C17.1768 19.9905 18.7494 18.6881 19.7935 16.8789L19.7945 16.8779C20.8193 15.1069 21.1607 13.1392 20.9176 11.2568C20.8469 10.7092 21.2342 10.2075 21.7818 10.1367Z" fill="currentColor"/>
</svg>
