<svg width="24" height="24" viewBox="0 0 24 24" fill="none" xmlns="http://www.w3.org/2000/svg">
<path d="M11.9996 1.59277C13.6746 1.59277 15.1258 2.73321 16.1139 4.51465L22.1744 15.4248C23.1211 17.1323 23.2951 18.9048 22.4694 20.3086C21.6434 21.7126 20.0108 22.4199 18.0602 22.4199H11.9996C11.9539 22.4199 11.909 22.4161 11.8649 22.4102H5.94008C3.98539 22.4102 2.35102 21.7033 1.52601 20.2979C0.701634 18.8933 0.87983 17.1212 1.82582 15.415L4.94594 9.79492L7.88636 4.51367C8.87436 2.73284 10.3251 1.59296 11.9996 1.59277ZM11.9996 3.59277C11.3249 3.59297 10.4261 4.05756 9.63441 5.48535L9.63344 5.48633L6.69398 10.7666L6.69301 10.7656L3.57484 16.3857C2.84105 17.7094 2.90357 18.6922 3.2516 19.2852C3.59912 19.8771 4.4248 20.4102 5.94008 20.4102H11.9996C12.0449 20.4102 12.0898 20.4141 12.1334 20.4199H18.0602C19.5692 20.4199 20.3966 19.8882 20.7457 19.2949C21.0732 18.7383 21.1495 17.8388 20.5534 16.6387L20.4254 16.3955L14.3659 5.48633C13.574 4.05824 12.6744 3.59277 11.9996 3.59277Z" fill="currentColor"/>
<path d="M11.5631 12.4912C11.8863 12.3328 12.2754 12.3593 12.5768 12.5703L22.0162 19.1807C22.4686 19.4974 22.5791 20.1208 22.2623 20.5732C21.9456 21.0256 21.3222 21.1351 20.8698 20.8184L12.0026 14.6104L3.13636 20.8184C2.68396 21.1351 2.06056 21.0256 1.74379 20.5732C1.42707 20.1208 1.5375 19.4974 1.98988 19.1807L11.4293 12.5703L11.5631 12.4912Z" fill="currentColor"/>
<path d="M11.0006 13.3896V3C11.0006 2.44772 11.4483 2 12.0006 2C12.5529 2 13.0006 2.44772 13.0006 3V13.3896C13.0006 13.9419 12.5529 14.3896 12.0006 14.3896C11.4483 14.3896 11.0006 13.9419 11.0006 13.3896Z" fill="currentColor"/>
</svg>
