<svg width="24" height="24" viewBox="0 0 24 24" fill="none" xmlns="http://www.w3.org/2000/svg">
<path d="M4.11546 17.9562C5.89224 16.8948 8.10816 16.8949 9.88499 17.9562C11.188 18.7347 12.8124 18.7346 14.1155 17.9562C15.7813 16.9611 17.8331 16.899 19.5471 17.7697L19.885 17.9562L19.886 17.9572L22.386 19.4572C22.7412 19.6703 22.8569 20.1313 22.6438 20.4865C22.4306 20.8416 21.9696 20.9564 21.6145 20.7433L19.1155 19.2433C17.8125 18.4653 16.1878 18.466 14.885 19.2443C13.1081 20.3057 10.8923 20.3058 9.11546 19.2443C7.81243 18.4661 6.18796 18.4659 4.88499 19.2443L4.88401 19.2433L2.38597 20.7433C2.03083 20.9562 1.56973 20.8416 1.35667 20.4865C1.14381 20.1314 1.25956 19.6703 1.61448 19.4572L4.11448 17.9572L4.11546 17.9562Z" fill="currentColor"/>
<path d="M4.11546 10.9562C5.89224 9.89478 8.10816 9.89491 9.88499 10.9562C11.188 11.7347 12.8124 11.7346 14.1155 10.9562C15.7813 9.96109 17.8331 9.89901 19.5471 10.7697L19.885 10.9562L19.886 10.9572L22.386 12.4572C22.7412 12.6703 22.8569 13.1313 22.6438 13.4865C22.4306 13.8416 21.9696 13.9564 21.6145 13.7433L19.1155 12.2433C17.8125 11.4653 16.1878 11.466 14.885 12.2443C13.1081 13.3057 10.8923 13.3058 9.11546 12.2443C7.81243 11.4661 6.18796 11.4659 4.88499 12.2443L4.88401 12.2433L2.38597 13.7433C2.03083 13.9562 1.56974 13.8416 1.35667 13.4865C1.14381 13.1314 1.25956 12.6703 1.61448 12.4572L4.11448 10.9572L4.11546 10.9562Z" fill="currentColor"/>
<path d="M21.6145 3.25701C21.9695 3.04421 22.4306 3.16002 22.6438 3.51482C22.8567 3.86997 22.7411 4.33106 22.386 4.54412L19.886 6.04412C18.1091 7.10555 15.8923 7.10561 14.1155 6.04412C12.8125 5.26606 11.1878 5.2659 9.88499 6.04412C8.10812 7.10555 5.89231 7.10561 4.11546 6.04412L1.61448 4.54412C1.25971 4.33096 1.14387 3.86984 1.35667 3.51482C1.56965 3.15989 2.03089 3.04446 2.38597 3.25701L4.88597 4.75701C6.1889 5.53527 7.8125 5.53521 9.11546 4.75701C10.8922 3.69556 13.1082 3.69572 14.885 4.75701C16.1877 5.53513 17.8116 5.53478 19.1145 4.75701L21.6145 3.25701Z" fill="currentColor"/>
</svg>
