<svg viewBox="0 0 2738 1032" fill="none" xmlns="http://www.w3.org/2000/svg">
<path fill-rule="evenodd" clip-rule="evenodd" d="M621.502 589.454C622.096 588.882 622.331 588.002 622.925 587.43C623.264 587.105 626.709 585.68 630.611 579.61C634.326 573.829 637.063 561.052 636.417 554.51C634.953 539.676 631.561 528.962 623.62 481.336C623.528 480.783 612.343 423.647 609.421 404.544C607.865 394.38 607.267 394.535 605.031 382.457C602.82 370.512 597.944 372.419 567.464 372.416C469.208 372.404 468.985 372.273 466.115 373.862C460.702 376.857 461.521 385.635 452.756 430.137C452.752 430.157 436.86 519.057 434.551 529.134C433.834 532.265 430.826 550.128 430.649 554.457C430.202 565.335 434.664 581.24 442.974 586.482C443.466 586.791 447.141 589.109 446.725 592.702C446.413 595.395 445.658 595.127 443.001 595.269C440.722 595.392 440.808 594.121 414.503 594.153C387.339 594.186 387.312 593.464 373.118 595.27C368.212 595.895 366.96 597.201 364.875 592.702C364.542 591.982 364.353 591.029 364.725 590.329C365.048 589.722 366.045 589.873 366.598 589.465C368.477 588.079 368.239 587.845 370.314 586.774C378.063 582.775 386.041 570.307 389.169 557.684C390.346 552.935 447.445 260.169 448.163 254.689C450.139 239.596 440.358 227.096 435.364 223.908C434.133 223.12 432.618 222.825 431.424 221.983C430.731 221.495 430.466 220.561 429.826 220.007C429.383 219.623 428.501 219.758 428.25 219.228C428.197 219.116 428.21 214.852 428.261 214.799C429.709 213.293 436.185 214.258 436.866 214.36C449.245 216.207 449.275 215.514 602.53 215.589C621.269 215.598 621.265 215.644 627.95 214.56C630.064 214.217 634.189 213.861 634.243 213.888C634.477 214.006 635.656 219.512 635.524 220.188C635.073 222.505 622.173 226.381 618.493 242.071C616.868 248.997 616.754 249.296 631.477 324.889C651.335 426.842 668.395 511.534 672.752 535.299C675 547.558 679.244 572.838 695.953 585.483C697.819 586.895 698.154 586.269 699.976 587.675C700.587 588.147 700.902 588.936 701.51 589.41C702.026 589.811 702.984 589.665 703.282 590.246C704.789 593.171 701.366 595.035 700.979 595.245C699.279 596.171 689.901 594.112 682.208 594.114C637.772 594.118 637.76 593.774 624.992 595.201C624.129 594.754 622.947 595.455 622.083 595.008C620.942 594.416 619.571 590.981 619.876 590.239C620.104 589.682 621.273 590.01 621.502 589.454ZM593.79 324.794C593.147 320.995 586.923 284.143 585.371 277.361C580.599 256.505 581.35 256.376 580.758 254.616C578.113 246.751 574.125 247.957 538.781 247.957C490.013 247.957 488.261 247.075 485.936 252.293C485.563 253.13 482.593 266.713 481.978 270.854C480.545 280.492 480.116 280.339 478.421 289.91C470.735 333.278 468.568 334.041 471.822 337.715C474.434 340.664 475.075 340.276 506.91 340.227C590.796 340.097 591.746 340.77 593.376 338.094C595.086 335.292 595.614 335.145 593.79 324.794ZM2368.11 595.712C2348.43 593.205 2310.2 593.443 2294.96 595.119C2292.37 595.403 2291.69 595.662 2291.13 593.123C2290.38 589.671 2289.74 589.292 2292.2 586.771C2292.67 586.287 2293.37 586.086 2293.87 585.634C2309.66 571.318 2297.29 553.219 2284.69 519.619C2269.09 478.062 2268.14 478.487 2239.8 404.963C2238.2 400.811 2237.78 401.057 2219.33 353.248C2217.64 348.883 2215.6 341.484 2212 340.839C2207.68 340.068 2207.07 341.311 2188.38 358.615C2175.94 370.123 2175.79 369.892 2163.39 381.477C2121.53 420.586 2118.77 419.831 2118.22 430.047C2117.79 438.016 2118.23 535.704 2118.27 544.891C2118.32 555.922 2117.9 562.592 2125.89 576.788C2132.32 588.2 2139.78 586.051 2139 592.702C2138.51 596.819 2136.2 594.105 2100.44 594.136C2081.29 594.154 2081.32 593.452 2062.27 595.28C2061.82 595.323 2057.86 595.703 2056.61 594.691C2056.19 594.35 2055.72 590.665 2056.2 589.721C2056.46 589.2 2057.34 589.363 2057.79 588.989C2058.5 588.392 2058.9 587.484 2059.59 586.872C2059.69 586.787 2066.02 584.493 2072.25 570.609C2077.92 558.004 2077.2 557.471 2077.2 468.384C2077.2 261.68 2077.25 261.664 2076.77 258.112C2072.44 226.322 2059 223.573 2057.26 221.631C2056.9 221.229 2057.62 220.608 2057.71 220.074C2058.52 215.028 2058 214.569 2059.22 214.143C2061.37 213.392 2061.37 215.585 2087.69 215.623C2125.98 215.679 2125.95 215.252 2129.05 214.708C2129.54 214.623 2134.59 213.739 2135.28 214.062C2135.57 214.197 2136.75 219.167 2136.58 220.074C2136.09 222.65 2128.17 224.364 2122.36 238.727C2114.49 258.197 2120.25 287.309 2117.78 369.494C2117.63 374.385 2116.07 375.626 2120.47 377.736C2124.12 379.487 2127.75 374.206 2138.89 363.413C2144.85 357.638 2145.1 357.918 2214.73 292.583C2234.47 274.06 2234.88 274.575 2254.26 255.699C2254.89 255.087 2269.96 243.444 2267.29 229.087C2267.2 228.597 2266.66 225.681 2264.94 223.315C2264.68 222.948 2264.07 222.914 2263.83 222.533C2263.43 221.928 2259 215.085 2269.07 215.186C2276.81 215.265 2321.95 216.905 2339.43 214.274C2340.4 214.128 2350.21 212.649 2351.67 214.124C2351.94 214.4 2351.88 218.761 2351.53 219.271C2351.13 219.864 2350.16 219.732 2349.56 220.122C2348.97 220.506 2348.65 221.254 2348.02 221.559C2345.38 222.824 2336.11 222.441 2308.15 249.024C2306.45 250.644 2306.33 250.477 2286.49 268.898C2247.76 304.888 2246.99 304.667 2246.11 308.756C2245.25 312.739 2245.26 313.068 2262.86 356.864C2268.07 369.828 2321.51 502.865 2327.6 519.056C2332.46 531.971 2340.88 551.848 2342.08 554.681C2346.81 565.842 2349.88 572.129 2358.29 580.239C2364.87 586.583 2368.3 586.445 2370.25 587.677C2370.86 588.066 2371.18 588.824 2371.8 589.213C2372 589.878 2373.49 589.419 2373.69 590.084C2374.78 593.691 2374.83 594.742 2371.16 595.523C2370.17 595.735 2369.11 595.5 2368.11 595.712ZM2017.75 535.229C2017.59 536.303 2018.03 537.407 2017.87 538.481C2017.72 539.566 2012.64 550.356 2010.97 557.587C2007.59 572.211 2007.39 572.088 2007.13 573.362C2004.57 586.134 2004.26 593.112 1995.44 594.04C1994.33 594.158 1788.39 594.081 1784.92 594.088C1753.12 594.147 1752.76 596.396 1750.56 594.757C1748.7 593.374 1749.88 589.987 1750.01 589.595C1751.3 585.895 1766.97 585.225 1770.81 551.174C1771.02 549.304 1770.98 549.34 1770.98 296.251C1770.98 262.866 1773.15 241.288 1756.77 225.69C1753.83 222.896 1753.45 223.491 1751.3 221.717C1748.43 219.338 1750.3 218.764 1752.15 215.56C1753.4 213.4 1753.91 213.971 1756.35 214.352C1767.27 216.066 1767.29 215.539 1781.73 215.555C1965.83 215.769 1965.84 215.288 1969.87 215.779C1977.69 216.733 1978.6 219.006 1983.74 241.765C1989.44 267.001 1993.26 266.856 1991.18 270.339C1990.95 270.722 1986.84 272.489 1986.41 272.389C1985.87 272.264 1986.04 271.303 1985.65 270.902C1985.04 270.264 1984.12 269.982 1983.49 269.359C1982.96 268.837 1977.95 259.096 1963 252.613C1951.74 247.731 1951.22 248.733 1835.92 249.164C1820.89 249.22 1813.81 247.284 1812.98 257.936C1812.65 262.167 1812.79 319.724 1812.87 321.79C1813.41 334.722 1819.98 332.406 1839.1 332.386C1950.55 332.275 1950.54 332.521 1960.23 332.397C1976.19 332.193 1980.01 326.501 1985.48 328.62C1988.3 329.713 1989.23 333.814 1989.35 334.354C1991.93 345.708 1992.35 345.545 1994.95 356.894C1999.44 376.473 2002.8 379.639 2000.72 381.732C2000.51 381.952 1996.12 381.777 1995.65 381.476C1995.15 381.16 1995.51 380.227 1995.11 379.79C1994.45 379.067 1993.39 378.828 1992.65 378.184C1992.22 377.811 1992.06 377.202 1991.67 376.79C1979.88 364.41 1959.87 365.878 1947.46 365.888C1820.1 365.988 1819.89 365.448 1816.98 366.8C1812.13 369.047 1812.78 375.069 1812.78 407.819C1812.78 554.122 1812.59 554.453 1814.37 557.165C1817.33 561.678 1829.09 560.588 1829.54 560.587C1903.96 560.267 1966.19 561.582 1976.02 560.08C1994.23 557.299 2005.57 543.032 2007.4 540.722C2008.93 538.793 2009.02 538.964 2010.71 537.14C2012.07 534.154 2011.35 532.281 2014.54 533.186C2015.76 533.532 2016.53 534.884 2017.75 535.229ZM1065.5 808.16C1062.05 804.404 1055.13 794.117 1029.52 791.793C1025.92 791.467 995.109 791.559 994.602 791.609C985.408 792.506 986.863 801.64 986.892 819.021C987.044 909.449 984.333 930.141 1000.45 950.06C1020.16 974.42 1039.04 973.235 1048.91 974.115C1059.27 975.039 1052.9 985.639 1051.94 987.986C1043.07 1009.92 1041.91 1014.14 1036.2 1014.94C1030.66 1015.72 976.185 999.769 955.942 956.259C944.545 931.761 945.906 915.261 945.906 841.336C945.906 797.572 946.249 796.978 943.23 793.863C940.976 791.54 931.795 791.509 930.781 791.506C902.616 791.415 896.042 793.458 895.166 784.015C893.626 767.445 896.615 764.567 897.811 763.414C901.579 759.787 926.346 762.36 937.151 761.545C946.259 760.858 946.548 754.928 945.47 736.219C943.866 708.39 928.191 700.881 928.041 700.726C925.051 697.622 927.72 692.296 927.826 692.26C928.575 692.012 929.23 693.089 930.016 693.157C932.143 693.337 939.632 692.642 940.465 692.565C977.549 689.123 977.91 680.768 984.468 685.667C987.877 688.213 986.773 691.211 986.848 701.088C987.181 745.344 985.964 755.315 988.357 758.314C991.555 762.322 995.546 761.544 1013.65 761.557C1055.8 761.584 1057.69 761.074 1060.69 765.346C1061.81 766.937 1063.59 773.859 1063.79 774.616C1065.9 782.817 1064.75 783.158 1073.54 806.23C1073.05 807.079 1073.97 808.312 1073.48 809.161C1073.16 809.732 1069.08 811.368 1068.46 811.179C1067.93 811.018 1068.16 810.06 1067.77 809.663C1067.13 809.015 1066.13 808.808 1065.5 808.16ZM2046.31 1013.66C2030.44 1011.78 2030.42 1012.57 2004.83 1012.39C1973.6 1012.16 1970.36 1015.67 1970.12 1010.28C1969.99 1007.2 1970.97 1007.58 1972.28 1006.69C1974.31 1005.31 1974.07 1005.08 1976.15 1003.92C1993.57 994.165 1990.68 961.547 1990.68 949.716C1990.67 803.445 1991.02 803.358 1988.57 793.6C1984.81 778.601 1975.75 772.195 1975.31 771.842C1974.76 771.404 1974.03 771.214 1973.51 770.738C1972.8 770.081 1972.41 769.121 1971.67 768.49C1971.25 768.127 1970.46 768.292 1970.14 767.839C1969.84 767.404 1966.03 761.993 1973.01 761.832C1975.24 761.779 1979.69 763.118 1988.95 762.632C2020.01 761 2019.91 756.085 2024.04 756.507C2024.15 756.517 2028.81 759.086 2028.85 759.156C2030.13 761.214 2029.19 813.43 2028.95 815.905C2028.2 823.694 2028.1 823.642 2028.01 831.435L2030.9 833.482C2031.65 833.262 2032.36 834.46 2033.11 834.241C2033.71 834.063 2033.62 833.075 2034 832.571C2034.44 831.979 2035.22 831.644 2035.55 830.982C2036.78 828.533 2049.48 776.067 2113.48 759.797C2114.82 759.458 2133.93 755.293 2138.09 759.062C2140.79 761.509 2139.97 765.254 2139.45 796.743C2139.23 810.078 2142.28 812.239 2139.11 813.025C2137.88 813.33 2136.58 813.244 2135.35 813.548C2134.71 813.707 2134.06 814.833 2133.55 814.402C2132.45 813.474 2126.51 791.269 2096.98 798.817C2055.59 809.394 2031.77 858.796 2031.16 885.986C2030.69 906.565 2030.95 962.215 2030.98 968.844C2031.12 999.754 2047.88 1005.11 2048.15 1005.3C2048.78 1005.73 2049.19 1006.41 2049.8 1006.86C2050.85 1007.62 2052.06 1006.62 2051.6 1007.81C2050.87 1009.72 2049.31 1008.17 2048.58 1010.07C2048.84 1011.1 2050.86 1010.95 2051.12 1011.97C2051.9 1015.1 2049.32 1012.61 2046.31 1013.66ZM1550.52 769.927C1549.89 769.427 1549.67 768.535 1549.05 768.035C1548.26 767.398 1546.93 768.122 1546.68 764.834C1546.38 760.96 1548.51 762.568 1552.32 761.87C1583.75 765.344 1601.29 756.491 1603.33 756.452C1607.01 756.383 1608.39 761.251 1608.55 761.828C1608.7 762.348 1608.37 762.801 1608.37 777.584C1608.39 974.295 1608.23 974.255 1608.9 978.507C1612.64 1002.31 1628.33 1006.5 1628.48 1007.28C1628.69 1008.27 1627.21 1009.14 1627.41 1010.14L1625.6 1013.57C1586.51 1010.33 1551.07 1014.27 1549.33 1013.07C1548.35 1012.39 1546.91 1008.35 1547.2 1008.06C1547.7 1007.54 1548.27 1008.47 1555.02 1003.51C1570.97 991.804 1568.87 971.92 1568.92 956.092L1568.92 895.527C1568.92 796.779 1569.87 795.127 1563.01 783.343C1556.99 772.995 1555.83 773.952 1550.52 769.927ZM1055.49 388.718C1056.79 361.109 1058.02 361.289 1063.79 334.304C1066.25 322.81 1077.24 297.189 1082.58 289.109C1098.69 264.697 1099.14 265.019 1107.96 256.608C1123.93 241.372 1128.5 239.161 1138.54 233.576C1155.58 224.097 1155.95 224.96 1172.88 219.364C1191.43 213.235 1191.72 214.622 1211.22 213.066C1250.7 209.917 1280.1 221.4 1284.59 222.824C1299.44 227.538 1319.46 240.307 1323.86 243.911C1343 259.578 1346.99 265.134 1348.58 267.348C1369.2 296.053 1368.53 298.026 1374.44 311.913C1381.75 329.096 1380.89 329.335 1385.47 347.496C1390.17 366.152 1388.68 366.342 1390.37 385.467C1392.61 410.954 1391.23 410.931 1389.52 436.493C1388.02 458.755 1380.36 483.644 1377.4 490.89C1367.37 515.446 1363.54 520.795 1361.87 523.121C1353.82 534.333 1350.23 540.988 1344.22 547.215C1328.83 563.188 1316.83 570.363 1314.16 571.962C1290.75 585.958 1289.95 584.261 1268.23 591.518C1259.98 594.272 1228.53 598.328 1211.18 596.596C1182.58 593.743 1182.66 593.105 1169.96 589.047C1152.89 583.594 1152.75 583.878 1132.31 572.266C1119.36 564.908 1113.29 557.046 1106.04 551.305C1101.9 548.022 1083.61 525.166 1077.09 509.954C1068.32 489.523 1067.26 489.882 1062.29 468.203C1059.46 455.865 1053.24 434.996 1055.49 388.718ZM1099.42 388.678C1099.25 392.497 1098.32 413.375 1100.15 436.465C1100.9 445.866 1102.01 445.64 1104 458.613C1106.52 475.163 1118.33 508.507 1136.82 526.867C1146.42 536.4 1145.93 537 1157.51 544.113C1170.9 552.337 1171.05 552.071 1185.92 557.139C1193.99 559.892 1229.46 566.75 1261.78 556.269C1264.23 555.475 1275.04 553.135 1291.33 542.365C1335.12 513.412 1342.82 456.134 1344.79 446.01C1346.09 439.328 1348.51 410.068 1347.83 398.279C1346.57 376.721 1344.97 329.167 1315.82 290.314C1314.75 288.88 1311.65 284.755 1300.19 274.262C1296.48 270.862 1281.41 259.701 1268.37 255.603C1264.53 254.395 1218.88 237.904 1172.76 257.4C1109.82 284.009 1102.86 358.562 1102.59 359.94C1099.79 374.211 1100.1 374.207 1099.42 388.678ZM16.0047 363.191C16.0047 22.3077 15.8571 22.0875 17.2184 19.5107C19.1265 15.9022 20.182 16.0729 67.0965 16.0588L2674.11 16C2716.16 16.1508 2718.78 15.7114 2720.76 19.5022C2721.73 21.351 2721.87 21.4605 2721.89 82.6799C2721.91 147.707 2722.13 870.987 2721.88 895.527C2721.78 904.745 2723.22 912.181 2712.39 912.659C2694.72 913.439 2247.96 913.035 2246.82 912.944C2238.44 912.28 2238.3 905.321 2241.33 902.613C2243.96 900.262 2250.85 900.714 2253.41 900.709C2663.89 900.138 2663.85 901.155 2699.54 900.702C2711.65 900.548 2709.65 893.78 2709.65 870.026C2709.65 98.9024 2709.66 39.4037 2709.61 38.0269C2709.21 26.4614 2702.69 28.1775 2690.04 28.1601L63.9095 28.1458C36.1995 28.1925 29.9513 26.8148 28.4696 34.7816C28.1409 36.549 28.1756 36.5227 28.1756 863.65C28.1756 894.729 26.8271 898.899 35.3999 900.585C36.7906 900.858 489.24 900.532 491.144 900.735C491.998 900.826 500.161 901.694 498.458 908.585C497.246 913.488 490.202 913.072 465.479 913.072C50.5573 913.071 50.5626 913.091 47.9701 913.028C28.745 912.558 19.9196 914.44 16.7 908.087C15.919 906.544 16.0047 906.428 16.0047 363.191ZM831.222 594.725C830.365 594.81 829.616 595.712 825.531 595.287C801.719 592.814 801.724 594.079 777.809 594.1C749.1 594.126 748.687 596.287 746.819 594.656C746.497 594.375 746.109 590.402 746.424 589.772C746.694 589.23 747.621 589.438 748.096 589.064C748.802 588.507 749.187 587.611 749.886 587.045C751.687 585.585 752.385 586.453 756.961 581.064C770.138 565.546 768.301 542.42 768.296 535.324C768.096 262.445 769.329 262.269 766.914 251.874C761.18 227.178 751.369 224.283 749.616 222.533C746.523 219.445 749.235 214.109 749.328 214.069C749.358 214.055 752.809 214.294 755.577 214.717C762.115 215.717 762.093 215.602 918.04 215.602C948.632 215.602 1040.58 207.494 1028.09 308.815C1026.93 318.211 1019.07 345 994.632 357.003C967.59 370.282 957.553 369.103 870.235 369.103C814.367 369.103 812.523 368.013 810.339 373.069C809.276 375.533 809.402 375.654 809.402 513.01C809.402 538.33 806.63 566.261 822.842 582.791C825.596 585.598 828.067 586.752 828.225 586.88C828.952 587.467 829.396 588.361 830.133 588.936C830.599 589.299 831.5 589.105 831.761 589.635C832.212 590.555 832.089 591.682 831.981 592.702C831.905 593.418 831.297 594.009 831.222 594.725ZM987.875 293.061C987.656 284.849 988.091 284.778 985.667 276.927C985.367 275.953 983.317 269.309 980.389 265.335C966.608 246.627 944.734 248.666 898.918 248.666C816.582 248.666 816.577 248.634 816.104 248.703C815.398 248.805 810.795 249.474 809.6 254.793C808.654 259.001 809.313 319.34 809.373 324.953C809.496 336.152 815.666 335.506 825.613 335.518C944.08 335.661 957.422 337.309 971.341 326.939C987.359 315.007 987.413 298.831 987.875 293.061ZM647.413 831.519C646.079 828.203 646.271 828.207 644.753 824.905C630.203 793.286 625.937 793.977 628.162 787.21C630.072 781.401 667.559 767.373 675.957 765.336C677.651 764.925 744.151 744.037 800.748 776.502C833.809 795.466 841.442 823.078 844.164 831.941C850.305 851.938 846.858 936.974 847.807 968.845C848.814 1002.65 868.737 1007.33 868.981 1008.02C868.999 1008.07 867.039 1013.31 866.982 1013.36C866.221 1013.96 861.17 1013.48 860.668 1013.43C827.99 1010.33 814.37 1015.03 810.344 1009.78C808.851 1007.84 808.856 1001.46 808.857 1000.72C808.9 952.964 811.657 951.584 808.786 950.588C808.03 950.326 807.495 951.662 806.704 951.781C805.911 951.901 805.116 950.998 804.356 951.256C803.544 951.531 799.732 961.113 799.382 961.993C798.138 965.12 794.747 971.879 792.839 974.572C786.646 983.314 763.214 1017.01 707.707 1015.98C652.009 1014.94 634.789 984.457 628.808 974.753C610.805 945.549 605.23 842.108 739.423 858.406C779.781 863.307 796.661 877.761 800.228 879.264C805.477 881.476 807.093 877.39 807.314 876.833C808.893 872.837 806.595 848.93 805.724 844.664C796.745 800.667 744.784 784.531 698.001 792.795C645.539 802.064 656.793 834.407 652.761 834.085C651.632 833.994 651.463 831.796 650.333 831.706L647.413 831.519ZM660.307 930.597C660.539 938.893 658.76 979.274 717.294 984.159C727.915 985.045 759.65 984.174 780.503 962.002C781.255 961.202 798.573 944.622 803.926 917.965C805.331 910.974 806.116 907.165 780.625 896.389C732.176 875.909 671.616 878.657 662.233 917.588C660.366 925.335 660.682 925.64 660.307 930.597ZM1810.42 758.342C1836.96 759.539 1889.33 763.623 1915.92 828.446C1918.37 834.424 1921.45 845.251 1920.85 847.561C1919.73 851.863 1916.05 853.541 1915.45 853.815C1911.26 855.723 1789.46 905.373 1765.78 914.617C1761.28 916.376 1737.33 926.612 1736.79 926.9C1730.17 930.451 1734.42 938.77 1734.89 939.691C1737.79 945.358 1748.93 964.029 1765.65 972.306C1774.06 976.472 1783.08 982.169 1810.45 983.697C1813.02 983.841 1845.82 984.888 1864.39 971.741C1882.81 958.709 1877.96 942.851 1881.29 941.094C1881.95 940.744 1882.78 941.191 1883.52 941.21C1884.33 941.229 1885.25 940.778 1885.93 941.206C1886.47 941.545 1890.04 952.947 1898.86 969.243C1903.86 978.5 1910.47 985.417 1899.94 991.618C1882.26 1002.04 1876.29 1003.67 1861.92 1008.56C1833.35 1018.26 1800 1015.56 1794.6 1015.12C1781.53 1014.07 1781.59 1013.89 1768.84 1010.82C1745.74 1005.26 1729.38 991.731 1724.32 988.028C1719.32 984.374 1706.05 970.635 1699.64 958.859C1699.3 958.237 1691.36 946.72 1684.22 917.573C1683.84 916.023 1681.51 892.191 1681.66 885.946C1681.73 883.24 1683.09 860.786 1683.9 857.456C1689.24 835.471 1693.36 827.287 1694.6 824.835C1697.57 818.946 1699.42 812.878 1712.52 797.44C1715.17 794.308 1726.96 781.872 1743.21 773.824C1758.82 766.093 1774.28 759.063 1810.42 758.342ZM1723.17 876.335C1722.98 885.916 1722.08 898.162 1725.52 900.588C1729.17 903.158 1735.78 899.236 1746.48 895.047C1753.18 892.424 1753.08 892.189 1829.81 861.129C1873.42 843.475 1873.98 843.871 1876.27 840.507C1877.71 838.385 1881.4 832.955 1862.81 811.403C1829.16 772.365 1764.59 784.043 1741.76 816.973C1723.81 842.87 1723.95 863.967 1723.17 876.335ZM1313.26 943.245L1316.01 943.733C1322.8 961.697 1323.91 961.142 1332.99 978.088C1338.07 987.553 1333.37 989.187 1325.58 993.592C1321.15 996.093 1294.75 1011.02 1265.56 1014.39C1200.6 1021.91 1170.81 1000.59 1157.67 990.34C1155.27 988.463 1140.87 977.224 1131.85 962.307C1130.89 960.715 1122.72 944.748 1122.12 943.297C1119.5 937.071 1115.09 918.76 1114.95 917.973C1103.5 853.21 1128.61 807.308 1151.68 788.338C1167.46 775.358 1179.13 770.73 1179.13 770.728C1183.34 768.609 1202.95 758.741 1236.74 758.394C1319.4 757.545 1341.52 819.914 1345.09 828.591C1352.39 846.334 1349.59 849.623 1348.42 851.005C1345.06 854.962 1318.43 864.099 1297.29 873.195C1287.3 877.494 1202.19 911.543 1186.08 918.544C1169.46 925.762 1162.78 927.176 1163.17 933.795C1163.35 936.76 1173.33 958.419 1191.34 970.095C1228.71 994.324 1300.16 985.438 1307.49 953.136C1308.39 949.142 1308.56 949.187 1308.6 948.833C1308.65 948.233 1308.16 947.651 1308.26 947.059C1308.35 946.563 1308.92 946.274 1309.13 945.818C1309.51 945.02 1309.28 943.793 1310.03 943.324C1310.94 942.755 1312.34 943.813 1313.26 943.245ZM1252.62 863.488C1304.63 842.356 1307.56 842.259 1306.78 834.975C1306.5 832.368 1299.99 820.236 1293.72 812.984C1260.13 774.179 1212.86 789.859 1208.3 791.166C1167.68 802.8 1158.74 843.351 1155.98 853.816C1153.07 864.887 1152.49 892.279 1153.11 895.722C1153.24 896.436 1154.31 902.378 1160.2 901.378C1163.84 900.761 1219.86 876.242 1252.62 863.488ZM1522.98 589.261C1523.62 588.684 1523.85 587.747 1524.49 587.171C1525.05 586.664 1525.86 586.524 1526.49 586.095C1531.95 582.303 1540.33 571.084 1542.27 554.401C1543.36 544.97 1542.63 258.018 1542.63 258.007C1542.03 247.643 1535.53 249.208 1517.21 249.308C1460.71 249.618 1449 246.904 1430.89 257.564C1418.69 264.747 1415.3 274.534 1412.14 274.621C1411.11 274.649 1410.31 273.632 1409.31 273.368C1408.65 273.191 1407.67 273.861 1407.24 273.322C1406.78 272.753 1406.3 272.15 1409.28 264.431C1414.89 249.933 1413.59 249.592 1417.05 235.375C1420.2 222.435 1420.81 216.901 1427.84 215.752C1430.69 215.287 1649.98 215.635 1686.12 215.524C1699.97 215.482 1704.33 213.54 1707.86 229.446C1716.41 267.931 1718.37 267.428 1718.54 270.844C1718.71 274.366 1718.26 275.184 1714.76 274.901C1711.42 274.635 1710.31 268.817 1699.38 260.471C1681.79 247.049 1669.33 249.477 1600.07 249.325C1597.35 249.32 1585.29 247.074 1584.5 258.03C1584.48 258.261 1584.36 528.903 1584.61 548.064C1584.81 563.437 1592.05 581.572 1600.12 586.289C1602.16 587.487 1601.86 587.764 1603.69 589.315L1601.94 592.07C1601.56 592.667 1601.6 593.461 1601.22 594.058C1600 596.021 1595.45 594.867 1593.67 594.686C1589.87 594.299 1586.82 593.99 1545.88 594.092C1529.53 594.133 1527.34 596.119 1525.73 594.126C1525.24 593.514 1524.96 592.749 1524.46 592.138L1522.98 589.261ZM1478.46 1012.78C1478.34 1012.79 1475.94 1013.74 1472.6 1013.51C1462.69 1012.8 1462.72 1012.35 1421.6 1012.43C1405.99 1012.46 1398.49 1015.12 1397.07 1012.49C1396.73 1011.85 1397.43 1011.07 1397.43 1010.34C1397.42 1009.47 1396.67 1008.55 1397.02 1007.75C1397.31 1007.1 1398.36 1007.26 1398.95 1006.87C1400.95 1005.57 1400.77 1005.4 1402.88 1004.3C1410.5 1000.33 1417.93 988.595 1418.13 972.026C1418.2 965.63 1418.53 745.064 1417.95 736.169C1416.91 720.044 1410.77 707.945 1401.87 701.513C1398.72 699.234 1395.97 697.337 1401.52 693.214C1404.27 691.166 1405.35 693.34 1415.29 692.142C1450.9 687.851 1451.26 681.651 1456.41 685.498C1460.58 688.615 1459.14 689.507 1459.03 694.709C1458.6 715.36 1459.25 715.349 1459.11 952.904C1459.1 967.194 1457.35 987.475 1467.8 999.517C1471.09 1003.3 1474.71 1004.67 1474.91 1004.8C1475.61 1005.26 1476.08 1006.03 1476.78 1006.51C1478.26 1007.52 1479.07 1007.24 1478.99 1010.28C1478.97 1011.13 1478.48 1011.93 1478.46 1012.78ZM1605.74 688.763C1608.03 694.753 1608.59 694.663 1608.6 701.081C1608.65 729.002 1568.58 733.382 1563.64 704.479C1560.01 683.267 1586.84 668.195 1603.04 685.341C1604.04 686.398 1604.74 687.706 1605.74 688.763Z" fill="currentColor"/>
</svg>
