<svg viewBox="0 0 1000 1000" fill="none" xmlns="http://www.w3.org/2000/svg">
<path d="M625.591 643.684C627.032 642.418 627.954 642.408 627.848 644.483C626.916 662.808 629.086 945.597 626.874 972.323C613.011 976.05 598.904 979.18 584.583 981.685C575.343 982.985 567.777 983.982 566.064 984.208L562.206 984.613C543.498 986.166 543.695 986.358 525.132 987.439L520.254 987.543C501.633 988.225 501.802 987.954 483.202 987.909L477.328 987.457L465.648 987.162C464.145 986.83 464.327 986.806 462.77 986.967C460.987 986.678 461.108 986.818 440.296 984.926L436.407 984.175L433.466 984.12L430.52 983.409C415.382 981.354 415.413 981.38 412.998 981.001L409.124 980.108L407.165 979.98L404.213 979.282C403.289 979.063 403.461 979.37 392.541 977.062L389.62 976.157C388.863 975.97 388.775 976.079 381.781 974.564C380.245 974.182 378.711 973.792 377.18 973.395L376.029 973.036C375.709 972.948 375.583 972.946 375.49 972.955C374.661 972.736 373.832 972.514 373.003 972.291L369.149 971.157C366.219 970.214 363.696 969.581 363.217 969.46C362.989 969.403 362.123 969.184 361.014 968.899C358.309 968.096 355.614 967.27 352.928 966.421L352.546 966.258C351.401 965.849 351.212 965.798 348.605 965.033C346.977 964.501 345.352 963.962 343.731 963.414C342.847 963.006 341.038 962.244 336.791 960.724C335.928 960.351 336.056 960.451 334.165 959.96C330.692 958.547 328.597 957.9 326.776 957.327C324.78 956.568 322.791 955.797 320.808 955.013C319.846 954.55 318.748 953.987 317.446 953.277L315.619 952.31C316.159 949.124 317.065 949.726 331.912 935.265C334.59 932.524 334.668 932.846 337.132 929.684C345.389 922.815 355.577 911.001 357.486 909.503L359.206 908.245C359.53 907.939 361.318 906.25 363.185 904.35C363.733 903.792 369.568 897.852 370.094 897.442L371.102 896.478L372.076 895.479C373.139 894.398 373.019 894.523 374.014 893.473C379.639 888.017 391.966 875.737 392.436 875.373C394.109 873.826 394.108 874.106 395.446 872.463C395.692 872.185 399.025 868.777 399.337 868.457C418.251 849.808 418.098 849.999 419.714 848.379C420.778 847.32 420.647 847.452 421.692 846.389L422.686 845.424C422.837 845.259 424.116 843.864 424.642 843.433C425.767 842.393 425.661 842.493 426.613 841.446C431.689 837.385 437.634 829.332 444.035 824.33C445.021 823.343 445.854 822.518 446.013 822.36C446.172 822.203 447.005 821.377 448.002 820.401C449.062 819.396 448.957 819.505 449.98 818.424C457.555 811.429 468.101 800.228 469.634 798.601L471.455 797.473L472.654 795.767C478.161 790.788 477.529 790.34 483.201 785.531C484.753 783.978 484.694 784.091 486.164 782.574C487.131 781.569 487.966 780.734 488.124 780.575C488.28 780.417 489.094 779.591 490.084 778.606C496.793 771.801 496.89 772.159 503.578 765.445C505.12 763.965 505.02 764.097 506.539 762.473C506.775 762.28 527.408 741.774 528.225 740.744L529.899 739.46L530.947 738.534L531.876 737.489C532.908 736.414 535.49 733.838 535.807 733.523C537.876 731.522 537.782 731.608 539.732 729.547C542.155 727.379 555.768 713.819 557.154 712.439C558.663 710.939 558.576 711.054 560.118 709.479C561.703 707.914 561.569 708.078 563.112 706.541C568.561 701.319 582.447 687.088 582.74 686.694C584.221 685.626 584.096 685.819 585.452 684.455C587.858 682.211 609.198 662.314 614.724 655.531C614.865 655.357 615.6 654.455 616.693 653.544C616.851 653.386 617.684 652.556 618.681 651.577L619.653 650.585C621.222 649.181 621.238 649.462 622.671 647.68C623.616 646.649 624.429 645.804 624.585 645.642L625.591 643.684Z" fill="currentColor"/>
<path d="M694.405 515.672C694.418 510.655 698.437 517.338 705.527 523.762C706.5 524.779 706.388 524.672 707.5 525.738C708.842 527.041 710.248 528.433 710.487 528.669C713.3 531.467 713.216 531.387 713.454 531.622C714.446 532.608 724.49 542.591 726.001 543.75C727.057 544.837 726.936 544.714 727.965 545.732C728.125 545.887 728.967 546.703 729.949 547.698C731.022 548.755 730.885 548.619 731.941 549.65L732.925 550.643C733.724 551.421 733.735 551.113 734.58 551.957C742.814 560.177 742.769 560.107 743.468 560.829C746.937 564.437 746.836 564.195 750.402 567.705C751.392 568.692 760.989 578.261 762.974 579.82C763.914 580.85 763.808 580.751 764.929 581.785C765.638 582.497 773.181 590.081 773.845 590.634C774.853 591.601 775.686 592.434 775.844 592.592C776.88 593.633 776.752 593.506 777.825 594.551L779.513 595.829C782.055 599.324 790.352 606.787 791.347 607.681C792.332 608.67 793.147 609.512 793.303 609.673C793.465 609.826 794.317 610.629 795.289 611.634L796.232 612.666C796.395 612.819 797.247 613.623 798.212 614.636L799.249 615.565C808.176 624.055 808.013 624.077 808.838 624.742C809.807 625.755 809.693 625.644 810.798 626.719C812.852 628.755 812.692 628.639 814.768 630.642C815.83 631.705 815.695 631.57 816.745 632.612L818.418 633.905C823.406 638.841 823.327 638.733 828.308 643.761C829.397 644.856 829.287 644.746 830.306 645.691L831.293 646.69C833.253 648.743 833.088 648.587 835.235 650.636C837.12 652.095 845.925 660.843 846.838 661.749C847.778 662.836 847.694 662.747 848.738 663.783C858.944 673.553 858.721 673.771 859.668 674.547C860.672 675.525 861.487 676.367 861.644 676.528C861.802 676.686 862.631 677.508 863.569 678.553L864.527 679.57L866.281 680.794C867.302 681.907 867.206 681.804 868.225 682.775C868.929 683.492 873.755 688.403 877.148 691.621C880.162 694.622 880.039 694.467 883.101 697.505L884.079 698.5L885.087 699.469L886.735 700.793C887.286 701.35 893.203 707.349 893.64 707.718C894.712 708.76 894.585 708.638 895.644 709.632L896.629 710.63C898.61 712.646 898.429 712.519 900.593 714.557C902.154 716.103 902.017 716.002 903.57 717.5L904.555 718.488C915.185 727.058 914.202 727.932 915.126 728.651C916.561 730.203 916.472 730.082 918.072 731.616L919.038 732.627C919.199 732.781 920.044 733.593 921.037 734.573L922.736 735.838C924.399 737.577 925.05 738.364 925.87 739.196C873.961 831.799 792.786 905.749 694.889 948.485C693.411 931.457 694.324 549.619 694.405 515.672Z" fill="currentColor"/>
<path d="M473.439 689.994C479.392 689.994 490.64 688.205 481.399 693.781C480.925 694.067 481.196 694.237 476.415 698.652L475.406 699.616C474.449 700.635 473.608 701.449 473.447 701.605C473.289 701.764 472.464 702.597 471.396 703.498C470.264 704.474 470.413 704.339 469.473 705.521C469.087 705.923 469.057 705.86 464.566 710.471C463.317 711.489 457.55 717.093 456.949 717.677C455.987 718.688 455.156 719.513 454.997 719.671C454.833 719.822 453.967 720.614 452.924 721.541L451.996 722.589C451.608 722.99 451.686 722.747 447.058 727.511C446.546 727.943 446.709 728.087 441.082 733.394C439.453 734.916 439.605 734.84 438.191 736.401L436.424 737.608C434.916 739.068 435.032 738.893 433.463 740.569C432.522 741.604 431.668 742.405 431.505 742.558C431.352 742.72 430.545 743.574 429.566 744.569C427.253 746.781 423.176 750.888 422.624 751.444C420.057 753.898 420.102 753.684 417.716 756.386L416.742 757.394L415.053 758.674L414.06 759.663L412.789 761.313C410.838 763.104 410.923 763.101 410.75 763.245C410.533 763.426 408.394 765.209 408.105 765.542L407.123 766.533C406.129 767.511 405.284 768.325 405.123 768.48L404.139 769.472C402.082 771.428 402.237 771.418 400.168 773.396C398.599 774.919 398.756 774.874 397.246 776.386C393.94 779.705 393.865 779.318 390.627 782.606L389.362 784.296L387.665 785.563C387.349 785.879 385.118 788.11 383.642 789.433C380.575 791.989 380.922 792.183 378.751 794.394C377.81 795.17 373.284 799.828 372.816 800.31L371.133 801.599C370.974 801.757 370.144 802.581 369.085 803.493L368.076 804.456C367.13 805.485 366.266 806.276 366.101 806.427L365.143 807.444C364.193 808.47 363.368 809.303 363.211 809.462C363.054 809.622 362.236 810.46 361.224 811.416C355.938 816.666 354.849 817.757 354.296 818.31C353.191 819.357 353.293 819.26 352.333 820.29L351.338 821.279L349.633 822.531L348.686 823.564C347.721 824.57 346.897 825.401 346.741 825.559C345.454 826.847 345.564 826.793 344.485 828.199C341.031 831.183 341.098 831.057 337.802 834.384C336.711 835.443 336.821 835.335 335.845 836.363L334.853 837.371C334.308 837.851 329.246 842.307 328.167 843.499L326.917 845.166C325.33 846.658 325.41 846.44 323.944 848.161C323.834 848.29 323.705 848.063 322.293 849.468C321.199 850.529 321.32 850.411 320.314 851.435C316.822 854.927 316.852 854.753 313.404 858.334C312.897 858.855 312.82 858.613 306.805 864.574C305.703 865.629 305.814 865.521 304.821 866.54C303.83 867.52 302.991 868.338 302.831 868.494L301.813 869.449L300.762 870.367L299.822 871.404C298.206 872.93 298.247 872.698 296.853 874.348C296.621 874.59 295.078 876.195 293.934 877.348C293.438 877.798 293.556 877.765 287.953 883.223L286.303 884.534C285.321 885.527 284.46 886.318 284.296 886.469L283.345 887.499C282.38 888.507 281.542 889.322 281.383 889.479C278.617 892.2 278.552 891.893 276.186 895.081C272.671 898.012 272.805 897.871 269.498 901.295C269.209 901.559 267.548 903.079 265.813 904.506C264.866 905.532 264.027 906.348 263.867 906.505L262.887 907.504C261.168 909.275 259.241 911.118 258.918 911.427C255.927 914.397 256.02 914.309 252.975 917.322C251.593 918.691 250.94 919.637 250.224 920.245C161.275 867.091 90.6416 786.41 50.0597 689.948L473.439 689.994Z" fill="currentColor"/>
<path d="M651.027 378.775C642.829 372.013 656.101 375.611 782.568 375.611C911.597 375.611 955.997 375.626 971.891 375.544C982.401 415.426 988 457.304 988 500.491C988 561.847 976.698 620.56 956.068 674.661C955.234 673.855 954.061 672.714 953.115 671.74L952.176 670.703L950.442 669.465C946.778 665.464 946.787 665.665 941.562 660.584C938.492 657.56 938.63 657.672 935.572 654.746C935.416 654.584 934.602 653.743 933.653 652.714L931.952 651.456C929.479 648.933 929.673 648.966 927.005 646.496C925.931 645.423 926.048 645.538 925.027 644.563C924.864 644.411 924.012 643.605 923.014 642.632L922.015 641.655C921.047 640.648 920.243 639.794 920.09 639.631L919.064 638.687C918.906 638.529 918.077 637.697 917.123 636.677L916.074 635.754C913.795 633.861 909.95 630.065 909.432 629.553C908.481 628.52 908.58 628.617 907.478 627.577C906.435 626.526 906.572 626.662 905.504 625.595C904.453 624.542 904.585 624.674 903.525 623.632C902.475 622.604 902.615 622.741 901.531 621.681L900.535 620.702C898.225 618.402 898.432 618.39 895.851 616.471L894.587 614.812C893.567 613.847 893.675 613.983 892.584 612.877C891.298 611.573 891.266 611.88 889.933 610.568C888.97 609.536 889.054 609.616 887.97 608.606C887.146 607.606 881.593 602.267 881.03 601.726C880.707 601.412 877.519 598.317 877.028 597.832L875.34 596.547C870.887 591.954 871.066 591.957 866.51 587.609C866.267 587.379 864.617 585.823 863.523 584.687L862.583 583.654L861.524 582.744C860.522 581.771 859.727 580.906 859.576 580.742C859.408 580.594 858.526 579.821 857.537 578.833L855.919 577.494C852.776 574.457 853.068 574.411 849.927 571.627C848.873 570.552 848.995 570.675 847.965 569.656C847.646 569.344 845.814 567.547 843.988 565.738C843.828 565.583 842.983 564.77 841.999 563.782L841.03 562.776L840.014 561.818C838.049 560.231 832.987 555.22 832.39 554.63C831.409 553.606 831.519 553.714 830.423 552.668L829.418 551.684C827.921 550.133 828.072 550.277 826.459 548.727C823.343 545.685 823.576 545.761 820.486 542.876C819.159 541.575 819.215 541.696 817.776 540.639C816.741 539.555 816.872 539.691 815.828 538.616C814.87 537.56 814.976 537.67 813.913 536.609C811.817 534.542 806.619 529.37 805.985 528.74L805.028 527.721L803.993 526.788C803.833 526.633 802.997 525.812 802.058 524.774L800.989 523.873C800.829 523.717 799.992 522.897 799.044 521.873C789.901 513.456 790.189 513.471 789.408 512.754C788.353 511.687 788.479 511.815 787.434 510.782C784.939 508.31 785.034 508.434 782.448 505.903C782.289 505.744 781.465 504.914 780.492 503.913C778.615 502.017 778.688 502.083 778.531 501.924C778.253 501.645 778.297 501.884 774.873 498.643C773.799 497.583 773.92 497.7 772.881 496.721L771.878 495.743C768.228 492.059 768.255 492.105 767.946 491.783L767.015 490.736C765.954 489.829 765.094 489.031 764.93 488.878C758.757 482.723 758.619 483.211 756.342 480.683C755.034 479.305 755.158 479.466 753.384 477.729L751.397 475.767L750.404 474.788C747.888 472.288 748.072 472.424 745.44 469.891L744.459 468.9L742.72 467.675C742.484 467.436 742.521 467.47 739.773 464.671C738.817 463.578 738.962 463.716 737.816 462.72C737.019 461.713 730.542 455.46 729.897 454.836C728.935 453.932 727.127 452.161 726.887 451.926C725.843 450.891 725.971 451.018 724.895 449.974C724.739 449.812 723.929 448.97 722.991 447.928C718.016 443.244 718.172 443.431 714.37 439.756C712.34 437.799 712.45 437.892 710.361 435.885C707.541 433.031 707.631 433.168 707.398 432.928L706.447 431.906L704.745 430.654C701.804 427.603 701.89 427.726 698.803 424.723C697.799 423.71 697.909 423.814 696.802 422.798C695.816 421.766 695.925 421.874 694.844 420.81C694.444 420.42 691.556 417.597 689.869 415.919C688.819 414.884 688.956 415.019 687.878 413.964C686.436 412.772 682.705 409.135 682.264 408.705C681.277 407.7 681.389 407.805 680.274 406.772L679.269 405.781C676.927 403.324 677.009 403.472 674.336 400.859C671.261 397.876 671.408 397.904 668.358 395.014L666.633 393.765C666.298 393.316 666.237 393.524 661.767 388.749C660.253 387.2 660.424 387.365 658.809 385.793C656.279 383.26 656.396 383.346 653.841 380.895C652.485 379.61 652.613 379.796 651.027 378.775Z" fill="currentColor"/>
<path d="M497.814 375.695C509.071 376.072 541.588 374.234 577.819 400.819L579.596 402.04C584.896 406.312 584.938 406.218 585.504 406.962C586.565 407.97 586.435 407.847 587.536 408.862L588.542 409.828C593.133 414.28 592.998 414.177 597.292 418.85C598.743 420.494 598.593 420.406 600.122 421.915C600.974 423.021 602.037 424.582 602.198 424.819C603.081 425.894 603.776 426.815 603.91 426.992L604.216 427.766C605.099 428.837 605.819 429.741 605.958 429.915C606.696 430.802 606.372 430.792 607.125 431.784L607.919 432.913C608.79 433.962 609.75 435.633 609.893 435.882L610.718 437.007L611.716 438.956C612.549 440.377 612.099 440.396 612.995 441.777C619.187 456.695 620.122 456.112 624.5 471.826L625.241 474.867L625.459 476.825L626.226 479.827L626.319 481.844C626.558 483.942 626.438 483.767 627.097 485.819C627.378 491.93 629.172 530.934 611.784 560.655L610.76 562.608L609.904 563.685L608.795 565.58L608.004 566.714L606.882 568.615L606.046 569.705L604.917 571.607C603.929 572.647 604.01 572.553 603.124 573.702L601.989 575.586C600.22 577.38 600.56 577.455 598.946 579.492L597.33 580.748L596.357 581.752L595.17 583.556C593.128 585.458 593.36 585.484 591.221 587.493C588.69 589.395 588.765 589.28 586.554 591.69L585.556 592.664C585.186 593.01 582.478 595.54 580.701 596.684C579.553 597.622 579.666 597.527 578.617 598.473C575.238 600.743 575.249 600.65 574.974 600.866C573.743 601.721 573.858 601.642 572.806 602.525L572.033 602.85C570.855 603.729 571.006 603.617 569.867 604.472C568.641 605.414 568.59 604.968 567.194 605.925C564.381 607.853 564.401 607.594 564.168 607.755C563.019 608.46 561.365 609.365 561.118 609.5L560.109 610.399C547.182 613.276 548.646 617.96 521.191 622.49L518.273 623.216C502.326 623.745 502.317 625.747 478.256 622.076L475.411 621.571C473.732 621.399 473.917 621.321 469.423 620.154L466.66 619.514C456.01 616.958 444.006 610.866 442.122 609.909C441.877 609.746 441.554 609.736 441.31 609.572C440.03 608.716 439.981 609.143 438.526 608.343C437.271 607.691 437.593 607.436 436.333 606.77C432.818 604.917 433.094 604.827 429.551 602.696L427.71 601.556C423.481 598.197 423.307 598.647 422.948 598.36L420.952 596.469L419.858 595.62C418.815 594.659 418.939 594.768 417.796 593.761C416.002 592.068 416.014 592.418 414.044 590.583C412.731 589.227 412.857 589.385 411.068 587.66C410.081 586.673 409.264 585.831 409.109 585.67L408.129 584.678C406.976 583.718 407.27 583.583 406.2 582.652C405.213 581.519 405.315 581.635 404.329 580.599C403.138 579.264 403.448 579.308 402.148 577.803L401.243 576.74C400.343 575.675 400.448 575.791 399.418 574.644L398.541 573.568L397.386 571.708C395.772 569.51 386.317 556.625 381.281 541.55C360.512 479.371 393.192 434.448 393.458 433.83L394.613 431.973C401.46 422.466 401.624 422.65 402.203 421.817L403.385 420.009C408.858 414.438 408.687 414.522 414.124 409.046L415.873 407.828C416.864 406.848 417.702 406.034 417.862 405.878C452.791 376.153 491.989 375.919 494.878 375.73L497.814 375.695Z" fill="currentColor"/>
<path d="M44.8916 323.819C44.9815 323.896 45.0833 323.989 45.1986 324.105L47.1701 326.078C48.1287 327.114 48.0241 327.013 49.1124 328.061C53.0354 331.954 52.8438 331.813 55.0933 333.927C55.4103 334.242 55.4108 334.201 59.0803 337.834C59.2383 337.992 60.063 338.822 61.0431 339.818L62.7359 341.088C66.7048 345.183 66.4835 345.107 70.6513 348.972C72.6543 351.073 72.6081 350.908 74.5759 352.933L75.5241 353.961L76.5669 354.889C77.6002 355.826 78.4308 356.653 78.5901 356.81C79.6121 357.833 79.488 357.713 80.5782 358.765C84.8679 363.062 84.812 362.915 89.168 366.963C90.1422 367.996 90.034 367.886 91.1133 368.961C91.2752 369.115 92.1252 369.921 93.1053 370.916C94.2789 372.032 103.729 381.023 107.686 384.962C108.686 386.02 108.58 385.915 109.647 386.936C112.669 389.922 112.487 389.832 115.619 392.796C117.134 394.279 117.038 394.188 118.628 395.711C124.363 401.469 130.135 406.911 131.15 407.868C131.392 408.102 132.966 409.624 134.105 410.831L135.031 411.886L136.024 412.865C137.095 413.764 137.957 414.557 138.12 414.708C138.864 415.466 138.986 415.04 147.69 423.895L148.664 424.894C149.433 425.614 152.334 428.484 152.652 428.797L153.62 429.805L154.643 430.752C154.804 430.908 155.645 431.724 156.627 432.716C157.15 433.221 162.379 438.268 163.248 438.937C165.201 440.947 165.02 440.799 167.197 442.872C168.694 444.344 168.573 444.257 170.184 445.806C176.501 452.039 176.78 451.513 182.73 457.935C183.72 458.935 183.605 458.825 184.716 459.892C188.21 463.498 188.092 463.344 191.686 466.725C191.844 466.882 192.684 467.707 193.669 468.7L195.382 469.973L196.583 471.708C197.408 472.528 197.405 472.162 198.268 472.975C198.357 473.06 201.53 476.63 207.233 481.777C207.39 481.936 208.217 482.769 209.158 483.803L210.1 484.839L211.165 485.745L212.203 486.677C212.361 486.834 213.192 487.657 214.174 488.651C218.43 492.734 221.161 495.306 221.771 495.881L222.753 496.851C225.342 499.404 225.178 499.318 227.738 501.736C227.896 501.892 228.728 502.717 229.713 503.706C229.873 503.862 230.712 504.679 231.685 505.681C233.845 507.991 239.931 513.466 240.298 513.85C242.703 516.384 242.621 516.208 245.251 518.761C246.069 519.605 253.151 526.907 255.859 528.891C257.785 530.969 257.651 530.799 259.784 532.839C263.278 536.294 263.167 536.184 266.741 539.699L268.748 541.64C268.903 541.802 269.713 542.652 270.653 543.687C271.684 544.626 272.5 545.47 272.655 545.632C273.422 546.366 280.072 552.739 282.286 554.754C283.358 555.831 283.237 555.71 284.274 556.71C284.596 557.018 284.548 557.038 288.263 560.611C288.418 560.772 289.23 561.619 290.17 562.654L291.884 563.885C293.031 565.31 297.347 569.349 297.837 569.809C298.864 570.855 298.756 570.75 299.83 571.743C302.355 574.319 302.247 574.223 304.79 576.651C304.948 576.81 305.774 577.642 306.733 578.658C306.898 578.809 307.762 579.6 308.762 580.572C309.354 581.167 309.417 581.061 316.358 587.792C318.876 590.425 318.795 590.233 321.309 592.701C323.021 594.382 338.661 609.73 342.811 613.622C343.874 614.673 343.743 614.543 344.805 615.577C344.964 615.735 345.793 616.56 346.722 617.616C349.995 620.864 350.119 620.579 350.396 620.856C358.356 625.139 344.395 624.068 308.634 624.068C109.519 624.068 47.2639 624.161 27.6408 623.644C17.4334 584.301 12 543.031 12 500.491C12 438.188 23.6515 378.609 44.8916 323.819Z" fill="currentColor"/>
<path d="M309.533 50.591C310.978 58.2178 309.204 467.307 310.441 484.745C310.715 488.61 308.715 484.951 302.883 479.668C301.378 478.148 301.543 478.291 299.921 476.738C299.687 476.499 297.131 473.886 296.992 473.741L296.03 472.728L294.987 471.801L293.98 470.835C293.819 470.68 292.974 469.87 292.004 468.866L291.049 467.845L290.011 466.907C284.326 462.16 285.17 461.375 279.433 456.754C277.444 454.641 277.508 454.768 275.505 452.798C274.972 452.398 270.937 448.288 270.545 447.889C270.059 447.394 268.718 446.097 268.558 445.943C268.402 445.781 267.583 444.936 266.641 443.896L264.898 442.69L263.919 441.66C262.002 439.496 262.099 439.727 260.006 437.7C255.917 433.727 256.118 433.866 252.077 429.841C249.726 427.641 247.501 425.345 247.111 424.944L246.171 423.909L245.146 422.959L243.465 421.694C240.652 419.605 241.13 419.242 238.567 416.705C238.249 416.391 235.272 413.444 234.585 412.785C229.116 407.338 229.099 407.385 228.628 406.91C228.467 406.755 227.625 405.945 226.629 404.962L225.644 403.974C225.485 403.818 224.65 402.998 223.687 401.985L222.72 400.979C216.787 395.535 216.908 395.713 211.127 389.871L209.152 387.898C208.106 386.86 208.236 386.988 207.158 385.946L205.501 384.642C201.986 381.049 202.118 381.239 198.538 377.775C197.556 376.706 197.661 376.813 196.59 375.79L195.615 374.781C192.681 371.578 192.704 371.847 189.692 368.871C189.102 368.449 189.318 368.37 183.043 362.658C181.672 360.957 181.813 361.095 180.028 359.789C179.916 359.632 168.619 347.883 166.261 345.92C164.638 344.329 164.762 344.474 163.256 343.003C161.638 341.391 161.795 341.563 160.28 340.057L158.592 338.771C157.826 337.956 151.074 330.787 148.733 328.902C145.912 326.02 146.025 326.168 145.792 325.927L144.788 324.958C143.195 323.391 143.313 323.479 141.798 322.028L140.818 321.036L139.128 319.756L137.863 318.068C132.607 313.071 132.699 313.213 132.258 312.782C131.942 312.47 131.968 312.48 128.312 308.866C127.83 308.403 127.89 308.441 122.369 302.97L121.406 301.956L120.378 301.015C119.366 300.227 118.459 299.522 108.807 289.879L107.842 288.877C105.065 286.183 105.107 286.165 104.867 285.932C98.4214 279.629 98.4813 279.614 97.9206 279.07C96.3539 277.526 96.4664 277.675 94.9053 276.151C92.6333 273.801 92.4378 274.067 92.275 273.837C91.3573 272.732 91.5116 272.883 90.3609 271.816C88.7563 270.216 88.9368 270.338 87.3885 268.865C86.8424 268.306 84.5648 265.971 80.4281 262.016C78.867 260.442 78.9799 260.574 77.4499 259.071L76.179 258.165C128.953 165.872 210.944 92.4685 309.533 50.591Z" fill="currentColor"/>
<path d="M495.945 12C504.47 12.0534 513.897 12.2392 524.381 12.5834C581.628 15.403 636.281 28.0972 686.676 49.0008C686.676 49.0043 686.677 49.0081 686.677 49.0116L684.914 50.0593C684.619 50.3161 681.714 52.8511 681.207 53.2505C680.286 54.3055 679.447 55.1238 679.288 55.2797L678.25 56.2123L677.309 57.2543C677.052 57.4669 677.097 57.4714 674.318 60.1751C673.246 61.2211 673.376 61.0933 672.332 62.1341C671.281 63.1731 671.419 63.0379 670.349 64.1019C666.72 67.6156 666.883 67.5097 663.447 70.9875C661.776 72.5559 661.947 72.4058 660.414 73.9074C659.57 74.7336 659.542 74.4929 658.788 75.2401L657.797 76.2195C657.636 76.3754 656.796 77.1929 655.786 78.1561C655.156 78.7895 650.765 83.2046 647.867 86.0036C647.359 86.4148 643.286 90.5151 642.89 90.9128L641.224 92.2122L640.181 93.139L639.225 94.1585C638.285 95.1966 637.439 96.0065 637.278 96.1604C632.641 100.609 632.713 100.66 632.305 101.039C628.965 104.189 629.144 104.024 625.654 107.229C624.369 108.905 622.96 109.99 622.696 110.194L621.644 111.114L620.641 112.081L619.724 113.144C618.372 114.51 618.562 114.38 617.516 115.801C613.973 118.739 614.17 118.684 610.796 121.978C607.955 124.761 607.871 124.446 605.185 127.226L604.193 128.207L603.193 129.182L602.207 130.168C595.854 136.576 595.824 136.494 595.275 137.049C592.714 139.52 592.776 139.265 590.33 141.956C586.907 145.517 586.864 145.276 583.392 148.836L581.701 150.118L580.712 151.103C580.395 151.419 577.979 153.841 576.739 155.027C574.701 157.037 574.843 156.906 572.807 158.972C572.429 159.266 569.107 162.548 568.788 162.863L567.141 164.176L566.116 165.125C565.176 166.16 564.337 166.978 564.177 167.134L563.112 168.038L562.155 169.057C561.075 170.082 561.183 169.976 560.188 171.036C559.795 171.443 557.462 173.747 557.225 173.981C556.625 174.482 556.922 174.505 550.255 180.845L548.602 182.151L547.552 183.07L545.614 185.082L544.639 186.082L543.672 187.088C543.517 187.249 542.701 188.094 541.69 189.052C536.038 194.586 535.289 195.36 534.745 195.921C533.665 196.958 533.771 196.854 532.796 197.907C531.704 198.981 531.823 198.861 530.826 199.878L529.143 201.184C528.104 202.196 528.227 202.074 527.16 203.149C526.575 203.708 523.475 206.719 523.154 207.029C522.162 208.01 521.326 208.831 521.167 208.987C517.221 212.931 517.281 212.774 513.277 216.864C509.886 219.952 509.894 219.86 509.62 220.142C509.464 220.302 507.968 221.842 507.642 222.11L506.651 223.093C503.073 226.509 503.228 226.342 499.676 229.933C496.807 232.748 496.962 232.641 496.724 232.872C496.134 233.427 496.21 233.329 495.701 233.833C493.374 236.138 493.316 235.88 491.081 238.116C490.921 238.272 490.085 239.091 489.048 240.024L488.06 241.009L487.035 241.956L486.105 243.003C484.505 244.701 482.467 246.616 482.142 246.922C481.416 247.531 481.568 247.521 473.505 255.079C472.569 256.114 471.723 256.927 471.563 257.081L470.499 257.986L469.57 259.035C468.617 260.059 467.769 260.868 467.607 261.022C465.198 263.304 462.102 266.407 461.628 266.881C461.108 267.389 456.562 271.815 455.006 273.091L454.002 274.06L453.004 275.032C452.849 275.195 452.039 276.047 451.058 277.041C449.44 278.388 448.305 279.73 448.089 279.987C447.019 281.029 447.153 280.897 446.098 281.941L445.115 282.934C442.629 285.33 442.388 284.747 439.147 288.787C438.743 289.396 438.577 289.076 432.544 295.034C431.487 296.069 431.624 295.934 430.555 296.992C430.394 297.148 429.553 297.962 428.546 298.927C427.576 299.93 426.728 300.741 426.566 300.896C424.506 302.866 424.628 302.817 422.636 304.845C422.283 305.12 422.375 305.141 418.596 308.721L416.705 310.75L415.038 312.064L414.022 313.022L412.958 313.929L412.021 314.969C411.637 315.374 411.68 315.268 407.064 319.87C406.373 320.522 399.841 326.689 398.465 328.063C398.306 328.22 397.472 329.04 396.418 329.956L395.445 330.956C394.474 331.961 393.632 332.775 393.471 332.93L392.264 334.634C387.694 338.54 388.008 338.584 383.567 342.766C382.015 344.257 382.074 344.111 380.689 345.781L378.985 347.07L377.723 348.738C375.65 350.863 374.196 350.383 374.151 349.871C372.295 328.78 374.335 328.855 374.335 85.1598C374.335 42.7593 374.212 32.3433 374.6 28.262C413.366 17.973 454.026 12.3415 495.945 12Z" fill="currentColor"/>
<path d="M752.28 82.2428C840.537 135.703 910.511 216.366 950.605 312.621C927.798 312.956 857.141 312.896 637.268 312.896C522.662 312.896 510.062 316.074 518.065 310.76C519.41 309.866 520.379 309.223 532.773 296.806C533.015 296.572 535.072 294.577 535.793 293.903C547.483 280.373 548.442 281.542 561.191 268.978C562.71 267.532 562.537 267.667 564.152 266.02L565.139 265.027C566.299 263.945 566.137 264.099 567.094 263.047C576.607 253.428 576.909 253.79 577.706 252.927C578.696 251.943 579.565 251.156 579.731 251.007C580.678 249.976 581.485 249.12 581.639 248.957L583.643 247.023C585.243 245.402 585.155 245.578 586.569 244.027C592.501 238.905 595.067 235.623 596.473 234.198L598.121 232.882L600.121 230.928L601.105 229.946C602.703 228.413 602.607 228.51 604.111 227.028C604.505 226.605 604.502 226.623 618.591 212.878L619.853 211.209C626.083 206.809 650.359 181.778 652.929 179.129C654.031 178.088 653.931 178.183 654.876 177.15C658.947 173.646 658.715 173.599 662.506 169.957L663.488 168.971C663.646 168.812 664.478 167.981 665.478 167.01L666.463 166.024C668.11 164.422 667.971 164.622 669.435 163.073C669.955 162.552 669.852 162.665 670.421 162.085C670.688 161.812 670.712 162.049 671.067 161.715C671.575 161.237 671.462 161.293 672.047 160.739C673.099 159.743 672.992 159.675 684.939 147.998C686.929 145.988 686.866 146.163 688.899 144.038C690.149 142.928 699.82 134.333 703.703 129.244C705.127 128.189 705.073 128.315 706.401 126.995C710.661 123.02 710.429 123.121 715.346 118.193C716.416 117.204 716.328 117.294 717.304 116.216C724.881 108.265 725.117 108.832 732.815 101.124C733.922 100.063 733.809 100.169 734.8 99.1623C738.521 95.2708 746.345 88.0064 747.367 87.0573C748.411 85.9856 748.284 86.1184 749.307 85.0456C750.297 84.0675 751.158 83.2698 751.322 83.1179C751.419 83.0261 751.78 82.6884 752.28 82.2428Z" fill="currentColor"/>
</svg>
