<svg viewBox="0 0 1280 1032" fill="none" xmlns="http://www.w3.org/2000/svg">
<path fill-rule="evenodd" clip-rule="evenodd" d="M938.766 612.691C893.986 643.03 810.164 679.134 725.507 691.288C695.275 695.629 695.328 695.964 664.846 697.789C634.527 699.604 497.266 709.283 363.746 629.758C338.851 614.931 318.305 598.031 314.584 594.97C301.326 584.063 301.112 583.065 300.789 581.559C300.265 579.106 300.366 578.757 316.965 554.682C322.981 545.957 322.947 545.972 328.904 537.202C331.246 533.754 358.005 494.36 358.185 494.115C361.886 489.122 365.481 494.417 367.988 496.442C390.567 514.676 421.9 534.609 468.791 550.866C549.289 578.775 638.201 580.887 688.179 573.028C775.419 559.311 825.533 517.546 832.504 512.224C837.428 508.465 861.983 487.062 875.447 467.448C891.384 444.233 938.623 372.035 887.076 276.679C871.047 247.027 847.205 225.106 843.038 221.274C749.791 135.541 626.354 144.081 621.717 144.104C577.135 144.324 513.859 149.293 486.502 154.065C458.95 158.87 458.844 156.006 453.308 154.833C444.393 152.945 436.425 159.17 418.058 160.171C407.136 160.766 406.907 161.338 404.479 164.623C400.868 169.511 385.944 167.073 385.047 167.308C382.589 167.948 383.635 172.677 379.027 174.576C372.846 177.122 364.555 179.863 363.282 180.284C355.34 182.908 355.005 178.085 349.787 175.728C342.517 172.442 345.244 180.224 341.549 181.798C340.827 182.105 337.424 182.487 336.159 182.961C334.071 183.744 333.312 185.186 329.579 182.832C320.987 177.412 319.47 185.362 319.368 185.522C314.341 193.556 300.03 191.334 298.361 193.731C296.153 196.903 302.095 197.747 302.559 197.811C307.241 198.475 307.304 198.332 307.694 198.7C307.852 198.849 308.128 201.174 307.999 201.473C307.762 202.016 292.906 211.358 289.483 205.299C289.154 204.72 288.019 200.79 286.29 198.229C281.708 191.446 283.298 180.112 277.421 182.785C274.333 184.189 275.357 191.837 274.651 193.733C274.316 194.631 272.794 196.28 272.565 199.795C272.244 204.698 271.986 204.612 270.315 209.268C268.488 214.363 267.682 214.117 261.878 218.098C257.811 220.365 255.355 222.133 251.422 219.633C251.234 219.513 250.409 218.988 249.81 217.357C249.702 217.066 249.771 217.073 249.293 213.512C248.475 213.077 248.551 211.646 247.732 211.209C246.652 210.635 242.708 214.618 239.967 215.634C236.953 216.748 236.013 216.083 235.344 219.225C234.735 222.073 235.714 222.869 231.938 225.1C228.059 227.389 233.09 230.436 230.391 233.287C225.592 238.356 224.498 242.274 218.51 238.699C206.947 231.798 205.668 231.687 202.761 233.185C198.852 235.196 203.242 240.776 198.666 242.208C198.1 242.384 195.831 241.46 192.802 242.648C190.832 243.422 190.869 243.371 188.848 244.127C188.494 244.755 185.128 250.735 183.229 251.166C180.477 251.793 177.955 249.036 182.3 246.212C184.697 244.655 184.619 244.608 186.988 242.968C180.505 240.812 180.417 240.708 180.029 240.254C179.044 239.098 179.518 238.83 178.492 237.737C177.055 236.208 174.1 235.963 172.835 238.654C171.186 242.167 171.609 245.086 161.472 243.402C158.603 242.924 157.025 240.974 153.737 240.955C138.879 240.866 137.548 244.722 128.147 237.13L126.422 235.016C125.68 241.759 124.91 241.542 122.186 244.612C120.275 246.766 121.017 247.369 118.679 249.067C114.372 252.198 114.233 244.663 117.258 241.626C117.342 241.542 122.257 239.308 121.544 230.837C121.317 228.121 121.433 228.164 121.836 225.423C121.724 224.818 121.867 224.183 121.756 223.576C121.435 221.853 115.868 218.528 115.815 215.456C115.705 209.282 127.391 214.833 131.495 209.118C133.982 205.654 134.374 206.045 138.355 204.485C144.037 202.26 142.901 208.07 144.523 208.616C146.964 209.439 149.296 205.756 147.145 202.08C144.926 198.291 143.636 197.759 146.471 194.383C151.147 188.812 152.799 188.595 155.557 190.228C160.125 192.936 165.2 199.411 172.22 192.824C175.506 189.742 174.701 184.371 174.605 184.277C174.241 183.932 173.606 184.477 173.107 184.428C172.502 184.367 171.954 183.938 171.347 183.96C170.683 183.981 170.099 184.459 169.441 184.553C166.295 185.001 164.413 182.54 159.676 182.581C159.14 182.587 153.775 182.634 153.383 180.304C152.302 173.875 165.723 179.098 169.426 178.33C172.375 177.721 172.492 177.112 175.165 178.499C178.257 180.102 179.692 181.465 180.421 178.034C181.09 174.882 180.755 174.796 182.191 171.902C184.425 167.398 181.95 163.503 187.092 162.975C198.962 161.753 199.097 162.579 206.442 160.141C212.99 157.966 212.285 162.953 218.332 163.415C219.175 163.48 228.286 164.175 228.547 160.703C228.89 156.184 218.4 158.772 216.303 154.796C213.763 149.975 218.001 150.353 218.39 150.386C220.448 150.568 220.202 151.451 222.258 151.592C228.982 152.054 230.742 150.519 231.294 150.035C240.689 141.845 243.082 145.269 247.621 140.93C247.956 140.611 250.65 136.859 251.441 136.673C252.173 136.503 252.959 136.963 253.691 136.793L254.762 139.44C255.077 140.629 255.056 141.89 255.369 143.078C255.937 145.226 258.657 145.782 259.567 145.077C262.174 143.059 257.568 133.711 257.194 131.282C256.998 130.01 257.012 128.71 256.787 127.443C256.037 123.241 254.298 123.746 254.112 119.457C253.779 111.833 259.959 114.392 267.302 113.577C269.434 113.34 273.505 109.665 276.94 110.47C281.89 111.631 284.116 115.557 287.198 114.525C291.216 113.184 290.535 107.368 292.375 105.384C294.878 102.692 298.647 107.127 300.18 105.518C301.249 104.396 300.537 104.21 300.313 99.9174C299.957 93.0385 299.832 90.305 304.443 89.6823C315.087 88.2411 318.032 95.9424 322.683 92.9348C326.997 90.1464 322.182 86.193 322.174 86.1832C320.59 84.1448 317.077 76.4063 324.095 76.5218C334.412 76.6902 338.794 81.6893 342.17 79.038C344.416 77.2757 345.379 72.3784 345.937 70.6455C348.471 62.77 349.133 61.5501 357.43 61.9632C364.338 62.3079 368.277 61.7224 369.552 64.4246C370.97 67.4362 369.885 72.5645 372.677 73.4593C374.89 74.1701 374.892 73.5984 376.973 72.5292C384.473 68.6757 374.808 65.247 374.798 60.6572C374.79 57.7474 376.323 59.0711 378.986 60.2557C385.331 63.0794 383.079 56.6802 385.154 55.4251C387.079 54.26 387.167 55.1235 388.912 56.5079C394.017 60.5553 396.455 56.8427 402.693 51.2876C407.69 46.8368 408.865 49.9365 410.931 52.3489C414.297 55.7031 414.875 54.5498 417.483 54.0054C417.665 53.6412 418.092 53.4395 418.274 53.0773C419.674 50.2889 417.179 45.4935 422.031 45.4113C423.336 45.3878 424.638 45.5072 425.942 45.5522C426.255 45.562 429.239 45.6658 429.827 45.0901C430.304 44.6222 430.539 43.8604 430.483 43.1947C430.418 42.4624 429.674 41.9356 429.494 41.2229C428.337 36.6546 431.013 37.7296 435.719 37.4672C449.596 36.6937 449.929 32.3017 459.173 31.1621C511.172 24.7453 510.695 20.7919 563.003 17.9957C647.821 13.4626 759.092 11.1775 885.835 74.924C989.534 127.08 1100.37 232.546 1092.22 379.963C1089.63 426.723 1070.68 466.547 1067.35 473.542C1053.49 502.682 1042.83 514.881 1033.15 528.915C1030.92 532.152 999.209 568.927 969.875 590.882C956.702 600.741 945.471 608.299 943.309 609.754C939.89 611.978 939.937 611.959 938.766 612.691ZM651.817 882.997C654.39 896.933 653.431 901.245 653.607 998.697C653.615 1003.24 654.768 1008.71 649.178 1008.97C640.462 1009.38 609.499 1009 606.048 1008.96C598.672 1008.87 600.092 1005.67 600.09 992.822C600.072 901.026 601.069 897.066 593.64 881.544C587.891 869.528 575.733 862.59 559.068 861.597C527.243 859.702 513.493 880.981 511.186 884.548C498.991 903.421 500.358 911.263 500.358 986.948C500.358 1006.44 500.951 1007.49 498.364 1008.49C495.903 1009.43 450.91 1009.16 449.353 1008.63C446.565 1007.68 447.031 1006.62 447.031 979.115C447.031 860.228 447.115 860.248 446.353 845.93C445.756 834.679 446.122 833.518 447.612 832.488C448.791 831.671 448.93 831.656 490.532 831.722C498.123 831.736 497.221 834.565 497.847 844.035C498.172 848.969 498.355 848.934 498.182 851.844C497.908 856.463 497.144 856.665 498.214 857.82C500.317 860.095 502.619 856.706 502.837 856.387C514.317 839.488 534.458 831.985 537.703 830.776C557.427 823.43 601.251 819.247 631.42 846.073C638.835 852.666 643.599 861.01 643.795 861.315C647.746 868.637 648.996 870.63 651.817 882.997ZM531.366 273.792C557.513 256.232 567.123 253.304 594.155 246.161C626.558 237.598 713.272 235.687 764.077 298.165C803.764 346.969 797.228 423.341 719.311 465.46C666.626 493.939 580.542 496.581 521.204 445.304C499.888 426.884 456.823 372.039 501.18 304.168C504.231 299.498 512.467 290.511 513.506 289.375C520.644 281.909 523.45 279.725 531.366 273.792ZM131.348 282.189C131.286 282.739 131.654 283.283 131.591 283.833C131.578 283.945 130.033 286.788 127.757 284.905C123.739 281.58 127.924 279.672 128.245 279.692C128.873 279.731 129.279 280.546 129.907 280.585C130.136 279.706 130.814 278.989 131.043 278.11C131.159 277.663 130.659 277.121 130.91 276.735C131.043 276.526 134.889 275.204 135.527 276.402C135.676 276.68 136.451 278.139 134.313 280.154C133.44 280.975 132.222 281.368 131.348 282.189ZM106.997 281.441C103.816 280.06 103.896 279.95 100.614 278.85C98.8967 278.274 98.885 278.582 93.0675 278.944C88.6343 279.22 87.434 276.594 87.2186 276.122C83.089 267.09 99.3295 268.936 104.922 262.564C108.108 258.934 108.644 259.774 110.765 259.437C114.908 258.775 113.863 255.689 116.729 254.963C121.243 253.817 122.239 256.71 132.243 257.953C135.754 258.39 136.956 255.329 135.304 253.232C134.194 251.826 133.929 252.267 130.134 250.902C127.28 249.876 126.584 249.298 128.069 246.621C128.513 245.817 129.623 243.813 139.502 247.732C144.092 249.551 142.713 252.838 145.866 254.669C153.13 258.883 157.188 250.385 160.722 257.056C162.169 259.784 162.574 259.473 165.531 260.371C165.905 260.483 168.795 261.362 167.981 264.579C166.868 268.965 153.857 268.779 153.757 268.785C142.839 269.324 142.666 267.311 132.136 270.068C128.082 271.129 125.059 269.692 122.429 269.508C113.14 268.854 122.089 278.825 116.414 281.828C112.024 284.151 108.728 282.063 106.997 281.441ZM83.5883 243.727C81.7379 244.426 76.6194 248.059 76.4177 240.99C76.2375 234.696 73.8153 235.815 69.8032 230.919C69.4683 230.51 66.1337 226.439 66.3197 225.303C66.6467 223.324 69.2432 223.347 69.5447 223.351C78.832 223.441 80.4866 221.105 82.3135 225.67C85.0118 232.423 83.7723 234.855 91.0467 235.382C96.5431 235.781 97.3244 241.117 90.9997 242.006C87.2049 242.541 87.2049 242.425 83.5883 243.727ZM216.356 132.628C217.456 132.168 217.536 132.671 218.639 132.209C218.78 132.15 219.128 132.005 220.135 131.046C222.357 128.929 222.267 127.817 222.539 127.496C225.155 124.423 231.149 127.225 231.308 129.395C231.527 132.408 226.949 131.333 221.106 137.687C217.544 141.563 216.438 137.964 212.438 138.034C201.58 138.224 204.214 133.805 204.684 133.248C205.259 132.569 215.42 132.624 216.356 132.628ZM132.492 192.233C128.856 195.716 128.186 196.008 124.491 193.737C118.813 190.245 116.533 193.368 115.002 191.579C114.526 191.019 112.108 187.547 122.427 186.17C127.673 185.471 130.197 181.156 133.935 186.241C136.064 189.139 134.81 189.493 132.492 192.233ZM110.798 234.048C109.435 234.362 108.117 234.855 106.757 235.17C106.332 235.268 101.619 236.357 101.712 233.124C101.761 231.462 104.842 230.99 107.933 228.337C110.164 226.425 111.908 227.369 114.834 228.795C116.524 229.617 116.12 229.983 116.136 231.127C116.157 232.684 116.253 232.964 114.765 233.443C114.46 233.543 114.472 233.488 110.798 234.048ZM88.7812 259.717C89.5918 259.586 90.2811 258.995 91.0898 258.866C91.311 258.828 93.4493 258.484 93.4669 260.33C93.4865 262.433 90.9879 263.802 90.6649 263.978C89.1552 264.804 88.9868 263.494 87.3987 264.133C86.498 264.495 85.9674 265.46 85.145 265.975C84.6319 266.299 83.972 266.32 83.4394 266.614C82.6797 267.031 82.1295 267.834 81.3012 268.092C79.4449 268.67 76.8426 264.503 81.3658 262.694C83.412 261.875 84.6437 262.145 84.8238 262.102C85.1841 262.016 85.1626 261.975 88.7812 259.717ZM245.089 116.822C245.449 116.702 245.622 116.236 245.98 116.117C246.25 116.027 248.347 115.33 249.042 117.916C250.135 121.983 242.596 122.259 244.282 117.752C244.427 117.368 244.946 117.206 245.089 116.822ZM65.6422 254.665C64.996 254.503 64.2911 254.82 63.645 254.658C61.1092 254.017 62.6757 249.239 65.5189 249.672C66.7975 249.866 68.2387 252.327 66.8269 253.876C66.5077 254.227 65.9614 254.315 65.6422 254.665ZM104.714 248.742C105.253 247.973 104.657 247.788 105.18 247.04C105.257 246.931 105.797 246.161 106.567 246.099C106.866 246.073 109.365 245.864 109.175 248.824C109.05 250.792 106.302 251.464 105.288 250.297C104.926 249.88 105.077 249.159 104.714 248.742ZM261.492 897.689C285.755 895.978 285.761 896.571 329.965 896.591C336.39 896.593 339.164 897.341 338.438 890.941C337.251 880.485 334.308 874.515 328.573 868.885C311.831 852.457 260.433 851.509 249.475 877.203C247.19 882.561 245.786 881.74 232.062 881.74C195.03 881.736 194.689 881.877 193.638 880.599C191.316 877.779 196.567 862.647 203.34 854.317C207.053 849.752 223.898 829.038 271.2 826.003C356.415 820.535 379.147 849.153 388.062 873.604C392.818 886.653 392.188 890.624 392.174 955.618C392.164 1003.23 394.31 1003.32 393.173 1006.75C392.309 1009.35 391.305 1008.96 365.213 1008.96C346.997 1008.97 344.559 1009.93 343.948 1004.53C342.393 990.815 344.684 987.332 341.696 987.236C338.32 987.126 338.412 992.816 318.573 1003.3C282.111 1022.57 234.987 1014.32 228.061 1012.77C167.501 999.184 177.536 952.82 177.636 951.741C182.261 901.1 250.2 898.707 261.492 897.689ZM241.672 939.722C236.669 943.822 236.301 943.683 234.073 949.763C227.362 968.085 244.807 987.716 275.189 985.799C334.561 982.055 341.921 932.101 337.318 928.886C335.591 927.68 335.35 928.33 302.554 928.255C265.291 928.173 251.247 932.796 241.672 939.722ZM1148.59 894.204C1211.27 904.76 1229.46 904.441 1246.45 920.278C1266.61 939.078 1272.19 990.181 1220.82 1008.24C1184.79 1020.91 1120.8 1016.07 1099.72 1007.89C1089.88 1004.08 1067.5 995.63 1062.99 959.483C1062.94 959.047 1062.51 955.665 1066.04 954.913C1066.06 954.907 1115.02 954.424 1117.29 955.166C1122.84 956.977 1118.58 968.015 1132.51 977.594C1135.14 979.401 1143.69 985.276 1171.97 983.372C1211.1 980.741 1210.01 956.333 1197.29 949.963C1171.93 937.265 1082.4 947.697 1070.75 896.734C1061.94 858.217 1093.07 826.476 1156.28 825.55C1156.67 825.544 1209.95 821.565 1237.84 844.82C1252.01 856.629 1254.41 872.478 1254.82 875.233C1254.95 876.05 1256.21 880.511 1254.49 883.454C1253.32 885.467 1245.01 884.345 1207.2 884.636C1199.33 884.697 1200.18 882.247 1198.74 877.483C1192.93 858.268 1171.11 857.928 1160.22 857.336C1148.99 856.725 1122.58 860.07 1125.32 879.199C1126.9 890.258 1142.73 892.731 1148.59 894.204ZM759.104 961.492C759.104 1006.3 759.264 1006.59 758.05 1007.84C756.502 1009.43 754.929 1008.84 711.796 1008.96C704.028 1008.98 705.317 1005.8 705.309 996.738C705.229 878.715 706.123 878.75 704.424 838.111C704.263 834.285 703.787 831.769 709.83 831.732C713.124 831.712 747.686 831.505 750.995 831.757C755.66 832.116 756.161 833.559 756.631 849.888C756.656 850.79 756.269 857.082 756.874 857.685C758.799 859.608 761.007 856.618 761.223 856.326C769.006 845.789 784.816 832.345 805.709 827.974C859.614 816.696 911.335 841.889 912.156 898.819C912.199 901.762 912.195 1004.07 912.15 1004.63C911.715 1009.9 909.379 1009 889.986 1009C860.749 1009 859.572 1009.47 858.699 1006.52C857.785 1003.43 859.398 913.045 857.749 900.908C853.318 868.274 833.894 861.897 813.622 861.501C794.716 861.131 769.582 872.995 762.249 900.662C758.689 914.096 759.104 914.231 759.104 961.492ZM89.4156 840.485C92.3997 838.229 94.7162 836.809 95.194 836.516C117.442 822.856 156.771 830.338 159.49 830.925C166.007 832.337 164.76 836.396 164.73 842.043C164.599 867.581 165.739 871.3 161.656 871.922C160.699 872.067 138.944 868.243 118.627 872.159C102.345 875.298 92.2862 883.544 90.9175 884.965C76.7349 899.684 75.0646 919.551 74.9432 920.29C72.102 937.695 74.4635 1003.03 73.4179 1006.52C72.5504 1009.41 70.792 1009.03 47.9997 1009.03C22.5599 1009.03 21.4575 1009.39 20.5901 1006.53C20.3414 1005.71 20.3767 1005.72 20.3767 920.372C20.3767 842.852 18.9864 842.923 19.0001 836.187C19.0118 830.43 25.4129 831.681 28.4284 831.71C55.5168 831.979 67.0971 830.986 69.1296 832.725C70.4768 833.876 70.7411 839.519 70.7685 840.126C71.6849 859.68 69.9324 862.134 73.4649 861.652C76.216 861.276 73.7116 853.111 89.4156 840.485ZM963.082 1000.65L963.08 877.293C963.08 834.44 962.835 833.937 964.631 832.568C965.874 831.622 966.052 831.781 999.64 831.781C1012.11 831.781 1016.57 830.342 1016.37 838.137C1016.11 847.949 1016.52 847.896 1016.35 857.712C1015.86 887.092 1016.83 1004.21 1015.82 1006.78C1014.78 1009.39 1012.48 1008.99 991.807 1008.99C965.704 1008.99 964.629 1009.49 963.28 1006.31L963.082 1000.65ZM1006.2 799.819C1001.74 803.079 1001.42 802.695 991.807 802.695C973.859 802.697 973.875 802.642 968.31 802.897C964.292 803.079 962.739 801.461 965.518 798.526C971.541 792.164 1000.17 755.138 1003.5 753.803C1007.55 752.172 1043.18 753.934 1056.4 752.771C1056.51 752.761 1060.1 752.017 1060.85 753.591C1062.22 756.45 1060.2 756.053 1053.94 761.118C1009.95 796.707 1010.08 796.797 1006.2 799.819Z" fill="currentColor"/>
</svg>
