<svg viewBox="0 0 640 1032" fill="none" xmlns="http://www.w3.org/2000/svg">
<path fill-rule="evenodd" clip-rule="evenodd" d="M16.5 416.557C16.7421 416.299 17.2931 416.586 17.5352 416.329C21.0993 412.537 21.4398 401.095 21.4801 399.73C22.2949 372.339 48.16 364.204 47.4702 349.51C46.6958 333.008 61.4581 279.958 65.836 269.709C68.9662 262.379 81.7821 249.167 91.2681 242.73C96.2148 239.374 92.1538 237.94 82.8498 205.729C81.3698 200.604 79.4028 198.181 84.6732 197.798C88.8927 197.492 85.7852 187.251 90.8027 184.557C93.4537 183.133 107.786 175.436 117.701 158.243C126.811 142.446 126.32 131.031 126.433 129.995C126.781 126.819 130.929 128.771 137.785 126.887C143.788 125.237 161.758 102.738 167.484 99.7698C175.119 95.8118 177.821 100.141 190.661 86.3481C206.033 69.8359 207.64 71.8247 228.341 62.9892C247.346 54.8753 248.442 46.1678 266.107 30.9433C278.47 20.2893 284.787 30.2295 300.2 25.6454C309.074 23.0057 319.226 6.87552 375.093 23.2322C404.842 31.9427 410.084 28.3077 448.77 28.7773C467.98 29.0106 467.916 28.8718 487.152 29.1317C505.1 29.3739 498.748 46.5773 515.68 46.152C521.778 45.9984 520.645 48.4234 524.869 52.8628C539.609 68.3531 534.778 71.0715 547.186 105.342C556.382 130.741 524.26 174.281 502.83 170.775C476.702 166.5 476.855 177.281 456.639 178.046C437.82 178.759 436.271 167.034 386.901 185.434C357.963 196.218 357.396 193.979 326.759 197.934C317.917 199.076 278.752 228.54 262.787 246.137C248.286 262.12 246.663 262.206 244.13 273.715C240.482 290.293 237.899 291.584 218.569 297.549C192.414 305.622 203.326 316.459 200.646 325.856C196.752 339.512 195.768 342.605 195.121 366.264C194.409 392.36 190.747 392.375 193.312 405.567C194.895 413.706 191.132 412.652 186.382 419.649C180.799 427.873 188.77 444.26 191.606 462.799C194.248 480.074 171.018 536.368 197.412 571.379C202.598 578.259 192.468 600.412 194.235 608.406C202.63 646.363 211.925 663.279 214.336 667.666C216.44 671.496 215.359 701.471 216.735 703.86C224.108 716.651 218.986 719.65 224.672 726.397C233.892 737.335 241.947 737.133 234.25 749.253C233.28 750.78 233.519 751.777 245.409 760.633C255.809 768.38 258.14 767.788 259.168 780.737C259.734 787.857 260.236 791.136 291.706 817.73C304.801 828.797 303.495 829.92 312.46 844.462C315.368 849.179 323.364 845.123 332.442 849.162C369.231 865.527 421.951 863.158 441.609 850.21C448.87 845.427 449.556 845.376 461.654 849.419C474.349 853.66 475.129 851.949 499.948 851.096C514.838 850.584 513.911 854.818 529.411 859.665C533.338 860.893 527.39 876.478 543.666 896.569C549.285 903.505 555.411 902.248 552.539 907.059C545.931 918.132 546.182 936.943 543.759 949.022C537.427 980.601 510.021 977.855 496.382 997.619C492.571 1003.14 495.395 1005.84 489.05 1008C469.359 1014.7 465.61 1015.5 463.519 1015.95C453.976 1016.11 453.91 1016.11 445.003 1012.69C423.41 1004.41 420.128 1009.56 400.501 1012.73C393.806 1013.81 393.781 1013.1 390.735 1011.12C383.594 1006.5 373.242 1018.49 364.219 1006.17C353.661 991.767 347.845 998.288 315.926 997.418C303.21 997.073 302.436 991.811 299.848 989.944C278.839 974.783 279.56 973.948 258.141 959.553C247.44 952.361 213.873 946.565 207.745 942.149C195.729 933.489 196.577 931.68 182.225 927.974C181.185 927.705 179.783 923.146 179.644 922.697C175.731 909.974 155.478 906.687 144.006 898.533C141.025 896.415 140.961 896.274 120.459 859.34C118.498 855.808 121.039 852.576 121.054 851.649C121.08 849.976 120.786 849.875 105.636 837.518C92.6133 826.897 71.7274 791.375 67.4656 763.113C64.9189 746.228 71.3426 744.669 66.3064 740.041C59.2106 733.52 55.6189 717.38 55.6238 714.806C55.6317 711.264 62.76 709.815 57.644 703.366C55.3139 700.429 46.8217 689.723 38.1918 660.72C22.8046 609.01 27.7592 590.017 32.3054 578.836C36.0073 569.729 26.7329 541.849 28.0377 537.699C39.7781 500.347 24.2482 424.959 17.607 418.579C17.3354 418.318 16.7755 418.594 16.503 418.332L16.5 416.557ZM459.596 350.82C432.192 349.794 431.986 349.121 430.108 350.551C427.759 352.339 417.306 364.967 396.606 368.127C385.978 369.75 375.499 355.093 372.194 357.641C359.234 367.63 358.379 355.778 347.357 345.649C327.745 327.628 319.407 334.962 317.774 330.881C310.447 312.584 309.581 313.047 302.902 294.471C297.148 278.464 314.118 280.452 314.743 250.073C314.824 246.151 321.386 248.441 338.483 241.994C364.252 232.277 363.247 226.416 378.855 228.864C406.657 233.222 409.521 238.129 416.143 234.986C432.118 227.403 435.265 220.202 460.57 218.461C475.643 217.423 475.774 218.042 488.124 213.624C493.544 211.685 493.641 215.153 559.951 217.797C565.488 218.018 559.558 227.279 576.775 232.046C588.481 235.288 588.12 237.227 590.464 249.095C595.844 276.339 589.759 281.526 602.71 316.88C616.373 354.179 608.565 364.113 617.505 399.623C620.437 411.268 616.628 448.421 619.473 456.684C620.965 461.018 627.941 481.286 619.114 513.975C616.408 523.991 612.275 527.697 611.467 544.496C609.75 580.176 614.907 598.974 608.104 610.38C606.059 613.811 613.016 645.557 612.658 646.749C609.93 655.861 606.422 655.47 608.671 664.459C610.397 671.357 613.025 674.613 602.353 701.042C593.527 722.896 603.474 728.233 592.96 742.014C576.613 763.443 571.628 759.143 554.709 784.473C551.718 788.951 536.259 779.126 495.163 796.869C476.298 805.015 473.778 797.92 460.563 796.83C453.793 796.273 448.395 807.742 443.857 806.338C430.884 802.326 416.461 792.62 411.592 797.695C403.406 806.23 401.668 802.164 387.796 800.972C382.372 800.505 351.019 785.066 342.869 778.337C335.847 772.54 340.191 770.79 339.522 765.996C336.787 746.42 327.896 747.574 331.317 725.577C334.015 708.231 339.126 686.225 340.596 684.325C344.75 678.956 362.959 665.562 398.58 663.53C424.737 662.038 480.213 665.913 496.713 637.844C496.975 637.399 504.854 576.93 505.058 575.008C506.697 559.655 506.054 556.748 499.871 555.668C480.489 552.28 472.878 543.317 451.802 550.621C424.184 560.193 421.581 563.576 410.176 553.596C407.233 551.02 406.608 552.318 351.331 554.884C341.81 555.326 342.443 552.731 337.125 544.765C325.935 528.007 319.361 518.416 327.205 476.618C328.376 470.382 331.742 473.404 347.196 463.38C361.028 454.408 361.684 452.556 378.836 457.115C402.177 463.318 423.867 442.316 444.983 459.603C449.519 463.317 450.14 454.669 483.216 453.959C486.387 453.891 485.626 450.586 491.133 446.07C495.904 442.157 497.515 442.373 496.657 436.217C491.611 400.008 504.065 370.147 498.616 364.633C489.894 355.809 491.418 352.513 481.206 351.814C470.399 351.074 470.465 351.162 459.596 350.82Z" fill="currentColor"/>
</svg>
