<svg viewBox="0 0 1032 1032" fill="none" xmlns="http://www.w3.org/2000/svg">
<path fill-rule="evenodd" clip-rule="evenodd" d="M390.47 870.43C335.024 1031.15 206.523 1015.5 57.4489 1015.5C31.6104 1015.5 17.157 1016.73 16.8391 1012.7C16.6608 1010.44 16.7853 588.655 16.7797 583.938C16.7676 574.825 12.9777 570.395 22.2185 570.226C205.182 566.882 233.451 574.527 251.143 579.312C402.286 620.188 417.186 766.16 390.47 870.43ZM184.53 625.689C153.364 625.007 85.1258 625.072 84.2371 625.795C82.634 627.1 82.6894 958.381 84.2355 959.269C86.5757 960.615 169.566 959.791 176.985 959.717C343.464 958.062 349.637 780.687 315.126 707.267C277.524 627.269 198.238 626.797 184.53 625.689ZM565.506 607.821C565.55 640.297 566.042 1010.82 565.359 1013.77C564.787 1016.24 499.025 1017.61 499.007 1012.66C498.88 977.319 497.43 573.172 499.919 570.877C501.075 569.811 626.748 569.16 627.518 571.311C635.175 592.713 702.921 807.288 750.519 953.63C755.186 967.98 755.431 980.309 758.493 970.015C764.896 948.488 830.141 759.017 843.513 718.321C847.414 706.446 891.67 571.752 894.582 570.666C895.515 570.318 1014.85 568.796 1015.77 571.534C1015.84 571.745 1015.84 571.695 1015.84 966.131C1015.84 1006.72 1017.12 1015.67 1012.49 1015.65C950.544 1015.31 950.08 1014.55 950.036 1013.77C949.941 1012.17 950.028 650.751 949.998 621.645C949.978 601.897 952.178 575.608 946.537 596.283C945.897 598.627 807.101 1009.29 805.091 1014.05C804.19 1016.19 704.409 1016.56 703.241 1013.74C700.931 1008.15 570.951 602.034 570.465 600.408C570.203 599.529 564.736 581.206 564.996 590.331C565.035 591.73 565.033 591.627 565.506 607.821ZM948.354 35.8293C947.561 38.6568 806.234 460.323 803.665 460.894C800.277 461.646 714.475 461.187 706.72 461.145C704.435 461.133 702.992 460.845 684.965 403.004C673.363 365.774 569.371 45.5357 567.691 36.017C565.652 24.4553 565.585 49.6722 565.582 50.8722C565.487 86.5816 565.626 453.707 565.501 459.408C565.428 462.697 500.382 461.26 499.616 460.331C497.166 457.361 498.868 55.8718 499.018 20.7014C499.046 14.1489 508.748 16.3877 510.43 16.3885C625.512 16.4262 625.455 16.2328 626.338 16.5312C629.351 17.5515 739.123 366.86 757.051 419.686C761.29 420.132 766.166 414.922 760.424 409.047C771.195 376.991 890.152 27.2098 893.431 18.3649C894.202 16.2834 913.812 16.2874 915.594 16.2882C1013.45 16.3075 1015.91 15.6272 1015.91 19.4437C1015.92 54.6373 1016.06 454.653 1015.81 459.365C1015.62 462.866 951.224 460.881 950.902 460.636C948.318 458.659 951.124 35.8318 949.554 35.8558L948.354 35.8293ZM319.175 16.2769C369.404 16.2898 378.679 16.1607 380.963 16.6347C383.616 17.1858 382.219 459.809 381.706 460.433C379.946 462.568 322.965 461.242 317.857 461.123C315.781 461.075 315.738 444.576 315.734 443.126C315.217 246.858 317.498 243.601 312.858 243.587C294.555 243.534 88.6573 242.94 84.0702 243.827C80.6086 244.495 83.3878 423.072 82.3907 459.413C82.3145 462.178 16.8848 462.315 16.1719 459.404C16.0475 458.897 16.0901 18.5526 16.1326 18.2309C16.6496 14.3864 80.9184 16.625 81.3945 16.8665C84.201 18.291 80.9955 186.162 83.1381 188.68C85.6244 191.601 294.511 189.675 312.891 189.506C316.726 189.471 315.747 183.577 315.744 133.85C315.74 19.171 315.154 17.2258 319.175 16.2769Z" fill="currentColor"/>
</svg>
