<svg viewBox="0 0 1032 1032" fill="none" xmlns="http://www.w3.org/2000/svg">
<path fill-rule="evenodd" clip-rule="evenodd" d="M537.456 1016H492.375C491.923 1015.88 491.828 1015.14 491.376 1015.01C490.888 1014.88 471.872 1014.33 448.225 1011.01C348.008 996.943 282.695 958.986 245.652 935.738C214.124 915.951 171.574 880.887 141.759 846.718C-13.339 668.973 -6.18777 449.473 62.6214 304.115C141.786 136.881 279.689 74.0024 299.063 64.2425C362.267 32.4065 437.469 18.6229 478.669 17.0203C514.141 15.6402 623.491 8.35827 739.155 67.0469C1064.02 231.884 1111.59 668.31 836.029 899.45C696.817 1016.22 540.643 1014.43 538.451 1015.02C538.001 1015.14 537.906 1015.88 537.456 1016ZM534.516 166.283C531.345 166.398 511.621 167.11 496.571 177.826C494.318 179.431 481.529 188.538 474.014 204.036C456.797 239.548 454.951 272.809 451.692 319.597C451.168 327.123 445.835 403.712 445.912 413.732C445.934 416.522 447.916 416.201 621.737 416.202C670.195 416.202 708.225 409.844 708.362 462.677C708.841 646.587 706.622 740.204 710.665 758.76C717.903 791.975 761.93 782.652 762.135 790.042C762.801 814.03 762.819 814.884 760.849 815.363C759.321 815.735 569.754 815.477 553.137 815.455C550.855 815.452 550.21 815.127 550.205 812.609C550.191 805.195 550.407 805.285 549.826 797.929C548.073 775.704 583.158 797.077 590.932 759.587C593.352 747.922 593.757 745.966 593.758 610.687C593.759 520.45 594.033 520.505 593.819 512.666C592.62 468.777 589.235 458.829 545.296 458.826C450.582 458.82 450.591 458.852 450.281 458.925C448.681 459.298 448.043 459.775 448.041 479.34C448.021 735.989 447.928 735.985 449.873 748.963C456.441 792.786 495.853 782.891 500.921 788.377C502.238 789.803 501.659 790.038 501.463 812.619C501.432 816.21 495.116 815.124 488.455 815.124C282.093 815.124 282.094 815.138 281.556 815.01C279.613 814.547 279.463 813.829 280.049 790.094C280.112 787.497 287.757 786.899 291.47 786.137C325.093 779.231 330.955 774.728 333.864 742.054C335.893 719.265 335.04 467.576 334.401 460.745C334.07 457.196 332.18 459.026 313.031 459.028C278.244 459.032 269.226 459.152 272.712 447.928C275.689 438.339 277.31 438.584 278.332 436.948C299.29 403.391 321.658 420.096 332.458 415.256C338.195 412.685 326.154 304.56 388.021 226.059C393.724 218.822 422.722 182.028 483.54 161.712C553.086 138.479 624.303 160.952 660.899 197.081C684.958 220.834 703.853 281.311 687.72 310.921C662.337 357.506 589.135 347.205 580.056 293.02C574.215 258.153 596.085 246.628 600.408 235.358C605.767 221.391 590.4 167.82 534.516 166.283Z" fill="currentColor"/>
</svg>
