<svg viewBox="0 0 1120 1032" fill="none" xmlns="http://www.w3.org/2000/svg">
<path fill-rule="evenodd" clip-rule="evenodd" d="M701.527 775.182C702.337 793.758 701.364 798.147 698.793 807.786C696.136 817.75 690.012 828.615 678.296 837.835C675.255 840.228 665.72 846.519 653.359 848.691C647.604 849.702 647.655 850.055 640.285 850.075C629.777 850.104 628.029 850.295 617.351 847.268C614.783 846.539 599.797 842.291 589.049 829.592C572.62 810.182 574.408 785.395 574.41 783.37C574.413 779.994 572.181 750.661 597.322 730.485C606.519 723.102 619.649 719.161 624.002 718.471C640.238 715.902 641.283 716.776 653.284 718.498C656.895 719.017 666.433 722.345 671.114 724.966C685.423 732.976 691.793 741.506 697.555 755.564C698.804 758.609 700.039 764.691 700.202 765.496C701.179 770.3 701.403 770.247 701.527 775.182ZM675.506 785.001C675.289 776.897 675.084 775.91 674.923 775.136C673.009 765.939 673.624 765.748 669.832 757.158C660.346 735.67 629.868 733.542 614.481 746.21C605.536 753.576 602.233 767.933 601.837 770.393C599.994 781.796 600.547 786.882 600.701 788.311C602.608 805.879 608.284 813.175 609.095 814.513C619.285 831.33 647.325 831.338 658.669 823.181C662.759 820.24 674.082 811.668 675.506 785.001ZM112.84 585.521C112.873 592.534 113.923 603.154 105.5 615.031C100.387 622.24 91.0732 624.068 90.6213 626.375C90.2832 628.098 90.7195 628.116 100.183 644.549C100.855 645.717 106.831 656.094 108.493 659.19C110.476 662.887 118.464 676.581 118.5 677.078C118.718 680.067 113.686 679.337 111.928 679.331C92.5907 679.276 91.5994 680.244 89.5162 676.769C86.0962 671.065 66.9129 633.174 64.7776 631.008C63.0138 629.219 62.4408 629.764 46.4949 629.62C42.3715 629.582 41.1141 629.686 41.0943 634.555C40.9252 676.225 42.0021 676.86 39.871 678.602C39.0496 679.273 37.6387 679.069 23.5933 679.077C23.1039 679.078 18.3906 679.08 17.5327 678.251C16.5507 677.301 16.6395 677.071 16.6374 646.011C16.6301 563.223 16.5936 563.26 16.6353 556.064C16.6687 550.241 19.3634 551.422 23.5933 551.447C76.4321 551.759 80.6681 549.615 95.586 557.677C97.9853 558.974 99.1553 560.207 102.108 562.618C103.805 564.005 106.971 568.398 107.354 568.931C107.952 569.761 109.422 571.179 112.172 580.526L112.84 585.521ZM82.2462 575.96C76.6251 571.958 75.8788 571.446 66.1249 571.446C43.7554 571.447 43.7325 571.505 42.9352 571.8C40.5369 572.689 41.1097 577.488 41.1139 580.601C41.1452 607.023 40.6392 608.019 43.075 608.786C43.6772 608.976 47.7266 608.972 48.1305 608.971C73.3804 608.953 75.6544 609.617 80.7171 606.538C81.8338 605.858 88.4516 601.834 88.27 592.039C88.1114 583.427 86.0617 579.886 82.2462 575.96ZM794.39 820.758C792.887 818.615 792.506 818 792.353 817.753C790.953 815.496 778.958 797.92 775.921 793.274C761.264 770.856 760.338 771.395 756.437 762.106C756.337 761.868 755.268 759.321 753.478 760.816C752.41 761.708 753.51 767.513 753.579 768.656C753.774 771.833 753.663 830.334 753.652 835.697C753.638 843.901 754.553 847.163 749.89 847.259C748.58 847.286 738.043 847.503 733.515 847.26C733.238 847.246 731.107 847.131 730.576 845.399C730.304 844.514 730.442 844.487 730.427 740.854C730.424 721.989 730.235 721.742 731.373 720.646C732.404 719.653 734.747 719.858 735.164 719.858C753.635 719.853 753.805 719.833 755.059 720.891C756.638 722.222 778.789 755.97 781.605 760.04C792.338 775.558 792.029 775.721 802.666 791.261C807.223 797.919 809.074 802.342 809.885 803.676C810.652 804.938 810.717 805.134 812.198 804.959C813.994 804.749 812.733 800.449 812.558 798.103C812.262 794.157 812.418 730.392 812.432 724.504C812.444 719.772 813.891 719.871 818.589 719.876C832.027 719.891 834.507 719.516 835.24 721.009C836.043 722.64 835.817 722.693 835.725 724.508C835.626 726.485 835.679 807.932 835.663 834.063C835.657 844.988 836.71 847.321 831.678 847.314C830.368 847.311 816.126 847.29 815.312 847.259C811.258 847.112 810.639 844.765 807.515 840.347C805.243 837.132 795.432 822.33 794.39 820.758ZM197.433 752.157C198.923 755.929 198.733 755.996 214.746 799.807C222.827 821.913 222.625 821.961 230.865 844.021C232.53 848.478 227.347 847.455 224.797 847.455C223.75 847.455 214.927 847.455 211.709 847.469C206.067 847.491 204.688 848.184 202.452 842.035C194.44 819.998 194.947 818.235 190.436 818.138C185.833 818.038 154.329 818.163 151.188 818.176C145.02 818.201 145.053 819.671 142.523 827.359C142.045 828.811 137.024 844.071 136.351 845.444C134.95 848.299 131.197 847.319 116.837 847.514C116.452 847.519 112.683 847.57 112.049 847.008C110.555 845.678 111.983 843.338 116.458 830.659C119.266 822.699 149.791 736.216 151.45 731.134C154.735 721.074 155.574 720.686 156.441 720.284C158.294 719.427 183.562 719.924 183.822 719.976C186.426 720.502 186.355 721.815 191.652 736.112C196.909 750.306 196.831 750.327 197.433 752.157ZM177.124 770.365C174.801 763.747 172.284 757.56 171.456 753.643C170.981 751.398 171.45 750.425 169.159 750.556C167.789 750.636 167.987 751.057 167.677 752.367C166.982 755.302 166.634 756.772 155.69 788.127C153.77 793.627 151.884 796.552 157.727 796.571C170.007 796.612 169.986 796.489 182.272 796.614C182.578 796.617 185.466 796.648 185.672 794.84C185.818 793.554 178.672 775.126 177.124 770.365ZM707.773 660.597C707.473 659.721 704.333 650.523 703.566 649.801C702.046 648.37 701.687 649.052 663.188 648.851C657.86 648.824 656.152 647.795 653.873 654.351C651.319 661.695 651.459 661.719 648.945 669.068C646.129 677.298 646.173 678.968 641.929 679.053C640.485 679.082 626.765 679.357 623.859 679.093C621.692 678.895 621.399 677.292 621.352 677.037C621.325 676.891 623.794 669.332 625.776 664.081C630.089 652.66 630.849 648.819 664.072 555.819C666.031 550.339 667.166 550.702 673.004 550.753C692.8 550.925 692.924 550.588 694.159 551.331C695.465 552.118 695.557 552.267 703.414 574.296C708.96 589.847 739.063 672.72 739.931 675.484C741.31 679.883 736.326 679.088 735.165 679.079C730.049 679.036 717.809 679.121 717.129 679.024C712.954 678.427 713.461 675.771 707.773 660.597ZM672.415 600.051C671.723 602.03 663.817 624.63 663.824 624.802C663.835 625.099 663.914 627.042 666.511 627.37C667.547 627.501 667.542 627.274 679.548 627.308C693.733 627.35 693.756 627.375 693.996 627.251C694.194 627.15 695.568 626.442 695.337 624.805C695.274 624.365 686.549 600.801 685.777 598.717C682.097 588.778 681.282 585.166 681.009 583.956C680.714 582.648 680.878 582.26 679.557 582.186C677.368 582.064 677.866 583.006 677.243 585.13C675.03 592.685 674.828 592.584 672.415 600.051ZM681.633 915.956C682.371 913.849 689.762 892.726 690.951 889.638C692.499 885.623 697.114 886.569 699.175 886.568C718.422 886.552 720.316 886.392 721.439 887.181C723.041 888.305 728.326 904.096 730.738 910.758C733.26 917.722 761.602 995.993 762.202 997.838C766.071 1009.74 766.598 1009.52 766.815 1010.58C766.862 1010.81 767.253 1012.73 765.984 1013.38C765.543 1013.61 761.709 1013.57 761.338 1013.56C744.814 1013.37 744.797 1013.72 743.395 1013.42C739.206 1012.5 740.453 1010.84 732.305 989.25C730.296 983.928 729.406 983.977 723.712 983.983C684.505 984.017 684.324 983.772 682.977 984.718C681.37 985.846 678.337 996.35 674.131 1008.86C672.253 1014.44 670.719 1013.36 664.825 1013.36C649.154 1013.35 648.633 1013.61 648.28 1012.42C647.809 1010.83 648.431 1010.47 649.974 1005.72C650.768 1003.27 679.432 922.638 681.633 915.956ZM699.175 962.709L708.991 962.711C713.899 962.711 713.874 962.76 718.781 962.763C723.8 962.765 721.407 958.692 720.657 956.625C719.669 953.905 710.03 927.353 708.492 922.562C707.141 918.352 707.872 917.271 705.712 917.31C704.293 917.335 704.359 917.672 703.993 919.043C702.849 923.323 702.815 923.275 701.414 927.464C690.752 959.33 689.86 959.408 690.779 961.78C691.285 963.089 696.329 962.711 699.175 962.709ZM375.492 739.218C375.492 722.76 375.118 720.908 377.146 720.146C378.386 719.678 397.086 719.784 398.023 720.08C400.346 720.814 399.885 724.336 399.939 735.947C400.09 768.25 399.394 769.082 401.564 770.072C402.185 770.355 402.21 770.406 439.084 770.397C452.776 770.393 455.97 770.927 456.713 768.532C456.984 767.662 456.858 767.645 456.876 724.499C456.876 724.11 456.877 720.611 458.858 720.048C460.231 719.656 460.232 719.761 476.704 719.856C477.644 719.861 480.965 719.391 481.335 722.896C481.391 723.424 481.345 790.567 481.34 796.451C481.307 845.021 481.495 845.195 480.75 846.075C479.284 847.809 478.962 847.3 476.709 847.292C458.64 847.223 457.836 847.573 457.158 845.476C456.592 843.731 457.017 796.79 456.914 794.83C456.76 791.909 454.43 791.616 453.807 791.544C453.708 791.532 403.664 791.495 403.099 791.563C402.83 791.595 400.8 791.836 400.221 793.345C399.951 794.047 399.973 797.707 399.976 798.086C400.031 806.936 399.979 838.706 399.974 842.239C399.966 846.586 399.291 847.265 394.919 847.261C379.845 847.246 379.852 847.368 378.545 847.276C375.615 847.068 375.51 844.224 375.496 843.858C375.44 842.334 375.488 747.589 375.492 739.218ZM416.062 600.111C422.175 593.819 458 553.682 460.827 551.957C463.034 550.611 476.952 551.717 483.251 551.062C483.618 551.023 490.835 550.272 485.682 554.963C483.89 556.594 483.994 556.686 465.153 577.238C456.149 587.059 456.211 587.065 447.148 596.846C444.565 599.634 444.708 599.707 443.319 601.272C439.782 605.258 437.325 606.503 440.377 610.295C449.497 621.622 474.541 653.873 477.765 657.912C487.238 669.773 487.878 670.634 488.722 671.767C491.189 675.08 493.953 676.736 492.755 678.488C492.229 679.258 490.087 679.199 489.848 679.193C468.302 678.591 468.273 679.527 465.223 678.876C462.188 678.228 462.609 677.342 428.127 632.559C424.137 627.377 422.628 623.794 419.074 627.638C413.293 633.889 410.569 635.939 409.903 637.935C409.542 639.018 409.458 639.021 409.472 672.173C409.474 677.286 409.863 679.051 404.737 679.068C403.426 679.073 390.135 679.12 388.353 679.047C388.039 679.033 385.479 678.929 384.929 677.144C384.735 676.512 384.753 672.572 384.755 672.173C384.776 667.604 384.739 565.183 384.776 556.07C384.801 550.081 387.3 551.315 393.282 551.35C399.02 551.382 398.992 551.318 404.732 551.339C409.757 551.359 409.409 553.141 409.429 559.345C409.557 598.497 409.666 598.506 409.238 601.882C408.912 604.456 407.496 605.13 409.764 606.357C411.359 607.22 410.964 605.738 416.062 600.111ZM1012.81 650.917C1012.8 676.591 1012.98 676.711 1012.39 677.536C1010.97 679.5 1010.37 678.998 996.891 679.046C994.49 679.055 989.426 679.717 988.63 677.11C987.963 674.924 988.402 565.752 988.441 556.069C988.465 550.129 991.396 551.31 995.253 551.336C1009.87 551.437 1012.51 550.374 1012.82 554.481C1012.86 555.029 1012.81 599.531 1012.78 600.235C1012.59 604.311 1011.38 605.082 1013.57 606.026C1015.47 606.847 1014.93 605.205 1019.66 600.108C1027.56 591.59 1027.71 591.757 1035.25 582.9C1036.63 581.278 1037.16 581.769 1053.24 563.27C1053.9 562.506 1053.98 562.608 1061.98 554.111C1065.49 550.372 1066.17 551.364 1075.41 551.281C1086.65 551.18 1086.63 551.003 1086.86 550.981C1094.36 550.243 1088.76 555.523 1088.34 555.945C1086.99 557.338 1087.17 557.495 1071.89 573.826C1067.73 578.262 1063.26 583.714 1055.5 591.787C1054.54 592.793 1050.55 596.942 1043.85 604.743C1040.39 608.767 1044.43 610.926 1050.28 618.638C1051.75 620.578 1060.51 632.135 1069.02 642.618C1070.31 644.204 1070.21 644.229 1084.84 662.658C1093.69 673.799 1093.59 673.867 1095.13 675.376C1097.46 677.654 1096.72 679.19 1093.48 679.22C1091.9 679.234 1091.92 679.083 1073.77 679.052C1073.25 679.052 1068.68 679.043 1067.3 678.543C1065.04 677.718 1065.41 677.153 1048.41 655.157C1046.93 653.234 1047.15 653.07 1030.15 630.894C1026.79 626.525 1025.64 624.022 1021.73 628.302C1018.98 631.319 1018.96 631.249 1016.14 634.208C1012.23 638.315 1012.83 638.874 1012.81 650.917ZM321.581 811.168C321.181 804.054 320.088 798.986 299.956 793.478C296.944 792.654 280.744 789.257 267.61 782.8C265.635 781.829 252.117 775.184 251.56 760.45C251.305 753.715 248.792 733.284 274.111 721.778C281.85 718.261 293.758 716.81 298.4 716.859C302.706 716.905 311.555 718.488 314.833 719.358C337.408 725.35 343.859 741.127 344.574 748.996C344.828 751.804 345.135 752.481 342.458 753.307C342.194 753.388 326.01 753.338 324.58 753.332C318.819 753.315 319.97 750.06 317.469 746.115C313.247 739.457 307.628 737.962 306.561 737.678C301.154 736.238 297.484 735.177 288.64 737.763C279.458 740.445 275.284 748.731 275.943 753.895C277.289 764.438 288.26 766.168 291.808 767.229C304.271 770.954 304.484 770.129 316.272 773.973C337.237 780.807 340.418 787.307 342.308 790.084C352.54 805.115 346.781 830.957 333.855 839.853C322.034 847.99 313.525 848.584 311.542 849.007C297.502 851.998 280.347 849.36 267.706 843.136C254.256 836.513 246.418 821.876 245.732 812.829C245.416 808.665 248.976 809.36 250.97 809.384C268.395 809.59 268.672 808.992 270 810.214C270.62 810.784 270.434 810.905 271.523 814.666C275.482 828.346 294.838 834.153 309.719 828.75C323.314 823.816 321.538 812.474 321.581 811.168ZM231.802 670.539C231.806 675.054 232.776 678.936 228.085 679.079C222.067 679.263 222.071 678.907 152.822 679.065C148.177 679.076 144.416 680.102 144.279 675.46C144.241 674.142 144.316 576.155 144.322 567.52C144.334 552.796 143.979 551.872 146.326 551.331C146.346 551.326 224.987 551.059 226.314 551.484C228.083 552.054 228.203 554.144 228.219 554.423C228.287 555.6 228.173 555.591 228.218 569.155C228.234 574.057 225.291 573.111 216.617 573.111C171.326 573.113 171.336 573.052 170.928 573.169C170.668 573.243 168.795 573.777 168.478 575.485C168.103 577.512 168.257 599.929 168.31 600.096C169.14 602.69 169.697 602.465 172.425 602.523C173.664 602.55 216.027 602.436 216.466 602.591C218.322 603.245 218.66 604.761 218.717 605.018C218.831 605.533 218.833 621.114 218.743 621.587C218.137 624.758 216.795 624.18 198.623 624.18C171.4 624.179 170.412 623.898 169.306 624.888C168.045 626.017 168.26 626.321 168.263 646.01C168.264 651.696 167.525 656.551 170.885 657.049C172.486 657.286 220.483 657.101 224.795 657.084C225.195 657.082 229.207 657.067 229.782 657.223C231.697 657.742 231.793 660.371 231.805 660.691C231.808 660.762 231.803 669.751 231.802 670.539ZM225.575 981.165C225.578 981.112 224.835 976.563 227.938 975.84C228.393 975.733 246.389 975.498 247.835 975.996C249.786 976.668 250.292 980.82 252.239 984.693C259.363 998.864 286.994 1000.11 296.191 988.914C300.015 984.26 299.611 977.371 299.458 976.397C298.837 972.443 298.282 969.985 294.783 966.936C284.355 957.851 238.214 956.808 232.031 933.622C228.694 921.109 231.445 914.553 231.517 914.228C236.507 891.688 260.539 884.415 277.141 884.493C278.857 884.501 287.936 884.544 298.22 888.501C318.796 896.419 321.077 910.748 322.431 915.953C323.883 921.535 317.576 920.268 316.401 920.266C315.792 920.265 302.446 920.301 301.724 920.224C297.395 919.766 297.971 914.235 293.225 909.557C284.05 900.511 258.122 901.641 256.132 917.491C255.575 921.925 255.77 928.37 263.998 932.287C265.002 932.765 268.95 934.645 277.253 936.485C317.102 945.32 320.993 955.899 324.066 966.665C325.237 970.764 324.722 982.751 324.305 984.441C320.795 998.7 314.101 1003.51 313.273 1004.28C303.084 1013.75 284.281 1016.73 273.847 1015.85C229.711 1012.16 226.287 984.304 225.575 981.165ZM196.058 951.797L195.982 956.854C195.345 959.918 194.057 959.437 172.45 959.44C149.287 959.443 149.108 959.324 148.093 960.188C146.786 961.302 146.973 962.223 146.969 982.867C146.968 986.514 146.329 990.936 149.285 991.813C151.545 992.485 203.409 991.661 205.324 992.287C207.142 992.883 207.216 995.601 207.225 995.929C207.257 997.11 207.534 1007.37 207.202 1010.71C206.983 1012.91 206.182 1013.95 203.538 1014.04C198.243 1014.24 134.303 1014.07 128.284 1014.05C124.369 1014.04 122.605 1014.54 122.457 1009.03C122.209 999.872 122.676 999.877 122.457 894.567C122.446 889.644 121.692 887.743 126.641 887.676C132.399 887.6 132.36 887.964 198.622 887.697C198.993 887.695 202.348 887.681 203.199 888.415C204.07 889.163 204.151 891.003 204.162 891.242C204.207 892.293 204.143 892.284 204.189 904.382C204.209 909.557 202.174 908.767 196.988 908.75C193.321 908.738 154.75 908.614 151.165 908.735C146.342 908.899 146.988 912.103 146.973 917.46C146.921 936.259 147.065 936.392 147.802 937.179C149.021 938.48 149.347 938.16 175.722 938.16C193.614 938.158 195.114 937.696 195.87 940.156C196.123 940.98 196.06 946.637 196.058 951.797ZM768.137 614.868C748.895 559.12 748.494 559.257 747.071 554.33C746.993 554.059 746.286 551.61 748.158 550.978C749.523 550.518 749.55 550.808 753.161 550.901C756.087 550.977 769.239 550.909 769.529 550.921C774.307 551.14 773.929 555.038 780.393 574.273C792.216 609.461 799.237 633.787 801.846 641.241C803.222 645.171 803.011 645.211 803.762 649.316C803.817 649.62 804.438 653.008 806.699 651.824C807.388 651.464 808.06 647.811 808.127 647.449C809.25 641.348 833.403 569.68 836.577 559.342C838.557 552.899 838.041 550.913 844.76 550.916C859.862 550.922 859.84 550.724 861.151 550.745C861.443 550.749 864.303 550.794 864.153 552.812C864.062 554.038 825.75 663.263 823.036 672.025C821.004 678.589 820.566 679.662 813.677 679.553C795.57 679.265 795.59 679.594 794.023 679.47C789.508 679.111 790.003 677.589 784.674 662.217C769.559 618.617 769.39 618.68 768.137 614.868ZM584.108 985.6C586.486 976.942 586.143 976.862 588.071 971.468C589.669 966.993 593.872 953.339 594.359 951.758C598.447 938.478 598.706 938.602 609.766 904.556C614.684 889.418 614.871 889.121 615.621 887.927C617.004 885.727 623.055 886.564 635.379 886.476C635.748 886.474 639.436 886.448 639.977 886.823C641.863 888.13 639.238 893.02 635.882 902.906C632.8 911.984 616.63 957.971 613.318 967.905C608.364 982.763 602.238 999.806 601.246 1002.57C597.896 1011.89 598.264 1013.58 592.85 1013.6C591.15 1013.6 574.742 1013.65 571.596 1013.56C566.816 1013.41 567.348 1010.88 561.847 995.919C555.861 979.646 556.496 979.455 550.484 963.184C549.953 961.747 550.276 961.648 544.266 945.073C542.898 941.301 543.146 941.232 527.916 897.649C526.733 894.263 524.658 888.935 524.875 888.136C524.94 887.898 525.326 886.482 527.415 886.374C528.853 886.3 528.836 886.478 545.412 886.444C551.181 886.431 551.027 887.732 552.141 891.232C561.577 920.85 579.814 975.686 580.824 981.445C580.883 981.782 581.496 985.278 581.951 985.564C582.097 985.656 582.109 985.567 584.108 985.6ZM16.6458 806.262L16.6384 724.496C16.6436 722.707 16.4954 719.99 20.335 719.882C20.4185 719.88 94.8659 719.869 95.5536 719.888C97.4677 719.941 97.6879 719.72 98.8599 721.217C99.4412 721.96 99.2492 727.773 99.2492 729.407C99.2503 738.761 100.132 741.816 95.559 741.841C48.882 742.094 48.886 741.697 44.8293 741.827C44.4943 741.838 41.8216 741.923 41.2622 744.021C41.1004 744.626 41.1098 748.627 41.1108 749.028C41.1588 770.821 40.8396 771.854 42.0826 773.016C43.1116 773.976 43.3423 773.784 82.4821 773.821C88.5373 773.826 91.5084 772.657 91.5001 778.466C91.499 779.518 91.4835 789.663 91.3989 791.614C91.3875 791.861 91.3028 793.812 90.4366 794.556C89.5693 795.301 89.4243 795.259 71.03 795.239C46.9281 795.212 46.9532 795.173 44.8596 795.189C42.9894 795.203 42.7692 794.982 41.5993 796.46C41.091 797.101 41.1067 800.965 41.1078 801.358C41.1213 804.758 41.2527 838.743 41.1243 843.85C41.0074 848.543 35.3875 847.313 35.0441 847.311C21.0311 847.264 17.6727 847.906 16.8659 845.581C16.6645 845.003 16.6239 844.994 16.6458 806.262ZM16.6394 897.836C16.6394 897.11 16.5602 890.443 16.8315 889.579C16.891 889.389 17.2468 888.254 18.6296 887.862C19.1995 887.701 19.211 887.682 66.1239 887.685C91.784 887.688 91.7912 887.343 93.9912 887.7C95.9168 888.013 96.5409 889.544 96.6432 889.793C96.8007 890.181 96.6922 905.866 96.686 905.95C96.6703 906.184 96.5525 907.902 95.2145 908.485C93.8181 909.093 47.4186 908.654 44.8283 908.751C40.7842 908.903 41.1172 911.687 41.1152 914.187C41.1026 939.426 41.092 939.553 41.6994 940.269C42.9591 941.755 44.3285 941.404 57.945 941.404C87.7619 941.404 87.9704 941.29 88.8502 942.166C89.7697 943.08 89.8774 943.255 89.6133 958.355C89.5225 963.56 85.9042 962.537 80.8425 962.551C45.7395 962.648 43.0927 962.107 41.8612 963.49C40.9835 964.476 41.0838 964.684 41.1297 1007.4C41.1349 1012.48 41.7392 1014.37 36.6817 1014.34C21.5864 1014.25 21.6124 1014.37 20.3026 1014.34C17.0903 1014.25 16.7157 1012.75 16.6155 1010.69C16.6061 1010.5 16.6363 906.864 16.6394 897.836ZM321.694 623.33C317.969 629.932 318.633 630.233 318.667 637.831C318.681 640.844 318.824 672.534 318.71 675.497C318.536 680.035 315.583 679.024 304.95 679.059C300.734 679.073 295.419 679.671 294.627 677.325C294.387 676.612 294.446 676.589 294.452 642.739C294.454 630.753 295.233 629.563 291.379 623.408C288.459 618.745 264.413 577.938 251.029 556.037C250.882 555.796 249.588 553.678 249.54 552.837C249.45 551.257 252.341 551.351 252.614 551.36C273.649 552.044 275.074 549.56 278.585 554.564C278.942 555.073 287.092 568.953 288.255 570.986C295.249 583.216 304.595 598.842 305.16 600.102C306.138 602.285 305.719 603.27 308.105 603.048C309.71 602.898 309.233 602.211 310.633 599.006C312.063 595.733 312.319 595.885 331.784 559.7C335.798 552.24 336.046 551.354 340.935 551.373C357.51 551.437 357.486 551.229 358.925 551.238C362.488 551.261 362.298 552.962 360.393 555.976C358.482 558.999 328.893 611.139 325.739 616.297C325.4 616.851 325.056 617.415 321.694 623.33ZM584.976 670.848C578.284 677.208 575.136 678.595 563.33 681.696C559.596 682.677 548.088 682.41 545.43 681.884C522.789 677.404 513.929 666.881 509.53 647.621C509.006 645.331 508.319 638.143 509.888 636.663C511.005 635.611 511.196 635.649 529.06 635.84C535.772 635.912 531.448 641.043 536.569 649.654C539.696 654.912 544.141 660.458 556.893 659.58C561.405 659.27 566.16 656.399 568.212 652.493C573.243 642.925 572.097 632.85 572.42 614.947C572.496 610.795 572.222 553.403 572.382 552.995C572.475 552.759 573.054 551.281 574.811 550.955C575.862 550.761 591.413 550.881 592.857 550.892C597.763 550.93 597.093 552.781 597.078 557.705C596.937 601.976 597.489 640.043 596.668 644.472C593.481 661.689 589.328 666.336 584.976 670.848ZM378.688 995.949C378.592 910.913 378.978 910.765 378.224 909.464C377.317 907.897 376.83 908.17 357.295 908.171C343.7 908.171 341.767 908.654 341.281 905.931C341.103 904.932 341.218 889.771 341.227 889.709C341.637 886.768 344.157 887.11 352.389 887.067C358.278 887.037 409.17 886.772 425.997 887.113C437.054 887.337 437.189 886.729 439.289 887.756C440.974 888.581 440.488 894.275 440.488 894.565C440.477 903.468 440.91 906.967 439.145 907.737C438.148 908.172 438.111 908.213 409.641 908.194C404.833 908.191 403.188 907.747 403.082 912.552C403.048 914.02 403.076 987.773 403.08 994.313C403.086 1011.06 403.456 1011.46 401.795 1012.81C400.471 1013.89 380.622 1013.23 380.445 1013.18C378.258 1012.52 378.678 1009.36 378.688 995.949ZM792.958 1005.76L792.952 894.565C792.947 889.256 791.993 887.102 797.328 887.094C812.367 887.07 812.348 886.996 813.654 887.021C813.99 887.027 816.515 887.076 816.912 889.666C817.134 891.122 816.942 976.915 816.926 984.502C816.915 989.453 815.984 991.757 821.867 991.696C825.72 991.655 836.524 991.674 844.76 991.683C868.806 991.711 868.809 991.245 870.871 991.584C871.566 991.699 872.3 991.967 872.789 992.475C873.795 993.522 873.474 997.549 873.51 1007.4C873.516 1009.02 874.009 1012.37 870.828 1013.28C869.809 1013.57 803.208 1013.34 797.328 1013.32C794.356 1013.31 793.734 1013.45 792.958 1010.59V1005.76ZM527.417 719.89C540.154 719.885 542.628 719.506 543.601 721.327C544.296 722.629 543.857 736.61 544.042 816.073C544.048 818.299 544.104 842.534 544.035 843.884C543.818 848.196 541.324 847.387 530.688 847.352C523.163 847.328 521.42 847.704 520.083 846.068C519.126 844.896 519.633 844.658 519.592 776.828C519.589 772.514 519.559 723.061 519.568 722.896C519.581 722.646 519.678 720.776 521.127 720.187C521.792 719.917 526.913 719.892 527.417 719.89ZM900.919 583.872C900.942 556.794 900.825 556.821 900.881 554.469C900.976 550.463 903.368 551.543 918.373 551.431C919.054 551.426 924.518 550.318 924.941 554.435C925.001 555.018 924.946 653.728 924.941 662.362C924.932 677.179 925.312 678.41 923.488 679.108C922.692 679.413 918.781 679.405 918.372 679.404C906.553 679.383 905.364 679.701 903.486 679.416C901.605 679.132 901.034 677.25 900.952 676.981C900.892 676.784 900.982 614.032 900.919 583.872ZM471.308 919.093L471.294 891.284C471.302 888.615 471.674 887.083 475.074 887.062C481.639 887.018 481.608 887.093 488.159 887.044C493.188 887.006 495.143 886.274 495.128 891.29C495.036 920.856 495.253 1010.22 495.14 1010.77C495.086 1011.03 494.772 1012.55 492.911 1013.23C492.62 1013.33 488.538 1013.34 488.159 1013.34C474.639 1013.34 471.936 1013.9 471.31 1010.78C471.234 1010.4 471.34 984.534 471.308 919.093ZM965.811 519.342C966.624 519.299 972.21 518.566 972.572 519.941C973.333 522.84 971.914 522.509 967.977 527.088C963.821 531.923 963.739 531.825 959.778 536.845C955.213 542.63 955.172 543.647 951.114 543.752C945.05 543.909 939.081 543.921 938.035 543.923C933.194 543.932 935.7 539.838 935.904 539.503C939.094 534.294 945.549 521.465 947.882 520.198C949.774 519.172 950.198 519.347 965.811 519.342ZM16.6229 250.287L16.6438 134.187C16.6187 125.027 16.3525 27.6698 16.6145 19.6897C16.6249 19.3725 16.7104 16.7737 18.6266 16.2708C18.8019 16.2249 18.783 16.1195 92.2963 16.1352C192.641 16.156 244.456 15.7627 254.295 17.8389C260.758 19.2024 260.823 18.6193 267.266 19.9912C280.379 22.783 283.288 23.868 293.558 27.748C308.568 33.4172 325.758 45.5286 332.119 51.4805C336.221 55.3198 344.86 64.2566 345.094 64.5404C356.691 78.5402 363.34 93.55 364.546 96.2719C373.314 116.066 373.858 130.809 374.178 132.452C375.309 138.277 375.482 138.261 375.447 157.08C375.433 164.401 374.294 166.298 373.783 171.808C372.53 185.373 365.913 202.763 361.792 210.837C345.397 242.956 324.791 256.353 317.849 261.47C310.833 266.64 297.615 273.371 290.042 275.919C289.425 276.127 284.544 276.591 287.278 281.177C291.595 288.423 291.326 288.552 295.589 295.823C309.505 319.554 309.456 319.535 323.158 343.368C347.718 386.084 347.979 385.919 350.06 389.663C359.624 406.867 389.354 457.335 389.547 458.051C390.22 460.557 386.997 460.538 386.694 460.536C351.544 460.324 351.583 460.457 316.401 460.457C295.12 460.457 294.631 460.637 292.883 458.42C291.616 456.813 285.045 444.13 284.394 442.871C274.771 424.295 271.448 418.855 265.379 407.439C256.941 391.568 256.914 391.616 248.363 375.835C229.819 341.612 215.002 313.774 214.026 312.045C203.383 293.19 204.38 291.587 200.28 291.005C199.253 290.859 114.154 290.912 113.562 290.911C107.995 290.893 106.021 290.521 106.2 296.072C106.428 303.185 106.297 303.15 106.301 348.4C106.307 447.691 106.642 447.69 106.341 456.319C106.219 459.811 104.673 460.546 102.114 460.464C100.55 460.415 100.574 460.437 80.8466 460.436C18.5994 460.434 18.2436 460.621 17.2657 459.432C16.0217 457.919 16.7116 457.573 16.6229 250.287ZM111.926 216.125C215.387 216.09 215.383 216.195 218.255 215.976C219.306 215.897 219.259 215.49 231.361 214.568C233.821 214.38 235.673 213.542 237.963 213.135C249.932 211.01 260.137 204.867 262.579 203.095C263.408 202.493 268.676 198.67 272.385 194.834C276.363 190.72 285.063 181.031 286.962 158.714C287.683 150.243 285.25 137.754 285.17 137.503C283.296 131.589 283.513 131.542 283.334 131.035C280.155 122.101 275.695 116.381 275.551 116.164C271.702 110.381 261.571 103.596 258.779 102.191C243.907 94.7111 228.195 93.5833 226.441 93.2516C218.285 91.7075 218.219 92.4346 182.272 91.4237C166.301 90.9751 110.642 90.6965 110.297 90.7121C105.951 90.9031 106.178 92.2375 106.189 96.5734L106.308 196.325C106.326 213.593 105.768 215.378 108.637 216.02L111.926 216.125ZM890.509 392.551C890.514 451.229 890.582 451.223 890.56 456.325C890.541 461.018 888.73 460.319 884.023 460.326C877.621 460.337 804.07 460.457 804.004 460.437C801.375 459.657 801.543 459.088 801.505 456.345C801.478 454.376 801.549 90.756 801.555 58.9651C801.563 18.6401 801.488 18.6151 801.743 17.8597C802.445 15.7826 803.446 16.1446 821.86 16.1383C844.11 16.13 1098.52 16.0382 1099.97 16.0966C1102.67 16.204 1103.39 17.528 1103.45 19.7074C1103.59 24.9395 1103.17 24.9343 1103.39 85.1286C1103.4 89.477 1104.43 93.4967 1099.97 93.6573C1092.12 93.9401 1092.12 93.6469 1001.8 93.6469L897.106 93.6418C896.729 93.6408 893.107 93.6334 892.399 93.8671C890.149 94.6109 890.51 95.697 890.51 117.833C890.51 204.578 890.41 204.714 891.115 205.78C892.137 207.324 892.656 206.983 941.273 207.037C951.612 207.049 1066.85 207.177 1070.51 207.051C1076.43 206.848 1075.26 209.811 1075.25 217.582C1075.25 222.423 1075.2 273.169 1075.24 278.085C1075.27 282.93 1073.71 282.725 1068.86 282.734C1060.96 282.747 894.599 282.691 893.81 282.748C890.809 282.963 890.571 285.13 890.515 286.258C890.426 288.092 890.518 288.092 890.509 392.551ZM555.225 282.714C543.557 282.767 541.845 281.976 541.327 286.18C541.141 287.685 541.237 287.689 541.219 356.576C541.192 456.709 541.519 456.749 541.136 458.147C540.387 460.886 539.107 460.433 519.238 460.438C457.751 460.455 457.755 460.443 457.077 460.472C456.706 460.486 453.518 460.614 452.593 459.294C451.55 457.803 452.124 457.573 452.043 387.645L452.041 22.9896C452.041 22.5076 452.042 17.8576 452.802 17.0074C453.705 15.9943 453.961 16.1696 478.343 16.1435C499.937 16.1195 741.82 15.8566 748.273 16.1081C750.497 16.1946 751.721 17.0189 751.831 19.6959C752.056 25.1878 751.558 25.1868 751.812 88.3993C751.83 92.9542 751.146 93.6897 746.615 93.6824C726.499 93.6532 544.632 93.5895 543.846 93.7106C541.038 94.1467 541.235 95.2452 541.217 109.658C541.207 117.238 541.095 203.87 541.239 204.396C541.991 207.125 542.574 206.975 545.413 207.071C545.597 207.077 582.547 206.914 607.569 206.948C616.467 206.96 711.299 207.088 718.801 206.942C719.205 206.935 722.915 206.863 723.798 207.669C725.2 208.95 724.811 209.175 724.826 211.047C724.866 216.279 724.795 216.274 724.835 276.45C724.837 276.82 724.839 280.463 724.616 281.077C724.027 282.707 720.794 282.723 720.435 282.725C698.407 282.842 568.442 282.726 555.225 282.714Z" fill="currentColor"/>
</svg>
