<svg viewBox="0 0 1104 1032" fill="none" xmlns="http://www.w3.org/2000/svg">
<path fill-rule="evenodd" clip-rule="evenodd" d="M739.129 446.111L931.1 17.1721L1085.5 16.6273L764.193 721.323L711.278 720.999L383.886 16L529.266 16.7006L739.129 446.111ZM375.286 446.111L412.919 336.621L498.142 485.07L398.036 721.323L345.121 720.999L18.5 16L178.543 16.7006L375.286 446.111ZM839.087 853.924C883.817 853.924 920.132 890.236 920.132 934.962C920.132 979.688 883.817 1016 839.087 1016C794.356 1016 758.041 979.688 758.041 934.962C758.041 890.236 794.356 853.924 839.087 853.924ZM551.946 853.924C596.676 853.924 632.992 890.236 632.992 934.962C632.992 979.688 596.676 1016 551.946 1016C507.215 1016 470.9 979.688 470.9 934.962C470.9 890.236 507.215 853.924 551.946 853.924ZM265.879 853.924C310.609 853.924 346.925 890.236 346.925 934.962C346.925 979.688 310.609 1016 265.879 1016C221.148 1016 184.833 979.688 184.833 934.962C184.833 890.236 221.148 853.924 265.879 853.924Z" fill="currentColor"/>
</svg>
