<svg width="24" height="24" viewBox="0 0 24 24" fill="none" xmlns="http://www.w3.org/2000/svg">
<path d="M0 0.5C0 0.223857 0.223858 0 0.5 0H23.5C23.7761 0 24 0.223858 24 0.5V23.5C24 23.7761 23.7761 24 23.5 24H0.5C0.223857 24 0 23.7761 0 23.5V0.5Z" fill="white"/>
<path d="M12.3927 3.52861C12.4176 3.52895 12.5352 3.62934 12.6539 3.75175C12.7726 3.87406 12.8698 3.98937 12.87 4.00814C12.8699 4.02693 12.8249 4.14422 12.7699 4.26881C12.7148 4.39359 12.5355 4.7468 12.3715 5.05381C12.2074 5.36081 12.0195 5.71114 11.9538 5.83232C11.8881 5.95349 11.6765 6.34236 11.4835 6.69642C11.2906 7.0505 10.989 7.60702 10.8132 7.93315C10.6374 8.25927 10.4026 8.69381 10.2913 8.89882C10.1801 9.10381 10.0526 9.3402 10.008 9.42406C9.96332 9.50803 9.64251 10.1103 9.29499 10.7625C8.6632 11.9483 8.66309 11.9484 8.67954 12.1178C8.69902 12.3184 8.58032 12.5865 8.85894 12.7347C9.13769 12.8826 10.121 11.176 10.3888 11.0432C10.796 10.8412 10.9134 10.7161 11.2681 10.414C11.4239 10.2815 11.7055 10.0252 11.8941 9.84461C12.0826 9.66395 12.3978 9.33377 12.5945 9.11092C12.7912 8.88808 13.0192 8.60448 13.1012 8.48073C13.1832 8.357 13.2637 8.2555 13.2801 8.25513C13.4029 8.25216 13.7209 8.38608 13.8078 8.48489C13.8234 8.50288 13.8041 8.59363 13.7606 8.70543C13.7199 8.81007 13.6137 8.99909 13.5247 9.12546C13.4358 9.25189 13.2692 9.51543 13.1546 9.7111C13.0399 9.90679 12.8281 10.2957 12.6839 10.5752C12.5397 10.8548 12.276 11.4053 12.098 11.7987C11.9199 12.1921 11.7124 12.68 11.6369 12.8829C11.5614 13.0859 11.4673 13.3588 11.4279 13.4892C11.3884 13.6197 11.3371 13.7988 11.3137 13.8873C11.2904 13.9758 11.2829 14.0482 11.2969 14.0482C11.311 14.048 11.3921 13.9475 11.477 13.8246C11.5621 13.7015 11.7127 13.4537 11.8117 13.2739C11.9102 13.095 11.9934 12.9448 11.9974 12.9388C12.0005 12.9342 12.1215 12.9759 12.2661 13.0315C12.4108 13.0871 12.5343 13.1385 12.5407 13.1457C12.5467 13.1534 12.518 13.2619 12.4764 13.3873C12.4348 13.513 12.3518 13.7077 12.2918 13.8199C12.2318 13.9321 12.0864 14.1705 11.9686 14.3495C11.8508 14.5286 11.6786 14.7558 11.5861 14.8545C11.4935 14.9532 11.3705 15.0566 11.3124 15.0842C11.2131 15.1314 11.191 15.1283 10.9321 15.0308C10.7788 14.9731 10.6343 14.8961 10.6051 14.8567C10.5702 14.8096 10.5528 14.7284 10.5528 14.612C10.5528 14.5163 10.5726 14.3312 10.5966 14.2007C10.6207 14.0703 10.6861 13.8187 10.7421 13.6417C10.8747 13.2219 11.0136 12.8056 11.1673 12.395C11.2391 12.2032 11.3924 11.824 11.5079 11.5523C11.623 11.2816 11.7113 11.0531 11.7047 11.0432C11.6973 11.0348 11.5277 11.1527 11.3276 11.3051C10.6847 11.7951 9.33778 13.8893 8.67954 13.6426C8.4399 13.5527 8.22574 13.3571 8.18859 13.0315C7.69368 13.0362 6.67547 15.9902 6.54219 16.438C6.4506 16.7459 5.11653 20.6952 5.03472 20.9934C4.95294 21.2916 4.84006 21.7414 4.78382 21.9929C4.72761 22.2445 4.66503 22.5724 4.64477 22.7214C4.62447 22.8705 4.60528 22.9957 4.60212 22.9995C4.59855 23.0033 4.46482 22.9841 4.30474 22.9568C4.14461 22.9295 4.0027 22.9146 3.98897 22.9239C3.97562 22.9333 3.86928 22.8406 3.75275 22.7179C3.57587 22.5318 3.54091 22.4772 3.54117 22.3879C3.54135 22.3291 3.56066 22.199 3.58408 22.0989C3.60753 21.9988 3.68349 21.7624 3.75287 21.5737C4.29812 20.0912 4.6447 19.0649 5.45456 17.0445C5.75825 16.2868 6.12512 15.5453 6.37301 14.7608C6.42599 14.593 6.59444 14.0898 6.74738 13.6426C6.90036 13.1954 7.07787 12.6845 7.14181 12.5074C7.20578 12.3304 7.36589 11.9035 7.49767 11.5588C7.62949 11.214 7.84611 10.6583 7.97893 10.3237C8.11135 9.99023 8.21974 9.71243 8.22038 9.70525C8.22046 9.69969 8.2345 9.69512 8.25166 9.69512C8.26907 9.69521 8.40312 9.74279 8.54969 9.80097C8.80019 9.90042 8.81655 9.91271 8.81655 10.0023C8.81656 10.0548 8.82894 10.1065 8.84413 10.1172C8.85968 10.1272 8.99161 9.91101 9.13756 9.63628C9.28371 9.36113 9.50149 8.95309 9.62149 8.72945C9.74151 8.50582 10.0272 7.9797 10.2565 7.56039C10.4857 7.14114 10.7257 6.69905 10.7898 6.57784C10.8539 6.45672 10.9863 6.21275 11.0839 6.03571C11.1815 5.85868 11.316 5.60966 11.3828 5.48242C11.4494 5.3555 11.4977 5.24438 11.4903 5.23513C11.4826 5.22635 11.4578 5.23903 11.4353 5.26318C11.4127 5.28738 11.3139 5.38323 11.2157 5.47619C11.1174 5.56916 11.0222 5.66074 11.0042 5.67958C10.9861 5.6985 10.8393 5.84346 10.6781 6.00182C10.5168 6.16023 10.2566 6.41755 10.0999 6.57368C9.94319 6.72978 9.76799 6.90524 9.71061 6.96359C9.65319 7.02199 9.4588 7.21443 9.27852 7.39129C9.09824 7.56819 8.83572 7.82728 8.69525 7.96705C8.55479 8.10681 8.3268 8.33044 8.18859 8.46398C8.05038 8.59751 7.80101 8.83389 7.63455 8.98922C7.4681 9.14453 7.1999 9.38737 7.03851 9.52887C6.87712 9.67037 6.63771 9.87064 6.50657 9.97385C6.37545 10.0771 6.18688 10.2078 6.0875 10.2644C5.98815 10.321 5.85924 10.3774 5.8011 10.3899C5.7018 10.411 5.68111 10.3979 5.45456 10.1694C5.2934 10.007 5.20749 9.89412 5.19471 9.82838C5.18381 9.772 5.19695 9.64696 5.22562 9.53472C5.25308 9.42723 5.3369 9.18685 5.41191 9.00052C5.48689 8.81417 5.63507 8.47876 5.74109 8.25513C5.84707 8.0315 6.10137 7.51307 6.3061 7.10308C6.51081 6.69312 6.7216 6.27373 6.77458 6.17118C6.82754 6.06869 6.92514 5.87799 6.9914 5.74738C7.05762 5.61673 7.15473 5.42091 7.20719 5.31228C7.28213 5.15699 7.29064 5.12222 7.24728 5.14966C7.21694 5.16891 7.12312 5.24275 7.03877 5.3137C6.95443 5.38471 6.54004 5.73999 6.11802 6.10338C5.69595 6.46679 5.31563 6.79416 5.27286 6.83072C5.22991 6.86746 4.87309 7.17841 4.4798 7.52195C4.0864 7.86557 3.67739 8.22531 3.5708 8.32137C3.46424 8.41739 3.07675 8.76964 2.70968 9.10403C2.34263 9.43846 2.00052 9.74952 1.94956 9.79526C1.8986 9.84103 1.74952 9.98811 1.61834 10.1222C1.37982 10.3659 1.37978 10.3659 1.1639 10.1407C0.947907 9.91543 0.947897 9.91539 1.14908 9.67824C1.25969 9.54782 1.3977 9.39406 1.45579 9.33652C1.51385 9.27902 1.64808 9.14935 1.75407 9.04844C1.86003 8.94754 2.01378 8.80397 2.09563 8.72945C2.17743 8.65495 2.2712 8.56887 2.30401 8.53801C2.3368 8.50718 2.4709 8.38593 2.60203 8.26863C2.73318 8.15136 3.00149 7.91047 3.1982 7.73339C3.3949 7.5563 3.62963 7.34628 3.7198 7.2666C3.80997 7.18697 4.1251 6.91113 4.42017 6.65382C4.71518 6.39656 4.99172 6.15613 5.03472 6.11936C5.07761 6.08266 5.45823 5.7553 5.8804 5.39189C6.30258 5.02849 6.8308 4.57785 7.05422 4.39051C7.27759 4.20318 7.5524 3.97828 7.66495 3.89072C7.77752 3.80317 7.89884 3.73162 7.93449 3.73162C7.97278 3.73179 8.08809 3.82385 8.21566 3.95618C8.41734 4.16545 8.4307 4.18788 8.41191 4.28647C8.4008 4.3447 8.33999 4.50958 8.27682 4.65287C8.21356 4.79624 7.8982 5.43662 7.57595 6.07598C7.25368 6.71534 6.84364 7.53583 6.66477 7.89925C6.48588 8.26265 6.25906 8.74843 6.1608 8.9787C6.06255 9.20892 5.9861 9.41098 5.99097 9.4277C5.99615 9.4441 6.10741 9.37781 6.23843 9.28015C6.36966 9.18229 6.64471 8.95354 6.84953 8.77192C7.05434 8.59032 7.29091 8.37688 7.37522 8.2976C7.45954 8.21831 7.60038 8.08688 7.68818 8.00563C7.77597 7.92438 7.91485 7.79244 7.9968 7.71235C8.07876 7.63226 8.25469 7.46072 8.38765 7.33115C8.5206 7.20159 8.65594 7.06673 8.68835 7.03152C8.72081 6.99629 8.87267 6.84548 9.02596 6.69642C9.17926 6.54735 9.32611 6.40242 9.35232 6.37445C9.37852 6.34649 9.45312 6.27203 9.51806 6.20898C9.58298 6.14589 9.71609 6.01634 9.81379 5.92103C9.91151 5.82569 10.1194 5.61809 10.2758 5.45969C10.4321 5.30131 10.6388 5.09545 10.735 5.00225C10.8313 4.90907 10.9668 4.7794 11.0363 4.71417C11.1057 4.64895 11.3556 4.41151 11.5916 4.18659C11.8275 3.96172 12.0942 3.72165 12.1842 3.65304C12.274 3.58452 12.3678 3.5285 12.3927 3.52861Z" fill="black"/>
<path d="M15.9886 9.26859C16.2644 8.99621 16.2644 8.99627 16.4953 9.11559C16.6223 9.18125 16.7447 9.25572 16.7672 9.28106C16.8018 9.32005 16.7947 9.3575 16.7209 9.52498C16.6729 9.63389 16.4613 10.0355 16.2507 10.4175C16.0402 10.7996 15.8447 11.1579 15.8165 11.2138C15.7882 11.2698 15.7032 11.4288 15.6276 11.5672C15.552 11.7057 15.4961 11.8256 15.5033 11.8339C15.5112 11.8411 15.6897 11.6448 15.9005 11.397C16.2846 10.9452 16.2846 10.9453 16.5502 11.0832C16.7572 11.1907 16.8178 11.2379 16.8256 11.2976C16.8349 11.3694 16.8452 11.3728 16.9895 11.3506C17.0742 11.3376 17.3024 11.314 17.4964 11.2982C17.8012 11.2735 17.8651 11.2576 17.9652 11.1824C18.0289 11.1345 18.0931 11.0953 18.1079 11.0952C18.1228 11.0953 18.2095 11.1341 18.3005 11.1815C18.436 11.252 18.4761 11.2604 18.5202 11.2272C18.5499 11.2049 18.71 11.0174 18.876 10.8105C19.042 10.6038 19.312 10.251 19.4761 10.0267C19.6402 9.80254 19.7963 9.59859 19.823 9.57329C19.8646 9.53409 19.9063 9.54552 20.117 9.65395C20.2519 9.72339 20.381 9.80037 20.4037 9.825C20.4386 9.86303 20.4255 9.93122 20.3182 10.2708C20.2485 10.4912 20.1328 10.8623 20.0612 11.0952C19.9895 11.3282 19.9308 11.5383 19.9307 11.562C19.9305 11.5947 19.9526 11.5921 20.0218 11.5514C20.1095 11.4999 20.1228 11.502 20.3327 11.6014C20.4776 11.6699 20.6026 11.7052 20.7006 11.7052C20.7824 11.7051 21.0616 11.658 21.321 11.6004C21.5806 11.5427 21.9138 11.4876 22.0614 11.4779C22.3272 11.4603 22.332 11.4614 22.5973 11.601C22.7445 11.6785 22.8954 11.7744 22.9326 11.8141C22.9697 11.8539 23.0002 11.9104 23 11.9397C22.9998 11.9692 22.9676 12.0714 22.9285 12.1669C22.8894 12.2625 22.8433 12.3505 22.8262 12.3625C22.809 12.3744 22.6941 12.3274 22.5708 12.2581C22.3465 12.1319 22.3464 12.1319 22.1294 12.1705C22.0101 12.1918 21.7648 12.2412 21.5845 12.2804C21.4042 12.3195 21.1493 12.3541 21.0182 12.3574C20.815 12.3625 20.7538 12.3498 20.6047 12.2714C20.5089 12.2211 20.4249 12.1798 20.4175 12.1795C20.4108 12.1795 20.2706 12.3243 20.1061 12.5013C19.9417 12.6782 19.7763 12.8319 19.7385 12.8428C19.6917 12.8562 19.5845 12.8136 19.4015 12.7091C19.2541 12.6249 19.1249 12.531 19.1145 12.5004C19.1042 12.47 19.0959 12.3967 19.0961 12.3377C19.0963 12.2787 19.1347 12.0664 19.1814 11.8661C19.228 11.6664 19.2609 11.5029 19.2549 11.5019C19.2478 11.5029 19.1023 11.6533 18.9309 11.837C18.7589 12.0213 18.5688 12.1988 18.5086 12.2313C18.3991 12.2904 18.399 12.2903 18.0991 12.1227C17.7992 11.9551 17.7992 11.9551 17.4565 11.997C17.268 12.02 17.0466 12.0399 16.9646 12.0412C16.8651 12.0426 16.7627 12.0153 16.6563 11.959C16.5687 11.9126 16.4797 11.8746 16.4584 11.8745C16.4372 11.8745 16.1476 12.2062 15.8148 12.6115C15.482 13.0168 15.0681 13.513 14.895 13.714C14.7219 13.915 14.5291 14.1197 14.4667 14.1689C14.3532 14.2584 14.3531 14.2584 14.0867 14.1099C13.864 13.9858 13.8203 13.9483 13.8202 13.8818C13.8202 13.838 13.8739 13.6836 13.9395 13.5388C14.0049 13.3943 14.0584 13.2653 14.0586 13.2519C14.0588 13.2386 14.1212 13.1026 14.1973 12.9496C14.2735 12.7962 14.3987 12.5489 14.4754 12.3998C14.5521 12.2507 14.6931 11.9762 14.7887 11.7898C14.8843 11.6035 14.9948 11.3925 15.0344 11.3208C15.0739 11.2494 15.0994 11.1832 15.0913 11.1736C15.083 11.1642 14.8909 11.3233 14.6644 11.527C14.4378 11.7307 14.0965 12.0298 13.9059 12.1918C13.6067 12.4462 13.5523 12.5074 13.5076 12.6404C13.4792 12.7251 13.4378 12.8023 13.4156 12.812C13.3934 12.8217 13.2339 12.7529 13.0612 12.6591C12.8888 12.5655 12.7477 12.4739 12.7473 12.4555C12.7473 12.4373 12.7726 12.3562 12.8037 12.2755C12.8347 12.1948 12.885 12.1055 12.9154 12.077C12.9459 12.0486 13.2257 11.8057 13.5371 11.5374C13.8486 11.269 14.2375 10.9272 14.4014 10.7779C14.5654 10.6286 14.9275 10.2893 15.2061 10.0238C15.4848 9.75834 15.8369 9.41843 15.9886 9.26859Z" fill="black"/>
<path d="M22.0503 9.60187C22.0894 9.59057 22.1809 9.60764 22.2551 9.64018C22.3288 9.67254 22.4476 9.72581 22.519 9.7585C22.6434 9.81542 22.6483 9.82271 22.6323 9.93488C22.6231 9.99923 22.5945 10.0884 22.5688 10.1331C22.5376 10.1871 22.4936 10.2142 22.4373 10.2143C22.3907 10.2142 22.2537 10.1678 22.1328 10.1111C22.0119 10.0545 21.9022 9.99587 21.8889 9.98086C21.8757 9.96592 21.8907 9.87912 21.9222 9.78799C21.9628 9.67056 22.0001 9.61637 22.0503 9.60187Z" fill="black"/>
<path d="M17.877 9.43497C17.9076 9.43504 18.0477 9.49974 18.1884 9.57888C18.4331 9.71655 18.4436 9.7271 18.4275 9.8189C18.4183 9.87173 18.3829 9.95952 18.3489 10.0139C18.3149 10.0681 18.2598 10.1125 18.2266 10.1126C18.1933 10.1126 18.0534 10.0427 17.9156 9.95735C17.778 9.87206 17.6654 9.78748 17.6651 9.76928C17.6651 9.75122 17.6869 9.68771 17.7135 9.6281C17.7401 9.56851 17.7753 9.50067 17.7917 9.47731C17.808 9.45403 17.8464 9.43497 17.877 9.43497Z" fill="black"/>
<path d="M12.259 1.00008C12.2756 1.00551 12.4006 1.05432 12.5368 1.10854C12.7789 1.20484 12.7845 1.20952 12.7681 1.3031C12.7588 1.35581 12.7303 1.44729 12.7046 1.50636C12.6749 1.57459 12.493 1.75603 12.2065 2.00342C11.9583 2.21773 11.6002 2.53892 11.4109 2.71712C11.2216 2.89531 11.0042 3.12048 10.9277 3.21742C10.7888 3.39353 10.7886 3.39349 10.5302 3.28717C10.2718 3.18083 10.2717 3.18076 10.2917 3.05805C10.3028 2.99053 10.3464 2.86264 10.3888 2.77387C10.4371 2.67247 10.565 2.51499 10.7329 2.35033C10.8799 2.20616 11.2767 1.84113 11.6147 1.53922C11.9526 1.23737 12.2425 0.994804 12.259 1.00008Z" fill="black"/>
</svg>
