<svg width="24" height="24" viewBox="0 0 24 24" fill="none" xmlns="http://www.w3.org/2000/svg">
<path fill-rule="evenodd" clip-rule="evenodd" d="M13.3484 7.24741C14.4223 6.17395 16.1633 6.17386 17.2371 7.24741C18.311 8.32136 18.311 10.0631 17.2371 11.1371C16.1632 12.2108 14.4223 12.2107 13.3484 11.1371C12.2745 10.0631 12.2745 8.32136 13.3484 7.24741ZM16.1765 8.30894C15.6884 7.82078 14.8971 7.82078 14.409 8.30894C13.9209 8.7971 13.9209 9.5884 14.409 10.0765C14.8971 10.5644 15.6885 10.5645 16.1765 10.0765C16.6646 9.58844 16.6645 8.79711 16.1765 8.30894Z" fill="currentColor"/>
<path fill-rule="evenodd" clip-rule="evenodd" d="M18.9519 3.15855C19.6479 3.04208 20.3122 3.25227 20.7723 3.71226C21.2323 4.17228 21.4424 4.83657 21.326 5.53257C20.9953 7.5071 20.1648 10.8767 18.0848 13.1078C17.683 13.5386 17.2314 13.9504 16.7586 14.3412C16.789 14.9706 16.8186 15.899 16.8328 16.43C16.8454 16.9103 16.6596 17.3717 16.3221 17.7093L13.6121 20.4203C13.1811 20.8511 12.5856 21.0146 12.0457 20.8714C11.487 20.7232 11.0389 20.2506 10.993 19.5853L10.8601 17.6722C10.2957 17.6578 9.74845 17.4362 9.3328 17.0209L7.46366 15.1517C7.04831 14.736 6.82573 14.1889 6.81132 13.6244L4.90018 13.4935C4.23494 13.4476 3.76229 12.9985 3.61405 12.4398C3.47095 11.9 3.63467 11.3053 4.06522 10.8744L6.77616 8.16343C7.11391 7.82582 7.57596 7.63991 8.05643 7.65269C8.58668 7.66686 9.51222 7.69558 10.1414 7.72593C10.5324 7.25281 10.9456 6.80179 11.3767 6.39976C13.6078 4.3197 16.9774 3.48924 18.9519 3.15855ZM15.3025 15.4378C14.2152 16.1879 13.1363 16.8028 12.3328 17.2308L12.4832 19.4066C12.5018 19.3975 12.5255 19.3846 12.5506 19.3597L15.2615 16.6488C15.3102 16.6 15.3355 16.5349 15.3338 16.4691C15.3264 16.1931 15.315 15.8186 15.3025 15.4378ZM8.87186 12.3168C8.69627 12.6317 8.53867 12.9222 8.40604 13.1781C8.23245 13.5137 8.30322 13.8697 8.52421 14.0912L10.3933 15.9603C10.6148 16.1814 10.9708 16.2521 11.3064 16.0785C11.5621 15.946 11.8521 15.7881 12.1668 15.6126L8.87186 12.3168ZM19.2 4.63706C17.2702 4.96023 14.2858 5.73812 12.3992 7.49741C11.3622 8.46447 10.4146 9.77335 9.658 10.9818L13.5008 14.8255C14.7095 14.0688 16.0198 13.1226 16.9871 12.0853C18.7463 10.1988 19.5242 7.21527 19.8474 5.2855C19.888 5.04315 19.8118 4.8729 19.7117 4.77281C19.6117 4.67279 19.4421 4.59665 19.2 4.63706ZM8.01639 9.15171C7.95061 9.15003 7.88548 9.17534 7.83671 9.22398L5.12577 11.9349C5.10085 11.96 5.08795 11.9837 5.07889 12.0023L7.25272 12.1517C7.68059 11.3484 8.29486 10.2692 9.04471 9.18198C8.66497 9.16954 8.29165 9.15907 8.01639 9.15171Z" fill="currentColor"/>
<path d="M6.98417 16.4398C7.27699 16.1472 7.75188 16.1472 8.04471 16.4398C8.33761 16.7327 8.33761 17.2084 8.04471 17.5013L5.21659 20.3294C4.92377 20.6223 4.44895 20.6221 4.15604 20.3294C3.86315 20.0366 3.86315 19.5618 4.15604 19.2689L6.98417 16.4398Z" fill="currentColor"/>
<path d="M8.39823 17.8548C8.69112 17.5619 9.16588 17.5619 9.45878 17.8548C9.7516 18.1477 9.75164 18.6225 9.45878 18.9154L8.04471 20.3294C7.75184 20.6222 7.27703 20.6222 6.98417 20.3294C6.69131 20.0366 6.69138 19.5618 6.98417 19.2689L8.39823 17.8548Z" fill="currentColor"/>
<path d="M5.57011 15.0257C5.86298 14.7331 6.33783 14.733 6.63065 15.0257C6.92347 15.3186 6.92331 15.7934 6.63065 16.0863L5.21659 17.5013C4.92381 17.794 4.44893 17.7938 4.15604 17.5013C3.86315 17.2084 3.86315 16.7327 4.15604 16.4398L5.57011 15.0257Z" fill="currentColor"/>
</svg>
