<svg width="24" height="24" viewBox="0 0 24 24" fill="none" xmlns="http://www.w3.org/2000/svg">
<path fill-rule="evenodd" clip-rule="evenodd" d="M12 2.25C13.2804 2.25 14.5485 2.5022 15.7314 2.99219C16.9143 3.48217 17.9892 4.20016 18.8945 5.10547C19.7998 6.01078 20.5178 7.08573 21.0078 8.26855C21.4978 9.45148 21.75 10.7196 21.75 12C21.75 13.2804 21.4978 14.5485 21.0078 15.7314C20.5178 16.9143 19.7998 17.9892 18.8945 18.8945C17.9892 19.7998 16.9143 20.5178 15.7314 21.0078C14.5485 21.4978 13.2804 21.75 12 21.75C9.41414 21.75 6.93395 20.723 5.10547 18.8945C3.27699 17.0661 2.25 14.5859 2.25 12C2.25 9.41414 3.27699 6.93395 5.10547 5.10547C6.93395 3.27699 9.41414 2.25 12 2.25ZM11.25 3.78516C9.33704 3.95974 7.53539 4.79664 6.16602 6.16602C4.61884 7.71319 3.75 9.81196 3.75 12C3.75 14.188 4.61884 16.2868 6.16602 17.834C7.53537 19.2033 9.33707 20.0393 11.25 20.2139V16.2832C10.3749 16.13 9.56055 15.7129 8.92383 15.0762C8.10804 14.2604 7.65039 13.1537 7.65039 12C7.65039 10.8463 8.10804 9.73961 8.92383 8.92383C9.56059 8.28706 10.3748 7.86903 11.25 7.71582V3.78516ZM16.2832 12.75C16.2284 13.0629 16.1407 13.3702 16.0186 13.665C15.8 14.1926 15.48 14.6723 15.0762 15.0762C14.6723 15.48 14.1926 15.8 13.665 16.0186C13.3702 16.1407 13.0629 16.2284 12.75 16.2832V20.2139C13.5762 20.1384 14.3881 19.9407 15.1572 19.6221C16.1581 19.2075 17.0679 18.6001 17.834 17.834C18.6001 17.0679 19.2075 16.1581 19.6221 15.1572C19.9407 14.388 20.1394 13.5763 20.2148 12.75H16.2832ZM12 9.15039C11.2441 9.15039 10.5189 9.4499 9.98438 9.98438C9.4499 10.5189 9.15039 11.2441 9.15039 12C9.15039 12.7559 9.4499 13.4811 9.98438 14.0156C10.5189 14.5501 11.2441 14.8496 12 14.8496C12.3743 14.8496 12.745 14.776 13.0908 14.6328C13.4365 14.4896 13.751 14.2802 14.0156 14.0156C14.2802 13.751 14.4896 13.4365 14.6328 13.0908C14.776 12.745 14.8496 12.3743 14.8496 12C14.8496 11.6257 14.776 11.255 14.6328 10.9092C14.4896 10.5635 14.2802 10.249 14.0156 9.98438C13.751 9.71979 13.4365 9.51041 13.0908 9.36719C12.745 9.22396 12.3743 9.15039 12 9.15039ZM12.75 7.71582C13.0629 7.7706 13.3701 7.85929 13.665 7.98145C14.1926 8.20005 14.6723 8.52 15.0762 8.92383C15.48 9.32765 15.8 9.80736 16.0186 10.335C16.1407 10.6298 16.2284 10.9371 16.2832 11.25H20.2148C20.1394 10.4237 19.9407 9.61195 19.6221 8.84277C19.2075 7.84186 18.6001 6.93209 17.834 6.16602C17.0679 5.39995 16.1581 4.79253 15.1572 4.37793C14.388 4.05933 13.5763 3.86059 12.75 3.78516V7.71582Z" fill="currentColor"/>
</svg>
