<svg width="24" height="24" viewBox="0 0 24 24" fill="none" xmlns="http://www.w3.org/2000/svg">
<path fill-rule="evenodd" clip-rule="evenodd" d="M14.5 4.25C14.9142 4.25 15.25 4.58579 15.25 5V14.5361H19.5C19.9142 14.5361 20.25 14.8719 20.25 15.2861V20.25H22L22.0762 20.2539C22.4546 20.2921 22.75 20.6115 22.75 21C22.75 21.3885 22.4546 21.7079 22.0762 21.7461L22 21.75H2C1.58579 21.75 1.25 21.4142 1.25 21C1.25 20.5858 1.58579 20.25 2 20.25H3.75V10.7139C3.75 10.2997 4.08579 9.96388 4.5 9.96387H8.75V5C8.75 4.58579 9.08579 4.25001 9.5 4.25H14.5ZM5.25 20.25H8.75V11.4639H5.25V20.25ZM10.25 20.25H13.75V5.75H10.25V20.25ZM15.25 20.25H18.75V16.0361H15.25V20.25Z" fill="currentColor"/>
</svg>
