<svg width="24" height="24" viewBox="0 0 24 24" fill="none" xmlns="http://www.w3.org/2000/svg">
<path d="M17.9993 20.25C18.4136 20.25 18.7493 20.5858 18.7493 21C18.7493 21.4142 18.4136 21.75 17.9993 21.75H5.99935C5.58525 21.7499 5.24935 21.4141 5.24935 21C5.24935 20.5859 5.58525 20.2501 5.99935 20.25H17.9993Z" fill="currentColor"/>
<path fill-rule="evenodd" clip-rule="evenodd" d="M12.0003 2.25C12.3108 2.25017 12.5894 2.4416 12.7005 2.73145L13.9271 5.9375C16.2164 6.41535 18.1665 7.7296 19.2728 9.53516L20.5023 8.44238C20.7565 8.21684 21.131 8.1903 21.4144 8.37793C21.6977 8.56573 21.8199 8.92104 21.7113 9.24316L18.3363 19.2402C18.2333 19.5449 17.9469 19.7498 17.6253 19.75H6.37532C6.05367 19.75 5.7674 19.5449 5.66439 19.2402L2.28939 9.24316C2.18065 8.9209 2.30267 8.5657 2.58626 8.37793C2.86974 8.19044 3.24425 8.21673 3.49837 8.44238L4.72591 9.53418C5.83253 7.72868 7.783 6.41407 10.0726 5.93652L11.3001 2.73145L11.349 2.62793C11.481 2.39684 11.7284 2.25 12.0003 2.25ZM8.70052 13.7178C8.6125 13.9476 8.41706 14.1193 8.17806 14.1777C7.93888 14.2361 7.68632 14.1733 7.50228 14.0098L4.61556 11.4424L6.91439 18.25H17.0863L19.3841 11.4424L16.4984 14.0098C16.3144 14.1733 16.0618 14.2359 15.8226 14.1777C15.5835 14.1194 15.3882 13.9476 15.3001 13.7178L12.0003 5.09766L8.70052 13.7178ZM9.40755 7.67285C7.82531 8.22981 6.56908 9.27522 5.87142 10.5527L7.68782 12.168L9.40755 7.67285ZM16.3118 12.168L18.1273 10.5527C17.4297 9.27524 16.1733 8.22984 14.5911 7.67285L16.3118 12.168Z" fill="currentColor"/>
</svg>
