<svg width="24" height="24" viewBox="0 0 24 24" fill="none" xmlns="http://www.w3.org/2000/svg">
<path fill-rule="evenodd" clip-rule="evenodd" d="M6.5 2.25C7.4665 2.25 8.25 3.0335 8.25 4V20C8.25 20.9665 7.4665 21.75 6.5 21.75H4C3.0335 21.75 2.25 20.9665 2.25 20V4C2.25 3.0335 3.0335 2.25 4 2.25H6.5ZM4 3.75C3.86193 3.75 3.75 3.86193 3.75 4V20C3.75 20.1381 3.86193 20.25 4 20.25H6.5C6.63807 20.25 6.75 20.1381 6.75 20V4C6.75 3.86193 6.63807 3.75 6.5 3.75H4Z" fill="currentColor"/>
<path fill-rule="evenodd" clip-rule="evenodd" d="M13.25 6.75C14.2165 6.75 15 7.5335 15 8.5V20C15 20.9062 14.3113 21.6517 13.4287 21.7412L13.25 21.75H10.75C9.7835 21.75 9 20.9665 9 20V8.5C9 7.5335 9.7835 6.75 10.75 6.75H13.25ZM10.75 8.25C10.6119 8.25 10.5 8.36193 10.5 8.5V20C10.5 20.1381 10.6119 20.25 10.75 20.25H13.25L13.3008 20.2451C13.4145 20.2217 13.5 20.1207 13.5 20V8.5C13.5 8.36193 13.3881 8.25 13.25 8.25H10.75Z" fill="currentColor"/>
<path fill-rule="evenodd" clip-rule="evenodd" d="M20 11.25C20.9665 11.25 21.75 12.0335 21.75 13V20C21.75 20.9665 20.9665 21.75 20 21.75H17.5C16.5335 21.75 15.75 20.9665 15.75 20V13C15.75 12.0335 16.5335 11.25 17.5 11.25H20ZM17.5 12.75C17.3619 12.75 17.25 12.8619 17.25 13V20C17.25 20.1381 17.3619 20.25 17.5 20.25H20C20.1381 20.25 20.25 20.1381 20.25 20V13C20.25 12.8619 20.1381 12.75 20 12.75H17.5Z" fill="currentColor"/>
</svg>
