<svg width="24" height="24" viewBox="0 0 24 24" fill="none" xmlns="http://www.w3.org/2000/svg">
<path fill-rule="evenodd" clip-rule="evenodd" d="M18.2998 2.25195C20.2046 2.2522 21.7489 3.79635 21.749 5.70117V18.2998C21.7488 20.2046 20.2046 21.7488 18.2998 21.749H5.70117C3.79635 21.7489 2.2522 20.2046 2.25195 18.2998V5.70117C2.25213 3.7963 3.7963 2.25213 5.70117 2.25195H18.2998ZM5.70117 3.75195C4.62473 3.75213 3.75213 4.62472 3.75195 5.70117V18.2998C3.7522 19.3762 4.62477 20.2489 5.70117 20.249H6.30078V19.2178C5.51244 18.9155 4.95132 18.1544 4.95117 17.2598C4.95117 16.3648 5.51212 15.602 6.30078 15.2998V13.0586C5.5124 12.7562 4.95118 11.9954 4.95117 11.1006C4.95117 10.2056 5.51206 9.44282 6.30078 9.14062V8.55957C5.51243 8.25725 4.95127 7.49628 4.95117 6.60156C4.95117 5.70656 5.5121 4.94381 6.30078 4.6416V3.75195H5.70117ZM7.80078 4.6416C8.58991 4.94359 9.15137 5.70624 9.15137 6.60156C9.15127 7.49672 8.58975 8.25853 7.80078 8.56055V9.14062C8.58995 9.4426 9.15137 10.2052 9.15137 11.1006C9.15136 11.9958 8.58977 12.7575 7.80078 13.0596V15.2988C8.59006 15.6007 9.15137 16.3643 9.15137 17.2598C9.15121 18.1549 8.58973 18.9168 7.80078 19.2188V20.249H11.25V19.2188C10.4615 18.9166 9.90054 18.1546 9.90039 17.2598C9.90039 16.3646 10.4611 15.601 11.25 15.2988V14.8232C10.4615 14.521 9.90039 13.7592 9.90039 12.8643C9.90049 11.9693 10.4613 11.2064 11.25 10.9043V8.56055C10.4614 8.25833 9.90048 7.49642 9.90039 6.60156C9.90039 5.70654 10.4613 4.9438 11.25 4.6416V3.75195H7.80078V4.6416ZM12.75 4.6416C13.5391 4.94361 14.1006 5.70626 14.1006 6.60156C14.1005 7.4967 13.5389 8.25852 12.75 8.56055V10.9043C13.5391 11.2062 14.1005 11.969 14.1006 12.8643C14.1006 13.7594 13.5389 14.5211 12.75 14.8232V15.2988C13.5392 15.6008 14.1006 16.3644 14.1006 17.2598C14.1004 18.1549 13.5389 18.9168 12.75 19.2188V20.249H16.1992V19.2188C15.4106 18.9166 14.8498 18.1546 14.8496 17.2598C14.8496 16.3646 15.4103 15.6009 16.1992 15.2988V13.0596C15.4106 12.7573 14.8496 11.9955 14.8496 11.1006C14.8496 10.2055 15.4104 9.44279 16.1992 9.14062V8.56055C15.4106 8.25834 14.8497 7.49644 14.8496 6.60156C14.8496 5.70652 15.4105 4.94378 16.1992 4.6416V3.75195H12.75V4.6416ZM17.6992 4.6416C18.4883 4.94362 19.0498 5.70629 19.0498 6.60156C19.0497 7.49668 18.4881 8.2585 17.6992 8.56055V9.14062C18.4883 9.44263 19.0498 10.2053 19.0498 11.1006C19.0498 11.9958 18.4882 12.7575 17.6992 13.0596V15.2988C18.4884 15.6008 19.0498 16.3644 19.0498 17.2598C19.0497 18.1548 18.4881 18.9167 17.6992 19.2188V20.249H18.2998C19.3761 20.2488 20.2488 19.3761 20.249 18.2998V5.70117C20.2489 4.62477 19.3762 3.7522 18.2998 3.75195H17.6992V4.6416ZM7.05078 16.6592C6.71976 16.6594 6.45117 16.9287 6.45117 17.2598C6.45137 17.5907 6.71988 17.8591 7.05078 17.8594C7.3819 17.8594 7.65117 17.5908 7.65137 17.2598C7.65137 16.9285 7.38202 16.6592 7.05078 16.6592ZM12 16.6592C11.6689 16.6594 11.4004 16.9287 11.4004 17.2598C11.4006 17.5907 11.6691 17.8592 12 17.8594C12.3311 17.8594 12.6004 17.5908 12.6006 17.2598C12.6006 16.9285 12.3312 16.6592 12 16.6592ZM16.9492 16.6592C16.6181 16.6594 16.3496 16.9286 16.3496 17.2598C16.3498 17.5907 16.6183 17.8592 16.9492 17.8594C17.2803 17.8594 17.5496 17.5908 17.5498 17.2598C17.5498 16.9285 17.2805 16.6592 16.9492 16.6592ZM12 12.2646C11.669 12.2649 11.4005 12.5333 11.4004 12.8643C11.4004 13.1954 11.6689 13.4636 12 13.4639C12.3312 13.4639 12.6006 13.1955 12.6006 12.8643C12.6005 12.5331 12.3312 12.2646 12 12.2646ZM7.05078 10.501C6.71976 10.5012 6.45117 10.7695 6.45117 11.1006C6.45118 11.4317 6.71976 11.6999 7.05078 11.7002C7.38202 11.7002 7.65136 11.4318 7.65137 11.1006C7.65137 10.7693 7.38202 10.501 7.05078 10.501ZM16.9492 10.501C16.6181 10.5012 16.3496 10.7695 16.3496 11.1006C16.3496 11.4317 16.6181 11.7 16.9492 11.7002C17.2805 11.7002 17.5498 11.4318 17.5498 11.1006C17.5498 10.7693 17.2805 10.501 16.9492 10.501ZM7.05078 6.00195C6.71976 6.00221 6.45117 6.27048 6.45117 6.60156C6.45129 6.93254 6.71983 7.20091 7.05078 7.20117C7.38195 7.20117 7.65125 6.9327 7.65137 6.60156C7.65137 6.27032 7.38202 6.00195 7.05078 6.00195ZM12 6.00195C11.6689 6.00218 11.4004 6.27046 11.4004 6.60156C11.4005 6.93256 11.669 7.20095 12 7.20117C12.3312 7.20117 12.6005 6.9327 12.6006 6.60156C12.6006 6.27032 12.3312 6.00195 12 6.00195ZM16.9492 6.00195C16.6181 6.00214 16.3496 6.27044 16.3496 6.60156C16.3497 6.93259 16.6182 7.20098 16.9492 7.20117C17.2804 7.20117 17.5497 6.9327 17.5498 6.60156C17.5498 6.27032 17.2805 6.00195 16.9492 6.00195Z" fill="currentColor"/>
</svg>
