<svg width="24" height="24" viewBox="0 0 24 24" fill="none" xmlns="http://www.w3.org/2000/svg">
<path fill-rule="evenodd" clip-rule="evenodd" d="M7.39453 13.8819C7.80874 13.8819 8.14453 14.2177 8.14453 14.6319V22C8.14435 22.4141 7.80863 22.75 7.39453 22.75H2C1.58591 22.75 1.25018 22.4141 1.25 22V14.6319C1.25 14.2177 1.5858 13.8819 2 13.8819H7.39453ZM2.75 21.25H6.64453V15.3819H2.75V21.25Z" fill="currentColor"/>
<path fill-rule="evenodd" clip-rule="evenodd" d="M14.6963 10.7237C15.1104 10.7237 15.4461 11.0596 15.4463 11.4737V22C15.4462 22.4142 15.1105 22.75 14.6963 22.75H9.30176C8.88772 22.7499 8.55183 22.4141 8.55176 22V11.4737C8.55194 11.0597 8.88779 10.7238 9.30176 10.7237H14.6963ZM10.0518 21.25H13.9463V12.2237H10.0518V21.25Z" fill="currentColor"/>
<path fill-rule="evenodd" clip-rule="evenodd" d="M22 14.9346C22.4141 14.9347 22.7498 15.2706 22.75 15.6846V22C22.75 22.4142 22.4142 22.75 22 22.75H16.6055C16.1913 22.75 15.8555 22.4143 15.8555 22V15.6846C15.8556 15.2705 16.1914 14.9346 16.6055 14.9346H22ZM17.3555 21.25H21.25V16.4346H17.3555V21.25Z" fill="currentColor"/>
<path fill-rule="evenodd" clip-rule="evenodd" d="M11.2109 1.59379C11.6331 1.13537 12.3668 1.13544 12.7891 1.59379L12.875 1.69926L13.7988 2.99321L15.3271 3.46489C16.0307 3.68209 16.3172 4.53353 15.8682 5.1309L14.9131 6.39946L14.9336 7.98149C14.9428 8.72882 14.2095 9.24196 13.5176 9.00981L12 8.50004L10.4824 9.00981C9.79063 9.24164 9.05722 8.72868 9.06641 7.98149L9.08594 6.39848L8.13184 5.1309C7.6826 4.53349 7.97011 3.68207 8.67383 3.46489L10.2012 2.99321L11.126 1.69926L11.2109 1.59379ZM11.3389 3.98247C11.2018 4.17433 11.0051 4.31566 10.7812 4.38481L9.69824 4.71782L10.373 5.61528C10.5148 5.80376 10.5908 6.03479 10.5879 6.27153L10.5732 7.39653L11.6582 7.03325L11.8271 6.99125C11.9416 6.97264 12.0584 6.97267 12.1729 6.99125L12.3428 7.03325L13.4258 7.39653L13.4121 6.27153C13.4092 6.03486 13.4853 5.80372 13.627 5.61528L14.3018 4.71782L13.2197 4.38481C12.9957 4.31569 12.7992 4.1744 12.6621 3.98247L12 3.05571L11.3389 3.98247Z" fill="currentColor"/>
</svg>
