<svg width="24" height="24" viewBox="0 0 24 24" fill="none" xmlns="http://www.w3.org/2000/svg">
<path d="M19.25 4.75H4.75V16C4.75 16.1381 4.86193 16.25 5 16.25H19C19.1381 16.25 19.25 16.1381 19.25 16V4.75ZM16.4697 7.46973C16.7626 7.17683 17.2374 7.17683 17.5303 7.46973C17.8232 7.76262 17.8232 8.23738 17.5303 8.53027L13.5303 12.5303C13.2374 12.8232 12.7626 12.8232 12.4697 12.5303L10 10.0605L7.53027 12.5303C7.23738 12.8232 6.76262 12.8232 6.46973 12.5303C6.17683 12.2374 6.17683 11.7626 6.46973 11.4697L9.46973 8.46973L9.52637 8.41797C9.82095 8.17766 10.2557 8.19512 10.5303 8.46973L13 10.9395L16.4697 7.46973ZM20.75 16C20.75 16.9665 19.9665 17.75 19 17.75H13.8105L16.5303 20.4697C16.8232 20.7626 16.8232 21.2374 16.5303 21.5303C16.2374 21.8232 15.7626 21.8232 15.4697 21.5303L12 18.0605L8.53027 21.5303C8.23738 21.8232 7.76262 21.8232 7.46973 21.5303C7.17683 21.2374 7.17683 20.7626 7.46973 20.4697L10.1895 17.75H5C4.0335 17.75 3.25 16.9665 3.25 16V4.75H3C2.58579 4.75 2.25 4.41421 2.25 4C2.25 3.58579 2.58579 3.25 3 3.25H21C21.4142 3.25 21.75 3.58579 21.75 4C21.75 4.41421 21.4142 4.75 21 4.75H20.75V16Z" fill="currentColor"/>
</svg>
