<svg width="24" height="24" viewBox="0 0 24 24" fill="none" xmlns="http://www.w3.org/2000/svg">
<path d="M16 16.25C16.4142 16.25 16.75 16.5858 16.75 17V22.8916C16.75 23.3038 16.4739 23.5736 16.2217 23.6797C15.97 23.7856 15.6397 23.7818 15.3643 23.584L12 21.168L8.63574 23.585C8.3603 23.7827 8.03004 23.7865 7.77832 23.6807C7.52613 23.5745 7.25003 23.3048 7.25 22.8926V17C7.25 16.5858 7.58579 16.25 8 16.25C8.41421 16.25 8.75 16.5858 8.75 17V21.6553L11.4863 19.6914L11.6064 19.6191C11.8541 19.4956 12.148 19.4954 12.3955 19.6191L12.5146 19.6914L15.25 21.6543V17C15.25 16.5858 15.5858 16.25 16 16.25Z" fill="currentColor"/>
<path fill-rule="evenodd" clip-rule="evenodd" d="M11.292 4.71973C11.6668 4.29833 12.3332 4.29833 12.708 4.71973L12.7832 4.81641L13.8779 6.41406L15.7363 6.96191C16.3765 7.15062 16.6274 7.92313 16.2207 8.45215L15.0391 9.98633L15.0928 11.9238C15.1108 12.5908 14.4539 13.0682 13.8252 12.8447L12 12.1963L10.1748 12.8447C9.54618 13.0679 8.88919 12.5907 8.90723 11.9238L8.95996 9.98633L7.7793 8.45215C7.37261 7.92321 7.62373 7.15075 8.26367 6.96191L10.1211 6.41406L11.2168 4.81641L11.292 4.71973ZM11.248 7.42383C11.1246 7.60376 10.9427 7.73609 10.7334 7.79785L9.45703 8.17285L10.2686 9.22754C10.4017 9.40061 10.4708 9.61475 10.4648 9.83301L10.4277 11.1621L11.6816 10.7168C11.836 10.6619 12.0014 10.6483 12.1611 10.6758L12.3184 10.7168L13.5713 11.1621L13.5352 9.83301C13.5292 9.61483 13.5984 9.40058 13.7314 9.22754L14.542 8.17285L13.2666 7.79785C13.0573 7.73607 12.8754 7.60383 12.752 7.42383L12 6.32715L11.248 7.42383Z" fill="currentColor"/>
<path fill-rule="evenodd" clip-rule="evenodd" d="M12 1.25C16.2802 1.25 19.75 4.71979 19.75 9C19.75 13.2802 16.2802 16.75 12 16.75C7.71979 16.75 4.25 13.2802 4.25 9C4.25 4.71979 7.71979 1.25 12 1.25ZM12 2.75C8.54822 2.75 5.75 5.54822 5.75 9C5.75 12.4518 8.54822 15.25 12 15.25C15.4518 15.25 18.25 12.4518 18.25 9C18.25 5.54822 15.4518 2.75 12 2.75Z" fill="currentColor"/>
</svg>
