<svg width="24" height="24" viewBox="0 0 24 24" fill="none" xmlns="http://www.w3.org/2000/svg">
<path d="M3 2.25C3.41421 2.25 3.75 2.58579 3.75 3V20.25H21C21.4142 20.25 21.75 20.5858 21.75 21C21.75 21.4142 21.4142 21.75 21 21.75H3C2.58579 21.75 2.25 21.4142 2.25 21V3C2.25 2.58579 2.58579 2.25 3 2.25Z" fill="currentColor"/>
<path d="M6.02832 12.0439C6.44253 12.0439 6.77832 12.3797 6.77832 12.7939V17.9482C6.77814 18.3623 6.44242 18.6982 6.02832 18.6982C5.61422 18.6982 5.2785 18.3623 5.27832 17.9482V12.7939C5.27832 12.3797 5.61411 12.0439 6.02832 12.0439Z" fill="currentColor"/>
<path d="M10.4639 8.95117C10.8781 8.95117 11.2139 9.28696 11.2139 9.70117V17.9482C11.2137 18.3623 10.878 18.6982 10.4639 18.6982C10.0499 18.6981 9.71404 18.3622 9.71387 17.9482V9.70117C9.71387 9.28704 10.0498 8.9513 10.4639 8.95117Z" fill="currentColor"/>
<path d="M14.8076 9.98145C15.2217 9.98145 15.5574 10.3174 15.5576 10.7314V17.9473C15.5576 18.3615 15.2218 18.6973 14.8076 18.6973C14.3935 18.6971 14.0576 18.3614 14.0576 17.9473V10.7314C14.0579 10.3175 14.3937 9.98158 14.8076 9.98145Z" fill="currentColor"/>
<path d="M19.1514 6.82617C19.5656 6.82617 19.9014 7.16196 19.9014 7.57617V17.8848C19.9013 18.2989 19.5655 18.6348 19.1514 18.6348C18.7374 18.6346 18.4014 18.2988 18.4014 17.8848V7.57617C18.4014 7.16208 18.7373 6.82637 19.1514 6.82617Z" fill="currentColor"/>
<path d="M18.6279 3.49512C18.9241 3.20567 19.399 3.21067 19.6885 3.50684C19.9779 3.80305 19.972 4.27787 19.6758 4.56738L15.9727 8.1875C15.4122 8.735 14.5373 8.7942 13.9082 8.32715L10.5254 5.81445C10.4877 5.78676 10.4353 5.79094 10.4023 5.82422L6.56152 9.71289C6.27042 10.0072 5.79556 10.0097 5.50098 9.71875C5.20664 9.42765 5.20417 8.95278 5.49512 8.6582L9.33496 4.77051C9.89311 4.20538 10.7822 4.13691 11.4199 4.61035L14.8027 7.12305C14.84 7.15044 14.8917 7.14661 14.9248 7.11426L18.6279 3.49512Z" fill="currentColor"/>
</svg>
