<svg width="24" height="24" viewBox="0 0 24 24" fill="none" xmlns="http://www.w3.org/2000/svg">
<path fill-rule="evenodd" clip-rule="evenodd" d="M11.077 3.25391C11.4549 3.29263 11.7499 3.61191 11.7499 4V12.25H19.9999C20.414 12.2501 20.7499 12.5859 20.7499 13C20.7499 14.9283 20.1776 16.8136 19.1063 18.417C18.0351 20.0201 16.5126 21.2699 14.7313 22.0078C12.9498 22.7457 10.9888 22.9386 9.09754 22.5625C7.20637 22.1863 5.46884 21.258 4.10535 19.8945C2.74186 18.531 1.81363 16.7936 1.43739 14.9023C1.06118 13.011 1.25412 11.0501 1.99207 9.26855C2.73 7.48723 3.97976 5.96482 5.58289 4.89355C7.18624 3.82228 9.07158 3.25 10.9999 3.25L11.077 3.25391ZM10.2499 4.78516C8.88306 4.90994 7.56468 5.37377 6.41688 6.14062C5.06021 7.04712 4.00224 8.33534 3.37781 9.84277C2.75341 11.3502 2.58981 13.0091 2.90809 14.6094C3.22642 16.2097 4.01213 17.6802 5.1659 18.834C6.31967 19.9877 7.79022 20.7735 9.39051 21.0918C10.9907 21.41 12.6497 21.2464 14.1571 20.6221C15.6645 19.9976 16.9528 18.9396 17.8593 17.583C18.6261 16.4352 19.0899 15.1168 19.2147 13.75H10.9999C10.5857 13.75 10.2499 13.4142 10.2499 13V4.78516Z" fill="currentColor"/>
<path fill-rule="evenodd" clip-rule="evenodd" d="M12.9999 1.25C14.2802 1.25003 15.5485 1.50223 16.7313 1.99219C17.9141 2.48217 18.9892 3.20021 19.8944 4.10547C20.7997 5.01075 21.5177 6.08578 22.0077 7.26855C22.4977 8.45146 22.7499 9.71964 22.7499 11C22.7499 11.4141 22.414 11.7499 21.9999 11.75H12.9999C12.5857 11.75 12.2499 11.4142 12.2499 11V2C12.2499 1.80109 12.329 1.61038 12.4696 1.46973C12.6103 1.32915 12.801 1.25 12.9999 1.25ZM13.7499 10.25H21.2147C21.1393 9.42377 20.9405 8.61193 20.622 7.84277C20.2074 6.84191 19.5999 5.93206 18.8339 5.16602C18.0678 4.4 17.1579 3.79253 16.1571 3.37793C15.388 3.05935 14.5761 2.86061 13.7499 2.78516V10.25Z" fill="currentColor"/>
</svg>
