<svg width="24" height="24" viewBox="0 0 24 24" fill="none" xmlns="http://www.w3.org/2000/svg">
<path d="M21.0405 10.9883C21.4544 10.9887 21.7905 11.3243 21.7905 11.7383C21.7905 13.4532 21.3383 15.1379 20.4809 16.623C19.6235 18.1081 18.3898 19.3418 16.9047 20.1992C15.9051 20.7763 14.8147 21.1679 13.686 21.3633L14.7612 22.4385C15.0539 22.7313 15.0539 23.2062 14.7612 23.499C14.4683 23.7917 13.9935 23.7917 13.7006 23.499L11.4897 21.2881C11.3492 21.1475 11.27 20.9566 11.27 20.7578C11.27 20.559 11.3492 20.3682 11.4897 20.2275L13.7006 18.0166C13.9934 17.7239 14.4683 17.7241 14.7612 18.0166C15.0539 18.3095 15.054 18.7843 14.7612 19.0771L14.0952 19.7422C14.8133 19.556 15.5067 19.2745 16.1547 18.9004C17.4118 18.1746 18.4563 17.1301 19.1821 15.873C19.9079 14.6159 20.2905 13.1899 20.2905 11.7383C20.2905 11.3241 20.6263 10.9883 21.0405 10.9883Z" fill="currentColor"/>
<path d="M4.14986 6.48145C4.29612 6.46975 4.44776 6.50019 4.58443 6.5791C4.8291 6.72058 4.96047 6.97922 4.95552 7.24316L6.08541 9.7793C6.2538 10.1576 6.0828 10.601 5.70455 10.7695C5.32621 10.9379 4.88279 10.7679 4.71431 10.3896L4.16451 9.15527C3.89153 9.98549 3.75045 10.8572 3.75045 11.7383C3.75045 13.1899 4.13303 14.6159 4.85885 15.873C5.58464 17.1301 6.62815 18.1746 7.88521 18.9004C8.24378 19.1075 8.36663 19.5661 8.15963 19.9248C7.95244 20.2832 7.49377 20.4061 7.13521 20.1992C5.65019 19.3418 4.41745 18.1081 3.56002 16.623C2.70255 15.1379 2.25045 13.4532 2.25045 11.7383C2.25045 10.689 2.41989 9.651 2.74752 8.66309L1.57662 9.18555C1.1984 9.3537 0.754901 9.18374 0.586384 8.80566C0.417909 8.42726 0.588841 7.98391 0.967244 7.81543L3.82271 6.54297C3.92899 6.49569 4.04088 6.4782 4.14986 6.48145Z" fill="currentColor"/>
<path d="M12.02 1.96875C13.7347 1.96879 15.4197 2.42008 16.9047 3.27734C17.8292 3.81111 18.6565 4.49101 19.3559 5.28613L19.4829 4.04199C19.5249 3.62996 19.8931 3.33015 20.3051 3.37207C20.7171 3.41413 21.017 3.78233 20.9751 4.19434L20.6586 7.30469C20.6385 7.50244 20.5402 7.68394 20.3862 7.80957C20.236 7.93195 20.0447 7.99019 19.852 7.97461C19.7856 7.97637 19.7198 7.97152 19.6557 7.95605L16.726 7.6582C16.314 7.61623 16.0142 7.24797 16.0561 6.83594C16.0981 6.42387 16.4663 6.12406 16.8784 6.16602L18.2544 6.30566C17.6571 5.62031 16.9483 5.03535 16.1547 4.57715C14.8977 3.85141 13.4715 3.46879 12.02 3.46875C10.5685 3.46881 9.14222 3.85146 7.88521 4.57715C7.52659 4.78389 7.06785 4.66026 6.8608 4.30176C6.65402 3.94313 6.7767 3.48441 7.13521 3.27734C8.62024 2.42 10.3052 1.96881 12.02 1.96875Z" fill="currentColor"/>
</svg>
