<svg width="24" height="24" viewBox="0 0 24 24" fill="none" xmlns="http://www.w3.org/2000/svg">
<path fill-rule="evenodd" clip-rule="evenodd" d="M12.4014 2.25781C14.4054 2.34035 16.3391 3.03968 17.9355 4.26465C19.6383 5.57123 20.8625 7.40342 21.418 9.47656C21.9734 11.5497 21.8291 13.7486 21.0078 15.7314C20.1865 17.7142 18.7336 19.3702 16.875 20.4434L16.5947 20.5986C15.1824 21.3533 13.6046 21.75 12 21.75C10.2885 21.75 8.60717 21.2991 7.125 20.4434C5.64296 19.5877 4.41234 18.357 3.55664 16.875C2.7009 15.3928 2.25 13.7115 2.25 12C2.25 10.7196 2.5022 9.45148 2.99219 8.26855C3.48217 7.08573 4.20016 6.01078 5.10547 5.10547C6.01078 4.20016 7.08573 3.48217 8.26855 2.99219C9.45148 2.5022 10.7196 2.25 12 2.25L12.4014 2.25781ZM3.78516 12.75C3.89346 13.9363 4.2569 15.0883 4.85547 16.125C5.57954 17.3791 6.62091 18.4205 7.875 19.1445C9.12914 19.8686 10.5518 20.25 12 20.25C13.1972 20.25 14.3765 19.9886 15.458 19.4893L11.5674 12.75H3.78516ZM12.75 11.7988L16.7568 18.7383C18.0268 17.8418 19.0233 16.6028 19.6221 15.1572C20.317 13.4794 20.4388 11.6185 19.9688 9.86426C19.4987 8.11035 18.463 6.56054 17.0225 5.45508C15.781 4.50247 14.2982 3.92651 12.75 3.78516V11.7988ZM11.25 3.78516C10.4237 3.86059 9.61195 4.05933 8.84277 4.37793C7.84186 4.79253 6.93209 5.39995 6.16602 6.16602C5.39995 6.93209 4.79253 7.84186 4.37793 8.84277C4.05933 9.61195 3.86059 10.4237 3.78516 11.25H11.25V3.78516Z" fill="currentColor"/>
</svg>
