<svg width="24" height="24" viewBox="0 0 24 24" fill="none" xmlns="http://www.w3.org/2000/svg">
<path d="M2.46967 17.5303C2.76256 17.8232 3.23732 17.8232 3.53022 17.5303L8.99994 12.0606L12.4697 15.5303L12.5263 15.5821C12.8209 15.8224 13.2556 15.8049 13.5302 15.5303L20.2499 8.8106V14.0001C20.2499 14.4143 20.5857 14.7501 20.9999 14.7501C21.4142 14.7501 21.7499 14.4143 21.7499 14.0001V7.00006C21.7499 6.95501 21.7449 6.91108 21.7372 6.86822C21.7279 6.8156 21.713 6.76396 21.6923 6.71392C21.6715 6.66356 21.645 6.61646 21.6142 6.57232C21.5893 6.5366 21.5621 6.50167 21.5302 6.46978C21.4983 6.4379 21.4634 6.41074 21.4277 6.3858C21.3835 6.35501 21.3364 6.32851 21.2861 6.30767C21.254 6.29444 21.2207 6.286 21.1874 6.2774C21.1743 6.274 21.1618 6.26837 21.1484 6.26568C21.1429 6.26457 21.1373 6.26374 21.1318 6.26275C21.0889 6.25514 21.045 6.25006 20.9999 6.25006H13.9999C13.5857 6.25006 13.2499 6.58584 13.2499 7.00006C13.2499 7.41427 13.5857 7.75006 13.9999 7.75006H19.1894L12.9999 13.9395L9.53022 10.4698C9.23734 10.1769 8.76257 10.1769 8.46967 10.4698L2.46967 16.4698C2.17678 16.7627 2.17678 17.2374 2.46967 17.5303Z" fill="currentColor"/>
</svg>
