<svg width="24" height="24" viewBox="0 0 24 24" fill="none" xmlns="http://www.w3.org/2000/svg">
<path d="M2.46967 6.46967C2.76256 6.17678 3.23732 6.17678 3.53022 6.46967L8.99994 11.9394L12.4697 8.46967L12.5263 8.41791C12.8209 8.17761 13.2556 8.19507 13.5302 8.46967L20.2499 15.1894V9.99994C20.2499 9.58573 20.5857 9.24994 20.9999 9.24994C21.4142 9.24994 21.7499 9.58573 21.7499 9.99994V16.9999C21.7499 17.045 21.7449 17.0889 21.7372 17.1318C21.7279 17.1844 21.713 17.236 21.6923 17.2861C21.6715 17.3364 21.645 17.3835 21.6142 17.4277C21.5893 17.4634 21.5621 17.4983 21.5302 17.5302C21.4983 17.5621 21.4634 17.5893 21.4277 17.6142C21.3835 17.645 21.3364 17.6715 21.2861 17.6923C21.254 17.7056 21.2207 17.714 21.1874 17.7226C21.1743 17.726 21.1618 17.7316 21.1484 17.7343C21.1429 17.7354 21.1373 17.7363 21.1318 17.7372C21.0889 17.7449 21.045 17.7499 20.9999 17.7499H13.9999C13.5857 17.7499 13.2499 17.4142 13.2499 16.9999C13.2499 16.5857 13.5857 16.2499 13.9999 16.2499H19.1894L12.9999 10.0605L9.53022 13.5302C9.23734 13.8231 8.76257 13.8231 8.46967 13.5302L2.46967 7.53022C2.17678 7.23732 2.17678 6.76256 2.46967 6.46967Z" fill="currentColor"/>
</svg>
