<svg width="24" height="24" viewBox="0 0 24 24" fill="none" xmlns="http://www.w3.org/2000/svg">
<path d="M20.25 18C20.25 16.7574 19.2426 15.75 18 15.75C17.1202 15.75 16.3566 16.2549 15.9863 16.9941C15.8352 17.2959 15.75 17.637 15.75 18C15.75 19.2426 16.7574 20.25 18 20.25C19.2426 20.25 20.25 19.2426 20.25 18ZM8.25 12C8.25 11.637 8.16482 11.2959 8.01367 10.9941C7.64336 10.2549 6.87977 9.75 6 9.75C4.75736 9.75 3.75 10.7574 3.75 12C3.75 13.2426 4.75736 14.25 6 14.25C6.87977 14.25 7.64336 13.7451 8.01367 13.0059C8.16482 12.7041 8.25 12.363 8.25 12ZM20.25 6C20.25 4.75736 19.2426 3.75 18 3.75C16.7574 3.75 15.75 4.75736 15.75 6C15.75 6.36302 15.8352 6.70405 15.9863 7.00586C16.3566 7.74505 17.1202 8.25 18 8.25C19.2426 8.25 20.25 7.24264 20.25 6ZM21.75 6C21.75 8.07107 20.0711 9.75 18 9.75C16.8012 9.75 15.7347 9.18725 15.0488 8.31348L9.62109 11.0273C9.70439 11.3381 9.75 11.664 9.75 12C9.75 12.3357 9.70423 12.6612 9.62109 12.9717L15.0488 15.6855C15.7348 14.8121 16.8014 14.25 18 14.25C20.0711 14.25 21.75 15.9289 21.75 18C21.75 20.0711 20.0711 21.75 18 21.75C15.9289 21.75 14.25 20.0711 14.25 18C14.25 17.6641 14.2947 17.338 14.3779 17.0273L8.9502 14.3135C8.26426 15.187 7.19863 15.75 6 15.75C3.92893 15.75 2.25 14.0711 2.25 12C2.25 9.92893 3.92893 8.25 6 8.25C7.19836 8.25 8.26425 8.81239 8.9502 9.68555L14.3779 6.97168C14.2948 6.66131 14.25 6.33556 14.25 6C14.25 3.92893 15.9289 2.25 18 2.25C20.0711 2.25 21.75 3.92893 21.75 6Z" fill="currentColor"/>
</svg>
