<svg width="24" height="24" viewBox="0 0 24 24" fill="none" xmlns="http://www.w3.org/2000/svg">
<path fill-rule="evenodd" clip-rule="evenodd" d="M6.78906 13.9297C8.3932 13.9298 9.69922 15.2357 9.69922 16.8398C9.69913 18.4439 8.39315 19.7499 6.78906 19.75C5.17264 19.75 3.87899 18.4417 3.87891 16.8398C3.87891 15.2356 5.18485 13.9297 6.78906 13.9297ZM6.78906 15.4297C6.01328 15.4297 5.37891 16.0641 5.37891 16.8398C5.37899 17.6178 6.00559 18.25 6.78906 18.25C7.56473 18.2499 8.19913 17.6155 8.19922 16.8398C8.19922 16.0641 7.56478 15.4298 6.78906 15.4297Z" fill="currentColor"/>
<path fill-rule="evenodd" clip-rule="evenodd" d="M17.2109 13.9297C18.8151 13.9298 20.1211 15.2357 20.1211 16.8398C20.121 18.4439 18.815 19.7499 17.2109 19.75C15.6068 19.75 14.3009 18.444 14.3008 16.8398C14.3008 15.2356 15.6067 13.9297 17.2109 13.9297ZM17.2109 15.4297C16.4352 15.4297 15.8008 16.0641 15.8008 16.8398C15.8009 17.6156 16.4352 18.25 17.2109 18.25C17.9866 18.2499 18.621 17.6155 18.6211 16.8398C18.6211 16.0641 17.9867 15.4298 17.2109 15.4297Z" fill="currentColor"/>
<path fill-rule="evenodd" clip-rule="evenodd" d="M12 4.25C13.6041 4.25008 14.9102 5.55599 14.9102 7.16016C14.9101 8.76425 13.6041 10.0702 12 10.0703C10.3959 10.0702 9.08993 8.76425 9.08984 7.16016C9.08984 5.55599 10.3959 4.25008 12 4.25ZM12 5.75C11.2243 5.75009 10.5898 6.38442 10.5898 7.16016C10.5899 7.93582 11.2243 8.57023 12 8.57031C12.7757 8.57023 13.4101 7.93582 13.4102 7.16016C13.4102 6.38442 12.7757 5.75009 12 5.75Z" fill="currentColor"/>
</svg>
