<svg width="24" height="24" viewBox="0 0 24 24" fill="none" xmlns="http://www.w3.org/2000/svg">
<path fill-rule="evenodd" clip-rule="evenodd" d="M15.6963 15.1543C17.2415 15.1543 18.4941 16.4069 18.4941 17.9521C18.4941 19.4974 17.2416 20.75 15.6963 20.75C14.1511 20.7499 12.8984 19.4974 12.8984 17.9521C12.8985 16.407 14.1511 15.1544 15.6963 15.1543ZM15.6963 16.6543C14.9795 16.6544 14.3985 17.2354 14.3984 17.9521C14.3984 18.669 14.9795 19.2499 15.6963 19.25C16.4132 19.25 16.9941 18.669 16.9941 17.9521C16.9941 17.2354 16.4131 16.6543 15.6963 16.6543Z" fill="currentColor"/>
<path fill-rule="evenodd" clip-rule="evenodd" d="M7.4873 12.2744C9.2623 12.2744 10.7011 13.7133 10.7012 15.4883C10.7012 17.2633 9.26234 18.7021 7.4873 18.7021C5.71231 18.7021 4.27344 17.2633 4.27344 15.4883C4.27351 13.7133 5.71236 12.2745 7.4873 12.2744ZM7.4873 13.7744C6.54079 13.7745 5.77351 14.5418 5.77344 15.4883C5.77344 16.4349 6.54075 17.2021 7.4873 17.2021C8.43393 17.2021 9.20117 16.4349 9.20117 15.4883C9.2011 14.5417 8.43388 13.7744 7.4873 13.7744Z" fill="currentColor"/>
<path fill-rule="evenodd" clip-rule="evenodd" d="M14.8701 3.25C17.5505 3.25026 19.7234 5.42311 19.7236 8.10352C19.7236 10.7841 17.5507 12.9577 14.8701 12.958C12.1893 12.958 10.0156 10.7843 10.0156 8.10352C10.0159 5.42295 12.1895 3.25 14.8701 3.25ZM14.8701 4.75C13.0179 4.75 11.5159 6.25138 11.5156 8.10352C11.5156 9.95588 13.0178 11.458 14.8701 11.458C16.7223 11.4577 18.2236 9.95571 18.2236 8.10352C18.2234 6.25154 16.7221 4.75026 14.8701 4.75Z" fill="currentColor"/>
</svg>
