<svg width="24" height="24" viewBox="0 0 24 24" fill="none" xmlns="http://www.w3.org/2000/svg">
<path d="M12 3C7 3 3 4.34 3 6V18C3 19.66 7 21 12 21C17 21 21 19.66 21 18V6C21 4.34 17 3 12 3ZM19 18C19 18.5 16.09 19 12 19C7.91 19 5 18.5 5 18V15.77C6.61 16.55 9.12 17 12 17C14.88 17 17.39 16.55 19 15.77V18ZM19 13.45C17.4 14.22 14.9 14.67 12 14.67C9.1 14.67 6.6 14.22 5 13.45V10.77C6.61 11.55 9.12 12 12 12C14.88 12 17.39 11.55 19 10.77V13.45ZM12 10C7.91 10 5 9.5 5 9V6C5 5.5 7.91 5 12 5C16.09 5 19 5.5 19 6V9C19 9.5 16.09 10 12 10Z" fill="currentColor"/>
</svg>
