<svg width="24" height="24" viewBox="0 0 24 24" fill="none" xmlns="http://www.w3.org/2000/svg">
<path d="M7.49911 4C7.87772 4.00011 8.18482 4.30707 8.18482 4.68571V18.6286H10.4705V4.68571C10.4705 4.307 10.7775 4 11.1563 4H15.3759C15.7546 4.00004 16.0616 4.30703 16.0616 4.68571V14.9714H18.6286V12.6464H20V15.6571C20 15.839 19.9277 16.0134 19.7991 16.142C19.6705 16.2706 19.4961 16.3429 19.3143 16.3429H15.3759C14.9972 16.3429 14.6902 16.0359 14.6902 15.6571V5.37143H11.842V19.3143C11.842 19.6929 11.5349 19.9999 11.1563 20H7.49911C7.1204 20 6.81339 19.693 6.81339 19.3143V5.37143H5.37143V10.433H4V4.68571C4 4.307 4.307 4 4.68571 4H7.49911Z" fill="currentColor"/>
</svg>
