<svg width="24" height="24" viewBox="0 0 24 24" fill="none" xmlns="http://www.w3.org/2000/svg">
<path fill-rule="evenodd" clip-rule="evenodd" d="M15.0068 2.25112C15.0296 2.2513 15.0524 2.25273 15.0752 2.25502C15.083 2.25582 15.0908 2.2569 15.0986 2.25795C15.1067 2.25903 15.115 2.25954 15.123 2.26088L21.123 3.26088C21.4846 3.32119 21.75 3.63451 21.75 4.00112V19.0011C21.7499 19.2214 21.6525 19.431 21.4844 19.5734C21.3163 19.7155 21.0941 19.7774 20.877 19.7414L15.1475 18.7863L10.3857 21.6437C10.3822 21.6458 10.3776 21.6465 10.374 21.6486C10.3574 21.6582 10.3404 21.6667 10.3232 21.6749C10.3111 21.6808 10.2995 21.6874 10.2871 21.6925C10.2695 21.6999 10.2515 21.7061 10.2334 21.7121C10.2223 21.7157 10.2114 21.7197 10.2002 21.7228C10.1391 21.7398 10.0761 21.748 10.0127 21.7492C10.0075 21.7492 10.0023 21.7492 9.99707 21.7492C9.97131 21.7491 9.94566 21.748 9.91992 21.7453C9.91205 21.7444 9.90434 21.7425 9.89648 21.7414C9.87096 21.7378 9.84555 21.7339 9.82031 21.7277C9.81571 21.7265 9.81122 21.725 9.80664 21.7238C9.79207 21.7199 9.7771 21.7169 9.7627 21.7121L3.7627 19.7121C3.45651 19.6099 3.25 19.3229 3.25 19.0001V4.00014L3.25488 3.9103C3.27989 3.70379 3.39057 3.51495 3.56152 3.39174C3.75703 3.25094 4.00872 3.21208 4.2373 3.28823L9.90918 5.17885L14.6143 2.35658C14.6248 2.35027 14.6357 2.34476 14.6465 2.33901C14.6503 2.33694 14.6543 2.33514 14.6582 2.33315C14.6788 2.32259 14.6994 2.31237 14.7207 2.30385C14.7353 2.29797 14.7507 2.29415 14.7656 2.2892C14.7768 2.28553 14.7875 2.28061 14.7988 2.27748C14.8277 2.26942 14.8571 2.2635 14.8867 2.25893C14.8948 2.2577 14.903 2.25696 14.9111 2.256C14.9335 2.2533 14.9559 2.25179 14.9785 2.25112C14.988 2.25086 14.9974 2.25102 15.0068 2.25112ZM4.75 18.4591L9.25 19.9591V6.54116L4.75 5.04116V18.4591ZM10.75 6.42494V19.6749L14.25 17.5744V4.32436L10.75 6.42494ZM15.75 17.3654L20.25 18.1154V4.63686L15.75 3.88686V17.3654Z" fill="currentColor"/>
</svg>
