<svg width="24" height="24" viewBox="0 0 24 24" fill="none" xmlns="http://www.w3.org/2000/svg">
<path d="M20.25 14C20.25 13.3096 19.6904 12.75 19 12.75H5C4.30964 12.75 3.75 13.3096 3.75 14V18C3.75 18.6904 4.30964 19.25 5 19.25H19C19.6904 19.25 20.25 18.6904 20.25 18V14ZM17.0098 15.25C17.424 15.25 17.7598 15.5858 17.7598 16C17.7598 16.4142 17.424 16.75 17.0098 16.75H17C16.5858 16.75 16.25 16.4142 16.25 16C16.25 15.5858 16.5858 15.25 17 15.25H17.0098ZM17.0098 7.25C17.424 7.25 17.7598 7.58579 17.7598 8C17.7598 8.41421 17.424 8.75 17.0098 8.75H17C16.5858 8.75 16.25 8.41421 16.25 8C16.25 7.58579 16.5858 7.25 17 7.25H17.0098ZM20.25 6C20.25 5.30964 19.6904 4.75 19 4.75H5C4.30964 4.75 3.75 5.30964 3.75 6V10C3.75 10.6904 4.30964 11.25 5 11.25H19C19.6904 11.25 20.25 10.6904 20.25 10V6ZM21.75 10C21.75 10.7892 21.4153 11.4985 20.8828 12C21.4153 12.5015 21.75 13.2108 21.75 14V18C21.75 19.5188 20.5188 20.75 19 20.75H5C3.48122 20.75 2.25 19.5188 2.25 18V14C2.25 13.211 2.58399 12.5015 3.11621 12C2.58399 11.4985 2.25 10.789 2.25 10V6C2.25 4.48122 3.48122 3.25 5 3.25H19C20.5188 3.25 21.75 4.48122 21.75 6V10Z" fill="currentColor"/>
</svg>
