<svg width="24" height="24" viewBox="0 0 24 24" fill="none" xmlns="http://www.w3.org/2000/svg">
<path d="M3.70711 2.29289L2.29289 3.70711L7.5 8.91421C5.16229 10.4262 3.33908 12.5594 2.29289 15.0711L4.70711 17.4853C5.55908 15.3808 7.07229 13.6262 9 12.5L11.5 15C10.5613 15.4477 9.73908 16.1262 9.12132 17L12 19.8787L18.2929 13.5858L21.7071 17L23.1213 15.5858L3.70711 2.29289ZM17 11L15 9C12.5 9.5 10.5 10.5 9 12L7 10C9 8 11.5 6.5 14.5 6L12.5 4C8.5 4.5 5 6.5 2.29289 9.29289L4.70711 11.7071C6.5 9.5 9 8 12 7.5L17 11Z" fill="currentColor"/>
</svg>
