<svg width="24" height="24" viewBox="0 0 24 24" fill="none" xmlns="http://www.w3.org/2000/svg">
<path d="M16.85 10.86L17.31 11.31C17.45 11.45 17.56 11.62 17.64 11.80C17.71 11.98 17.75 12.18 17.75 12.38C17.75 12.57 17.71 12.77 17.64 12.95C17.56 13.13 17.45 13.30 17.31 13.44L16.65 14.09C16.51 14.24 16.32 14.31 16.12 14.31C15.92 14.31 15.73 14.24 15.59 14.09L9.90 8.41C9.76 8.26 9.68 8.07 9.68 7.88C9.68 7.68 9.76 7.49 9.90 7.34L10.56 6.69C10.70 6.55 10.87 6.44 11.05 6.36C11.23 6.29 11.43 6.25 11.62 6.25C11.82 6.25 12.01 6.29 12.20 6.36C12.38 6.44 12.54 6.55 12.68 6.69L13.14 7.14L15.73 4.56C16.74 3.55 18.39 3.48 19.43 4.47C19.68 4.71 19.89 5.00 20.03 5.32C20.17 5.64 20.24 5.99 20.25 6.34C20.25 6.69 20.19 7.04 20.05 7.36C19.92 7.69 19.73 7.98 19.48 8.23L16.85 10.86Z" stroke="currentColor" stroke-width="2.5" stroke-linecap="round" stroke-linejoin="round"/>
<path d="M14.87 13.37L9.62 18.62C9.25 18.99 8.79 19.26 8.28 19.40C7.77 19.53 7.23 19.53 6.72 19.40L4.53 20.36C4.39 20.42 4.24 20.43 4.09 20.41C3.94 20.38 3.81 20.31 3.70 20.20C3.62 20.12 3.57 20.02 3.55 19.92C3.53 19.81 3.54 19.70 3.59 19.60L4.60 17.28C4.47 16.77 4.47 16.23 4.60 15.72C4.74 15.21 5.01 14.75 5.38 14.38L10.63 9.13" stroke="currentColor" stroke-width="2.5" stroke-linecap="round" stroke-linejoin="round"/>
</svg>
