<svg width="24" height="24" viewBox="0 0 24 24" fill="none" xmlns="http://www.w3.org/2000/svg">
<path d="M14.2503 17.75H9.75032V18C9.75032 19.2426 10.7577 20.25 12.0003 20.25C13.243 20.25 14.2503 19.2426 14.2503 18V17.75ZM17.2503 11C17.2503 8.7153 15.7904 6.76991 13.7503 6.04883C13.4507 5.94294 13.2505 5.6595 13.2503 5.3418V5C13.2503 4.30964 12.6907 3.75 12.0003 3.75C11.31 3.75 10.7503 4.30964 10.7503 5V5.3418C10.7502 5.6595 10.5499 5.94294 10.2503 6.04883C8.21024 6.76991 6.75032 8.7153 6.75032 11V14.1582C6.75032 14.8958 6.45732 15.6034 5.93586 16.125L5.81086 16.25H18.1898L18.0648 16.125C17.5433 15.6034 17.2503 14.8958 17.2503 14.1582V11ZM18.7503 14.1582C18.7503 14.498 18.8852 14.8241 19.1253 15.0645L20.5306 16.4697C20.7451 16.6842 20.8097 17.0069 20.6937 17.2871C20.5776 17.5674 20.3037 17.75 20.0003 17.75H15.7503V18C15.7503 20.0711 14.0714 21.75 12.0003 21.75C9.92925 21.75 8.25032 20.0711 8.25032 18V17.75H4.00032C3.69697 17.75 3.42304 17.5674 3.30696 17.2871C3.19092 17.0069 3.25557 16.6842 3.47004 16.4697L4.87532 15.0645C5.11547 14.8241 5.25032 14.498 5.25032 14.1582V11C5.25032 8.24705 6.89801 5.88064 9.25911 4.83008C9.34697 3.39054 10.5387 2.25 12.0003 2.25C13.4619 2.25 14.6527 3.39057 14.7406 4.83008C17.1021 5.88045 18.7503 8.24673 18.7503 11V14.1582Z" fill="currentColor"/>
</svg>
