<svg width="24" height="24" viewBox="0 0 24 24" fill="none" xmlns="http://www.w3.org/2000/svg">
<path fill-rule="evenodd" clip-rule="evenodd" d="M9 13.25C12.7279 13.25 15.75 16.2721 15.75 20C15.75 20.4142 15.4142 20.75 15 20.75H3C2.58579 20.75 2.25 20.4142 2.25 20C2.25 16.2721 5.27208 13.25 9 13.25ZM9 14.75C6.35522 14.75 4.1687 16.7059 3.80469 19.25H14.1953C13.8313 16.7059 11.6448 14.75 9 14.75Z" fill="currentColor"/>
<path d="M15.2627 13.25C18.9906 13.25 22.0127 16.2721 22.0127 20C22.0127 20.4142 21.6769 20.75 21.2627 20.75H16.998C16.5841 20.7497 16.248 20.414 16.248 20C16.248 19.586 16.5841 19.2503 16.998 19.25H20.458C20.094 16.7059 17.9075 14.75 15.2627 14.75C14.921 14.75 14.587 14.7827 14.2646 14.8447C13.8582 14.9226 13.465 14.6564 13.3867 14.25C13.3086 13.8434 13.5749 13.4495 13.9814 13.3711C14.3967 13.2913 14.8254 13.25 15.2627 13.25Z" fill="currentColor"/>
<path fill-rule="evenodd" clip-rule="evenodd" d="M9 3.25C11.6234 3.25 13.75 5.37665 13.75 8C13.75 10.6234 11.6234 12.75 9 12.75C6.37665 12.75 4.25 10.6234 4.25 8C4.25 5.37665 6.37665 3.25 9 3.25ZM9 4.75C7.20508 4.75 5.75 6.20507 5.75 8C5.75 9.79493 7.20508 11.25 9 11.25C10.7949 11.25 12.25 9.79492 12.25 8C12.25 6.20507 10.7949 4.75 9 4.75Z" fill="currentColor"/>
<path d="M15.2627 3.25C17.886 3.25 20.0127 5.37665 20.0127 8C20.0127 10.6234 17.886 12.75 15.2627 12.75C14.6343 12.75 14.0324 12.6273 13.4814 12.4043C13.0977 12.2488 12.9121 11.8116 13.0674 11.4277C13.2228 11.044 13.6601 10.8586 14.0439 11.0137C14.4192 11.1656 14.8304 11.25 15.2627 11.25C17.0576 11.25 18.5127 9.79492 18.5127 8C18.5127 6.20507 17.0576 4.75 15.2627 4.75C14.8304 4.75003 14.4192 4.83443 14.0439 4.98633C13.6601 5.14138 13.2228 4.95602 13.0674 4.57227C12.9121 4.18841 13.0977 3.75119 13.4814 3.5957C14.0324 3.37268 14.6343 3.25003 15.2627 3.25Z" fill="currentColor"/>
</svg>
