<svg width="24" height="24" viewBox="0 0 24 24" fill="none" xmlns="http://www.w3.org/2000/svg">
<path d="M18.584 17V7C18.584 5.75736 17.5766 4.75 16.334 4.75H14.001C13.5868 4.75 13.251 4.41421 13.251 4C13.251 3.58579 13.5868 3.25 14.001 3.25H16.334C18.4051 3.25 20.084 4.92893 20.084 7V17C20.084 19.0711 18.4051 20.75 16.334 20.75H14.001C13.5868 20.75 13.251 20.4142 13.251 20C13.251 19.5858 13.5868 19.25 14.001 19.25H16.334C17.5766 19.25 18.584 18.2426 18.584 17ZM7.69141 7.02539C7.9843 6.7325 8.46004 6.7325 8.75293 7.02539L13.1973 11.4697C13.49 11.7626 13.4899 12.2374 13.1973 12.5303L8.75293 16.9746C8.46004 17.2675 7.9843 17.2675 7.69141 16.9746C7.39895 16.6817 7.3988 16.2068 7.69141 15.9141L10.8564 12.75H3C2.58579 12.75 2.25 12.4142 2.25 12C2.25006 11.5858 2.58582 11.25 3 11.25H10.8564L7.69141 8.08594C7.39887 7.79311 7.39887 7.31822 7.69141 7.02539Z" fill="currentColor"/>
</svg>
