<svg width="24" height="24" viewBox="0 0 24 24" fill="none" xmlns="http://www.w3.org/2000/svg">
<g clip-path="url(#clip0_528_251510)">
<path d="M2.31445 13.8867H8.61328C9.34896 13.8867 9.92187 13.6865 10.332 13.2861C10.7422 12.8857 10.9473 12.3209 10.9473 11.5918V5.29297C10.9473 4.5638 10.7422 3.99902 10.332 3.59863C9.92187 3.19824 9.34896 2.99805 8.61328 2.99805H2.31445C1.58528 2.99805 1.01725 3.19824 0.610352 3.59863C0.203451 3.99902 0 4.5638 0 5.29297V11.5918C0 12.3275 0.203451 12.8939 0.610352 13.291C1.01725 13.6881 1.58528 13.8867 2.31445 13.8867ZM15.0098 14.0137H21.4355C22.1972 14.0137 22.7864 13.8086 23.2031 13.3984C23.6198 12.9883 23.8281 12.4121 23.8281 11.6699V5.22461C23.8281 4.47591 23.6198 3.89648 23.2031 3.48633C22.7864 3.07617 22.1972 2.87109 21.4355 2.87109H15.0098C14.2546 2.87109 13.6687 3.07617 13.252 3.48633C12.8353 3.89648 12.627 4.47591 12.627 5.22461V11.6699C12.627 12.4121 12.8353 12.9883 13.252 13.3984C13.6687 13.8086 14.2546 14.0137 15.0098 14.0137ZM15.0293 12.4707C14.7428 12.4707 14.528 12.3991 14.3848 12.2559C14.2415 12.1126 14.1699 11.8945 14.1699 11.6016V5.2832C14.1699 4.99023 14.2415 4.77214 14.3848 4.62891C14.528 4.48568 14.7428 4.41406 15.0293 4.41406H21.416C21.7155 4.41406 21.9352 4.48568 22.0752 4.62891C22.2152 4.77214 22.2852 4.99023 22.2852 5.2832V11.6016C22.2852 11.8945 22.2152 12.1126 22.0752 12.2559C21.9352 12.3991 21.7155 12.4707 21.416 12.4707H15.0293ZM0.742188 17.5391C0.546875 17.5391 0.374349 17.6156 0.224609 17.7686C0.0748697 17.9215 0 18.1054 0 18.3203C0 18.5416 0.0748697 18.7288 0.224609 18.8818C0.374349 19.0348 0.546875 19.1113 0.742188 19.1113H3.89648V17.5391H0.742188ZM5.5957 20.6738C6.02539 20.6738 6.41764 20.568 6.77246 20.3564C7.12728 20.1449 7.41048 19.8617 7.62207 19.5068C7.83366 19.152 7.93945 18.7598 7.93945 18.3301C7.93945 17.9004 7.83366 17.5065 7.62207 17.1484C7.41048 16.7903 7.12728 16.5055 6.77246 16.2939C6.41764 16.0824 6.02539 15.9766 5.5957 15.9766C5.16601 15.9766 4.77376 16.0824 4.41895 16.2939C4.06413 16.5055 3.78093 16.7903 3.56934 17.1484C3.35775 17.5065 3.25195 17.9004 3.25195 18.3301C3.25195 18.7598 3.35775 19.152 3.56934 19.5068C3.78093 19.8617 4.06413 20.1449 4.41895 20.3564C4.77376 20.568 5.16601 20.6738 5.5957 20.6738ZM5.5957 19.4727C5.27018 19.4727 4.99837 19.3604 4.78027 19.1357C4.56217 18.9111 4.45312 18.6393 4.45312 18.3203C4.45312 18.0013 4.56217 17.7311 4.78027 17.5098C4.99837 17.2884 5.27018 17.1777 5.5957 17.1777C5.91471 17.1777 6.1849 17.2884 6.40625 17.5098C6.6276 17.7311 6.73828 18.0013 6.73828 18.3203C6.73828 18.6393 6.6276 18.9111 6.40625 19.1357C6.1849 19.3604 5.91471 19.4727 5.5957 19.4727ZM7.14844 17.5391V19.1113H23.0371C23.2584 19.1113 23.4456 19.0348 23.5986 18.8818C23.7516 18.7288 23.8281 18.5416 23.8281 18.3203C23.8281 18.1054 23.7516 17.9215 23.5986 17.7686C23.4456 17.6156 23.2584 17.5391 23.0371 17.5391H7.14844Z" fill="currentColor"/>
</g>
<defs>
<clipPath id="clip0_528_251510">
<rect width="23.8281" height="18.1738" fill="currentColor"/>
</clipPath>
</defs>
</svg>
