<svg width="24" height="24" viewBox="0 0 24 24" fill="none" xmlns="http://www.w3.org/2000/svg">
<path d="M12 3C7.02944 3 3 7.02944 3 12C3 13.6569 3.46876 15.1958 4.27433 16.5049L3.11489 19.8947C3.04027 20.1013 3.07632 20.3312 3.21021 20.5021C3.3441 20.6731 3.55453 20.7615 3.76668 20.7365L7.65583 20.2828C8.93369 21.011 10.4156 21.4286 12 21.4286C16.9706 21.4286 21 17.3991 21 12.4286V12C21 7.02944 16.9706 3 12 3ZM12 5C15.8899 5 19 8.11015 19 12V12.4286C19 16.2946 15.8899 19.4286 12 19.4286C10.6403 19.4286 9.36711 19.0655 8.2794 18.4394L7.8186 18.1773L5.04918 18.5211L5.91349 15.9707L5.65961 15.4752C4.99447 14.3485 4.57143 13.0185 4.57143 11.5714V12C4.57143 8.11015 7.68158 5 11.5714 5H12Z" fill="currentColor"/>
</svg>
