<svg width="24" height="24" viewBox="0 0 24 24" fill="none" xmlns="http://www.w3.org/2000/svg">
<path d="M20.4615 11.7966C20.4614 10.8054 19.6579 10.0018 18.6667 10.0018H11.7947C10.8035 10.0019 9.99991 10.8055 9.9998 11.7966V18.6686C9.9998 19.6598 10.8035 20.4634 11.7947 20.4635H18.6667C19.6579 20.4635 20.4615 19.6599 20.4615 18.6686V11.7966ZM14.0002 5.72691V5.33529C14.0002 4.34407 13.1965 3.54052 12.2053 3.54041H5.33333C4.34205 3.54041 3.53846 4.34401 3.53846 5.33529V12.2073C3.53857 13.1985 4.34212 14.0022 5.33333 14.0022H5.75901C6.1837 14.0023 6.52825 14.3467 6.52825 14.7714C6.52814 15.196 6.18363 15.5404 5.75901 15.5406H5.33333C3.49245 15.5406 2.00011 14.0481 2 12.2073V5.33529C2 3.49434 3.49239 2.00195 5.33333 2.00195H12.2053C14.0462 2.00206 15.5387 3.4944 15.5387 5.33529V5.72691C15.5387 6.15168 15.1942 6.49604 14.7694 6.49614C14.3446 6.49614 14.0002 6.15175 14.0002 5.72691ZM22 18.6686C22 20.5096 20.5076 22.002 18.6667 22.002H11.7947C9.95381 22.0018 8.46134 20.5095 8.46134 18.6686V11.7966C8.46145 9.95583 9.95388 8.4634 11.7947 8.46329H18.6667C20.5076 8.46329 21.9999 9.95577 22 11.7966V18.6686Z" fill="currentColor"/>
</svg>
