<svg width="24" height="24" viewBox="0 0 24 24" fill="none" xmlns="http://www.w3.org/2000/svg">
<path d="M3.25 17V14.667C3.25 14.2528 3.58579 13.917 4 13.917C4.41421 13.917 4.75 14.2528 4.75 14.667V17C4.75 18.2426 5.75736 19.25 7 19.25H17C18.2426 19.25 19.25 18.2426 19.25 17V14.667C19.25 14.2528 19.5858 13.917 20 13.917C20.4142 13.917 20.75 14.2528 20.75 14.667V17C20.75 19.0711 19.0711 20.75 17 20.75H7C4.92894 20.75 3.25001 19.0711 3.25 17ZM11.25 4C11.25 3.58579 11.5858 3.25 12 3.25C12.4142 3.25 12.75 3.58579 12.75 4V12.8555L15.9141 9.69141C16.2069 9.39884 16.6818 9.39891 16.9746 9.69141C17.2675 9.9843 17.2675 10.46 16.9746 10.7529L12.5303 15.1973C12.3896 15.3378 12.1988 15.417 12 15.417C11.8012 15.417 11.6104 15.3378 11.4697 15.1973L7.02539 10.7529C6.7325 10.46 6.7325 9.9843 7.02539 9.69141C7.31824 9.39891 7.79314 9.39884 8.08594 9.69141L11.25 12.8555V4Z" fill="currentColor"/>
</svg>
