<svg width="24" height="24" viewBox="0 0 24 24" fill="none" xmlns="http://www.w3.org/2000/svg">
<path d="M17.7005 2.46966C17.9934 2.17676 18.4682 2.1768 18.7611 2.46966L21.5306 5.23919C21.6711 5.37982 21.7503 5.57064 21.7503 5.76946C21.7502 5.96824 21.6712 6.15917 21.5306 6.29974L7.68587 20.1454C7.6036 20.2277 7.50328 20.2902 7.3929 20.3271L3.23763 21.7118C2.96813 21.8017 2.67092 21.7311 2.47005 21.5302C2.26919 21.3293 2.19858 21.0321 2.28841 20.7626L3.67318 16.6093C3.71001 16.499 3.7726 16.3986 3.85482 16.3163L17.7005 2.46966ZM20.3177 20.245C20.7319 20.2451 21.0677 20.5809 21.0677 20.995C21.0676 21.4091 20.7318 21.745 20.3177 21.745H11.5052C11.0911 21.745 10.7553 21.4092 10.7552 20.995C10.7552 20.5809 11.091 20.2451 11.5052 20.245H20.3177ZM5.03939 17.2519L4.18587 19.8134L6.7513 18.9579L19.9398 5.76946L18.2308 4.06048L5.03939 17.2519Z" fill="currentColor"/>
</svg>
