<svg width="24" height="24" viewBox="0 0 24 24" fill="none" xmlns="http://www.w3.org/2000/svg">
<path d="M21.2278 2L21.3069 2.00401C21.6944 2.04342 21.9965 2.37038 21.997 2.76824L22 4.81653C22.0002 5.00742 21.9297 5.19173 21.8017 5.33336L14.6302 13.2691V19.9369C14.6302 20.2629 14.4247 20.5534 14.1174 20.662L10.4545 21.9561C10.2192 22.0391 9.95817 22.0031 9.75441 21.8589C9.55059 21.7148 9.42989 21.4806 9.42989 21.2309V13.2711L2.20132 5.34438C2.07212 5.20269 2 5.0183 2 4.82655V2.76924C2 2.3444 2.3444 2 2.76923 2H21.2278ZM3.53846 4.52807L10.767 12.4548C10.8963 12.5965 10.9683 12.7819 10.9683 12.9737V20.1432L13.0917 19.392V12.9737C13.0917 12.7832 13.1625 12.5992 13.2901 12.4578L20.4605 4.52106L20.4595 3.53847H3.53846V4.52807Z" fill="currentColor"/>
</svg>
