<svg width="24" height="24" viewBox="0 0 24 24" fill="none" xmlns="http://www.w3.org/2000/svg">
<path d="M4 3H10V5H6.41421L10.7071 9.29289L9.29289 10.7071L5 6.41421V10H3V4C3 3.44772 3.44772 3 4 3Z" fill="currentColor"/>
<path d="M14 3H20C20.5523 3 21 3.44772 21 4V10H19V6.41421L14.7071 10.7071L13.2929 9.29289L17.5858 5H14V3Z" fill="currentColor"/>
<path d="M3 14H5V17.5858L9.29289 13.2929L10.7071 14.7071L6.41421 19H10V21H4C3.44772 21 3 20.5523 3 20V14Z" fill="currentColor"/>
<path d="M19 14H21V20C21 20.5523 20.5523 21 20 21H14V19H17.5858L13.2929 14.7071L14.7071 13.2929L19 17.5858V14Z" fill="currentColor"/>
</svg>
