<svg width="24" height="24" viewBox="0 0 24 24" fill="none" xmlns="http://www.w3.org/2000/svg">
<path d="M4.29289 4.29289L8.58579 8.58579V5H10.5858V11C10.5858 11.5523 10.1381 12 9.58579 12H3.58579V10H7.17157L2.87868 5.70711L4.29289 4.29289Z" fill="currentColor"/>
<path d="M19.7071 4.29289L15.4142 8.58579V5H13.4142V11C13.4142 11.5523 13.8619 12 14.4142 12H20.4142V10H16.8284L21.1213 5.70711L19.7071 4.29289Z" fill="currentColor"/>
<path d="M8.58579 15.4142L4.29289 19.7071L2.87868 18.2929L7.17157 14H3.58579V12H9.58579C10.1381 12 10.5858 12.4477 10.5858 13V19H8.58579V15.4142Z" fill="currentColor"/>
<path d="M15.4142 15.4142L19.7071 19.7071L21.1213 18.2929L16.8284 14H20.4142V12H14.4142C13.8619 12 13.4142 12.4477 13.4142 13V19H15.4142V15.4142Z" fill="currentColor"/>
</svg>
