<svg width="24" height="24" viewBox="0 0 24 24" fill="none" xmlns="http://www.w3.org/2000/svg">
<path d="M9.38442 21.5304C9.67727 21.8233 10.1521 21.8231 10.445 21.5304L12.445 19.5304C12.4599 19.5155 12.4715 19.4976 12.485 19.4816C12.4956 19.469 12.5065 19.4567 12.5163 19.4435C12.5358 19.417 12.5522 19.3891 12.568 19.3605C12.5753 19.3472 12.583 19.3342 12.5895 19.3204C12.6044 19.2891 12.6162 19.2569 12.6266 19.2238C12.6307 19.2108 12.6349 19.1979 12.6383 19.1847C12.6466 19.1523 12.652 19.1196 12.6559 19.0861C12.6581 19.0666 12.6611 19.0473 12.6618 19.0275C12.6621 19.0184 12.6647 19.0093 12.6647 19.0001C12.6647 18.9936 12.6619 18.9871 12.6618 18.9806C12.6611 18.9547 12.6603 18.9287 12.6569 18.9025C12.6558 18.8943 12.6533 18.8861 12.652 18.8781C12.6498 18.8646 12.6481 18.8513 12.6452 18.838C12.6381 18.806 12.6277 18.7754 12.6168 18.7452C12.6044 18.7111 12.5892 18.6786 12.5719 18.6466C12.5652 18.6341 12.5588 18.6216 12.5514 18.6095C12.5354 18.5834 12.5169 18.5594 12.4977 18.5353C12.4861 18.5207 12.4752 18.5059 12.4625 18.4923C12.4562 18.4854 12.4516 18.4765 12.445 18.4699L10.445 16.4699C10.1521 16.1771 9.67726 16.177 9.38442 16.4699C9.09174 16.7627 9.09175 17.2376 9.38442 17.5304L10.0973 18.2443C9.18481 18.1112 8.30554 17.7772 7.527 17.257C6.2663 16.4145 5.35498 15.1415 4.96255 13.6769C4.57032 12.2124 4.72365 10.6548 5.39419 9.29507C6.06484 7.9354 7.2074 6.86549 8.60805 6.28531C8.99046 6.12654 9.17276 5.68727 9.0143 5.30484C8.85558 4.92259 8.41629 4.74119 8.03384 4.89976C6.29684 5.61933 4.88009 6.94599 4.04848 8.63219C3.21701 10.3184 3.02776 12.2498 3.5143 14.0658C4.00096 15.8819 5.13072 17.4597 6.69399 18.5043C7.72107 19.1905 8.88916 19.6147 10.0983 19.7562L9.38442 20.4699C9.09174 20.7627 9.09175 21.2376 9.38442 21.5304Z" fill="currentColor"/>
<path d="M14.9879 18.6954C15.1466 19.0777 15.5859 19.2591 15.9684 19.1007C17.7053 18.3811 19.1222 17.0545 19.9538 15.3683C20.7852 13.6821 20.9745 11.7507 20.4879 9.93468C20.0013 8.11861 18.8715 6.54077 17.3083 5.49621C16.2807 4.80962 15.1117 4.38657 13.902 4.24518L14.6168 3.53036C14.9097 3.23752 14.9097 2.76284 14.6168 2.46991C14.3239 2.17724 13.8491 2.17705 13.5563 2.46991L11.5563 4.46991C11.538 4.48809 11.5236 4.50964 11.5075 4.52943C11.5011 4.53726 11.494 4.54472 11.4879 4.55287C11.4646 4.58421 11.4445 4.61722 11.4264 4.65154C11.4219 4.66001 11.4169 4.66824 11.4127 4.67694C11.3979 4.70788 11.3861 4.73984 11.3756 4.77259C11.3706 4.78817 11.365 4.80346 11.361 4.81951C11.3524 4.85414 11.347 4.88915 11.3434 4.92491C11.3418 4.94076 11.3401 4.95665 11.3395 4.97282C11.3392 4.98189 11.3366 4.99098 11.3366 5.00009C11.3366 5.01384 11.3397 5.0275 11.3405 5.04107C11.3415 5.06005 11.3428 5.07955 11.3454 5.09877C11.3459 5.10297 11.3467 5.10716 11.3473 5.11146C11.3505 5.13252 11.3541 5.15334 11.359 5.17395C11.366 5.20353 11.3751 5.23204 11.3854 5.25995C11.3966 5.29017 11.4104 5.31919 11.4254 5.34781C11.4332 5.36257 11.4402 5.37756 11.4489 5.39167C11.4667 5.42074 11.4877 5.44729 11.5094 5.47385C11.5182 5.48452 11.5264 5.49566 11.5358 5.50595C11.543 5.51378 11.5488 5.52287 11.5563 5.53036L13.5563 7.53036C13.8492 7.82308 14.3239 7.82319 14.6168 7.53036C14.9097 7.23752 14.9097 6.76267 14.6168 6.46983L13.903 5.75695C14.8158 5.88989 15.6954 6.22301 16.4743 6.74332C17.735 7.58575 18.6463 8.85881 19.0387 10.3233C19.4311 11.7879 19.2777 13.3454 18.6071 14.7052C17.9364 16.0649 16.7939 17.1348 15.3932 17.715C15.011 17.8737 14.8295 18.313 14.9879 18.6954Z" fill="currentColor"/>
</svg>
