<svg xmlns="http://www.w3.org/2000/svg" width="24" height="24" fill="currentColor" viewBox="0 0 24 24">
  <path fill="currentColor" d="m19.75 11-.013-.484A8.75 8.75 0 1 0 2.89 14.281a.75.75 0 0 0 1.39-.562 7.252 7.252 0 0 1 11.332-8.316A7.25 7.25 0 0 1 18.25 11v3a.75.75 0 0 0 1.5 0v-3Z"/>
  <path fill="currentColor" d="M22.53 11.53a.75.75 0 1 0-1.06-1.06L19 12.94l-2.47-2.47a.75.75 0 1 0-1.06 1.06l3 3a.75.75 0 0 0 1.06 0l3-3Zm-6.948 5.944a.75.75 0 0 0-.052-1.004l-4-4a.75.75 0 0 0-1.06 0l-4 4a.75.75 0 0 0 0 1.06l4 4a.75.75 0 0 0 1.06 0l4-4 .052-.056ZM11 19.939 8.06 17 11 14.06 13.94 17 11 19.94Z"/>
</svg>
