<svg width="24" height="24" viewBox="0 0 24 24" fill="none" xmlns="http://www.w3.org/2000/svg">
<path d="M14.9879 5.30456C15.1466 4.92231 15.5859 4.74092 15.9684 4.89928C17.7053 5.61885 19.1222 6.94551 19.9538 8.63171C20.7852 10.3179 20.9745 12.2493 20.4879 14.0653C20.0013 15.8814 18.8715 17.4592 17.3083 18.5038C16.2807 19.1904 15.1117 19.6134 13.902 19.7548L14.6168 20.4696C14.9097 20.7625 14.9097 21.2372 14.6168 21.5301C14.3239 21.8228 13.8491 21.823 13.5563 21.5301L11.5563 19.5301C11.538 19.5119 11.5236 19.4904 11.5075 19.4706C11.5011 19.4627 11.494 19.4553 11.4879 19.4471C11.4646 19.4158 11.4445 19.3828 11.4264 19.3485C11.4219 19.34 11.4169 19.3318 11.4127 19.3231C11.3979 19.2921 11.3861 19.2602 11.3756 19.2274C11.3706 19.2118 11.365 19.1965 11.361 19.1805C11.3524 19.1459 11.347 19.1108 11.3434 19.0751C11.3418 19.0592 11.3401 19.0433 11.3395 19.0272C11.3392 19.0181 11.3366 19.009 11.3366 18.9999C11.3366 18.9862 11.3397 18.9725 11.3405 18.9589C11.3415 18.9399 11.3428 18.9204 11.3454 18.9012C11.3459 18.897 11.3467 18.8928 11.3473 18.8885C11.3505 18.8675 11.3541 18.8467 11.359 18.826C11.366 18.7965 11.3751 18.768 11.3854 18.7401C11.3966 18.7098 11.4104 18.6808 11.4254 18.6522C11.4332 18.6374 11.4402 18.6224 11.4489 18.6083C11.4667 18.5793 11.4877 18.5527 11.5094 18.5262C11.5182 18.5155 11.5264 18.5043 11.5358 18.494C11.543 18.4862 11.5488 18.4771 11.5563 18.4696L13.5563 16.4696C13.8492 16.1767 14.3239 16.1768 14.6168 16.4696C14.9097 16.7625 14.9097 17.2372 14.6168 17.5301L13.903 18.243C14.8158 18.1101 15.6954 17.777 16.4743 17.2567C17.735 16.4143 18.6463 15.1413 19.0387 13.6766C19.4311 12.2121 19.2777 10.6546 18.6071 9.29479C17.9364 7.93512 16.7939 6.86521 15.3932 6.28503C15.011 6.12626 14.8295 5.68699 14.9879 5.30456Z" fill="black"/>
<path d="M9.38442 2.4696C9.67727 2.17675 10.1521 2.17685 10.445 2.4696L12.445 4.4696C12.4599 4.48451 12.4715 4.50243 12.485 4.51842C12.4956 4.53102 12.5065 4.54325 12.5163 4.55651C12.5358 4.58298 12.5522 4.61089 12.568 4.63952C12.5753 4.65281 12.583 4.66582 12.5895 4.67956C12.6044 4.71092 12.6162 4.7431 12.6266 4.77624C12.6307 4.78922 12.6349 4.80205 12.6383 4.8153C12.6466 4.84775 12.652 4.88043 12.6559 4.91393C12.6581 4.93337 12.6611 4.95274 12.6618 4.97253C12.6621 4.98164 12.6647 4.99071 12.6647 4.99987C12.6647 5.00642 12.6619 5.01287 12.6618 5.0194C12.6611 5.04525 12.6603 5.07133 12.6569 5.09753C12.6558 5.10568 12.6533 5.11389 12.652 5.12194C12.6498 5.13536 12.6481 5.14874 12.6452 5.16198C12.6381 5.19399 12.6277 5.22459 12.6168 5.25475C12.6044 5.2889 12.5892 5.32136 12.5719 5.35338C12.5652 5.36591 12.5588 5.37843 12.5514 5.39049C12.5354 5.41659 12.5169 5.44062 12.4977 5.46471C12.4861 5.47926 12.4752 5.49407 12.4625 5.50768C12.4562 5.51456 12.4516 5.52349 12.445 5.53014L10.445 7.53014C10.1521 7.82286 9.67726 7.82298 9.38442 7.53014C9.09174 7.2373 9.09175 6.76245 9.38442 6.4696L10.0973 5.75573C9.18481 5.88881 8.30554 6.22283 7.527 6.74303C6.2663 7.58545 5.35498 8.85852 4.96255 10.3231C4.57032 11.7876 4.72365 13.3452 5.39419 14.7049C6.06484 16.0646 7.2074 17.1345 8.60805 17.7147C8.99046 17.8734 9.17276 18.3126 9.0143 18.6952C8.85558 19.0774 8.41629 19.2588 8.03384 19.1005C6.29684 18.381 4.88009 17.0542 4.04848 15.368C3.21701 13.6818 3.02776 11.7504 3.5143 9.93444C4.00096 8.11837 5.13072 6.54053 6.69399 5.49596C7.72107 4.80972 8.88916 4.3855 10.0983 4.24401L9.38442 3.53014C9.09174 3.2373 9.09175 2.76245 9.38442 2.4696Z" fill="currentColor"/>
</svg>
