<svg xmlns="http://www.w3.org/2000/svg" width="24" height="24" fill="currentColor" viewBox="0 0 24 24">
  <path fill="currentColor" d="m4.25 11 .013-.484a8.75 8.75 0 1 1 16.847 3.765.75.75 0 0 1-1.39-.562A7.251 7.251 0 0 0 8.388 5.403 7.25 7.25 0 0 0 5.75 11v3a.75.75 0 0 1-1.5 0v-3Z"/>
  <path fill="currentColor" d="M1.47 11.53a.75.75 0 1 1 1.06-1.06L5 12.94l2.47-2.47a.75.75 0 1 1 1.06 1.06l-3 3a.75.75 0 0 1-1.06 0l-3-3Zm6.948 5.944a.75.75 0 0 1 .052-1.004l4-4a.75.75 0 0 1 1.06 0l4 4a.75.75 0 0 1 0 1.06l-4 4a.75.75 0 0 1-1.06 0l-4-4-.052-.056ZM13 19.939 15.94 17 13 14.06 10.06 17 13 19.94Z"/>
</svg>
