<svg width="24" height="24" viewBox="0 0 24 24" fill="none" xmlns="http://www.w3.org/2000/svg">
<path d="M20.7763 5.23293L17.5764 2.2969L17.5104 2.26391C17.2795 2.09897 17.0156 2 16.7847 2H5.37045C3.98491 2 2.86328 3.12163 2.86328 4.50717V19.4182C2.86328 20.8038 3.98491 21.9254 5.37045 21.9254H18.6321C20.0176 21.9254 21.1392 20.8038 21.1392 19.4182V6.09064C21.1392 5.79374 21.0403 5.49684 20.7763 5.23293ZM14.6074 3.5175V5.39787H7.71267V3.5175H14.6074ZM8.5374 20.5069V14.4039H15.4651V20.4739H8.5374V20.5069ZM19.6547 19.4512C19.6547 20.012 19.1929 20.4739 18.6321 20.4739H16.9496V14.107C16.9496 13.4802 16.4218 12.9524 15.795 12.9524H8.20751C7.58072 12.9524 7.05289 13.4802 7.05289 14.107V20.5069H5.37045C4.80964 20.5069 4.34779 20.045 4.34779 19.4842V4.54016C4.34779 3.97934 4.80964 3.5175 5.37045 3.5175H6.22817V5.72776C6.22817 6.35456 6.75599 6.88238 7.38278 6.88238H14.9373C15.5641 6.88238 16.0919 6.35456 16.0919 5.72776V3.5175H16.6857L19.6547 6.25559V19.4512V19.4512Z" fill="currentColor"/>
<path d="M13.3545 15.459H10.6494C10.2535 15.459 9.89062 15.7889 9.89062 16.2177C9.89062 16.6466 10.2205 16.9765 10.6494 16.9765H13.3545C13.7503 16.9765 14.1132 16.6466 14.1132 16.2177C14.1132 15.7889 13.7503 15.459 13.3545 15.459Z" fill="currentColor"/>
<path d="M13.3545 17.9668H10.6494C10.2535 17.9668 9.89062 18.2967 9.89062 18.7255C9.89062 19.1544 10.2205 19.4843 10.6494 19.4843H13.3545C13.7503 19.4843 14.1132 19.1544 14.1132 18.7255C14.1132 18.2967 13.7503 17.9668 13.3545 17.9668Z" fill="currentColor"/>
</svg>
