<svg width="24" height="24" viewBox="0 0 24 24" fill="none" xmlns="http://www.w3.org/2000/svg">
<path d="M13.7508 6C13.7508 5.30964 13.1912 4.75 12.5008 4.75H11.5008C10.8105 4.75006 10.2508 5.30968 10.2508 6C10.2508 7.31942 8.82227 8.14413 7.67954 7.48438C7.08171 7.13943 6.31763 7.34461 5.97251 7.94238L5.47251 8.80762C5.12737 9.40541 5.33184 10.1704 5.92954 10.5156C7.0723 11.1754 7.07224 12.8246 5.92954 13.4844C5.33185 13.8296 5.12737 14.5946 5.47251 15.1924L5.97251 16.0576C6.31763 16.6554 7.08172 16.8606 7.67954 16.5156C8.82232 15.8558 10.2508 16.6806 10.2508 18C10.2508 18.6903 10.8105 19.2499 11.5008 19.25H12.5008C13.1912 19.25 13.7508 18.6904 13.7508 18C13.7508 16.6804 15.1794 15.8559 16.3221 16.5156C16.92 16.8608 17.6849 16.6555 18.0301 16.0576L18.5301 15.1924C18.8753 14.5945 18.67 13.8296 18.0721 13.4844C16.9295 12.8246 16.9295 11.1754 18.0721 10.5156C18.67 10.1704 18.8753 9.40548 18.5301 8.80762L18.0301 7.94238C17.6849 7.34452 16.92 7.1392 16.3221 7.48438C15.1795 8.14407 13.7508 7.31961 13.7508 6ZM13.4325 12C13.4325 11.2092 12.7916 10.5684 12.0008 10.5684C11.2101 10.5685 10.5692 11.2093 10.5692 12C10.5692 12.7907 11.2102 13.4315 12.0008 13.4316C12.7916 13.4316 13.4324 12.7907 13.4325 12ZM14.9325 12C14.9324 13.6192 13.62 14.9316 12.0008 14.9316C10.3817 14.9315 9.06922 13.6191 9.06919 12C9.06919 10.3809 10.3817 9.06845 12.0008 9.06836C13.62 9.06836 14.9325 10.3808 14.9325 12ZM15.2508 6C15.2508 6.16469 15.4293 6.26789 15.5721 6.18555C16.8874 5.42616 18.5696 5.87708 19.329 7.19238L19.829 8.05762C20.5883 9.37292 20.1374 11.0551 18.8221 11.8145C18.6794 11.8968 18.6794 12.1031 18.8221 12.1855C20.1374 12.9449 20.5883 14.6271 19.829 15.9424L19.329 16.8076C18.5696 18.1229 16.8874 18.5738 15.5721 17.8145C15.4293 17.7321 15.2508 17.8352 15.2508 18C15.2508 19.5188 14.0196 20.75 12.5008 20.75H11.5008C9.9821 20.7499 8.75083 19.5187 8.75083 18C8.75083 17.8351 8.57215 17.7321 8.42954 17.8145C7.11426 18.5737 5.43303 18.1229 4.67368 16.8076L4.17368 15.9424C3.41435 14.6272 3.86448 12.945 5.17954 12.1855C5.3223 12.1031 5.32224 11.8968 5.17954 11.8145C3.86447 11.055 3.41435 9.37282 4.17368 8.05762L4.67368 7.19238C5.43303 5.87714 7.11426 5.42632 8.42954 6.18555C8.57219 6.26791 8.75083 6.16481 8.75083 6C8.75083 4.48126 9.9821 3.25006 11.5008 3.25H12.5008C14.0196 3.25 15.2508 4.48122 15.2508 6Z" fill="currentColor"/>
</svg>
