<svg width="24" height="24" viewBox="0 0 24 24" fill="none" xmlns="http://www.w3.org/2000/svg">
<path d="M18 7C19.1046 7 20 6.10457 20 5C20 3.89543 19.1046 3 18 3C16.8954 3 16 3.89543 16 5C16 5.08652 16.0041 5.17208 16.0122 5.25641L8.76313 9.2007C8.34156 8.77524 7.7594 8.5 7.11111 8.5C5.95063 8.5 5.00926 9.44772 5.00926 10.6154C5.00926 11.7831 5.95063 12.7308 7.11111 12.7308C7.7594 12.7308 8.34156 12.4555 8.76313 12.0301L16.0122 15.9744C16.0041 16.0587 16 16.1443 16 16.2308C16 17.3985 16.8954 18.3462 18 18.3462C19.1046 18.3462 20 17.3985 20 16.2308C20 15.0631 19.1046 14.1154 18 14.1154C17.3517 14.1154 16.7696 14.3906 16.348 14.8161L9.09891 10.8718C9.10705 10.7875 9.11111 10.7019 9.11111 10.6154C9.11111 10.5289 9.10705 10.4433 9.09891 10.359L16.348 6.41465C16.7696 6.84011 17.3517 7.11539 18 7.11539V7Z" fill="currentColor"/>
</svg>
