<svg width="24" height="24" viewBox="0 0 24 24" fill="none" xmlns="http://www.w3.org/2000/svg">
<path d="M6.66517 8.43584C6.66517 5.6713 8.75333 3.43019 11.3292 3.43019C13.9051 3.43019 15.9932 5.6713 15.9932 8.43584C15.9932 8.51279 15.9916 8.58933 15.9884 8.66543L17.3095 8.91374C17.3203 8.75595 17.3258 8.59659 17.3258 8.43584C17.3258 4.88143 14.6411 2 11.3292 2C8.01736 2 5.33258 4.88143 5.33258 8.43584C5.33258 9.36284 5.51519 10.2441 5.84391 11.0403C6.2543 10.9254 6.67446 10.8637 7.09639 10.8504C7.14478 10.8488 7.19307 10.8479 7.24125 10.8477C6.87408 10.1323 6.66517 9.31027 6.66517 8.43584ZM11.3293 4.86037C10.2254 4.86037 9.33044 5.82085 9.33044 7.00566V13.086C8.5519 12.8029 7.6739 12.6342 6.84347 12.7305C6.2334 12.8013 5.62376 13.0188 5.10974 13.468C4.59098 13.9212 4.21638 14.5698 4.0199 15.4133C3.97326 15.6135 4.00948 15.8256 4.11925 15.995C4.22901 16.1644 4.40162 16.2747 4.59272 16.2975C8.04666 16.7094 9.80929 18.7298 10.6596 20.1988C11.2988 21.3031 12.5391 22.2118 13.9055 21.9567L15.9268 21.5794C17.0976 21.3609 18.0713 20.4895 18.4821 19.2927L19.7929 15.4737C20.5113 13.3808 19.2885 11.1006 17.2415 10.7159L13.3282 9.98038V7.00566C13.3282 5.82085 12.4333 4.86037 11.3293 4.86037ZM10.663 7.00566C10.663 6.61072 10.9613 6.29056 11.3293 6.29056C11.6973 6.29056 11.9956 6.61072 11.9956 7.00566V10.5811C11.9956 10.9285 12.2282 11.2256 12.547 11.2855L17.0116 12.1246C18.2398 12.3555 18.9735 13.7236 18.5425 14.9793L17.2317 18.7984C16.9852 19.5165 16.401 20.0393 15.6985 20.1704L13.6772 20.5477C13.0087 20.6725 12.2424 20.223 11.7916 19.4441C10.8576 17.8305 9.00176 15.6964 5.59683 15.0125C5.70298 14.8302 5.82365 14.6884 5.95108 14.5771C6.22136 14.3409 6.56954 14.2009 6.98669 14.1525C7.84245 14.0532 8.87671 14.3551 9.69876 14.7962C9.9053 14.907 10.1506 14.8952 10.347 14.7649C10.5435 14.6346 10.663 14.4044 10.663 14.1566V7.00566Z" fill="currentColor"/>
</svg>
