<svg width="24" height="24" viewBox="0 0 24 24" fill="none" xmlns="http://www.w3.org/2000/svg">
<path d="M3.25 17V15.4287C3.25 15.0145 3.58579 14.6787 4 14.6787C4.41421 14.6787 4.75 15.0145 4.75 15.4287V17C4.75 18.2426 5.75736 19.25 7 19.25H17C18.2426 19.25 19.25 18.2426 19.25 17V15.4287C19.25 15.0145 19.5858 14.6787 20 14.6787C20.4142 14.6787 20.75 15.0145 20.75 15.4287V17C20.75 19.0711 19.0711 20.75 17 20.75H7C4.92893 20.75 3.25 19.0711 3.25 17ZM11.25 15.4287V5.80957L9.10059 7.95898C8.80771 8.25178 8.33291 8.25178 8.04004 7.95898C7.74717 7.66611 7.74722 7.19134 8.04004 6.89844L11.999 2.93945L12.5244 3.46582C12.5277 3.46905 12.5309 3.47229 12.5342 3.47559L15.958 6.89844C16.2507 7.19132 16.2508 7.66616 15.958 7.95898C15.6652 8.25181 15.1904 8.25167 14.8975 7.95898L12.75 5.81152V15.4287C12.7499 15.8429 12.4142 16.1787 12 16.1787C11.5858 16.1787 11.2501 15.8429 11.25 15.4287Z" fill="currentColor"/>
</svg>
