<svg width="24" height="24" viewBox="0 0 24 24" fill="none" xmlns="http://www.w3.org/2000/svg">
<path fill-rule="evenodd" clip-rule="evenodd" d="M20.1816 2.25C21.0477 2.25 21.75 2.95228 21.75 3.81836V20.1816C21.75 21.0477 21.0477 21.75 20.1816 21.75H3.81836C2.95228 21.75 2.25 21.0477 2.25 20.1816V3.81836C2.25 2.95228 2.95228 2.25 3.81836 2.25H20.1816ZM3.75 15.75V20.1816C3.75 20.2193 3.7807 20.25 3.81836 20.25H8.25V15.75H3.75ZM9.75 15.75V20.25H14.25V15.75H9.75ZM15.75 15.75V20.25H20.1816C20.2193 20.25 20.25 20.2193 20.25 20.1816V15.75H15.75ZM3.75 14.25H8.25V9.75H3.75V14.25ZM9.75 14.25H14.25V9.75H9.75V14.25ZM15.75 14.25H20.25V9.75H15.75V14.25ZM3.81836 3.75C3.7807 3.75 3.75 3.7807 3.75 3.81836V8.25H8.25V3.75H3.81836ZM9.75 8.25H14.25V3.75H9.75V8.25ZM15.75 8.25H20.25V3.81836C20.25 3.7807 20.2193 3.75 20.1816 3.75H15.75V8.25Z" fill="currentColor"/>
</svg>
