<svg width="24" height="24" viewBox="0 0 24 24" fill="none" xmlns="http://www.w3.org/2000/svg">
<path d="M3.75 20.1816C3.75 20.2193 3.7807 20.25 3.81836 20.25H5.86328V21.75H3.81836C2.95228 21.75 2.25 21.0477 2.25 20.1816V18.1367H3.75V20.1816Z" fill="currentColor"/>
<path d="M12.75 20.25H14.0459V21.75H9.9541V20.25H11.25V18.75H12.75V20.25Z" fill="currentColor"/>
<path d="M21.75 20.1816C21.75 21.0477 21.0477 21.75 20.1816 21.75H18.1367V20.25H20.1816C20.2193 20.25 20.25 20.2193 20.25 20.1816V18.1367H21.75V20.1816Z" fill="currentColor"/>
<path d="M12.75 11.2451H14.2539V12.7451H12.75V14.25H11.25V12.7451H9.75391V11.2451H11.25V9.75H12.75V11.2451Z" fill="currentColor"/>
<path d="M3.75 11.2451H5.25391V12.7451H3.75V14.0459H2.25V9.9541H3.75V11.2451Z" fill="currentColor"/>
<path d="M21.75 14.0459H20.25V12.7451H18.7539V11.2451H20.25V9.9541H21.75V14.0459Z" fill="currentColor"/>
<path d="M5.86328 3.75H3.81836C3.7807 3.75 3.75 3.7807 3.75 3.81836V5.86328H2.25V3.81836C2.25 2.95228 2.95228 2.25 3.81836 2.25H5.86328V3.75Z" fill="currentColor"/>
<path d="M20.1816 2.25C21.0477 2.25 21.75 2.95228 21.75 3.81836V5.86328H20.25V3.81836C20.25 3.7807 20.2193 3.75 20.1816 3.75H18.1367V2.25H20.1816Z" fill="currentColor"/>
<path d="M14.0459 3.75H12.75V5.25H11.25V3.75H9.9541V2.25H14.0459V3.75Z" fill="currentColor"/>
</svg>
