<svg width="24" height="24" viewBox="0 0 24 24" fill="none" xmlns="http://www.w3.org/2000/svg">
<path d="M3.75 20.1816C3.75 20.2193 3.7807 20.25 3.81836 20.25H7.90918V21.75H3.81836C2.95228 21.75 2.25 21.0477 2.25 20.1816V16.0908H3.75V20.1816Z" fill="currentColor"/>
<path d="M21.75 20.1816C21.75 21.0477 21.0477 21.75 20.1816 21.75H16.0908V20.25H20.1816C20.2193 20.25 20.25 20.2193 20.25 20.1816V16.0908H21.75V20.1816Z" fill="currentColor"/>
<path d="M7.90918 3.75H3.81836C3.7807 3.75 3.75 3.7807 3.75 3.81836V7.90918H2.25V3.81836C2.25 2.95228 2.95228 2.25 3.81836 2.25H7.90918V3.75Z" fill="currentColor"/>
<path d="M20.1816 2.25C21.0477 2.25 21.75 2.95228 21.75 3.81836V7.90918H20.25V3.81836C20.25 3.7807 20.2193 3.75 20.1816 3.75H16.0908V2.25H20.1816Z" fill="currentColor"/>
</svg>
