<svg width="24" height="24" viewBox="0 0 24 24" fill="none" xmlns="http://www.w3.org/2000/svg">
<path d="M19.6651 15.3293C20.0355 15.1445 20.4859 15.2949 20.671 15.6652C20.8562 16.0357 20.7055 16.4859 20.3351 16.6711L13.6769 20.0002C12.6212 20.528 11.379 20.528 10.3233 20.0002L3.66514 16.6711C3.29469 16.4859 3.14402 16.0357 3.32921 15.6652C3.51436 15.2949 3.96468 15.1445 4.33506 15.3293L10.9942 18.6594C11.6274 18.9758 12.3728 18.9758 13.006 18.6594L19.6651 15.3293ZM19.6651 11.3293C20.0355 11.1445 20.4859 11.2949 20.671 11.6652C20.8562 12.0357 20.7055 12.4859 20.3351 12.6711L13.6769 16.0002C12.6212 16.528 11.379 16.528 10.3233 16.0002L3.66514 12.6711C3.29468 12.4859 3.14402 12.0357 3.32921 11.6652C3.51436 11.2949 3.96468 11.1445 4.33506 11.3293L10.9942 14.6594C11.6274 14.9758 12.3728 14.9758 13.006 14.6594L19.6651 11.3293ZM10.3233 4.0002C11.3789 3.47259 12.6213 3.47259 13.6769 4.0002L20.3351 7.3293C20.589 7.45628 20.75 7.71627 20.7501 8.0002C20.7501 8.28427 20.5892 8.54405 20.3351 8.67109L13.6769 12.0002C12.6212 12.528 11.379 12.528 10.3233 12.0002L3.66514 8.67109C3.41105 8.54405 3.2501 8.28427 3.2501 8.0002C3.25025 7.71627 3.41117 7.45628 3.66514 7.3293L10.3233 4.0002ZM13.006 5.34199C12.3727 5.02553 11.6275 5.02553 10.9942 5.34199L5.67686 8.0002L10.9942 10.6594C11.6274 10.9758 12.3728 10.9758 13.006 10.6594L18.3233 8.0002L13.006 5.34199Z" fill="currentColor"/>
</svg>
