<svg width="24" height="24" viewBox="0 0 24 24" fill="none" xmlns="http://www.w3.org/2000/svg">
<path d="M19.25 7C19.25 5.75736 18.2426 4.75 17 4.75H7C5.75736 4.75 4.75 5.75736 4.75 7V17C4.75 18.2426 5.75736 19.25 7 19.25H17C18.2426 19.25 19.25 18.2426 19.25 17V7ZM9.47266 8.55566C9.47266 8.41774 9.36053 8.3059 9.22266 8.30566H8.55566C8.41759 8.30566 8.30566 8.41759 8.30566 8.55566V14.5557C8.30572 14.6937 8.41763 14.8057 8.55566 14.8057H9.22266C9.36049 14.8054 9.4726 14.6935 9.47266 14.5557V8.55566ZM15.6943 8.55566C15.6943 8.41759 15.5824 8.30566 15.4443 8.30566H14.7773C14.6395 8.3059 14.5273 8.41774 14.5273 8.55566V12C14.5273 12.1379 14.6395 12.2498 14.7773 12.25H15.4443C15.5824 12.25 15.6943 12.1381 15.6943 12V8.55566ZM10.9727 14.5557C10.9726 15.522 10.1889 16.3054 9.22266 16.3057H8.55566C7.5892 16.3057 6.80572 15.5221 6.80566 14.5557V8.55566C6.80566 7.58917 7.58917 6.80566 8.55566 6.80566H9.22266C10.189 6.8059 10.9727 7.58931 10.9727 8.55566V14.5557ZM17.1943 12C17.1943 12.9665 16.4108 13.75 15.4443 13.75H14.7773C13.811 13.7498 13.0273 12.9664 13.0273 12V8.55566C13.0273 7.58931 13.811 6.8059 14.7773 6.80566H15.4443C16.4108 6.80566 17.1943 7.58917 17.1943 8.55566V12ZM20.75 17C20.75 19.0711 19.0711 20.75 17 20.75H7C4.92893 20.75 3.25 19.0711 3.25 17V7C3.25 4.92893 4.92894 3.25 7 3.25H17C19.0711 3.25 20.75 4.92893 20.75 7V17Z" fill="currentColor"/>
</svg>
