<svg width="24" height="24" viewBox="0 0 24 24" fill="none" xmlns="http://www.w3.org/2000/svg">
<path d="M4.00879 16.917C4.423 16.917 4.75879 17.2528 4.75879 17.667C4.75861 18.0811 4.42289 18.417 4.00879 18.417H4C3.5859 18.417 3.25018 18.0811 3.25 17.667C3.25 17.2528 3.58579 16.917 4 16.917H4.00879ZM20 16.917C20.4142 16.917 20.75 17.2528 20.75 17.667C20.7498 18.0811 20.4141 18.417 20 18.417H8.44434C8.03028 18.4169 7.69451 18.081 7.69434 17.667C7.69434 17.2528 8.03017 16.9171 8.44434 16.917H20ZM4.00879 11.583C4.42289 11.583 4.75861 11.9189 4.75879 12.333C4.75879 12.7472 4.423 13.083 4.00879 13.083H4C3.58579 13.083 3.25 12.7472 3.25 12.333C3.25018 11.9189 3.58589 11.583 4 11.583H4.00879ZM20 11.583C20.4141 11.583 20.7498 11.9189 20.75 12.333C20.75 12.7472 20.4142 13.083 20 13.083H8.44434C8.03017 13.0829 7.69434 12.7472 7.69434 12.333C7.69451 11.919 8.03028 11.5831 8.44434 11.583H20ZM4.00879 6.25C4.423 6.25 4.75879 6.58579 4.75879 7C4.75879 7.41421 4.423 7.75 4.00879 7.75H4C3.58579 7.75 3.25 7.41421 3.25 7C3.25 6.58579 3.58579 6.25 4 6.25H4.00879ZM20 6.25C20.4142 6.25 20.75 6.58579 20.75 7C20.75 7.41421 20.4142 7.75 20 7.75H8.44434C8.03017 7.74994 7.69434 7.41418 7.69434 7C7.69434 6.58582 8.03017 6.25006 8.44434 6.25H20Z" fill="currentColor"/>
</svg>
