<svg width="24" height="24" viewBox="0 0 24 24" fill="none" xmlns="http://www.w3.org/2000/svg">
<path d="M4.61523 10.25C5.36927 10.25 5.98039 10.8612 5.98047 11.6152C5.98047 12.3693 5.36932 12.9805 4.61523 12.9805C3.86122 12.9804 3.25 12.3693 3.25 11.6152C3.25008 10.8613 3.86127 10.2501 4.61523 10.25Z" fill="currentColor"/>
<path d="M12 10.25C12.754 10.25 13.3652 10.8612 13.3652 11.6152C13.3652 12.3693 12.7541 12.9805 12 12.9805C11.293 12.9805 10.7115 12.4434 10.6416 11.7549L10.6348 11.6152L10.6416 11.4756C10.7116 10.7872 11.2931 10.25 12 10.25Z" fill="currentColor"/>
<path d="M19.5244 10.2568C20.2128 10.3268 20.7499 10.9084 20.75 11.6152C20.75 12.3693 20.1388 12.9804 19.3848 12.9805C18.6778 12.9805 18.0962 12.4434 18.0264 11.7549L18.0195 11.6152L18.0264 11.4756C18.0964 10.7872 18.6779 10.25 19.3848 10.25L19.5244 10.2568Z" fill="currentColor"/>
</svg>
