<svg width="24" height="24" viewBox="0 0 24 24" fill="none" xmlns="http://www.w3.org/2000/svg">
<path d="M12 17.25C12.6904 17.25 13.25 17.8096 13.25 18.5C13.25 19.1904 12.6904 19.75 12 19.75C11.3096 19.75 10.75 19.1904 10.75 18.5C10.75 17.8096 11.3096 17.25 12 17.25Z" fill="currentColor"/>
<path d="M12 11.25C12.6904 11.25 13.25 11.8096 13.25 12.5C13.25 13.1904 12.6904 13.75 12 13.75C11.3096 13.75 10.75 13.1904 10.75 12.5C10.75 11.8096 11.3096 11.25 12 11.25Z" fill="currentColor"/>
<path d="M12 5.25C12.6904 5.25 13.25 5.80964 13.25 6.5C13.25 7.19036 12.6904 7.75 12 7.75C11.3096 7.75 10.75 7.19036 10.75 6.5C10.75 5.80964 11.3096 5.25 12 5.25Z" fill="currentColor"/>
</svg>
