<svg width="128" height="128" viewBox="0 0 128 128" fill="none" xmlns="http://www.w3.org/2000/svg">
<path d="M66.2846 14.7119C66.4295 14.7139 67.1137 15.298 67.8047 16.0102C68.4952 16.7218 69.0606 17.3927 69.0616 17.5019C69.0611 17.6113 68.7992 18.2936 68.4792 19.0185C68.1586 19.7445 67.1157 21.7996 66.1613 23.5858C65.2069 25.372 64.1136 27.4103 63.7313 28.1153C63.349 28.8203 62.1176 31.0828 60.9952 33.1428C59.8727 35.2029 58.1175 38.4409 57.0949 40.3383C56.0724 42.2357 54.706 44.764 54.0587 45.9568C53.4115 47.1494 52.6696 48.5248 52.4101 49.0127C52.1502 49.5013 50.2837 53.0054 48.2618 56.7999C44.5859 63.6991 44.5853 63.6999 44.681 64.6854C44.7943 65.8527 44.1037 67.4126 45.7248 68.2748C47.3466 69.1351 53.0676 59.2057 54.6255 58.4329C56.9948 57.258 57.6777 56.5298 59.7419 54.7724C60.6479 54.0013 62.2868 52.5105 63.3836 51.4596C64.4804 50.4084 66.3147 48.4874 67.4592 47.1908C68.6036 45.8943 69.9301 44.2442 70.407 43.5243C70.8839 42.8044 71.3525 42.2138 71.4479 42.2116C72.1625 42.1944 74.0126 42.9735 74.5183 43.5484C74.6091 43.6531 74.4965 44.1811 74.2434 44.8316C74.0065 45.4404 73.3888 46.5402 72.8713 47.2754C72.3538 48.011 71.3846 49.5443 70.7176 50.6827C70.0506 51.8213 68.8183 54.0839 67.9792 55.7102C67.14 57.3368 65.6059 60.5401 64.57 62.8287C63.5339 65.1174 62.3268 67.9562 61.8874 69.137C61.448 70.3179 60.9007 71.9056 60.6713 72.6645C60.4417 73.4235 60.1429 74.4657 60.0071 74.9807C59.8716 75.4955 59.8275 75.9167 59.9091 75.9169C59.9913 75.9156 60.463 75.3307 60.9573 74.6157C61.4522 73.8997 62.3284 72.4577 62.9044 71.4116C63.4774 70.3709 63.9618 69.497 63.9846 69.462C64.0026 69.4356 64.7067 69.6779 65.5484 70.0015C66.39 70.3249 67.1088 70.6241 67.1457 70.6658C67.1811 70.7104 67.0136 71.3417 66.772 72.0713C66.5299 72.8029 66.0466 73.9356 65.6978 74.5885C65.3488 75.2415 64.5027 76.6283 63.8175 77.6701C63.1321 78.712 62.1301 80.0337 61.5917 80.6082C61.0533 81.1822 60.3373 81.7837 59.9997 81.9442C59.4216 82.2188 59.293 82.2008 57.7866 81.6336C56.8951 81.2978 56.0542 80.8501 55.884 80.621C55.6811 80.3466 55.58 79.8745 55.5801 79.1973C55.5801 78.6403 55.6952 77.5631 55.835 76.8041C55.9749 76.0452 56.3557 74.5817 56.6811 73.5517C57.453 71.109 58.2607 68.6872 59.155 66.298C59.5729 65.1822 60.4649 62.9758 61.1371 61.3952C61.8067 59.8203 62.3202 58.4909 62.2819 58.4329C62.239 58.3844 61.2519 59.0701 60.0881 59.9571C56.3473 62.8077 48.5107 74.9924 44.681 73.557C43.2867 73.034 42.0407 71.8957 41.8245 70.0015C38.945 70.0287 33.0209 87.2155 32.2455 89.8213C31.7126 91.6125 23.9507 114.59 23.4748 116.325C22.9989 118.06 22.3422 120.677 22.015 122.141C21.6879 123.604 21.3238 125.512 21.2059 126.379C21.0879 127.247 20.9762 127.975 20.9578 127.997C20.937 128.019 20.159 127.908 19.2276 127.749C18.2959 127.59 17.4702 127.503 17.3904 127.557C17.3127 127.612 16.694 127.072 16.016 126.359C14.9869 125.276 14.7834 124.958 14.785 124.439C14.786 124.097 14.8984 123.34 15.0346 122.757C15.1711 122.175 15.613 120.8 16.0167 119.701C19.1891 111.076 21.2055 105.105 25.9174 93.3496C27.6844 88.9415 29.8189 84.6272 31.2611 80.0626C31.5694 79.0865 32.5495 76.159 33.4393 73.557C34.3294 70.9549 35.3621 67.9827 35.7342 66.9524C36.1064 65.9222 37.0379 63.4386 37.8046 61.433C38.5716 59.4272 39.8319 56.1937 40.6047 54.2473C41.3751 52.3068 42.0058 50.6905 42.0095 50.6487C42.01 50.6164 42.0916 50.5898 42.1915 50.5898C42.2927 50.5903 43.0727 50.8672 43.9254 51.2057C45.3829 51.7843 45.4781 51.8558 45.4781 52.377C45.4782 52.6822 45.5502 52.9835 45.6386 53.0457C45.729 53.1039 46.4966 51.8459 47.3458 50.2475C48.1961 48.6466 49.4632 46.2725 50.1614 44.9714C50.8597 43.6702 52.5222 40.6092 53.8559 38.1696C55.1894 35.7303 56.5859 33.1581 56.959 32.4529C57.3318 31.7482 58.102 30.3288 58.6699 29.2987C59.2379 28.2687 60.0204 26.8199 60.409 26.0795C60.7967 25.3411 61.0778 24.6946 61.0345 24.6407C60.9898 24.5897 60.8456 24.6635 60.7144 24.804C60.583 24.9448 60.008 25.5024 59.4366 26.0433C58.865 26.5842 58.3112 27.117 58.2063 27.2266C58.1007 27.3367 57.2469 28.1802 56.3089 29.1015C55.3707 30.0231 53.8568 31.5203 52.945 32.4287C52.0331 33.3369 51.0137 34.3578 50.6799 34.6972C50.3458 35.037 49.2148 36.1567 48.1659 37.1857C47.117 38.2149 45.5897 39.7223 44.7724 40.5356C43.9551 41.3487 42.6286 42.6498 41.8245 43.4268C41.0204 44.2037 39.5695 45.579 38.601 46.4827C37.6326 47.3864 36.0722 48.7993 35.1331 49.6225C34.1941 50.4458 32.8012 51.611 32.0382 52.2115C31.2754 52.812 30.1782 53.5724 29.6 53.9019C29.022 54.2313 28.2719 54.5596 27.9337 54.6319C27.3559 54.755 27.2356 54.6785 25.9174 53.3495C24.9798 52.4041 24.4799 51.7476 24.4056 51.3651C24.3421 51.0371 24.4186 50.3096 24.5854 49.6565C24.7452 49.0312 25.2329 47.6326 25.6693 46.5485C26.1056 45.4643 26.9677 43.5128 27.5845 42.2116C28.2011 40.9106 29.6807 37.8942 30.8718 35.5088C32.0629 33.1236 33.2893 30.6835 33.5976 30.0869C33.9057 29.4906 34.4736 28.381 34.859 27.6211C35.2443 26.861 35.8093 25.7217 36.1145 25.0896C36.5506 24.1861 36.6001 23.9838 36.3478 24.1435C36.1713 24.2555 35.6254 24.6851 35.1347 25.0979C34.644 25.511 32.233 27.5782 29.7776 29.6924C27.3219 31.8068 25.1091 33.7115 24.8603 33.9242C24.6104 34.1379 22.5343 35.9471 20.2461 37.9459C17.9572 39.9451 15.5775 42.0382 14.9574 42.597C14.3374 43.1558 12.0829 45.2052 9.94721 47.1507C7.81164 49.0965 5.82122 50.9063 5.52468 51.1724C5.22819 51.4387 4.36083 52.2945 3.59759 53.0745C2.20988 54.4926 2.20961 54.4928 0.953578 53.1825C-0.303084 51.8716 -0.303143 51.8714 0.867401 50.4916C1.51092 49.7328 2.3139 48.8382 2.65188 48.5034C2.98968 48.1688 3.77067 47.4144 4.38731 46.8273C5.00378 46.2402 5.89837 45.4049 6.37457 44.9714C6.85052 44.5379 7.39606 44.0371 7.58699 43.8575C7.77772 43.6781 8.55799 42.9727 9.32093 42.2902C10.0839 41.6079 11.645 40.2064 12.7895 39.1761C13.934 38.1457 15.2996 36.9238 15.8243 36.4602C16.3489 35.9969 18.1824 34.3921 19.8992 32.895C21.6156 31.3981 23.2246 29.9993 23.4748 29.7854C23.7243 29.5718 25.9388 27.6672 28.395 25.5528C30.8514 23.4385 33.9247 20.8166 35.2245 19.7266C36.5241 18.6367 38.123 17.3282 38.7779 16.8188C39.4328 16.3093 40.1387 15.8931 40.3461 15.8931C40.5689 15.894 41.2398 16.4297 41.982 17.1996C43.1554 18.4172 43.2332 18.5477 43.1238 19.1213C43.0592 19.46 42.7054 20.4194 42.3379 21.253C41.9698 22.0872 40.135 25.8131 38.26 29.533C36.385 33.2529 33.9994 38.0266 32.9587 40.1411C31.9179 42.2554 30.5982 45.0818 30.0264 46.4215C29.4548 47.761 29.0101 48.9366 29.0384 49.0339C29.0685 49.1293 29.7158 48.7436 30.4781 48.1754C31.2417 47.6061 32.842 46.2751 34.0336 45.2185C35.2253 44.1618 36.6016 42.92 37.0922 42.4588C37.5828 41.9974 38.4022 41.2327 38.913 40.76C39.4238 40.2873 40.2318 39.5197 40.7087 39.0537C41.1855 38.5877 42.2091 37.5896 42.9827 36.8358C43.7562 36.082 44.5437 35.2974 44.7322 35.0925C44.9211 34.8875 45.8046 34.0101 46.6965 33.1428C47.5884 32.2755 48.4428 31.4322 48.5953 31.2695C48.7478 31.1069 49.1818 30.6736 49.5596 30.3068C49.9373 29.9397 50.7118 29.186 51.2802 28.6314C51.8488 28.0767 53.0583 26.8689 53.968 25.9473C54.8778 25.0258 56.0802 23.8281 56.6403 23.2858C57.2002 22.7437 57.9889 21.9893 58.3928 21.6097C58.7968 21.2302 60.251 19.8488 61.6237 18.5402C62.9965 17.2318 64.5482 15.8351 65.0715 15.4359C65.5942 15.0372 66.1397 14.7113 66.2846 14.7119Z" fill="currentColor"/>
<path d="M87.2064 48.1082C88.8109 46.5234 88.811 46.5237 90.1542 47.218C90.8932 47.6 91.6057 48.0333 91.7366 48.1807C91.9377 48.4076 91.8963 48.6255 91.4669 49.5999C91.1877 50.2336 89.9567 52.5703 88.7315 54.7928C87.5064 57.0156 86.3693 59.1006 86.2049 59.4259C86.0404 59.7514 85.546 60.6766 85.1062 61.4821C84.6662 62.2875 84.341 62.9856 84.3826 63.0335C84.429 63.0754 85.4674 61.9335 86.6937 60.4914C88.9284 57.8631 88.9287 57.8633 90.4736 58.6657C91.6782 59.2915 92.0306 59.5658 92.0761 59.9133C92.1305 60.331 92.1901 60.351 93.03 60.2216C93.5228 60.1459 94.8502 60.0087 95.9793 59.9171C97.7524 59.7732 98.1243 59.6807 98.7065 59.243C99.0772 58.9641 99.4509 58.7361 99.5371 58.736C99.6237 58.7365 100.128 58.9621 100.657 59.2377C101.446 59.648 101.679 59.6968 101.936 59.5037C102.109 59.3737 103.04 58.2828 104.006 57.0795C104.971 55.8764 106.542 53.8239 107.497 52.519C108.452 51.2148 109.36 50.0281 109.516 49.881C109.758 49.6529 110 49.7194 111.226 50.3502C112.011 50.7543 112.762 51.2021 112.894 51.3455C113.097 51.5667 113.021 51.9635 112.397 53.9389C111.991 55.2218 111.318 57.3807 110.901 58.736C110.484 60.0912 110.143 61.3135 110.142 61.4518C110.141 61.6416 110.27 61.6266 110.672 61.3899C111.183 61.0901 111.26 61.1028 112.481 61.6808C113.324 62.0795 114.051 62.2846 114.622 62.2846C115.098 62.2844 116.722 62.0099 118.232 61.6748C119.742 61.3394 121.681 61.019 122.539 60.9622C124.086 60.8601 124.113 60.8662 125.657 61.6785C126.513 62.1292 127.391 62.6874 127.608 62.9186C127.824 63.1498 128.001 63.4787 128 63.6493C127.999 63.8207 127.812 64.4155 127.584 64.971C127.356 65.527 127.088 66.0392 126.989 66.1091C126.889 66.1781 126.22 65.9049 125.503 65.5015C124.198 64.7672 124.197 64.7673 122.935 64.9922C122.24 65.116 120.813 65.4036 119.764 65.6315C118.715 65.8591 117.232 66.0604 116.469 66.0796C115.287 66.109 114.931 66.0349 114.064 65.5793C113.506 65.2864 113.018 65.0463 112.975 65.0443C112.935 65.0443 112.12 65.887 111.163 66.9169C110.206 67.9462 109.244 68.8402 109.024 68.9035C108.752 68.9814 108.128 68.7337 107.063 68.126C106.206 67.636 105.454 67.0894 105.393 66.9116C105.333 66.7343 105.285 66.3082 105.286 65.9647C105.288 65.6213 105.511 64.3865 105.783 63.2209C106.054 62.0589 106.245 61.108 106.211 61.102C106.169 61.1076 105.323 61.9827 104.325 63.0516C103.324 64.1242 102.219 65.1567 101.868 65.3458C101.231 65.6894 101.23 65.6891 99.4858 64.7141C97.7409 63.739 97.7406 63.739 95.7468 63.9826C94.6502 64.1166 93.3622 64.2324 92.8851 64.2395C92.306 64.2481 91.7105 64.089 91.091 63.7612C90.5815 63.4916 90.0635 63.2706 89.9395 63.27C89.8164 63.27 88.1313 65.1996 86.1953 67.5577C84.2591 69.9159 81.8505 72.8032 80.8434 73.9726C79.8363 75.1419 78.7149 76.3327 78.3517 76.619C77.6912 77.1397 77.6908 77.1397 76.1408 76.2759C74.8452 75.5539 74.5906 75.3358 74.5903 74.9489C74.5903 74.694 74.9027 73.7955 75.2842 72.9532C75.6651 72.1122 75.9764 71.3616 75.9773 71.2839C75.9784 71.2064 76.3412 70.4154 76.7841 69.5247C77.2277 68.6327 77.9558 67.1933 78.4022 66.3259C78.8485 65.4585 79.669 63.8616 80.2253 62.7773C80.7814 61.6933 81.4245 60.4654 81.6546 60.0486C81.8843 59.6329 82.0331 59.2475 81.986 59.1916C81.9374 59.1373 80.8195 60.0629 79.5017 61.2478C78.1834 62.433 76.1976 64.1736 75.0888 65.1161C73.348 66.596 73.0316 66.9524 72.7717 67.7262C72.6062 68.2187 72.3653 68.6678 72.2361 68.7244C72.1069 68.7808 71.1791 68.3806 70.1745 67.835C69.1712 67.2901 68.3501 66.7573 68.3477 66.6501C68.3477 66.5441 68.4954 66.0725 68.6761 65.6028C68.8567 65.1332 69.1491 64.6137 69.3261 64.4481C69.5032 64.2827 71.1312 62.8696 72.9433 61.3083C74.7554 59.7469 77.0183 57.7584 77.972 56.8898C78.9258 56.0212 81.0326 54.0471 82.6538 52.5024C84.2752 50.9576 86.324 48.9799 87.2064 48.1082Z" fill="currentColor"/>
<path d="M122.474 50.0472C122.702 49.9815 123.234 50.0808 123.666 50.2701C124.095 50.4584 124.786 50.7684 125.201 50.9586C125.925 51.2897 125.954 51.3321 125.86 51.9848C125.807 52.3592 125.641 52.8782 125.491 53.1379C125.31 53.4522 125.054 53.6101 124.726 53.6102C124.455 53.61 123.658 53.34 122.954 53.0102C122.251 52.6807 121.613 52.3396 121.535 52.2523C121.459 52.1653 121.546 51.6603 121.729 51.1301C121.965 50.4469 122.183 50.1316 122.474 50.0472Z" fill="currentColor"/>
<path d="M98.1932 49.0762C98.3713 49.0766 99.1866 49.453 100.005 49.9135C101.429 50.7145 101.49 50.7759 101.397 51.31C101.343 51.6173 101.137 52.1281 100.939 52.4442C100.741 52.76 100.421 53.0181 100.227 53.0185C100.034 53.0185 99.2196 52.6122 98.4183 52.1155C97.6177 51.6193 96.9622 51.1271 96.9607 51.0213C96.9608 50.9162 97.0874 50.5467 97.2423 50.1999C97.3972 49.8532 97.6018 49.4585 97.6969 49.3225C97.7921 49.1871 98.0154 49.0762 98.1932 49.0762Z" fill="currentColor"/>
<path d="M65.5068 0.000492203C65.6037 0.0320377 66.3307 0.316051 67.1234 0.631479C68.5316 1.19181 68.5642 1.21902 68.4688 1.76348C68.415 2.07019 68.2491 2.6024 68.0996 2.94611C67.9266 3.34308 66.8686 4.39872 65.2015 5.83807C63.7573 7.085 61.6738 8.95372 60.5725 9.99049C59.4711 11.0272 58.2061 12.3373 57.7613 12.9013C56.9529 13.926 56.9521 13.9257 55.4487 13.3071C53.9449 12.6885 53.9446 12.688 54.0609 11.9741C54.1251 11.5812 54.3792 10.8372 54.6255 10.3207C54.9068 9.73073 55.6511 8.81449 56.6276 7.85647C57.4829 7.01763 59.7916 4.89383 61.7581 3.13729C63.7241 1.38103 65.411 -0.0302286 65.5068 0.000492203Z" fill="currentColor"/>
</svg>
