<svg width="486" height="163" viewBox="0 0 486 163" fill="none" xmlns="http://www.w3.org/2000/svg">
<path d="M239.553 92C248.879 92 253.859 96.8828 253.859 108.211V117.488L244.24 119.197V108.748C244.24 101.717 242.678 99.5196 239.65 99.5195C236.525 99.5195 235.012 102.01 235.012 107.234V146.834C235.012 152.059 236.525 154.549 239.699 154.549C242.629 154.549 244.338 152.254 244.338 145.027V133.26L254.055 135.164V145.857C254.055 157.332 248.83 162.215 239.553 162.215C229.787 162.215 225.148 156.746 225.148 145.76V108.504C225.148 97.4688 229.836 92 239.553 92Z" fill="currentColor"/>
<path fill-rule="evenodd" clip-rule="evenodd" d="M429.227 92C439.188 92 444.07 97.4688 444.07 108.553V145.711C444.07 156.746 439.188 162.215 429.227 162.215C419.363 162.215 414.481 156.746 414.481 145.711V108.553C414.481 97.4688 419.363 92 429.227 92ZM429.275 99.666C425.955 99.666 424.344 102.205 424.344 107.527V146.883C424.344 152.059 425.955 154.549 429.275 154.549C432.596 154.549 434.158 152.059 434.158 146.883V107.527C434.158 102.205 432.596 99.6661 429.275 99.666Z" fill="currentColor"/>
<path fill-rule="evenodd" clip-rule="evenodd" d="M276.609 92.9277C285.691 92.9278 290.184 97.5176 290.184 106.746V113.289C290.184 120.125 287.449 124.129 282.127 125.252V126.082C286.473 127.205 288.084 129.305 288.816 138.094L289.5 146.834C290.184 155.623 290.818 158.699 292.283 160.262L292.137 161.287H281.492C280.613 158.406 280.174 155.184 279.686 147.078L279.246 138.924C278.758 130.77 277.684 129.402 274.315 129.402H272.313V161.287H262.498V92.9277H276.609ZM272.313 121.834H275.584C278.904 121.834 280.369 120.125 280.369 115.975V106.6C280.369 102.303 278.904 100.643 275.584 100.643H272.313V121.834Z" fill="currentColor"/>
<path d="M321.234 100.984H309.125V121.443H319.965V128.865H309.125V153.23H321.869V161.287H299.311V92.9277H321.234V100.984Z" fill="currentColor"/>
<path fill-rule="evenodd" clip-rule="evenodd" d="M359.023 161.287H348.818L347.598 150.154H338.467L337.197 161.287H327.676L336.904 92.9277H349.551L359.023 161.287ZM342.52 106.697C342.178 115.096 341.738 120.271 341.201 125.691L339.297 143.172H346.719L344.863 125.691C344.326 120.271 343.887 115.096 343.545 106.697H342.52Z" fill="currentColor"/>
<path d="M388.805 100.984H379.772V161.287H369.957V100.984H360.875V92.9277H388.805V100.984Z" fill="currentColor"/>
<path d="M405.695 161.287H395.881V92.9277H405.695V161.287Z" fill="currentColor"/>
<path d="M473.412 129.939C474.193 133.65 475.072 138.631 476 145.174L477.025 145.076C476.244 135.945 475.609 125.545 475.609 117.635L475.561 92.9277H485.229V161.287H472.973L464.721 124.52C463.891 120.662 463.158 116.512 462.035 108.553L461.01 108.65C461.645 116.658 462.377 129.598 462.377 137.752L462.426 161.287H452.807V92.9277H465.307L473.412 129.939Z" fill="currentColor"/>
<path d="M82.8555 19.6768C83.0367 19.6792 83.8923 20.4096 84.7559 21.2998C85.6182 22.1884 86.3245 23.0264 86.3272 23.1641C86.3265 23.3008 85.9986 24.1544 85.5987 25.0605C85.1978 25.9683 83.8941 28.537 82.7012 30.7695C81.5082 33.0022 80.142 35.5504 79.6641 36.4316C79.1861 37.3132 77.6471 40.1411 76.2442 42.7158C74.8411 45.291 72.6465 49.3381 71.3682 51.71C70.09 54.0817 68.3825 57.2425 67.5733 58.7334C66.7645 60.224 65.8371 61.9427 65.5128 62.5527C65.1878 63.1635 62.8546 67.5439 60.3272 72.2871C55.7327 80.9104 55.732 80.912 55.8516 82.1436C55.9933 83.6027 55.13 85.5531 57.1563 86.6309C59.1841 87.7045 66.335 75.294 68.2823 74.3281C71.2436 72.8596 72.0977 71.9496 74.6778 69.7529C75.8104 68.7889 77.8586 66.925 79.2296 65.6113C80.6006 64.2974 82.8937 61.8961 84.3243 60.2754C85.7547 58.6548 87.4127 56.5923 88.0089 55.6924C88.6046 54.793 89.19 54.0552 89.3096 54.0518C90.2029 54.0302 92.5152 55.004 93.1475 55.7227C93.2611 55.8535 93.1201 56.5132 92.8038 57.3262C92.5076 58.0872 91.7359 59.4628 91.0889 60.3818C90.442 61.3015 89.2303 63.2178 88.3965 64.6406C87.5628 66.0639 86.0225 68.892 84.9737 70.9248C83.9247 72.9581 82.0078 76.9625 80.713 79.8232C79.418 82.6839 77.9088 86.2317 77.3594 87.708C76.8102 89.1841 76.1257 91.1695 75.8389 92.1182C75.552 93.0667 75.1785 94.369 75.0089 95.0127C74.8395 95.6562 74.7848 96.1833 74.8868 96.1836C74.9909 96.1798 75.5794 95.4491 76.1964 94.5566C76.815 93.6617 77.9108 91.8593 78.6309 90.5518C79.3471 89.2509 79.952 88.158 79.9805 88.1143C80.0048 88.082 80.8845 88.3849 81.9356 88.7891C82.9856 89.1925 83.8825 89.5659 83.9317 89.6191C83.9759 89.675 83.7669 90.4641 83.4649 91.376C83.1623 92.2904 82.5582 93.7064 82.1221 94.5225C81.6859 95.3387 80.6281 97.0727 79.7715 98.375C78.9149 99.6773 77.6623 101.329 76.9893 102.047C76.3164 102.764 75.4222 103.517 75.0001 103.718C74.2775 104.061 74.1163 104.038 72.2335 103.329C71.1191 102.909 70.0673 102.35 69.8546 102.063C69.6011 101.721 69.4755 101.13 69.4756 100.284C69.4756 99.5879 69.6193 98.2407 69.794 97.292C69.969 96.3433 70.4449 94.5139 70.8516 93.2266C71.8164 90.1733 72.8256 87.1456 73.9434 84.1592C74.4658 82.7645 75.5809 80.007 76.421 78.0312C77.2579 76.0628 77.9003 74.4009 77.8526 74.3281C77.7991 74.2675 76.5651 75.1247 75.1104 76.2334C70.4345 79.7965 60.639 95.0267 55.8516 93.2334C54.1088 92.5797 52.5506 91.1568 52.2803 88.7891C48.681 88.8242 41.2762 110.306 40.3067 113.563C39.6406 115.802 29.9393 144.523 29.3438 146.693C28.749 148.862 27.9276 152.133 27.5186 153.963C27.1098 155.793 26.6553 158.178 26.5079 159.262C26.3608 160.342 26.221 161.249 26.1973 161.283C26.1714 161.311 25.1985 161.172 24.0342 160.973C22.8716 160.774 21.841 160.667 21.7383 160.733C21.6413 160.801 20.8671 160.127 20.0196 159.235C18.7338 157.882 18.4797 157.485 18.4815 156.836C18.4828 156.408 18.6227 155.462 18.793 154.733C18.9637 154.005 19.5161 152.287 20.0206 150.914C23.986 140.133 26.5066 132.667 32.3965 117.974C34.6052 112.464 37.2735 107.071 39.0762 101.365C39.4615 100.145 40.6866 96.4858 41.7989 93.2334C42.9115 89.9808 44.203 86.2654 44.668 84.9775C45.1333 83.6897 46.2976 80.585 47.2559 78.0781C48.2146 75.5709 49.79 71.5287 50.7559 69.0957C51.7189 66.6704 52.5071 64.6499 52.5118 64.5977C52.513 64.5574 52.6149 64.5244 52.7393 64.5244C52.8659 64.5251 53.8406 64.8709 54.9063 65.2939C56.7282 66.0172 56.8477 66.1073 56.8477 66.7588C56.8479 67.1402 56.9375 67.5169 57.0479 67.5947C57.161 67.6674 58.1213 66.0947 59.1827 64.0967C60.2456 62.0956 61.8295 59.1274 62.7022 57.501C63.5752 55.8743 65.6524 52.0482 67.3194 48.999C68.986 45.9504 70.7316 42.7356 71.1983 41.8535C71.6643 40.9726 72.6271 39.1977 73.337 37.9102C74.047 36.6228 75.0249 34.8122 75.5108 33.8867C75.9954 32.9637 76.347 32.1552 76.293 32.0879C76.237 32.0244 76.0566 32.1165 75.8926 32.292C75.7283 32.4682 75.01 33.165 74.296 33.8408C73.5816 34.5169 72.8891 35.1832 72.7579 35.3203C72.6259 35.4579 71.5583 36.5124 70.3858 37.6641C69.2131 38.8161 67.3213 40.6878 66.1817 41.8232C65.0419 42.9584 63.767 44.2338 63.3497 44.6582C62.932 45.0829 61.5182 46.4833 60.2071 47.7695C58.896 49.0561 56.9874 50.9406 55.9659 51.957C54.9444 52.9734 53.2855 54.5991 52.2803 55.5703C51.2752 56.5415 49.4617 58.261 48.251 59.3906C47.0405 60.5202 45.0898 62.2864 43.9161 63.3154C42.7423 64.3445 41.0016 65.8012 40.0479 66.5518C39.0944 67.3024 37.7229 68.2521 37.0001 68.6641C36.2775 69.0758 35.3399 69.4868 34.9171 69.5771C34.1949 69.731 34.0442 69.6349 32.3965 67.9736C31.2247 66.792 30.5998 65.9713 30.5069 65.4932C30.4277 65.083 30.5231 64.1735 30.7315 63.3574C30.9313 62.5755 31.5415 60.8276 32.087 59.4727C32.6323 58.1174 33.7095 55.6781 34.4805 54.0518C35.2513 52.4254 37.101 48.6546 38.5899 45.6729C40.0787 42.6914 41.6118 39.6413 41.9971 38.8955C42.3823 38.1501 43.0915 36.7633 43.5733 35.8135C44.0549 34.8634 44.7621 33.4395 45.1436 32.6494C45.6886 31.5201 45.75 31.2672 45.4346 31.4668C45.2137 31.607 44.5313 32.1433 43.918 32.6592C43.3046 33.1756 40.291 35.7595 37.2217 38.4023C34.1521 41.0453 31.3863 43.4265 31.0753 43.6924C30.7627 43.9598 28.1678 46.2215 25.3077 48.7197C22.4466 51.2188 19.4715 53.8346 18.6963 54.5332C17.9213 55.2317 15.1032 57.7937 12.4337 60.2256C9.76454 62.6575 7.27735 64.9199 6.90631 65.2529C6.53572 65.5858 5.45113 66.655 4.49713 67.6299C2.76265 69.4024 2.76205 69.403 1.19244 67.7656C-0.378385 66.1269 -0.379136 66.1261 1.08404 64.4014C1.88844 63.4529 2.89203 62.3345 3.31451 61.916C3.73676 61.4978 4.71363 60.5551 5.48443 59.8213C6.25501 59.0875 7.37262 58.0429 7.96783 57.501C8.56249 56.9594 9.2445 56.3341 9.48346 56.1094C9.72187 55.8852 10.6978 55.0034 11.6514 54.1504C12.6052 53.2975 14.5567 51.5447 15.9874 50.2568C17.4178 48.969 19.1246 47.4417 19.7803 46.8623C20.436 46.2832 22.7282 44.2776 24.8741 42.4062C27.0196 40.5352 29.0311 38.786 29.3438 38.5186C29.6574 38.2502 32.4251 35.8705 35.4942 33.2285C38.5645 30.5857 42.4054 27.3079 44.0303 25.9453C45.6548 24.5829 47.6542 22.9474 48.4727 22.3105C49.2914 21.6739 50.1735 21.1533 50.4327 21.1533C50.7112 21.1546 51.5499 21.8247 52.4776 22.7871C53.944 24.3086 54.041 24.4716 53.9044 25.1885C53.8235 25.6119 53.3813 26.8114 52.9219 27.8535C52.4616 28.8967 50.1687 33.5537 47.8253 38.2031C45.4815 42.853 42.4992 48.8208 41.1983 51.4639C39.8973 54.1068 38.2479 57.6398 37.5333 59.3145C36.8194 60.9872 36.2636 62.4553 36.2979 62.5791C36.3356 62.6984 37.1449 62.217 38.0977 61.5068C39.0521 60.7952 41.0525 59.1314 42.5421 57.8105C44.0316 56.4898 45.7521 54.937 46.3653 54.3604C46.9785 53.7837 48.0031 52.8282 48.6417 52.2373C49.2801 51.6465 50.2898 50.687 50.8858 50.1045C51.4819 49.522 52.7616 48.2744 53.7286 47.332C54.6955 46.3898 55.6794 45.4085 55.9151 45.1523C56.1513 44.896 57.2556 43.7997 58.3702 42.7158C59.4851 41.6316 60.5535 40.5775 60.7442 40.374C60.9347 40.1708 61.477 39.6294 61.9493 39.1709C62.4214 38.7121 63.3902 37.7693 64.1006 37.0762C64.8114 36.3827 66.3231 34.8735 67.46 33.7217C68.597 32.57 70.0997 31.0725 70.7999 30.3945C71.4998 29.7169 72.4864 28.7732 72.9913 28.2988C73.4969 27.8239 75.3139 26.0973 77.0294 24.4619C78.7451 22.8267 80.6845 21.0813 81.3389 20.582C81.992 20.0839 82.6739 19.6763 82.8555 19.6768Z" fill="currentColor"/>
<path d="M194 145.287H190V17.2871H194V145.287Z" fill="currentColor"/>
<path d="M109.008 61.4219C111.013 59.4412 111.014 59.4419 112.692 60.3096C113.616 60.7871 114.507 61.3284 114.671 61.5127C114.922 61.7963 114.871 62.0691 114.334 63.2871C113.985 64.0792 112.446 67.0001 110.914 69.7783C109.383 72.5566 107.961 75.1627 107.756 75.5693C107.55 75.9762 106.933 77.1328 106.383 78.1396C105.833 79.1464 105.427 80.0192 105.479 80.0791C105.541 80.1264 106.837 78.701 108.367 76.9014C111.161 73.6162 111.161 73.6163 113.092 74.6191C114.598 75.4014 115.038 75.7443 115.095 76.1787C115.163 76.7008 115.238 76.7262 116.287 76.5645C116.903 76.4698 118.562 76.2982 119.974 76.1836C122.19 76.0037 122.655 75.8879 123.383 75.3408C123.846 74.9926 124.313 74.7079 124.421 74.707C124.529 74.7077 125.159 74.9895 125.821 75.334C126.807 75.8467 127.099 75.9083 127.42 75.667C127.636 75.5045 128.8 74.1408 130.007 72.6367C131.214 71.1328 133.177 68.5666 134.371 66.9355C135.564 65.3058 136.699 63.8236 136.895 63.6387C137.197 63.3536 137.501 63.4362 139.032 64.2246C140.014 64.7296 140.953 65.2895 141.118 65.4688C141.372 65.7453 141.277 66.2416 140.496 68.7109C139.989 70.3145 139.148 73.013 138.627 74.707C138.106 76.3999 137.68 77.9269 137.678 78.1016C137.676 78.3388 137.837 78.3203 138.341 78.0244C138.978 77.6498 139.075 77.6654 140.602 78.3877C141.655 78.8861 142.564 79.1426 143.277 79.1426C143.873 79.1422 145.902 78.7997 147.789 78.3809C149.677 77.9617 152.101 77.5612 153.174 77.4902C155.107 77.3626 155.142 77.3703 157.071 78.3857C158.142 78.949 159.239 79.6466 159.51 79.9355C159.78 80.2244 160.001 80.6353 160 80.8486C159.999 81.0629 159.764 81.8065 159.48 82.501C159.195 83.1958 158.861 83.8365 158.736 83.9238C158.611 84.0101 157.775 83.6682 156.879 83.1641C155.247 82.2463 155.246 82.2463 153.669 82.5273C152.801 82.6821 151.017 83.0413 149.705 83.3262C148.394 83.6107 146.541 83.8627 145.587 83.8867C144.11 83.9234 143.664 83.831 142.58 83.2617C141.885 82.8965 141.275 82.5967 141.219 82.5928C141.17 82.5928 140.15 83.6463 138.953 84.9336C137.758 86.2197 136.556 87.3373 136.28 87.417C135.94 87.5143 135.16 87.204 133.829 86.4443C132.757 85.832 131.817 85.1491 131.741 84.9268C131.666 84.7052 131.607 84.1724 131.608 83.7432C131.61 83.3139 131.889 81.7704 132.229 80.3135C132.567 78.861 132.806 77.6726 132.763 77.665C132.704 77.6794 131.649 78.77 130.406 80.1016C129.155 81.4423 127.773 82.7333 127.335 82.9697C126.539 83.3989 126.538 83.3982 124.357 82.1797C122.176 80.9609 122.176 80.9611 119.684 81.2656C118.313 81.4332 116.703 81.578 116.107 81.5869C115.383 81.5977 114.638 81.398 113.863 80.9883C113.227 80.6515 112.579 80.3757 112.424 80.375C112.266 80.38 110.162 82.7898 107.744 85.7344C105.324 88.6821 102.313 92.2911 101.054 93.7529C99.7951 95.2144 98.3937 96.7026 97.9395 97.0605C97.114 97.7115 97.1134 97.7116 95.1758 96.6318C93.557 95.7296 93.2389 95.457 93.2383 94.9736C93.2383 94.655 93.6287 93.5314 94.1055 92.4785C94.5816 91.4274 94.9705 90.4887 94.9717 90.3916C94.9743 90.2925 95.4277 89.3052 95.9805 88.1934C96.535 87.0784 97.4451 85.2786 98.003 84.1943C98.5609 83.1101 99.586 81.114 100.281 79.7588C100.977 78.4038 101.781 76.8687 102.068 76.3477C102.355 75.8281 102.541 75.3462 102.482 75.2764C102.42 75.21 101.023 76.3664 99.377 77.8467C97.7292 79.3282 95.2473 81.5045 93.8614 82.6826C91.6853 84.5325 91.2898 84.9781 90.9649 85.9453C90.758 86.5607 90.4564 87.1215 90.295 87.1924C90.1335 87.2629 88.9736 86.763 87.7178 86.0811C86.4638 85.4 85.4377 84.7336 85.4346 84.5996C85.4348 84.4668 85.6191 83.8778 85.8448 83.291C86.0704 82.7044 86.4359 82.055 86.6573 81.8477C86.8786 81.6409 88.9137 79.8744 91.1788 77.9229C93.4439 75.9712 96.2727 73.4852 97.4649 72.3994C98.6571 71.3136 101.291 68.8459 103.317 66.915C105.344 64.9841 107.905 62.5116 109.008 61.4219Z" fill="currentColor"/>
<path fill-rule="evenodd" clip-rule="evenodd" d="M317.914 0C327.875 2.79246e-05 332.758 5.46878 332.758 16.5527V53.7109C332.758 64.7461 327.875 70.2148 317.914 70.2148C308.051 70.2148 303.168 64.7461 303.168 53.7109V16.5527C303.168 5.46875 308.051 0 317.914 0ZM317.963 7.66602C314.643 7.66602 313.031 10.2051 313.031 15.5273V54.8828C313.031 60.0586 314.643 62.5488 317.963 62.5488C321.283 62.5488 322.846 60.0586 322.846 54.8828V15.5273C322.846 10.2051 321.283 7.66605 317.963 7.66602Z" fill="currentColor"/>
<path fill-rule="evenodd" clip-rule="evenodd" d="M254.836 69.2871H244.631L243.41 58.1543H234.279L233.01 69.2871H223.488L232.717 0.927734H245.363L254.836 69.2871ZM238.332 14.6973C237.99 23.0957 237.551 28.2715 237.014 33.6914L235.109 51.1719H242.531L240.676 33.6914C240.139 28.2715 239.699 23.0957 239.357 14.6973H238.332Z" fill="currentColor"/>
<path d="M282.615 37.9395C283.397 41.6504 284.275 46.6309 285.203 53.1738L286.229 53.0762C285.447 43.9453 284.813 33.5449 284.813 25.6348L284.764 0.927734H294.432V69.2871H282.176L273.924 32.5195C273.094 28.6621 272.361 24.5117 271.238 16.5527L270.213 16.6504C270.848 24.6582 271.58 37.5977 271.58 45.752L271.629 69.2871H262.01V0.927734H274.51L282.615 37.9395Z" fill="currentColor"/>
<path d="M366.738 8.98438H357.705V69.2871H347.891V8.98438H338.809V0.927734H366.738V8.98438Z" fill="currentColor"/>
<path d="M383.629 29.1016H392.369V0.927734H402.184V69.2871H392.369V36.9141H383.629V69.2871H373.815V0.927734H383.629V29.1016Z" fill="currentColor"/>
<path d="M433.332 8.98438H421.223V29.4434H432.063V36.8652H421.223V61.2305H433.967V69.2871H411.408V0.927734H433.332V8.98438Z" fill="currentColor"/>
<path fill-rule="evenodd" clip-rule="evenodd" d="M455.984 0.927734C465.066 0.92776 469.559 5.5176 469.559 14.7461V21.2891C469.559 28.125 466.824 32.1289 461.502 33.252V34.082C465.848 35.2051 467.459 37.3047 468.191 46.0938L468.875 54.834C469.559 63.623 470.193 66.6992 471.658 68.2617L471.512 69.2871H460.867C459.988 66.4063 459.549 63.1836 459.061 55.0781L458.621 46.9238C458.133 38.7696 457.059 37.4024 453.69 37.4023H451.688V69.2871H441.873V0.927734H455.984ZM451.688 29.834H454.959C458.279 29.834 459.744 28.125 459.744 23.9746V14.5996C459.744 10.3028 458.279 8.6426 454.959 8.64258H451.688V29.834Z" fill="currentColor"/>
<path d="M153.093 63.8457C153.377 63.7636 154.043 63.8884 154.582 64.125C155.119 64.3603 155.983 64.7476 156.502 64.9854C157.407 65.3993 157.442 65.4528 157.325 66.2686C157.258 66.7365 157.051 67.3855 156.864 67.71C156.638 68.1027 156.317 68.2997 155.907 68.2998C155.568 68.2994 154.572 67.9619 153.692 67.5498C152.814 67.1379 152.016 66.7117 151.919 66.6025C151.823 66.4939 151.932 65.8628 152.161 65.2002C152.456 64.3462 152.728 63.9512 153.093 63.8457Z" fill="currentColor"/>
<path d="M122.741 62.6328C122.964 62.6333 123.983 63.1033 125.006 63.6787C126.785 64.68 126.863 64.7572 126.746 65.4248C126.679 65.809 126.421 66.4477 126.174 66.8428C125.927 67.2374 125.526 67.5598 125.284 67.5605C125.042 67.5605 124.024 67.0525 123.023 66.4316C122.022 65.8114 121.203 65.1958 121.201 65.0635C121.202 64.9318 121.359 64.4703 121.553 64.0371C121.746 63.6038 122.002 63.1104 122.121 62.9404C122.24 62.7712 122.519 62.6329 122.741 62.6328Z" fill="currentColor"/>
<path d="M81.8839 1.28809C82.0065 1.32815 82.9145 1.68231 83.9044 2.07617C85.6645 2.7765 85.7052 2.81087 85.586 3.49121C85.5187 3.8746 85.311 4.5401 85.1241 4.96973C84.9077 5.46603 83.5857 6.78592 81.502 8.58496C79.6968 10.1436 77.0926 12.4794 75.7159 13.7754C74.3392 15.0713 72.7572 16.7091 72.2012 17.4141C71.191 18.6945 71.1897 18.6941 69.3106 17.9209C67.4312 17.1477 67.4309 17.1472 67.5762 16.2549C67.6565 15.7638 67.9744 14.834 68.2823 14.1885C68.6338 13.451 69.5636 12.3049 70.7842 11.1074C71.8533 10.0589 74.7393 7.40461 77.1973 5.20898C79.6548 3.01366 81.7641 1.24968 81.8839 1.28809Z" fill="currentColor"/>
</svg>
