<svg width="720" height="128" viewBox="0 0 720 128" fill="none" xmlns="http://www.w3.org/2000/svg">
<path d="M658.284 14.7124C658.429 14.7144 659.114 15.2981 659.805 16.0103C660.494 16.7209 661.059 17.391 661.062 17.5015C661.061 17.6108 660.799 18.2934 660.479 19.0181C660.159 19.744 659.115 21.7993 658.161 23.5855C657.207 25.3716 656.114 27.4107 655.731 28.1157C655.349 28.821 654.117 31.0833 652.995 33.1431C651.873 35.2032 650.117 38.441 649.095 40.3384C648.072 42.2357 646.706 44.7638 646.059 45.9565C645.411 47.1492 644.67 48.5253 644.41 49.0132C644.149 49.5031 642.283 53.0067 640.262 56.8003C636.586 63.6983 636.585 63.7 636.681 64.6851C636.794 65.8524 636.104 67.4127 637.725 68.2749C639.346 69.1352 645.068 59.2058 646.626 58.4331C648.995 57.2583 649.678 56.5293 651.742 54.772C652.648 54.0007 654.287 52.5103 655.384 51.4595C656.481 50.4083 658.314 48.4875 659.459 47.1909C660.603 45.8944 661.93 44.2439 662.407 43.5239C662.884 42.8042 663.353 42.2136 663.448 42.2114C664.163 42.1945 666.013 42.9735 666.519 43.5483C666.609 43.6532 666.496 44.1813 666.243 44.8315C666.006 45.4404 665.389 46.5406 664.871 47.2759C664.354 48.0116 663.385 49.5449 662.718 50.6831C662.051 51.8217 660.819 54.0842 659.979 55.7105C659.14 57.337 657.606 60.5401 656.57 62.8286C655.534 65.1174 654.327 67.9563 653.888 69.1372C653.448 70.3181 652.9 71.9056 652.671 72.6646C652.441 73.4235 652.143 74.466 652.007 74.981C651.871 75.4956 651.828 75.9162 651.909 75.9165C651.992 75.9146 652.463 75.3303 652.957 74.6157C653.452 73.8997 654.328 72.4576 654.904 71.4116C655.475 70.3746 655.958 69.5032 655.984 69.4624C656.002 69.436 656.707 69.6778 657.549 70.0015C658.389 70.3242 659.106 70.623 659.146 70.6655C659.181 70.7102 659.014 71.3422 658.772 72.0718C658.53 72.8032 658.047 73.9356 657.698 74.5884C657.349 75.2414 656.503 76.6286 655.817 77.6704C655.132 78.7121 654.13 80.0334 653.592 80.6079C653.054 81.1817 652.338 81.783 652 81.9438C651.422 82.2184 651.293 82.2005 649.786 81.6333C648.895 81.2975 648.054 80.8496 647.884 80.6206C647.681 80.3462 647.58 79.8744 647.58 79.1978C647.58 78.6407 647.695 77.5632 647.835 76.8042C647.975 76.0453 648.355 74.5813 648.681 73.5513C649.452 71.1088 650.261 68.6874 651.155 66.2983C651.573 65.1826 652.465 62.9757 653.137 61.395C653.805 59.8226 654.319 58.4949 654.282 58.4331C654.239 58.3846 653.252 59.0705 652.088 59.9575C648.347 62.8085 640.51 74.9925 636.681 73.5571C635.286 73.0342 634.04 71.8956 633.824 70.0015C630.945 70.0298 625.021 87.216 624.245 89.8218C623.711 91.6167 615.951 114.588 615.475 116.325C614.999 118.06 614.342 120.677 614.015 122.141C613.688 123.605 613.324 125.512 613.206 126.379C613.088 127.247 612.976 127.975 612.958 127.998C612.936 128.019 612.158 127.908 611.228 127.749C610.297 127.59 609.472 127.504 609.391 127.557C609.313 127.612 608.694 127.072 608.016 126.359C606.987 125.276 606.784 124.958 606.785 124.439C606.786 124.097 606.898 123.34 607.034 122.757C607.171 122.175 607.613 120.8 608.017 119.702C611.189 111.076 613.205 105.104 617.917 93.3491C619.684 88.9413 621.819 84.6273 623.261 80.063C623.569 79.0869 624.55 76.1591 625.439 73.5571C626.329 70.9552 627.362 67.983 627.734 66.9526C628.107 65.9224 629.038 63.4387 629.805 61.4331C630.572 59.4274 631.832 56.194 632.604 54.2476C633.374 52.3093 634.005 50.6942 634.01 50.6489C634.01 50.6166 634.092 50.5894 634.191 50.5894C634.293 50.5899 635.073 50.8671 635.926 51.2056C637.383 51.7841 637.478 51.8563 637.479 52.3774C637.479 52.6824 637.55 52.983 637.639 53.0454C637.729 53.1036 638.497 51.8459 639.346 50.2476C640.196 48.6467 641.463 46.2723 642.161 44.9712C642.859 43.6701 644.522 40.609 645.855 38.1694C647.189 35.7302 648.586 33.1579 648.959 32.4526C649.332 31.7479 650.102 30.3283 650.67 29.2983C651.238 28.2684 652.021 26.8198 652.409 26.0796C652.797 25.3414 653.077 24.6953 653.034 24.6411C652.989 24.5901 652.846 24.6638 652.715 24.8042C652.584 24.945 652.008 25.5026 651.437 26.0435C650.865 26.5844 650.311 27.1175 650.206 27.2271C650.099 27.3385 649.246 28.1807 648.309 29.1011C647.37 30.0227 645.857 31.5208 644.945 32.4292C644.034 33.3373 643.014 34.3572 642.68 34.6968C642.346 35.0366 641.215 36.157 640.166 37.186C639.117 38.2153 637.59 39.7224 636.772 40.5356C635.955 41.3488 634.628 42.6503 633.824 43.4272C633.02 44.2043 631.569 45.5794 630.601 46.4829C629.632 47.3866 628.072 48.7994 627.133 49.6226C626.194 50.4458 624.801 51.611 624.038 52.2114C623.275 52.812 622.178 53.5724 621.6 53.9019C621.022 54.2312 620.272 54.5601 619.934 54.6323C619.356 54.7554 619.235 54.678 617.917 53.3491C616.98 52.4039 616.48 51.7472 616.405 51.3647C616.342 51.0366 616.418 50.3095 616.585 49.6567C616.745 49.0314 617.233 47.6325 617.669 46.5483C618.105 45.4642 618.968 43.5126 619.585 42.2114C620.202 40.9102 621.681 37.8944 622.872 35.5093C624.063 33.1241 625.289 30.6831 625.598 30.0864C625.906 29.4901 626.474 28.3813 626.859 27.6216C627.245 26.8615 627.809 25.7214 628.114 25.0894C628.55 24.1861 628.6 23.9835 628.348 24.1431C628.171 24.255 627.626 24.6853 627.135 25.0981C626.644 25.5114 624.233 27.5787 621.777 29.6929C619.322 31.8071 617.109 33.7116 616.86 33.9243C616.61 34.1381 614.534 35.9471 612.246 37.9458C609.957 39.9451 607.577 42.0383 606.957 42.5972C606.337 43.1562 604.083 45.2056 601.947 47.1509C599.812 49.0967 597.821 50.9062 597.524 51.1724C597.228 51.4388 596.361 52.2948 595.598 53.0747C594.21 54.4928 594.209 54.4924 592.953 53.1821C591.697 51.8717 591.697 51.8712 592.867 50.4917C593.511 49.7329 594.314 48.8382 594.652 48.5034C594.99 48.1688 595.771 47.4146 596.388 46.8276C597.004 46.2406 597.899 45.4047 598.375 44.9712C598.851 44.5379 599.396 44.0376 599.587 43.8579C599.778 43.6785 600.558 42.973 601.321 42.2905C602.084 41.6083 603.645 40.2065 604.789 39.1763C605.933 38.146 607.299 36.9241 607.824 36.4605C608.349 35.9972 610.183 34.3921 611.899 32.895C613.615 31.3987 615.224 30.0002 615.475 29.7856C615.724 29.5721 617.939 27.6676 620.396 25.5532C622.852 23.439 625.925 20.8171 627.225 19.7271C628.524 18.6372 630.123 17.3283 630.778 16.8189C631.433 16.3099 632.138 15.8936 632.346 15.8931C632.568 15.8941 633.24 16.4298 633.982 17.1997C635.156 18.417 635.233 18.548 635.124 19.1216C635.059 19.4606 634.705 20.4199 634.338 21.2534C633.97 22.0882 632.134 25.8133 630.26 29.5327C628.385 33.2526 626 38.0266 624.959 40.1411C623.918 42.2554 622.598 45.0816 622.026 46.4214C621.455 47.7598 621.011 48.9348 621.038 49.0337C621.068 49.1292 621.716 48.7435 622.479 48.1753C623.242 47.6058 624.842 46.2748 626.033 45.2183C627.225 44.1617 628.601 42.9199 629.092 42.4585C629.582 41.9972 630.402 41.233 630.913 40.7603C631.424 40.2876 632.232 39.5192 632.709 39.0532C633.186 38.587 634.209 37.5891 634.982 36.8355C635.756 36.0816 636.544 35.2972 636.732 35.0923C636.922 34.887 637.805 34.01 638.696 33.1431C639.588 32.2757 640.443 31.4318 640.596 31.269C640.748 31.1061 641.182 30.6736 641.56 30.3071C641.937 29.9401 642.712 29.1859 643.28 28.6314C643.849 28.0767 645.058 26.8693 645.968 25.9478C646.878 25.0263 648.081 23.8279 648.641 23.2856C649.2 22.7436 649.989 21.9894 650.393 21.6099C650.797 21.2304 652.251 19.8492 653.624 18.5405C654.997 17.2323 656.548 15.8354 657.071 15.436C657.593 15.0378 658.139 14.7125 658.284 14.7124Z" fill="currentColor"/>
<path d="M568 112H564V16.0005H568V112Z" fill="currentColor"/>
<path fill-rule="evenodd" clip-rule="evenodd" d="M94.9141 28.7134C104.875 28.7134 109.758 34.1821 109.758 45.2661V82.4243C109.758 93.4591 104.875 98.9282 94.9141 98.9282C85.0509 98.9282 80.1681 93.4591 80.168 82.4243V45.2661C80.168 34.1821 85.0508 28.7134 94.9141 28.7134ZM94.9629 36.3794C91.6426 36.3794 90.0312 38.9185 90.0312 44.2407V83.5962C90.0314 88.7716 91.6427 91.2622 94.9629 91.2622C98.2831 91.2622 99.8456 88.7716 99.8457 83.5962V44.2407C99.8457 38.9185 98.2832 36.3794 94.9629 36.3794Z" fill="currentColor"/>
<path d="M282.83 28.7134C292.156 28.7134 297.137 33.5962 297.137 44.9243V54.2017L287.518 55.9106V45.4614C287.518 38.4302 285.955 36.2329 282.928 36.2329C279.803 36.2329 278.289 38.7231 278.289 43.9478V83.5474C278.289 88.7716 279.803 91.2622 282.977 91.2622C285.906 91.2622 287.615 88.9669 287.615 81.7407V69.9731L297.332 71.8774V82.5708C297.332 94.0451 292.107 98.9282 282.83 98.9282C273.065 98.9282 268.426 93.4591 268.426 82.4731V45.2173C268.426 34.1821 273.113 28.7134 282.83 28.7134Z" fill="currentColor"/>
<path fill-rule="evenodd" clip-rule="evenodd" d="M472.504 28.7134C482.465 28.7134 487.348 34.1821 487.348 45.2661V82.4243C487.348 93.4591 482.465 98.9282 472.504 98.9282C462.641 98.9282 457.758 93.4591 457.758 82.4243V45.2661C457.758 34.1821 462.641 28.7134 472.504 28.7134ZM472.553 36.3794C469.232 36.3794 467.621 38.9185 467.621 44.2407V83.5962C467.621 88.7716 469.233 91.2622 472.553 91.2622C475.873 91.2622 477.435 88.7716 477.436 83.5962V44.2407C477.436 38.9185 475.873 36.3794 472.553 36.3794Z" fill="currentColor"/>
<path fill-rule="evenodd" clip-rule="evenodd" d="M31.8359 98.0005H21.6309L20.4102 86.8677H11.2793L10.0098 98.0005H0.488281L9.7168 29.6411H22.3633L31.8359 98.0005ZM15.332 43.4106C14.9902 51.8088 14.5508 56.985 14.0137 62.4048L12.1094 79.8853H19.5312L17.6758 62.4048C17.1387 56.985 16.6992 51.8088 16.3574 43.4106H15.332Z" fill="currentColor"/>
<path d="M59.6152 66.6528C60.3965 70.3637 61.2754 75.3445 62.2031 81.8872L63.2285 81.7896C62.4473 72.6589 61.8125 62.2582 61.8125 54.3481L61.7637 29.6411H71.4316V98.0005H59.1758L50.9238 61.2329C50.0938 57.3756 49.3613 53.2248 48.2383 45.2661L47.2129 45.3638C47.8476 53.3716 48.5801 66.3112 48.5801 74.4653L48.6289 98.0005H39.0098V29.6411H51.5098L59.6152 66.6528Z" fill="currentColor"/>
<path d="M143.738 37.6978H134.705V98.0005H124.891V37.6978H115.809V29.6411H143.738V37.6978Z" fill="currentColor"/>
<path d="M160.629 57.8149H169.369V29.6411H179.184V98.0005H169.369V65.6274H160.629V98.0005H150.814V29.6411H160.629V57.8149Z" fill="currentColor"/>
<path d="M210.332 37.6978H198.223V58.1567H209.062V65.5786H198.223V89.9438H210.967V98.0005H188.408V29.6411H210.332V37.6978Z" fill="currentColor"/>
<path fill-rule="evenodd" clip-rule="evenodd" d="M232.984 29.6411C242.066 29.6411 246.559 34.231 246.559 43.4595V50.0024C246.558 56.8381 243.824 60.8423 238.502 61.9653V62.7954C242.848 63.9185 244.459 66.0181 245.191 74.8071L245.875 83.5474C246.559 92.3361 247.193 95.4126 248.658 96.9751L248.512 98.0005H237.867C236.988 95.1197 236.549 91.8966 236.061 83.7915L235.621 75.6372C235.133 67.4829 234.059 66.1157 230.689 66.1157H228.688V98.0005H218.873V29.6411H232.984ZM228.688 58.5474H231.959C235.279 58.5474 236.744 56.838 236.744 52.688V43.313C236.744 39.0161 235.279 37.356 231.959 37.356H228.688V58.5474Z" fill="currentColor"/>
<path fill-rule="evenodd" clip-rule="evenodd" d="M319.887 29.6411C328.969 29.6411 333.461 34.231 333.461 43.4595V50.0024C333.461 56.8381 330.726 60.8423 325.404 61.9653V62.7954C329.75 63.9185 331.361 66.0181 332.094 74.8071L332.777 83.5474C333.461 92.3361 334.096 95.4126 335.561 96.9751L335.414 98.0005H324.77C323.891 95.1197 323.451 91.8966 322.963 83.7915L322.523 75.6372C322.035 67.4829 320.961 66.1157 317.592 66.1157H315.59V98.0005H305.775V29.6411H319.887ZM315.59 58.5474H318.861C322.182 58.5474 323.646 56.838 323.646 52.688V43.313C323.646 39.0161 322.182 37.356 318.861 37.356H315.59V58.5474Z" fill="currentColor"/>
<path d="M364.512 37.6978H352.402V58.1567H363.242V65.5786H352.402V89.9438H365.146V98.0005H342.588V29.6411H364.512V37.6978Z" fill="currentColor"/>
<path fill-rule="evenodd" clip-rule="evenodd" d="M402.301 98.0005H392.096L390.875 86.8677H381.744L380.475 98.0005H370.953L380.182 29.6411H392.828L402.301 98.0005ZM385.797 43.4106C385.455 51.8088 385.016 56.985 384.479 62.4048L382.574 79.8853H389.996L388.141 62.4048C387.604 56.985 387.164 51.8088 386.822 43.4106H385.797Z" fill="currentColor"/>
<path d="M432.082 37.6978H423.049V98.0005H413.234V37.6978H404.152V29.6411H432.082V37.6978Z" fill="currentColor"/>
<path d="M448.973 98.0005H439.158V29.6411H448.973V98.0005Z" fill="currentColor"/>
<path d="M516.689 66.6528C517.471 70.3637 518.35 75.3445 519.277 81.8872L520.303 81.7896C519.522 72.6589 518.887 62.2582 518.887 54.3481L518.838 29.6411H528.506V98.0005H516.25L507.998 61.2329C507.168 57.3756 506.436 53.2248 505.312 45.2661L504.287 45.3638C504.922 53.3716 505.654 66.3112 505.654 74.4653L505.703 98.0005H496.084V29.6411H508.584L516.689 66.6528Z" fill="currentColor"/>
<path d="M679.206 48.1079C680.811 46.5232 680.811 46.524 682.154 47.2183C682.893 47.6003 683.605 48.0337 683.736 48.1812C683.937 48.408 683.896 48.6259 683.467 49.6001C683.187 50.2341 681.956 52.5703 680.731 54.7925C679.506 57.0152 678.369 59.101 678.205 59.4263C678.04 59.752 677.546 60.6767 677.106 61.4819C676.667 62.2873 676.341 62.9858 676.383 63.0337C676.433 63.0713 677.469 61.9311 678.693 60.4917C680.928 57.8635 680.929 57.8632 682.474 58.6655C683.678 59.2914 684.031 59.5661 684.076 59.9136C684.131 60.331 684.191 60.3506 685.03 60.2212C685.523 60.1455 686.851 60.0091 687.979 59.9175C689.752 59.7736 690.124 59.6803 690.706 59.2427C691.077 58.9638 691.451 58.736 691.537 58.7358C691.624 58.7364 692.128 58.9622 692.657 59.2378C693.445 59.648 693.679 59.6964 693.936 59.5034C694.108 59.3735 695.04 58.2829 696.006 57.0796C696.972 55.8765 698.542 53.8239 699.497 52.519C700.451 51.2155 701.359 50.0296 701.516 49.8814C701.757 49.6533 702 49.7194 703.226 50.3501C704.011 50.754 704.762 51.2017 704.895 51.3452C705.097 51.5665 705.021 51.9635 704.396 53.939C703.991 55.2218 703.318 57.3806 702.901 58.7358C702.485 60.0905 702.143 61.3124 702.142 61.4517C702.14 61.6414 702.27 61.6269 702.673 61.3901C703.183 61.0904 703.26 61.1032 704.481 61.6812C705.324 62.0798 706.052 62.2847 706.622 62.2847C707.099 62.2843 708.722 62.0094 710.231 61.6743C711.742 61.339 713.681 61.0192 714.539 60.9624C716.086 60.8603 716.114 60.8659 717.657 61.6782C718.513 62.1287 719.39 62.6871 719.607 62.9185C719.823 63.1494 720.001 63.4781 720 63.6489C719.999 63.8203 719.812 64.4156 719.584 64.9712C719.357 65.5265 719.089 66.0381 718.989 66.1089C718.889 66.1779 718.22 65.9048 717.503 65.5015C716.198 64.7673 716.197 64.7668 714.935 64.9917C714.24 65.1155 712.813 65.4035 711.764 65.6313C710.715 65.8589 709.233 66.0604 708.47 66.0796C707.288 66.109 706.931 66.0352 706.063 65.5796C705.506 65.2867 705.017 65.0464 704.975 65.0444C704.934 65.0462 704.119 65.8879 703.163 66.9165C702.207 67.9453 701.245 68.8397 701.024 68.9038C700.752 68.9817 700.128 68.7332 699.063 68.1255C698.206 67.6357 697.455 67.0896 697.394 66.9116C697.334 66.7343 697.285 66.3078 697.286 65.9644C697.288 65.6205 697.511 64.3863 697.782 63.2212C698.052 62.063 698.244 61.1143 698.211 61.1021C698.169 61.1077 697.323 61.9825 696.325 63.0513C695.325 64.1238 694.219 65.157 693.868 65.3462C693.231 65.6896 693.23 65.6892 691.485 64.7144C689.741 63.7395 689.741 63.7393 687.747 63.9829C686.65 64.1169 685.362 64.2326 684.885 64.2397C684.306 64.2483 683.71 64.0889 683.091 63.7612C682.581 63.4917 682.063 63.2706 681.939 63.27C681.816 63.2704 680.131 65.2002 678.195 67.5581C676.259 69.916 673.851 72.8025 672.844 73.9722C671.837 75.1414 670.715 76.3323 670.352 76.6187C669.691 77.1394 669.691 77.1397 668.141 76.2759C666.845 75.5539 666.59 75.3356 666.59 74.9487C666.59 74.6936 666.903 73.7956 667.284 72.9536C667.665 72.1126 667.977 71.3613 667.978 71.2837C667.979 71.2049 668.342 70.4147 668.784 69.5249C669.228 68.6329 669.956 67.1931 670.402 66.3257C670.849 65.4582 671.669 63.861 672.226 62.7769C672.782 61.693 673.424 60.4652 673.654 60.0483C673.883 59.6335 674.033 59.249 673.986 59.1919C673.938 59.1376 672.82 60.0627 671.502 61.2476C670.184 62.4327 668.198 64.1732 667.089 65.1157C665.348 66.5956 665.031 66.9523 664.771 67.7261C664.606 68.2181 664.366 68.6668 664.236 68.7241C664.107 68.7805 663.179 68.3809 662.175 67.8354C661.172 67.2906 660.35 66.7571 660.348 66.6499C660.348 66.5434 660.495 66.0723 660.676 65.603C660.856 65.1335 661.149 64.6133 661.326 64.4478C661.504 64.2815 663.132 62.8689 664.943 61.3081C666.755 59.747 669.018 57.7589 669.972 56.8901C670.925 56.0215 673.033 54.0471 674.654 52.5024C676.276 50.9577 678.324 48.9797 679.206 48.1079Z" fill="currentColor"/>
<path d="M714.475 50.0474C714.702 49.9818 715.235 50.0808 715.666 50.27C716.095 50.4582 716.786 50.7683 717.201 50.9585C717.925 51.2897 717.954 51.3322 717.86 51.9849C717.807 52.3592 717.641 52.8785 717.491 53.1382C717.31 53.4523 717.053 53.6098 716.726 53.6099C716.454 53.6094 715.657 53.3399 714.954 53.0103C714.251 52.6808 713.613 52.3398 713.535 52.2524C713.459 52.1655 713.546 51.6606 713.729 51.1304C713.965 50.4472 714.183 50.1318 714.475 50.0474Z" fill="currentColor"/>
<path d="M690.193 49.0767C690.372 49.0773 691.187 49.4533 692.005 49.9136C693.428 50.7146 693.49 50.776 693.396 51.3101C693.343 51.6174 693.136 52.1278 692.938 52.4439C692.741 52.7595 692.421 53.0173 692.228 53.0181C692.034 53.0181 691.219 52.6124 690.418 52.1157C689.617 51.6195 688.962 51.1268 688.961 51.021C688.961 50.9155 689.087 50.5462 689.242 50.1997C689.397 49.853 689.602 49.4587 689.697 49.3228C689.792 49.1873 690.016 49.0767 690.193 49.0767Z" fill="currentColor"/>
<path d="M657.507 0.000491499C657.604 0.0320323 658.33 0.315979 659.123 0.631351C660.531 1.19158 660.564 1.219 660.469 1.76319C660.415 2.06982 660.249 2.60209 660.1 2.9458C659.927 3.34277 658.868 4.39903 657.201 5.83838C655.757 7.08531 653.674 8.95404 652.572 9.99073C651.471 11.0271 650.207 12.3366 649.762 12.9009C648.953 13.9255 648.952 13.9257 647.448 13.3071C645.945 12.6886 645.944 12.6879 646.061 11.9741C646.125 11.5812 646.38 10.8372 646.626 10.3208C646.907 9.73082 647.652 8.81487 648.628 7.85694C649.483 7.01811 651.791 4.89373 653.758 3.13721C655.724 1.38097 657.411 -0.0302061 657.507 0.000491499Z" fill="currentColor"/>
</svg>
