<svg width="160" height="160" viewBox="0 0 160 160" fill="none" xmlns="http://www.w3.org/2000/svg">
<path d="M82.8558 18.3899C83.0369 18.3924 83.8921 19.1225 84.7558 20.0127C85.619 20.9022 86.3257 21.7409 86.3271 21.8774C86.3263 22.0141 85.9989 22.867 85.599 23.7731C85.1983 24.6806 83.8947 27.2495 82.7017 29.4823C81.5086 31.715 80.1421 34.2628 79.6641 35.1441C79.1862 36.0253 77.647 38.8535 76.244 41.4285C74.8409 44.0036 72.6469 48.0511 71.3687 50.4229C70.0905 52.7947 68.3826 55.955 67.5733 57.446C66.7644 58.9368 65.837 60.656 65.5127 61.2659C65.1878 61.8766 62.8546 66.2567 60.3272 70.9999C55.7324 79.6238 55.7316 79.6249 55.8512 80.8567C55.9929 82.3159 55.1296 84.2658 57.1559 85.3435C59.1832 86.4189 66.3345 74.0071 68.2819 73.0412C71.2435 71.5725 72.0972 70.6623 74.6774 68.4656C75.8099 67.5016 77.8585 65.6382 79.2295 64.3245C80.6005 63.0105 82.8933 60.6092 84.324 58.9885C85.7545 57.3679 87.4127 55.3053 88.0088 54.4053C88.6049 53.5055 89.1906 52.7673 89.3098 52.7646C90.2032 52.743 92.5157 53.7169 93.1478 54.4355C93.2614 54.5664 93.1206 55.2264 92.8042 56.0395C92.5081 56.8005 91.7361 58.1752 91.0891 59.0943C90.4422 60.0138 89.2308 61.9304 88.397 63.3534C87.5632 64.7766 86.0229 67.6049 84.974 69.6378C83.925 71.671 82.0074 75.6751 80.7125 78.5359C79.4174 81.3968 77.9085 84.9452 77.3593 86.4213C76.81 87.8974 76.1258 89.882 75.8391 90.8307C75.5521 91.7793 75.1786 93.0821 75.0089 93.7258C74.8395 94.3693 74.7844 94.8958 74.8863 94.8962C74.9892 94.8945 75.5788 94.1634 76.1966 93.2696C76.8152 92.3746 77.9105 90.5721 78.6306 89.2645C79.3468 87.9636 79.9522 86.8713 79.9808 86.8275C80.0033 86.7945 80.8833 87.0974 81.9355 87.5019C82.9875 87.9061 83.886 88.2801 83.9321 88.3322C83.9763 88.3881 83.767 89.1771 83.465 90.0892C83.1624 91.0036 82.5583 92.4195 82.1222 93.2356C81.686 94.0518 80.6284 95.7853 79.7718 97.0876C78.9152 98.39 77.6627 100.042 76.9897 100.76C76.3166 101.478 75.4216 102.23 74.9996 102.43C74.277 102.773 74.1162 102.751 72.2332 102.042C71.1189 101.622 70.0678 101.063 69.855 100.776C69.6014 100.433 69.475 99.8431 69.4752 98.9966C69.4752 98.3003 69.619 96.9539 69.7937 96.0051C69.9686 95.0565 70.4446 93.2271 70.8514 91.9396C71.8162 88.8863 72.8259 85.859 73.9437 82.8725C74.4661 81.4778 75.5812 78.7198 76.4213 76.744C77.2583 74.7753 77.9002 73.1137 77.8523 73.0412C77.7988 72.9805 76.5649 73.8376 75.1101 74.9464C70.4341 78.5096 60.6384 93.7405 55.8512 91.9462C54.1084 91.2925 52.5509 89.8696 52.2806 87.5019C48.6813 87.5359 41.2761 109.019 40.3069 112.277C39.6407 114.516 29.9384 143.238 29.3434 145.406C28.7487 147.575 27.9277 150.846 27.5187 152.676C27.1099 154.506 26.6548 156.89 26.5074 157.974C26.3598 159.058 26.2202 159.968 26.1972 159.996C26.1713 160.024 25.1987 159.885 24.0345 159.686C22.8699 159.487 21.8378 159.379 21.738 159.447C21.6409 159.515 20.8675 158.841 20.02 157.949C18.7336 156.595 18.4793 156.198 18.4813 155.548C18.4826 155.121 18.623 154.175 18.7933 153.447C18.9639 152.719 19.5163 151 20.0209 149.627C23.9863 138.845 26.5069 131.381 32.3968 116.687C34.6055 111.177 37.2736 105.784 39.0764 100.078C39.4617 98.8581 40.6868 95.1987 41.7992 91.9462C42.9117 88.6936 44.2027 84.9783 44.6677 83.6905C45.133 82.4027 46.2974 79.2982 47.2558 76.7912C48.2145 74.284 49.7899 70.2421 50.7558 67.8091C51.7189 65.3835 52.5072 63.3631 52.5118 63.3109C52.5125 63.2704 52.6145 63.2373 52.7394 63.2372C52.8659 63.2379 53.8409 63.584 54.9068 64.0071C56.7287 64.7303 56.8476 64.8197 56.8476 65.4712C56.8477 65.8528 56.9377 66.2293 57.0482 66.3072C57.1613 66.3799 58.1208 64.8073 59.1822 62.8093C60.2452 60.8082 61.829 57.8406 62.7017 56.2142C63.5746 54.5878 65.6527 50.7615 67.3198 47.7119C68.9867 44.6629 70.7324 41.4476 71.1987 40.5661C71.6647 39.6852 72.6275 37.9109 73.3374 36.6234C74.0474 35.3359 75.0255 33.5248 75.5113 32.5994C75.9959 31.6764 76.3472 30.8682 76.2932 30.8009C76.2373 30.7371 76.057 30.8293 75.893 31.0049C75.7288 31.181 75.01 31.878 74.2957 32.5541C73.5813 33.2303 72.889 33.8963 72.7579 34.0333C72.6259 34.1709 71.5587 35.2252 70.3861 36.3768C69.2134 37.5289 67.321 39.4004 66.1813 40.5359C65.0414 41.6711 63.7672 42.9472 63.3499 43.3715C62.9323 43.7963 61.5185 45.1958 60.2074 46.4821C58.8963 47.7686 56.9871 49.6529 55.9654 50.6695C54.9439 51.6859 53.2858 53.3123 52.2806 54.2835C51.2755 55.2546 49.4619 56.9738 48.2513 58.1034C47.0407 59.233 45.0902 60.9991 43.9164 62.0282C42.7427 63.0573 41.0016 64.5137 40.0478 65.2643C39.0942 66.015 37.7227 66.9655 37 67.3774C36.2774 67.7891 35.3399 68.1996 34.9171 68.2899C34.1949 68.4438 34.0445 68.3482 32.3968 66.6869C31.2247 65.5051 30.5999 64.6845 30.507 64.2064C30.4277 63.7964 30.5233 62.887 30.7318 62.0707C30.9315 61.2889 31.5411 59.5407 32.0866 58.1856C32.6319 56.8303 33.7096 54.391 34.4806 52.7646C35.2514 51.1382 37.1009 47.3678 38.5898 44.386C40.0786 41.4045 41.6116 38.3544 41.997 37.6086C42.3821 36.8632 43.092 35.4763 43.5738 34.5264C44.0554 33.5762 44.7616 32.1521 45.1432 31.362C45.6882 30.2327 45.7501 29.9798 45.4348 30.1794C45.2141 30.3193 44.5318 30.8564 43.9183 31.3724C43.3049 31.8888 40.2912 34.4727 37.222 37.1155C34.1523 39.7585 31.3864 42.1393 31.0753 42.4052C30.763 42.6724 28.1679 44.9339 25.3076 47.4323C22.4465 49.9314 19.4719 52.5477 18.6967 53.2463C17.9218 53.9447 15.1036 56.5065 12.434 58.9384C9.76455 61.3707 7.27652 63.6328 6.90586 63.9655C6.53524 64.2984 5.45104 65.3681 4.49699 66.3431C2.76235 68.1158 2.76201 68.116 1.19197 66.4781C-0.378855 64.8395 -0.378929 64.8392 1.08425 63.1144C1.88865 62.166 2.89238 61.0477 3.31485 60.6292C3.7371 60.2111 4.71333 59.268 5.48414 58.5341C6.25473 57.8003 7.37297 56.7561 7.96821 56.2142C8.56315 55.6723 9.24508 55.0463 9.48374 54.8219C9.72215 54.5977 10.6975 53.7158 11.6512 52.8628C12.6049 52.0099 14.5563 50.258 15.9869 48.9701C17.4174 47.6822 19.1246 46.1547 19.7804 45.5753C20.4361 44.9962 22.728 42.9901 24.874 41.1187C27.0195 39.2477 29.0307 37.4991 29.3434 37.2317C29.6554 36.9648 32.4235 34.584 35.4938 31.941C38.5642 29.2981 42.4058 26.0207 44.0307 24.6582C45.6552 23.2959 47.6538 21.6603 48.4723 21.0234C49.2911 20.3867 50.1734 19.8663 50.4327 19.8663C50.7111 19.8675 51.5497 20.5371 52.4775 21.4995C53.9443 23.0214 54.0415 23.1846 53.9048 23.9016C53.824 24.3251 53.3817 25.5242 52.9223 26.5663C52.4623 27.609 50.1687 32.2663 47.8251 36.9162C45.4813 41.5661 42.4992 47.5333 41.1984 50.1764C39.8973 52.8193 38.2477 56.3522 37.5331 58.0269C36.8185 59.7013 36.2626 61.1708 36.2979 61.2923C36.3356 61.4117 37.1448 60.9295 38.0977 60.2193C39.0521 59.5076 41.0525 57.8439 42.5421 56.5231C44.0316 55.2023 45.752 53.6501 46.3653 53.0734C46.9785 52.4968 48.0028 51.5409 48.6413 50.95C49.2798 50.3591 50.2898 49.3996 50.8858 48.8171C51.4819 48.2346 52.7614 46.9871 53.7284 46.0447C54.6953 45.1025 55.6796 44.1217 55.9153 43.8656C56.1513 43.6094 57.2558 42.5126 58.3706 41.4285C59.4855 40.3443 60.5535 39.2903 60.7442 39.0869C60.9347 38.8836 61.4772 38.3421 61.9495 37.8835C62.4217 37.4246 63.3898 36.4824 64.1003 35.7893C64.811 35.0959 66.3229 33.5861 67.46 32.4341C68.5972 31.2822 70.1003 29.7851 70.8003 29.1073C71.5002 28.4296 72.4861 27.4866 72.991 27.0122C73.496 26.5378 75.3137 24.811 77.0296 23.1752C78.7457 21.5398 80.6852 19.7938 81.3394 19.2948C81.9928 18.7965 82.6746 18.3891 82.8558 18.3899Z" fill="currentColor"/>
<path d="M109.008 60.1352C111.014 58.1543 111.014 58.1547 112.693 59.0225C113.616 59.5 114.507 60.0416 114.671 60.2259C114.922 60.5095 114.87 60.7818 114.334 61.9998C113.985 62.792 112.446 65.7129 110.914 68.4911C109.383 71.2695 107.962 73.8758 107.756 74.2824C107.55 74.6893 106.932 75.8457 106.383 76.8526C105.833 77.8593 105.426 78.7319 105.478 78.7918C105.536 78.8442 106.834 77.4169 108.367 75.6142C111.161 72.3289 111.161 72.3292 113.092 73.3321C114.598 74.1144 115.038 74.4572 115.095 74.8916C115.163 75.4138 115.238 75.4388 116.287 75.277C116.904 75.1824 118.563 75.0109 119.974 74.8963C122.19 74.7165 122.655 74.6009 123.383 74.0538C123.846 73.7052 124.314 73.4201 124.421 73.4199C124.53 73.4206 125.16 73.7026 125.822 74.0471C126.807 74.5599 127.099 74.621 127.42 74.3796C127.636 74.2172 128.8 72.8535 130.007 71.3494C131.214 69.8455 133.178 67.2799 134.372 65.6488C135.565 64.0184 136.7 62.5352 136.895 62.3512C137.197 62.0661 137.501 62.1492 139.032 62.9378C140.014 63.4429 140.953 64.0027 141.118 64.1818C141.372 64.4584 141.277 64.9543 140.496 67.4237C139.989 69.0272 139.147 71.7259 138.627 73.4199C138.106 75.114 137.679 76.6418 137.678 76.8148C137.676 77.052 137.837 77.0333 138.341 76.7373C138.978 76.3626 139.075 76.3785 140.602 77.101C141.655 77.5994 142.564 77.8557 143.277 77.8557C143.872 77.8555 145.902 77.5124 147.789 77.0935C149.677 76.6743 152.101 76.2737 153.174 76.2027C155.107 76.0751 155.142 76.0827 157.071 77.0982C158.142 77.6615 159.239 78.3592 159.51 78.6483C159.78 78.9372 160.001 79.3483 160 79.5617C159.999 79.7759 159.764 80.5193 159.48 81.2138C159.195 81.9087 158.86 82.549 158.736 82.6363C158.611 82.7226 157.775 82.3811 156.879 81.8769C155.247 80.959 155.246 80.9591 153.669 81.2402C152.801 81.395 151.017 81.7545 149.705 82.0393C148.394 82.3239 146.541 82.5755 145.587 82.5995C144.109 82.6362 143.664 82.5437 142.58 81.9742C141.883 81.6081 141.272 81.3078 141.218 81.3054C141.169 81.3054 140.15 82.3588 138.954 83.6461C137.758 84.9327 136.555 86.0502 136.28 86.1294C135.94 86.2267 135.16 85.9171 133.829 85.1574C132.757 84.545 131.818 83.8618 131.742 83.6395C131.667 83.4179 131.607 82.8852 131.608 82.4559C131.61 82.0266 131.889 80.4831 132.228 79.0261C132.567 77.5736 132.807 76.385 132.763 76.3775C132.711 76.3845 131.653 77.4784 130.406 78.8145C129.156 80.1552 127.773 81.4458 127.335 81.6823C126.539 82.1117 126.538 82.1114 124.357 80.8926C122.176 79.6738 122.176 79.6737 119.683 79.9782C118.313 80.1458 116.703 80.2905 116.106 80.2994C115.383 80.3102 114.638 80.1112 113.864 79.7015C113.227 79.3645 112.579 79.0882 112.424 79.0875C112.27 79.0875 110.164 81.4995 107.744 84.4471C105.324 87.3949 102.313 91.0039 101.054 92.4657C99.7953 93.9274 98.3937 95.4159 97.9396 95.7737C97.1141 96.4246 97.1136 96.4247 95.176 95.3449C93.5566 94.4423 93.2383 94.1698 93.2379 93.6861C93.2379 93.3675 93.6284 92.2444 94.1053 91.1915C94.5813 90.1403 94.9705 89.202 94.9717 89.1049C94.973 89.008 95.4265 88.0192 95.9802 86.9059C96.5346 85.7909 97.4448 83.9917 98.0027 82.9074C98.5607 81.8232 99.5862 79.827 100.282 78.4716C100.977 77.1166 101.781 75.5818 102.068 75.0607C102.355 74.5411 102.541 74.0594 102.482 73.9895C102.422 73.9216 101.024 75.0786 99.3771 76.5598C97.7292 78.0413 95.247 80.217 93.861 81.3951C91.685 83.2451 91.2895 83.6905 90.9646 84.6577C90.7577 85.2733 90.4566 85.8347 90.2951 85.9056C90.1336 85.976 88.9739 85.4757 87.7181 84.7938C86.464 84.1127 85.4377 83.4466 85.4346 83.3127C85.4346 83.1801 85.6193 82.5906 85.8451 82.0034C86.0709 81.4165 86.4363 80.7671 86.6577 80.5601C86.879 80.3534 88.9139 78.5871 91.1791 76.6353C93.4443 74.6837 96.2729 72.198 97.465 71.1123C98.6573 70.0265 101.291 67.5589 103.317 65.628C105.344 63.697 107.905 61.2249 109.008 60.1352Z" fill="currentColor"/>
<path d="M153.093 62.559C153.377 62.4769 154.043 62.601 154.582 62.8377C155.119 63.073 155.983 63.4605 156.502 63.6982C157.407 64.1122 157.442 64.1652 157.326 64.981C157.259 65.4489 157.051 66.0978 156.864 66.4224C156.637 66.8152 156.317 67.0127 155.908 67.0128C155.569 67.0125 154.572 66.675 153.693 66.2628C152.814 65.8508 152.016 65.4245 151.919 65.3153C151.823 65.2067 151.933 64.5754 152.161 63.9126C152.456 63.0586 152.728 62.6645 153.093 62.559Z" fill="currentColor"/>
<path d="M122.741 61.3452C122.964 61.3457 123.983 61.8163 125.006 62.3918C126.786 63.3931 126.862 63.4699 126.746 64.1374C126.678 64.5217 126.421 65.1601 126.174 65.5553C125.926 65.9501 125.526 66.2726 125.284 66.2732C125.042 66.2732 124.025 65.7652 123.023 65.1444C122.022 64.5241 121.203 63.9089 121.201 63.7766C121.201 63.6452 121.359 63.1833 121.553 62.7498C121.746 62.3165 122.002 61.8231 122.121 61.6532C122.24 61.4839 122.519 61.3453 122.741 61.3452Z" fill="currentColor"/>
<path d="M81.8835 0.000615254C82.0046 0.0400471 82.9134 0.395064 83.9042 0.789349C85.6646 1.48976 85.7052 1.52377 85.586 2.20435C85.5187 2.58774 85.3114 3.253 85.1245 3.68263C84.9083 4.17884 83.5857 5.4984 81.5019 7.29759C79.6967 8.85625 77.0923 11.1921 75.7156 12.4881C74.3389 13.7841 72.7576 15.4217 72.2016 16.1267C71.1911 17.4075 71.1901 17.4072 69.3108 16.6339C67.4311 15.8606 67.4308 15.8601 67.5761 14.9677C67.6564 14.4766 67.9739 13.5465 68.2819 12.9009C68.6335 12.1634 69.5639 11.0181 70.7845 9.82059C71.8536 8.77204 74.7396 6.11729 77.1977 3.92161C79.6552 1.72629 81.7638 -0.0377857 81.8835 0.000615254Z" fill="currentColor"/>
</svg>
