<svg width="532" height="71" viewBox="0 0 532 71" fill="none" xmlns="http://www.w3.org/2000/svg">
<path fill-rule="evenodd" clip-rule="evenodd" d="M94.9141 0C104.875 0 109.758 5.46875 109.758 16.5527V53.7109C109.758 64.7461 104.875 70.2148 94.9141 70.2148C85.0508 70.2148 80.168 64.7461 80.168 53.7109V16.5527C80.168 5.46875 85.0508 0 94.9141 0ZM94.9629 7.66602C91.6426 7.66602 90.0312 10.2051 90.0312 15.5273V54.8828C90.0312 60.0586 91.6426 62.5488 94.9629 62.5488C98.2832 62.5488 99.8457 60.0586 99.8457 54.8828V15.5273C99.8457 10.2051 98.2832 7.66602 94.9629 7.66602Z" fill="currentColor"/>
<path d="M282.83 0C292.156 0 297.137 4.88281 297.137 16.2109V25.4883L287.518 27.1973V16.748C287.518 9.7168 285.955 7.51953 282.928 7.51953C279.803 7.51953 278.289 10.0098 278.289 15.2344V54.834C278.289 60.0586 279.803 62.5488 282.977 62.5488C285.906 62.5488 287.615 60.2539 287.615 53.0273V41.2598L297.332 43.1641V53.8574C297.332 65.332 292.107 70.2148 282.83 70.2148C273.064 70.2148 268.426 64.7461 268.426 53.7598V16.5039C268.426 5.46875 273.113 0 282.83 0Z" fill="currentColor"/>
<path fill-rule="evenodd" clip-rule="evenodd" d="M472.504 0C482.465 0 487.348 5.46875 487.348 16.5527V53.7109C487.348 64.7461 482.465 70.2148 472.504 70.2148C462.641 70.2148 457.758 64.7461 457.758 53.7109V16.5527C457.758 5.46875 462.641 0 472.504 0ZM472.553 7.66602C469.232 7.66602 467.621 10.2051 467.621 15.5273V54.8828C467.621 60.0586 469.232 62.5488 472.553 62.5488C475.873 62.5488 477.436 60.0586 477.436 54.8828V15.5273C477.436 10.2051 475.873 7.66602 472.553 7.66602Z" fill="currentColor"/>
<path fill-rule="evenodd" clip-rule="evenodd" d="M31.8359 69.2871H21.6309L20.4102 58.1543H11.2793L10.0098 69.2871H0.488281L9.7168 0.927734H22.3633L31.8359 69.2871ZM15.332 14.6973C14.9902 23.0957 14.5508 28.2715 14.0137 33.6914L12.1094 51.1719H19.5312L17.6758 33.6914C17.1387 28.2715 16.6992 23.0957 16.3574 14.6973H15.332Z" fill="currentColor"/>
<path d="M59.6152 37.9395C60.3965 41.6504 61.2754 46.6309 62.2031 53.1738L63.2285 53.0762C62.4473 43.9453 61.8125 33.5449 61.8125 25.6348L61.7637 0.927734H71.4316V69.2871H59.1758L50.9238 32.5195C50.0938 28.6621 49.3613 24.5117 48.2383 16.5527L47.2129 16.6504C47.8477 24.6582 48.5801 37.5977 48.5801 45.752L48.6289 69.2871H39.0098V0.927734H51.5098L59.6152 37.9395Z" fill="currentColor"/>
<path d="M143.738 8.98438H134.705V69.2871H124.891V8.98438H115.809V0.927734H143.738V8.98438Z" fill="currentColor"/>
<path d="M160.629 29.1016H169.369V0.927734H179.184V69.2871H169.369V36.9141H160.629V69.2871H150.814V0.927734H160.629V29.1016Z" fill="currentColor"/>
<path d="M210.332 8.98438H198.223V29.4434H209.062V36.8652H198.223V61.2305H210.967V69.2871H188.408V0.927734H210.332V8.98438Z" fill="currentColor"/>
<path fill-rule="evenodd" clip-rule="evenodd" d="M232.984 0.927734C242.066 0.927734 246.559 5.51758 246.559 14.7461V21.2891C246.559 28.125 243.824 32.1289 238.502 33.252V34.082C242.848 35.2051 244.459 37.3047 245.191 46.0938L245.875 54.834C246.559 63.623 247.193 66.6992 248.658 68.2617L248.512 69.2871H237.867C236.988 66.4062 236.549 63.1836 236.061 55.0781L235.621 46.9238C235.133 38.7695 234.059 37.4023 230.689 37.4023H228.688V69.2871H218.873V0.927734H232.984ZM228.688 29.834H231.959C235.279 29.834 236.744 28.125 236.744 23.9746V14.5996C236.744 10.3027 235.279 8.64258 231.959 8.64258H228.688V29.834Z" fill="currentColor"/>
<path fill-rule="evenodd" clip-rule="evenodd" d="M319.887 0.927734C328.969 0.927734 333.461 5.51758 333.461 14.7461V21.2891C333.461 28.125 330.727 32.1289 325.404 33.252V34.082C329.75 35.2051 331.361 37.3047 332.094 46.0938L332.777 54.834C333.461 63.623 334.096 66.6992 335.561 68.2617L335.414 69.2871H324.77C323.891 66.4062 323.451 63.1836 322.963 55.0781L322.523 46.9238C322.035 38.7695 320.961 37.4023 317.592 37.4023H315.59V69.2871H305.775V0.927734H319.887ZM315.59 29.834H318.861C322.182 29.834 323.646 28.125 323.646 23.9746V14.5996C323.646 10.3027 322.182 8.64258 318.861 8.64258H315.59V29.834Z" fill="currentColor"/>
<path d="M364.512 8.98438H352.402V29.4434H363.242V36.8652H352.402V61.2305H365.146V69.2871H342.588V0.927734H364.512V8.98438Z" fill="currentColor"/>
<path fill-rule="evenodd" clip-rule="evenodd" d="M402.301 69.2871H392.096L390.875 58.1543H381.744L380.475 69.2871H370.953L380.182 0.927734H392.828L402.301 69.2871ZM385.797 14.6973C385.455 23.0957 385.016 28.2715 384.479 33.6914L382.574 51.1719H389.996L388.141 33.6914C387.604 28.2715 387.164 23.0957 386.822 14.6973H385.797Z" fill="currentColor"/>
<path d="M432.082 8.98438H423.049V69.2871H413.234V8.98438H404.152V0.927734H432.082V8.98438Z" fill="currentColor"/>
<path d="M448.973 69.2871H439.158V0.927734H448.973V69.2871Z" fill="currentColor"/>
<path d="M516.689 37.9395C517.471 41.6504 518.35 46.6309 519.277 53.1738L520.303 53.0762C519.521 43.9453 518.887 33.5449 518.887 25.6348L518.838 0.927734H528.506V69.2871H516.25L507.998 32.5195C507.168 28.6621 506.436 24.5117 505.312 16.5527L504.287 16.6504C504.922 24.6582 505.654 37.5977 505.654 45.752L505.703 69.2871H496.084V0.927734H508.584L516.689 37.9395Z" fill="currentColor"/>
</svg>
