<svg width="24" height="24" viewBox="0 0 24 24" fill="none" xmlns="http://www.w3.org/2000/svg">
<path d="M12 6.4502C12.4142 6.4502 12.75 6.78598 12.75 7.2002V11.5361L15.5352 12.9297C15.9056 13.1149 16.0562 13.5651 15.8711 13.9355C15.6859 14.306 15.2347 14.4567 14.8643 14.2715L11.665 12.6709C11.411 12.5439 11.25 12.2841 11.25 12V7.2002C11.25 6.78598 11.5858 6.4502 12 6.4502Z" fill="currentColor"/>
<path fill-rule="evenodd" clip-rule="evenodd" d="M12 3.25C16.8325 3.25 20.75 7.16751 20.75 12C20.75 16.8325 16.8325 20.75 12 20.75C7.16751 20.75 3.25 16.8325 3.25 12C3.25 7.16751 7.16751 3.25 12 3.25ZM12 4.75C7.99594 4.75 4.75 7.99594 4.75 12C4.75 16.0041 7.99594 19.25 12 19.25C16.0041 19.25 19.25 16.0041 19.25 12C19.25 7.99594 16.0041 4.75 12 4.75Z" fill="currentColor"/>
</svg>
