<svg width="24" height="24" viewBox="0 0 24 24" fill="none" xmlns="http://www.w3.org/2000/svg">
<path d="M14.4697 9.46973C14.7626 9.17683 15.2374 9.17683 15.5303 9.46973C15.8232 9.76262 15.8232 10.2374 15.5303 10.5303L12.5303 13.5303C12.2374 13.8232 11.7626 13.8232 11.4697 13.5303C11.1768 13.2374 11.1768 12.7626 11.4697 12.4697L14.4697 9.46973Z" fill="currentColor"/>
<path fill-rule="evenodd" clip-rule="evenodd" d="M12 4.25C14.0691 4.25 16.0618 4.98379 17.6328 6.30566L18.4697 5.46973C18.7626 5.17683 19.2374 5.17683 19.5303 5.46973C19.8232 5.76262 19.8232 6.23738 19.5303 6.53027L18.6934 7.36621C20.0158 8.93737 20.75 10.9305 20.75 13C20.75 14.1491 20.5237 15.287 20.084 16.3486C19.6443 17.4102 19 18.375 18.1875 19.1875C17.375 20 16.4102 20.6443 15.3486 21.084C14.287 21.5237 13.1491 21.75 12 21.75C10.8509 21.75 9.71297 21.5237 8.65137 21.084C7.58981 20.6443 6.62498 20 5.8125 19.1875C5.00002 18.375 4.35574 17.4102 3.91602 16.3486C3.47629 15.287 3.25 14.1491 3.25 13C3.25 10.6794 4.17156 8.45344 5.8125 6.8125C7.45344 5.17156 9.67936 4.25 12 4.25ZM12 5.75C10.0772 5.75 8.23269 6.51341 6.87305 7.87305C5.51341 9.23269 4.75 11.0772 4.75 13C4.75 13.9521 4.93743 14.8948 5.30176 15.7744C5.6661 16.654 6.19982 17.4537 6.87305 18.127C7.54627 18.8002 8.34598 19.3339 9.22559 19.6982C10.1052 20.0626 11.0479 20.25 12 20.25C12.9521 20.25 13.8948 20.0626 14.7744 19.6982C15.654 19.3339 16.4537 18.8002 17.127 18.127C17.8002 17.4537 18.3339 16.654 18.6982 15.7744C19.0626 14.8948 19.25 13.9521 19.25 13C19.25 11.0772 18.4866 9.23269 17.127 7.87305C15.7673 6.51341 13.9228 5.75 12 5.75Z" fill="currentColor"/>
<path d="M14 1.25C14.4142 1.25 14.75 1.58579 14.75 2C14.75 2.41421 14.4142 2.75 14 2.75H10C9.58579 2.75 9.25 2.41421 9.25 2C9.25 1.58579 9.58579 1.25 10 1.25H14Z" fill="#currentColor"/>
</svg>
