<svg width="24" height="24" viewBox="0 0 24 24" fill="none" xmlns="http://www.w3.org/2000/svg">
<path d="M11 2H13V4H15C16.6569 4 18 5.34315 18 7V9H16V7C16 6.44772 15.5523 6 15 6H9C8.44772 6 8 6.44772 8 7C8 7.55228 8.44772 8 9 8H15C16.6569 8 18 9.34315 18 11C18 12.6569 16.6569 14 15 14H13V22H11V14H9C7.34315 14 6 12.6569 6 11V9H8V11C8 11.5523 8.44772 12 9 12H15C15.5523 12 16 11.5523 16 11C16 10.4477 15.5523 10 15 10H9C7.34315 10 6 8.65685 6 7C6 5.34315 7.34315 4 9 4H11V2Z" fill="currentColor"/>
</svg>
