<svg width="24" height="24" viewBox="0 0 24 24" fill="none" xmlns="http://www.w3.org/2000/svg">
<path d="M12 5C12 3.89543 12.8954 3 14 3C15.1046 3 16 3.89543 16 5C16 5.26522 15.9483 5.51957 15.8549 5.75272C16.0837 5.58254 16.3627 5.5 16.6667 5.5C17.5871 5.5 18.3333 6.24619 18.3333 7.16667C18.3333 7.70833 18.0667 8.18056 17.6611 8.45833H20V13H13V8H11V13H4V8H6.33889C5.93333 7.71667 5.66667 7.24167 5.66667 6.7C5.66667 5.76111 6.42778 5 7.36667 5C7.65278 5 7.91667 5.07222 8.14167 5.2C8.05 4.97222 8 4.72778 8 4.5C8 3.67157 8.67157 3 9.5 3C10.3284 3 11 3.67157 11 4.5V5H12ZM11 15V22H4V15H11ZM13 15H20V22H13V15Z" fill="currentColor"/>
</svg>
