<svg width="24" height="24" viewBox="0 0 24 24" fill="none" xmlns="http://www.w3.org/2000/svg">
<path d="M7 18C5.9 18 5.01 18.9 5.01 20C5.01 21.1 5.9 22 7 22C8.1 22 9 21.1 9 20C9 18.9 8.1 18 7 18ZM17 18C15.9 18 15.01 18.9 15.01 20C15.01 21.1 15.9 22 17 22C18.1 22 19 21.1 19 20C19 18.9 18.1 18 17 18ZM7.17 14L7.2 13.93L8.1 12H15.55C16.3 12 16.96 11.59 17.3 10.97L21.16 4.48L19.42 3.5L15.55 10H8.53L8.4 9.73L5.16 3H2V5H4L7.6 11.59L6.25 14.03C5.52 15.37 6.48 17 8 17H19V15H8L7.17 14ZM8.1 12H15.55L15.55 12L8.1 12Z" fill="currentColor"/>
</svg>
