<svg width="24" height="24" viewBox="0 0 24 24" fill="none" xmlns="http://www.w3.org/2000/svg">
<path d="M12 7C9.24 7 7 9.24 7 12C7 14.76 9.24 17 12 17C14.76 17 17 14.76 17 12C17 9.24 14.76 7 12 7ZM12 15C10.34 15 9 13.66 9 12C9 10.34 10.34 9 12 9C13.66 9 15 10.34 15 12C15 13.66 13.66 15 12 15ZM11 2H13V5H11V2ZM11 19H13V22H11V19ZM3.5 4.93L4.93 3.5L7.05 5.62L5.62 7.05L3.5 4.93ZM16.95 18.38L18.38 16.95L20.5 19.07L19.07 20.5L16.95 18.38ZM19.07 3.5L20.5 4.93L18.38 7.05L16.95 5.62L19.07 3.5ZM5.62 16.95L7.05 18.38L4.93 20.5L3.5 19.07L5.62 16.95ZM2 11H5V13H2V11ZM19 11H22V13H19V11Z" fill="currentColor"/>
</svg>
