<svg xmlns="http://www.w3.org/2000/svg" width="24" height="24" fill="currentColor" viewBox="0 0 24 24">
  <path fill="currentColor" d="M2.292 2.293a1 1 0 0 1 1.414 0l3.04 3.04A10.956 10.956 0 0 1 12 4c4.927 0 9.095 3.238 10.496 7.7.061.195.061.405 0 .6a11.01 11.01 0 0 1-3.553 5.228l2.764 2.765a1 1 0 0 1-1.414 1.414l-18-18a1 1 0 0 1 0-1.414Zm.93 6.075a1 1 0 0 1 1.595 1.206 8.98 8.98 0 0 0-1.305 2.427 9.004 9.004 0 0 0 10.176 5.84 1 1 0 0 1 .372 1.965c-.669.127-1.357.194-2.06.194-4.928 0-9.096-3.238-10.497-7.7a1.001 1.001 0 0 1 0-.6 10.97 10.97 0 0 1 1.72-3.332ZM14 12a2 2 0 0 0-2.517-1.93l2.447 2.445c.044-.164.07-.336.07-.515Zm2 0c0 .741-.204 1.435-.556 2.03l2.078 2.077a9.02 9.02 0 0 0 2.965-4.11A9.004 9.004 0 0 0 12 6c-1.345 0-2.62.293-3.765.821l1.733 1.733A4 4 0 0 1 15.999 12Z"/>
</svg>
